{
	"asset":{
		"generator":"Khronos glTF Blender I/O v3.5.30",
		"version":"2.0"
	},
	"scene":0,
	"scenes":[
		{
			"name":"Scene",
			"nodes":[
				0,
				1,
				2,
				3,
				4,
				5
			]
		}
	],
	"nodes":[
		{
			"mesh":0,
			"name":"Cylinder.001",
			"scale":[
				0.7034764885902405,
				0.014173208735883236,
				0.7034764885902405
			],
			"translation":[
				-0.0005440711975097656,
				0.4335050880908966,
				0.012632172554731369
			]
		},
		{
			"name":"Empty",
			"rotation":[
				0.70710688829422,
				0,
				0,
				0.7071066498756409
			],
			"scale":[
				0.5819147229194641,
				0.5819147229194641,
				0.5819147229194641
			],
			"translation":[
				0,
				1.5871671438217163,
				0
			]
		},
		{
			"name":"Empty.001",
			"rotation":[
				0.70710688829422,
				0,
				0,
				0.7071066498756409
			],
			"scale":[
				0.5948858857154846,
				0.5948858857154846,
				0.5948858857154846
			],
			"translation":[
				0,
				1.6008833646774292,
				0
			]
		},
		{
			"name":"Empty.002",
			"rotation":[
				0.70710688829422,
				0,
				0,
				0.7071066498756409
			],
			"scale":[
				0.4783916473388672,
				0.4783916473388672,
				0.4783916473388672
			],
			"translation":[
				0,
				1.2716792821884155,
				0
			]
		},
		{
			"name":"Empty.003",
			"rotation":[
				0.70710688829422,
				0,
				0,
				0.7071066498756409
			],
			"scale":[
				0.4717816412448883,
				0.4717816412448883,
				0.4717816412448883
			],
			"translation":[
				0,
				1.2783995866775513,
				0
			]
		},
		{
			"mesh":1,
			"name":"Cylinder.005",
			"scale":[
				0.014500312507152557,
				0.014500312507152557,
				0.014500312507152557
			],
			"translation":[
				0.051092926412820816,
				0.47196605801582336,
				0
			]
		}
	],
	"materials":[
		{
			"doubleSided":true,
			"name":"launchfloor",
			"pbrMetallicRoughness":{
				"baseColorFactor":[
					0.28100714087486267,
					0.28100714087486267,
					0.28100714087486267,
					1
				],
				"metallicFactor":0,
				"roughnessFactor":0.5
			}
		},
		{
			"doubleSided":true,
			"name":"landingpad",
			"pbrMetallicRoughness":{
				"baseColorFactor":[
					0.4292215406894684,
					0.4292215406894684,
					0.4292215406894684,
					1
				],
				"metallicFactor":0,
				"roughnessFactor":0.5
			}
		},
		{
			"doubleSided":true,
			"name":"padborder",
			"pbrMetallicRoughness":{
				"baseColorFactor":[
					0.9403864741325378,
					0.9403864741325378,
					0.9403864741325378,
					1
				],
				"metallicFactor":0,
				"roughnessFactor":0.5
			}
		},
		{
			"doubleSided":true,
			"name":"grass",
			"pbrMetallicRoughness":{
				"baseColorFactor":[
					0.2018764466047287,
					0.04889674484729767,
					0.02974248304963112,
					1
				],
				"metallicFactor":0,
				"roughnessFactor":0.5
			}
		},
		{
			"doubleSided":true,
			"name":"dirt",
			"pbrMetallicRoughness":{
				"baseColorFactor":[
					0.08000966161489487,
					0.04727604612708092,
					0.014354920946061611,
					1
				],
				"metallicFactor":0,
				"roughnessFactor":0.5
			}
		},
		{
			"doubleSided":true,
			"name":"top",
			"pbrMetallicRoughness":{
				"baseColorFactor":[
					0.3915722668170929,
					0.3864292800426483,
					0.11443547904491425,
					1
				],
				"metallicFactor":0,
				"roughnessFactor":0.5
			}
		},
		{
			"doubleSided":true,
			"name":"concrete",
			"pbrMetallicRoughness":{
				"baseColorFactor":[
					0.06071816012263298,
					0.06071816012263298,
					0.06071816012263298,
					1
				],
				"metallicFactor":0,
				"roughnessFactor":0.5
			}
		},
		{
			"doubleSided":true,
			"name":"border",
			"pbrMetallicRoughness":{
				"baseColorFactor":[
					0.698187530040741,
					0.698187530040741,
					0.698187530040741,
					1
				],
				"metallicFactor":0,
				"roughnessFactor":0.5
			}
		},
		{
			"doubleSided":true,
			"name":"Material",
			"pbrMetallicRoughness":{
				"baseColorTexture":{
					"index":0
				},
				"metallicFactor":0,
				"roughnessFactor":0.5
			}
		}
	],
	"meshes":[
		{
			"name":"Cylinder.003",
			"primitives":[
				{
					"attributes":{
						"POSITION":0,
						"TEXCOORD_0":1,
						"NORMAL":2
					},
					"indices":3,
					"material":0
				},
				{
					"attributes":{
						"POSITION":4,
						"TEXCOORD_0":5,
						"NORMAL":6
					},
					"indices":7,
					"material":1
				},
				{
					"attributes":{
						"POSITION":8,
						"TEXCOORD_0":9,
						"NORMAL":10
					},
					"indices":11,
					"material":2
				},
				{
					"attributes":{
						"POSITION":12,
						"TEXCOORD_0":13,
						"NORMAL":14
					},
					"indices":15,
					"material":3
				},
				{
					"attributes":{
						"POSITION":16,
						"TEXCOORD_0":17,
						"NORMAL":18
					},
					"indices":19,
					"material":4
				},
				{
					"attributes":{
						"POSITION":20,
						"TEXCOORD_0":21,
						"NORMAL":22
					},
					"indices":23,
					"material":5
				},
				{
					"attributes":{
						"POSITION":24,
						"TEXCOORD_0":25,
						"NORMAL":26
					},
					"indices":27,
					"material":6
				},
				{
					"attributes":{
						"POSITION":28,
						"TEXCOORD_0":29,
						"NORMAL":30
					},
					"indices":31,
					"material":7
				}
			]
		},
		{
			"name":"Cylinder.005",
			"primitives":[
				{
					"attributes":{
						"POSITION":32,
						"TEXCOORD_0":33,
						"NORMAL":34
					},
					"indices":35,
					"material":8
				}
			]
		}
	],
	"textures":[
		{
			"sampler":0,
			"source":0
		}
	],
	"images":[
		{
			"bufferView":36,
			"mimeType":"image/png",
			"name":"Alpha-Only-Cutout-5.4.2023b"
		}
	],
	"accessors":[
		{
			"bufferView":0,
			"componentType":5126,
			"count":59,
			"max":[
				0.9749279022216797,
				0.6685290336608887,
				0.9009688496589661
			],
			"min":[
				-0.9749279022216797,
				-1.3314709663391113,
				-1
			],
			"type":"VEC3"
		},
		{
			"bufferView":1,
			"componentType":5126,
			"count":59,
			"type":"VEC2"
		},
		{
			"bufferView":2,
			"componentType":5126,
			"count":59,
			"type":"VEC3"
		},
		{
			"bufferView":3,
			"componentType":5123,
			"count":93,
			"type":"SCALAR"
		},
		{
			"bufferView":4,
			"componentType":5126,
			"count":7,
			"max":[
				0.9305989742279053,
				-0.005587100982666016,
				0.8600028157234192
			],
			"min":[
				-0.93059903383255,
				-0.005587100982666016,
				-0.9545311331748962
			],
			"type":"VEC3"
		},
		{
			"bufferView":5,
			"componentType":5126,
			"count":7,
			"type":"VEC2"
		},
		{
			"bufferView":6,
			"componentType":5126,
			"count":7,
			"type":"VEC3"
		},
		{
			"bufferView":7,
			"componentType":5123,
			"count":15,
			"type":"SCALAR"
		},
		{
			"bufferView":8,
			"componentType":5126,
			"count":18,
			"max":[
				0.9749279022216797,
				0.6685290336608887,
				0.9009688496589661
			],
			"min":[
				-0.9749279022216797,
				-0.005587100982666016,
				-1
			],
			"type":"VEC3"
		},
		{
			"bufferView":9,
			"componentType":5126,
			"count":18,
			"type":"VEC2"
		},
		{
			"bufferView":10,
			"componentType":5126,
			"count":18,
			"type":"VEC3"
		},
		{
			"bufferView":11,
			"componentType":5123,
			"count":48,
			"type":"SCALAR"
		},
		{
			"bufferView":12,
			"componentType":5126,
			"count":176,
			"max":[
				5.610724925994873,
				-4.057764053344727,
				4.864363670349121
			],
			"min":[
				-5.8486785888671875,
				-35.53102111816406,
				-5.337103366851807
			],
			"type":"VEC3"
		},
		{
			"bufferView":13,
			"componentType":5126,
			"count":176,
			"type":"VEC2"
		},
		{
			"bufferView":14,
			"componentType":5126,
			"count":176,
			"type":"VEC3"
		},
		{
			"bufferView":15,
			"componentType":5123,
			"count":264,
			"type":"SCALAR"
		},
		{
			"bufferView":16,
			"componentType":5126,
			"count":320,
			"max":[
				5.423568248748779,
				-35.5310173034668,
				4.701854228973389
			],
			"min":[
				-5.653772830963135,
				-64.82886505126953,
				-5.159491062164307
			],
			"type":"VEC3"
		},
		{
			"bufferView":17,
			"componentType":5126,
			"count":320,
			"type":"VEC2"
		},
		{
			"bufferView":18,
			"componentType":5126,
			"count":320,
			"type":"VEC3"
		},
		{
			"bufferView":19,
			"componentType":5123,
			"count":990,
			"type":"SCALAR"
		},
		{
			"bufferView":20,
			"componentType":5126,
			"count":144,
			"max":[
				5.610724925994873,
				-4.057764053344727,
				4.864363670349121
			],
			"min":[
				-5.8486785888671875,
				-4.057771682739258,
				-5.337103366851807
			],
			"type":"VEC3"
		},
		{
			"bufferView":21,
			"componentType":5126,
			"count":144,
			"type":"VEC2"
		},
		{
			"bufferView":22,
			"componentType":5126,
			"count":144,
			"type":"VEC3"
		},
		{
			"bufferView":23,
			"componentType":5123,
			"count":726,
			"type":"SCALAR"
		},
		{
			"bufferView":24,
			"componentType":5126,
			"count":70,
			"max":[
				2.050567865371704,
				3.7954559326171875,
				1.873186469078064
			],
			"min":[
				-2.0449841022491455,
				-5.382540702819824,
				-2.2253921031951904
			],
			"type":"VEC3"
		},
		{
			"bufferView":25,
			"componentType":5126,
			"count":70,
			"type":"VEC2"
		},
		{
			"bufferView":26,
			"componentType":5126,
			"count":70,
			"type":"VEC3"
		},
		{
			"bufferView":27,
			"componentType":5123,
			"count":114,
			"type":"SCALAR"
		},
		{
			"bufferView":28,
			"componentType":5126,
			"count":14,
			"max":[
				2.050567865371704,
				3.7954559326171875,
				1.873186469078064
			],
			"min":[
				-2.0449841022491455,
				3.7954559326171875,
				-2.2253921031951904
			],
			"type":"VEC3"
		},
		{
			"bufferView":29,
			"componentType":5126,
			"count":14,
			"type":"VEC2"
		},
		{
			"bufferView":30,
			"componentType":5126,
			"count":14,
			"type":"VEC3"
		},
		{
			"bufferView":31,
			"componentType":5123,
			"count":42,
			"type":"SCALAR"
		},
		{
			"bufferView":32,
			"componentType":5126,
			"count":2304,
			"max":[
				2.306954860687256,
				157.7960205078125,
				5.8305277824401855
			],
			"min":[
				-9.354101181030273,
				-1.1829304695129395,
				-5.8305277824401855
			],
			"type":"VEC3"
		},
		{
			"bufferView":33,
			"componentType":5126,
			"count":2304,
			"type":"VEC2"
		},
		{
			"bufferView":34,
			"componentType":5126,
			"count":2304,
			"type":"VEC3"
		},
		{
			"bufferView":35,
			"componentType":5123,
			"count":3792,
			"type":"SCALAR"
		}
	],
	"bufferViews":[
		{
			"buffer":0,
			"byteLength":708,
			"byteOffset":0,
			"target":34962
		},
		{
			"buffer":0,
			"byteLength":472,
			"byteOffset":708,
			"target":34962
		},
		{
			"buffer":0,
			"byteLength":708,
			"byteOffset":1180,
			"target":34962
		},
		{
			"buffer":0,
			"byteLength":186,
			"byteOffset":1888,
			"target":34963
		},
		{
			"buffer":0,
			"byteLength":84,
			"byteOffset":2076,
			"target":34962
		},
		{
			"buffer":0,
			"byteLength":56,
			"byteOffset":2160,
			"target":34962
		},
		{
			"buffer":0,
			"byteLength":84,
			"byteOffset":2216,
			"target":34962
		},
		{
			"buffer":0,
			"byteLength":30,
			"byteOffset":2300,
			"target":34963
		},
		{
			"buffer":0,
			"byteLength":216,
			"byteOffset":2332,
			"target":34962
		},
		{
			"buffer":0,
			"byteLength":144,
			"byteOffset":2548,
			"target":34962
		},
		{
			"buffer":0,
			"byteLength":216,
			"byteOffset":2692,
			"target":34962
		},
		{
			"buffer":0,
			"byteLength":96,
			"byteOffset":2908,
			"target":34963
		},
		{
			"buffer":0,
			"byteLength":2112,
			"byteOffset":3004,
			"target":34962
		},
		{
			"buffer":0,
			"byteLength":1408,
			"byteOffset":5116,
			"target":34962
		},
		{
			"buffer":0,
			"byteLength":2112,
			"byteOffset":6524,
			"target":34962
		},
		{
			"buffer":0,
			"byteLength":528,
			"byteOffset":8636,
			"target":34963
		},
		{
			"buffer":0,
			"byteLength":3840,
			"byteOffset":9164,
			"target":34962
		},
		{
			"buffer":0,
			"byteLength":2560,
			"byteOffset":13004,
			"target":34962
		},
		{
			"buffer":0,
			"byteLength":3840,
			"byteOffset":15564,
			"target":34962
		},
		{
			"buffer":0,
			"byteLength":1980,
			"byteOffset":19404,
			"target":34963
		},
		{
			"buffer":0,
			"byteLength":1728,
			"byteOffset":21384,
			"target":34962
		},
		{
			"buffer":0,
			"byteLength":1152,
			"byteOffset":23112,
			"target":34962
		},
		{
			"buffer":0,
			"byteLength":1728,
			"byteOffset":24264,
			"target":34962
		},
		{
			"buffer":0,
			"byteLength":1452,
			"byteOffset":25992,
			"target":34963
		},
		{
			"buffer":0,
			"byteLength":840,
			"byteOffset":27444,
			"target":34962
		},
		{
			"buffer":0,
			"byteLength":560,
			"byteOffset":28284,
			"target":34962
		},
		{
			"buffer":0,
			"byteLength":840,
			"byteOffset":28844,
			"target":34962
		},
		{
			"buffer":0,
			"byteLength":228,
			"byteOffset":29684,
			"target":34963
		},
		{
			"buffer":0,
			"byteLength":168,
			"byteOffset":29912,
			"target":34962
		},
		{
			"buffer":0,
			"byteLength":112,
			"byteOffset":30080,
			"target":34962
		},
		{
			"buffer":0,
			"byteLength":168,
			"byteOffset":30192,
			"target":34962
		},
		{
			"buffer":0,
			"byteLength":84,
			"byteOffset":30360,
			"target":34963
		},
		{
			"buffer":0,
			"byteLength":27648,
			"byteOffset":30444,
			"target":34962
		},
		{
			"buffer":0,
			"byteLength":18432,
			"byteOffset":58092,
			"target":34962
		},
		{
			"buffer":0,
			"byteLength":27648,
			"byteOffset":76524,
			"target":34962
		},
		{
			"buffer":0,
			"byteLength":7584,
			"byteOffset":104172,
			"target":34963
		},
		{
			"buffer":0,
			"byteLength":337553,
			"byteOffset":111756
		}
	],
	"samplers":[
		{
			"magFilter":9729,
			"minFilter":9987
		}
	],
	"buffers":[
		{
			"byteLength":449312,
			"uri":"data:application/octet-stream;base64,"
		}
	]
}
