{
	"asset":{
		"generator":"Khronos glTF Blender I/O v3.5.30",
		"version":"2.0"
	},
	"scene":0,
	"scenes":[
		{
			"name":"Scene",
			"nodes":[
				0,
				1,
				4,
				5
			]
		}
	],
	"nodes":[
		{
			"mesh":0,
			"name":"Plane",
			"scale":[
				-2.8566555976867676,
				-3.3316128253936768,
				-2.7866504192352295
			],
			"translation":[
				-0.005180589854717255,
				-0.3919771611690521,
				0.006616394966840744
			]
		},
		{
			"mesh":1,
			"name":"Cylinder.001",
			"scale":[
				0.7034764885902405,
				0.014173208735883236,
				0.7034764885902405
			],
			"translation":[
				0.00396133866161108,
				0.09354051947593689,
				-0.02220088057219982
			]
		},
		{
			"mesh":2,
			"name":"Fire",
			"rotation":[
				0,
				-0.9848078489303589,
				0,
				0.17364823818206787
			],
			"scale":[
				4.054863929748535,
				2.597553253173828,
				4.054863929748535
			],
			"translation":[
				0,
				-22.859228134155273,
				0
			]
		},
		{
			"mesh":3,
			"name":"Smoke",
			"rotation":[
				0,
				-0.9848078489303589,
				0,
				0.17364823818206787
			],
			"scale":[
				4.203678607940674,
				2.6928842067718506,
				4.203678607940674
			],
			"translation":[
				0,
				-22.702058792114258,
				0
			]
		},
		{
			"children":[
				2,
				3
			],
			"mesh":4,
			"name":"Cylinder.052",
			"rotation":[
				0,
				0.9848078489303589,
				0,
				0.17364823818206787
			],
			"scale":[
				0.02853480912744999,
				0.04454375058412552,
				0.02853480912744999
			],
			"translation":[
				0,
				1.1126420497894287,
				0
			]
		},
		{
			"mesh":5,
			"name":"ground",
			"scale":[
				1.4776090383529663,
				1.4776090383529663,
				1.4776090383529663
			],
			"translation":[
				0.005924947559833527,
				0.02195066213607788,
				-0.0009047985076904297
			]
		}
	],
	"animations":[
		{
			"channels":[
				{
					"sampler":0,
					"target":{
						"node":0,
						"path":"translation"
					}
				},
				{
					"sampler":1,
					"target":{
						"node":0,
						"path":"rotation"
					}
				},
				{
					"sampler":2,
					"target":{
						"node":0,
						"path":"scale"
					}
				}
			],
			"name":"Plane",
			"samplers":[
				{
					"input":43,
					"interpolation":"LINEAR",
					"output":44
				},
				{
					"input":43,
					"interpolation":"LINEAR",
					"output":45
				},
				{
					"input":43,
					"interpolation":"LINEAR",
					"output":46
				}
			]
		},
		{
			"channels":[
				{
					"sampler":0,
					"target":{
						"node":1,
						"path":"translation"
					}
				},
				{
					"sampler":1,
					"target":{
						"node":1,
						"path":"rotation"
					}
				},
				{
					"sampler":2,
					"target":{
						"node":1,
						"path":"scale"
					}
				}
			],
			"name":"Cylinder.001",
			"samplers":[
				{
					"input":43,
					"interpolation":"LINEAR",
					"output":47
				},
				{
					"input":43,
					"interpolation":"LINEAR",
					"output":48
				},
				{
					"input":43,
					"interpolation":"LINEAR",
					"output":49
				}
			]
		},
		{
			"channels":[
				{
					"sampler":0,
					"target":{
						"node":4,
						"path":"translation"
					}
				}
			],
			"name":"Cylinder.052Action",
			"samplers":[
				{
					"input":43,
					"interpolation":"LINEAR",
					"output":50
				}
			]
		},
		{
			"channels":[
				{
					"sampler":0,
					"target":{
						"node":2,
						"path":"translation"
					}
				},
				{
					"sampler":1,
					"target":{
						"node":2,
						"path":"rotation"
					}
				},
				{
					"sampler":2,
					"target":{
						"node":2,
						"path":"scale"
					}
				}
			],
			"name":"Fire",
			"samplers":[
				{
					"input":43,
					"interpolation":"LINEAR",
					"output":51
				},
				{
					"input":43,
					"interpolation":"LINEAR",
					"output":52
				},
				{
					"input":43,
					"interpolation":"LINEAR",
					"output":53
				}
			]
		},
		{
			"channels":[
				{
					"sampler":0,
					"target":{
						"node":5,
						"path":"translation"
					}
				},
				{
					"sampler":1,
					"target":{
						"node":5,
						"path":"rotation"
					}
				},
				{
					"sampler":2,
					"target":{
						"node":5,
						"path":"scale"
					}
				}
			],
			"name":"ground",
			"samplers":[
				{
					"input":43,
					"interpolation":"LINEAR",
					"output":54
				},
				{
					"input":43,
					"interpolation":"LINEAR",
					"output":55
				},
				{
					"input":43,
					"interpolation":"LINEAR",
					"output":56
				}
			]
		}
	],
	"materials":[
		{
			"doubleSided":true,
			"name":"grass",
			"pbrMetallicRoughness":{
				"baseColorFactor":[
					0.07910966128110886,
					0.3843688666820526,
					0.07261242717504501,
					1
				],
				"metallicFactor":0,
				"roughnessFactor":0.5
			}
		},
		{
			"doubleSided":true,
			"name":"dirt",
			"pbrMetallicRoughness":{
				"baseColorFactor":[
					0.08000966161489487,
					0.04727604612708092,
					0.014354920946061611,
					1
				],
				"metallicFactor":0,
				"roughnessFactor":0.5
			}
		},
		{
			"doubleSided":true,
			"name":"launchfloor",
			"pbrMetallicRoughness":{
				"baseColorFactor":[
					0.28100714087486267,
					0.28100714087486267,
					0.28100714087486267,
					1
				],
				"metallicFactor":0,
				"roughnessFactor":0.5
			}
		},
		{
			"doubleSided":true,
			"name":"landingpad",
			"pbrMetallicRoughness":{
				"baseColorFactor":[
					0.4292215406894684,
					0.4292215406894684,
					0.4292215406894684,
					1
				],
				"metallicFactor":0,
				"roughnessFactor":0.5
			}
		},
		{
			"doubleSided":true,
			"name":"padborder",
			"pbrMetallicRoughness":{
				"baseColorFactor":[
					0.9403864741325378,
					0.9403864741325378,
					0.9403864741325378,
					1
				],
				"metallicFactor":0,
				"roughnessFactor":0.5
			}
		},
		{
			"doubleSided":true,
			"name":"engine",
			"pbrMetallicRoughness":{
				"baseColorFactor":[
					0.025392649695277214,
					0.025392649695277214,
					0.025392649695277214,
					1
				],
				"metallicFactor":0,
				"roughnessFactor":0.5
			}
		},
		{
			"doubleSided":true,
			"name":"Material.003",
			"pbrMetallicRoughness":{
				"baseColorTexture":{
					"index":0
				},
				"metallicFactor":0,
				"roughnessFactor":0.5
			}
		},
		{
			"doubleSided":true,
			"name":"concrete",
			"pbrMetallicRoughness":{
				"baseColorFactor":[
					0.06071816012263298,
					0.06071816012263298,
					0.06071816012263298,
					1
				],
				"metallicFactor":0,
				"roughnessFactor":0.5
			}
		},
		{
			"doubleSided":true,
			"name":"border",
			"pbrMetallicRoughness":{
				"baseColorFactor":[
					0.698187530040741,
					0.698187530040741,
					0.698187530040741,
					1
				],
				"metallicFactor":0,
				"roughnessFactor":0.5
			}
		}
	],
	"meshes":[
		{
			"name":"Plane.001",
			"primitives":[
				{
					"attributes":{
						"POSITION":0,
						"TEXCOORD_0":1,
						"NORMAL":2
					},
					"indices":3,
					"material":0
				},
				{
					"attributes":{
						"POSITION":4,
						"TEXCOORD_0":5,
						"NORMAL":6
					},
					"indices":7,
					"material":1
				}
			]
		},
		{
			"name":"Cylinder.003",
			"primitives":[
				{
					"attributes":{
						"POSITION":8,
						"TEXCOORD_0":9,
						"NORMAL":10
					},
					"indices":11,
					"material":2
				},
				{
					"attributes":{
						"POSITION":12,
						"TEXCOORD_0":13,
						"NORMAL":14
					},
					"indices":15,
					"material":3
				},
				{
					"attributes":{
						"POSITION":16,
						"TEXCOORD_0":17,
						"NORMAL":18
					},
					"indices":19,
					"material":4
				}
			]
		},
		{
			"name":"Circle.003",
			"primitives":[
				{
					"attributes":{
						"POSITION":20,
						"TEXCOORD_0":21,
						"NORMAL":22
					},
					"indices":23
				}
			]
		},
		{
			"name":"Circle.004",
			"primitives":[
				{
					"attributes":{
						"POSITION":24,
						"TEXCOORD_0":25,
						"NORMAL":26
					},
					"indices":23
				}
			]
		},
		{
			"name":"Cylinder.001",
			"primitives":[
				{
					"attributes":{
						"POSITION":27,
						"TEXCOORD_0":28,
						"NORMAL":29
					},
					"indices":30,
					"material":5
				},
				{
					"attributes":{
						"POSITION":31,
						"TEXCOORD_0":32,
						"NORMAL":33
					},
					"indices":34,
					"material":6
				}
			]
		},
		{
			"name":"Circle.001",
			"primitives":[
				{
					"attributes":{
						"POSITION":35,
						"TEXCOORD_0":36,
						"NORMAL":37
					},
					"indices":38,
					"material":7
				},
				{
					"attributes":{
						"POSITION":39,
						"TEXCOORD_0":40,
						"NORMAL":41
					},
					"indices":42,
					"material":8
				}
			]
		}
	],
	"textures":[
		{
			"sampler":0,
			"source":0
		}
	],
	"images":[
		{
			"bufferView":35,
			"mimeType":"image/png",
			"name":"Screenshot 2023-07-30 at 7.52.00 pm"
		}
	],
	"accessors":[
		{
			"bufferView":0,
			"componentType":5126,
			"count":320,
			"max":[
				1.4370883703231812,
				0.00401393324136734,
				1.3451672792434692
			],
			"min":[
				-1.3848903179168701,
				-0.12987828254699707,
				-1.2301440238952637
			],
			"type":"VEC3"
		},
		{
			"bufferView":1,
			"componentType":5126,
			"count":320,
			"type":"VEC2"
		},
		{
			"bufferView":2,
			"componentType":5126,
			"count":320,
			"type":"VEC3"
		},
		{
			"bufferView":3,
			"componentType":5123,
			"count":990,
			"type":"SCALAR"
		},
		{
			"bufferView":4,
			"componentType":5126,
			"count":320,
			"max":[
				1.3890910148620605,
				0.12865158915519714,
				1.3003298044204712
			],
			"min":[
				-1.3388012647628784,
				0.004013918340206146,
				-1.1891192197799683
			],
			"type":"VEC3"
		},
		{
			"bufferView":5,
			"componentType":5126,
			"count":320,
			"type":"VEC2"
		},
		{
			"bufferView":6,
			"componentType":5126,
			"count":320,
			"type":"VEC3"
		},
		{
			"bufferView":7,
			"componentType":5123,
			"count":990,
			"type":"SCALAR"
		},
		{
			"bufferView":8,
			"componentType":5126,
			"count":59,
			"max":[
				0.9749279022216797,
				1,
				0.9504843950271606
			],
			"min":[
				-0.9749279022216797,
				-1,
				-0.9504843950271606
			],
			"type":"VEC3"
		},
		{
			"bufferView":9,
			"componentType":5126,
			"count":59,
			"type":"VEC2"
		},
		{
			"bufferView":10,
			"componentType":5126,
			"count":59,
			"type":"VEC3"
		},
		{
			"bufferView":11,
			"componentType":5123,
			"count":93,
			"type":"SCALAR"
		},
		{
			"bufferView":12,
			"componentType":5126,
			"count":7,
			"max":[
				0.9305989742279053,
				0.3258838653564453,
				0.9095183610916138
			],
			"min":[
				-0.93059903383255,
				0.3258838653564453,
				-0.9050155878067017
			],
			"type":"VEC3"
		},
		{
			"bufferView":13,
			"componentType":5126,
			"count":7,
			"type":"VEC2"
		},
		{
			"bufferView":14,
			"componentType":5126,
			"count":7,
			"type":"VEC3"
		},
		{
			"bufferView":15,
			"componentType":5123,
			"count":15,
			"type":"SCALAR"
		},
		{
			"bufferView":16,
			"componentType":5126,
			"count":18,
			"max":[
				0.9749279022216797,
				1,
				0.9504843950271606
			],
			"min":[
				-0.9749279022216797,
				0.3258838653564453,
				-0.9504843950271606
			],
			"type":"VEC3"
		},
		{
			"bufferView":17,
			"componentType":5126,
			"count":18,
			"type":"VEC2"
		},
		{
			"bufferView":18,
			"componentType":5126,
			"count":18,
			"type":"VEC3"
		},
		{
			"bufferView":19,
			"componentType":5123,
			"count":48,
			"type":"SCALAR"
		},
		{
			"bufferView":20,
			"componentType":5126,
			"count":32,
			"max":[
				1,
				0,
				1
			],
			"min":[
				-1,
				0,
				-1
			],
			"type":"VEC3"
		},
		{
			"bufferView":21,
			"componentType":5126,
			"count":32,
			"type":"VEC2"
		},
		{
			"bufferView":22,
			"componentType":5126,
			"count":32,
			"type":"VEC3"
		},
		{
			"bufferView":23,
			"componentType":5123,
			"count":90,
			"type":"SCALAR"
		},
		{
			"bufferView":24,
			"componentType":5126,
			"count":32,
			"max":[
				1,
				0,
				1
			],
			"min":[
				-1,
				0,
				-1
			],
			"type":"VEC3"
		},
		{
			"bufferView":25,
			"componentType":5126,
			"count":32,
			"type":"VEC2"
		},
		{
			"bufferView":26,
			"componentType":5126,
			"count":32,
			"type":"VEC3"
		},
		{
			"bufferView":27,
			"componentType":5126,
			"count":3744,
			"max":[
				4.1660003662109375,
				-20.99905014038086,
				4.222526550292969
			],
			"min":[
				-4.0478057861328125,
				-22.99905014038086,
				-4.110137939453125
			],
			"type":"VEC3"
		},
		{
			"bufferView":28,
			"componentType":5126,
			"count":3744,
			"type":"VEC2"
		},
		{
			"bufferView":29,
			"componentType":5126,
			"count":3744,
			"type":"VEC3"
		},
		{
			"bufferView":30,
			"componentType":5123,
			"count":5994,
			"type":"SCALAR"
		},
		{
			"bufferView":31,
			"componentType":5126,
			"count":1664,
			"max":[
				6.99609375,
				105.09548950195312,
				7.61651611328125
			],
			"min":[
				-7.0679779052734375,
				-21.065208435058594,
				-7.6317291259765625
			],
			"type":"VEC3"
		},
		{
			"bufferView":32,
			"componentType":5126,
			"count":1664,
			"type":"VEC2"
		},
		{
			"bufferView":33,
			"componentType":5126,
			"count":1664,
			"type":"VEC3"
		},
		{
			"bufferView":34,
			"componentType":5123,
			"count":2676,
			"type":"SCALAR"
		},
		{
			"bufferView":36,
			"componentType":5126,
			"count":70,
			"max":[
				0.9749279022216797,
				0.0880352333188057,
				0.9009688496589661
			],
			"min":[
				-0.9749279022216797,
				0,
				-1.0503278970718384
			],
			"type":"VEC3"
		},
		{
			"bufferView":37,
			"componentType":5126,
			"count":70,
			"type":"VEC2"
		},
		{
			"bufferView":38,
			"componentType":5126,
			"count":70,
			"type":"VEC3"
		},
		{
			"bufferView":39,
			"componentType":5123,
			"count":114,
			"type":"SCALAR"
		},
		{
			"bufferView":40,
			"componentType":5126,
			"count":14,
			"max":[
				0.9749279022216797,
				0.0880352333188057,
				0.9009688496589661
			],
			"min":[
				-0.9749279022216797,
				0.0880352333188057,
				-1.0503278970718384
			],
			"type":"VEC3"
		},
		{
			"bufferView":41,
			"componentType":5126,
			"count":14,
			"type":"VEC2"
		},
		{
			"bufferView":42,
			"componentType":5126,
			"count":14,
			"type":"VEC3"
		},
		{
			"bufferView":43,
			"componentType":5123,
			"count":42,
			"type":"SCALAR"
		},
		{
			"bufferView":44,
			"componentType":5126,
			"count":161,
			"max":[
				8.333333333333334
			],
			"min":[
				1.6666666666666667
			],
			"type":"SCALAR"
		},
		{
			"bufferView":45,
			"componentType":5126,
			"count":161,
			"type":"VEC3"
		},
		{
			"bufferView":46,
			"componentType":5126,
			"count":161,
			"type":"VEC4"
		},
		{
			"bufferView":47,
			"componentType":5126,
			"count":161,
			"type":"VEC3"
		},
		{
			"bufferView":48,
			"componentType":5126,
			"count":161,
			"type":"VEC3"
		},
		{
			"bufferView":49,
			"componentType":5126,
			"count":161,
			"type":"VEC4"
		},
		{
			"bufferView":50,
			"componentType":5126,
			"count":161,
			"type":"VEC3"
		},
		{
			"bufferView":51,
			"componentType":5126,
			"count":161,
			"type":"VEC3"
		},
		{
			"bufferView":52,
			"componentType":5126,
			"count":161,
			"type":"VEC3"
		},
		{
			"bufferView":53,
			"componentType":5126,
			"count":161,
			"type":"VEC4"
		},
		{
			"bufferView":54,
			"componentType":5126,
			"count":161,
			"type":"VEC3"
		},
		{
			"bufferView":55,
			"componentType":5126,
			"count":161,
			"type":"VEC3"
		},
		{
			"bufferView":56,
			"componentType":5126,
			"count":161,
			"type":"VEC4"
		},
		{
			"bufferView":57,
			"componentType":5126,
			"count":161,
			"type":"VEC3"
		}
	],
	"bufferViews":[
		{
			"buffer":0,
			"byteLength":3840,
			"byteOffset":0,
			"target":34962
		},
		{
			"buffer":0,
			"byteLength":2560,
			"byteOffset":3840,
			"target":34962
		},
		{
			"buffer":0,
			"byteLength":3840,
			"byteOffset":6400,
			"target":34962
		},
		{
			"buffer":0,
			"byteLength":1980,
			"byteOffset":10240,
			"target":34963
		},
		{
			"buffer":0,
			"byteLength":3840,
			"byteOffset":12220,
			"target":34962
		},
		{
			"buffer":0,
			"byteLength":2560,
			"byteOffset":16060,
			"target":34962
		},
		{
			"buffer":0,
			"byteLength":3840,
			"byteOffset":18620,
			"target":34962
		},
		{
			"buffer":0,
			"byteLength":1980,
			"byteOffset":22460,
			"target":34963
		},
		{
			"buffer":0,
			"byteLength":708,
			"byteOffset":24440,
			"target":34962
		},
		{
			"buffer":0,
			"byteLength":472,
			"byteOffset":25148,
			"target":34962
		},
		{
			"buffer":0,
			"byteLength":708,
			"byteOffset":25620,
			"target":34962
		},
		{
			"buffer":0,
			"byteLength":186,
			"byteOffset":26328,
			"target":34963
		},
		{
			"buffer":0,
			"byteLength":84,
			"byteOffset":26516,
			"target":34962
		},
		{
			"buffer":0,
			"byteLength":56,
			"byteOffset":26600,
			"target":34962
		},
		{
			"buffer":0,
			"byteLength":84,
			"byteOffset":26656,
			"target":34962
		},
		{
			"buffer":0,
			"byteLength":30,
			"byteOffset":26740,
			"target":34963
		},
		{
			"buffer":0,
			"byteLength":216,
			"byteOffset":26772,
			"target":34962
		},
		{
			"buffer":0,
			"byteLength":144,
			"byteOffset":26988,
			"target":34962
		},
		{
			"buffer":0,
			"byteLength":216,
			"byteOffset":27132,
			"target":34962
		},
		{
			"buffer":0,
			"byteLength":96,
			"byteOffset":27348,
			"target":34963
		},
		{
			"buffer":0,
			"byteLength":384,
			"byteOffset":27444,
			"target":34962
		},
		{
			"buffer":0,
			"byteLength":256,
			"byteOffset":27828,
			"target":34962
		},
		{
			"buffer":0,
			"byteLength":384,
			"byteOffset":28084,
			"target":34962
		},
		{
			"buffer":0,
			"byteLength":180,
			"byteOffset":28468,
			"target":34963
		},
		{
			"buffer":0,
			"byteLength":384,
			"byteOffset":28648,
			"target":34962
		},
		{
			"buffer":0,
			"byteLength":256,
			"byteOffset":29032,
			"target":34962
		},
		{
			"buffer":0,
			"byteLength":384,
			"byteOffset":29288,
			"target":34962
		},
		{
			"buffer":0,
			"byteLength":44928,
			"byteOffset":29672,
			"target":34962
		},
		{
			"buffer":0,
			"byteLength":29952,
			"byteOffset":74600,
			"target":34962
		},
		{
			"buffer":0,
			"byteLength":44928,
			"byteOffset":104552,
			"target":34962
		},
		{
			"buffer":0,
			"byteLength":11988,
			"byteOffset":149480,
			"target":34963
		},
		{
			"buffer":0,
			"byteLength":19968,
			"byteOffset":161468,
			"target":34962
		},
		{
			"buffer":0,
			"byteLength":13312,
			"byteOffset":181436,
			"target":34962
		},
		{
			"buffer":0,
			"byteLength":19968,
			"byteOffset":194748,
			"target":34962
		},
		{
			"buffer":0,
			"byteLength":5352,
			"byteOffset":214716,
			"target":34963
		},
		{
			"buffer":0,
			"byteLength":50860,
			"byteOffset":220068
		},
		{
			"buffer":0,
			"byteLength":840,
			"byteOffset":270928,
			"target":34962
		},
		{
			"buffer":0,
			"byteLength":560,
			"byteOffset":271768,
			"target":34962
		},
		{
			"buffer":0,
			"byteLength":840,
			"byteOffset":272328,
			"target":34962
		},
		{
			"buffer":0,
			"byteLength":228,
			"byteOffset":273168,
			"target":34963
		},
		{
			"buffer":0,
			"byteLength":168,
			"byteOffset":273396,
			"target":34962
		},
		{
			"buffer":0,
			"byteLength":112,
			"byteOffset":273564,
			"target":34962
		},
		{
			"buffer":0,
			"byteLength":168,
			"byteOffset":273676,
			"target":34962
		},
		{
			"buffer":0,
			"byteLength":84,
			"byteOffset":273844,
			"target":34963
		},
		{
			"buffer":0,
			"byteLength":644,
			"byteOffset":273928
		},
		{
			"buffer":0,
			"byteLength":1932,
			"byteOffset":274572
		},
		{
			"buffer":0,
			"byteLength":2576,
			"byteOffset":276504
		},
		{
			"buffer":0,
			"byteLength":1932,
			"byteOffset":279080
		},
		{
			"buffer":0,
			"byteLength":1932,
			"byteOffset":281012
		},
		{
			"buffer":0,
			"byteLength":2576,
			"byteOffset":282944
		},
		{
			"buffer":0,
			"byteLength":1932,
			"byteOffset":285520
		},
		{
			"buffer":0,
			"byteLength":1932,
			"byteOffset":287452
		},
		{
			"buffer":0,
			"byteLength":1932,
			"byteOffset":289384
		},
		{
			"buffer":0,
			"byteLength":2576,
			"byteOffset":291316
		},
		{
			"buffer":0,
			"byteLength":1932,
			"byteOffset":293892
		},
		{
			"buffer":0,
			"byteLength":1932,
			"byteOffset":295824
		},
		{
			"buffer":0,
			"byteLength":2576,
			"byteOffset":297756
		},
		{
			"buffer":0,
			"byteLength":1932,
			"byteOffset":300332
		}
	],
	"samplers":[
		{
			"magFilter":9729,
			"minFilter":9987
		}
	],
	"buffers":[
		{
			"byteLength":302264,
			"uri":"data:application/octet-stream;base64,"
		}
	]
}
