{
	"asset":{
		"generator":"Khronos glTF Blender I/O v3.5.30",
		"version":"2.0"
	},
	"scene":0,
	"scenes":[
		{
			"name":"Scene",
			"nodes":[
				0,
				1,
				2,
				3,
				4,
				5,
				6,
				7,
				8
			]
		}
	],
	"nodes":[
		{
			"mesh":0,
			"name":"Plane",
			"scale":[
				-2.8566555976867676,
				-3.3316128253936768,
				-2.7866504192352295
			],
			"translation":[
				-0.015545845031738281,
				-0.3919771611690521,
				0.006616394966840744
			]
		},
		{
			"mesh":1,
			"name":"Cylinder.001",
			"scale":[
				0.7034764885902405,
				0.014173208735883236,
				0.7034764885902405
			],
			"translation":[
				-0.006403923034667969,
				0.09823852777481079,
				0.012632172554731369
			]
		},
		{
			"mesh":2,
			"name":"Circle",
			"scale":[
				1.4776090383529663,
				1.4776090383529663,
				1.4776090383529663
			],
			"translation":[
				-0.004441261291503906,
				0.02195066213607788,
				-0.0009047985076904297
			]
		},
		{
			"name":"Empty",
			"rotation":[
				0.70710688829422,
				0,
				0,
				0.7071066498756409
			],
			"scale":[
				1.1881273984909058,
				1.1881273984909058,
				1.1881273984909058
			],
			"translation":[
				2.00240421295166,
				2.919109344482422,
				0
			]
		},
		{
			"name":"Empty.001",
			"rotation":[
				0.7071069478988647,
				0,
				0,
				0.7071066498756409
			],
			"scale":[
				1.2018104791641235,
				1.2018104791641235,
				1.2018104791641235
			],
			"translation":[
				0,
				2.923858642578125,
				0
			]
		},
		{
			"name":"Empty.003",
			"rotation":[
				0.70710688829422,
				0,
				0,
				0.7071066498756409
			],
			"scale":[
				1.1799962520599365,
				1.1799962520599365,
				1.1799962520599365
			],
			"translation":[
				-0.003917736001312733,
				2.9098458290100098,
				0
			]
		},
		{
			"name":"Empty.002",
			"rotation":[
				0.70710688829422,
				0,
				0,
				0.7071066498756409
			],
			"scale":[
				0.8351893424987793,
				0.8351893424987793,
				0.8351893424987793
			],
			"translation":[
				0,
				2.1409952640533447,
				0
			]
		},
		{
			"name":"Empty.004",
			"rotation":[
				0.70710688829422,
				0,
				0,
				0.7071066498756409
			],
			"scale":[
				1.026193380355835,
				1.026193380355835,
				1.026193380355835
			],
			"translation":[
				-0.0004075756296515465,
				2.6679627895355225,
				0
			]
		},
		{
			"mesh":3,
			"name":"Cylinder.006",
			"rotation":[
				0.5000000596046448,
				-0.5,
				-0.5,
				0.5
			],
			"scale":[
				0.008541642688214779,
				0.03901618719100952,
				0.008521693758666515
			]
		}
	],
	"materials":[
		{
			"doubleSided":true,
			"name":"grass",
			"pbrMetallicRoughness":{
				"baseColorFactor":[
					0.061782240867614746,
					0.1908992975950241,
					0.3736445903778076,
					1
				],
				"metallicFactor":0,
				"roughnessFactor":0.5
			}
		},
		{
			"doubleSided":true,
			"name":"dirt",
			"pbrMetallicRoughness":{
				"baseColorFactor":[
					0.08000966161489487,
					0.04727604612708092,
					0.014354920946061611,
					1
				],
				"metallicFactor":0,
				"roughnessFactor":0.5
			}
		},
		{
			"doubleSided":true,
			"name":"middle",
			"pbrMetallicRoughness":{
				"baseColorFactor":[
					0.07836022973060608,
					0.49258339405059814,
					0.8000000715255737,
					1
				],
				"metallicFactor":0,
				"roughnessFactor":0.5
			}
		},
		{
			"doubleSided":true,
			"name":"launchfloor",
			"pbrMetallicRoughness":{
				"baseColorFactor":[
					0.28100714087486267,
					0.28100714087486267,
					0.28100714087486267,
					1
				],
				"metallicFactor":0,
				"roughnessFactor":0.5
			}
		},
		{
			"doubleSided":true,
			"name":"landingpad",
			"pbrMetallicRoughness":{
				"baseColorFactor":[
					0.4292215406894684,
					0.4292215406894684,
					0.4292215406894684,
					1
				],
				"metallicFactor":0,
				"roughnessFactor":0.5
			}
		},
		{
			"doubleSided":true,
			"name":"padborder",
			"pbrMetallicRoughness":{
				"baseColorFactor":[
					0.9403864741325378,
					0.9403864741325378,
					0.9403864741325378,
					1
				],
				"metallicFactor":0,
				"roughnessFactor":0.5
			}
		},
		{
			"doubleSided":true,
			"name":"concrete",
			"pbrMetallicRoughness":{
				"baseColorFactor":[
					0.06071816012263298,
					0.06071816012263298,
					0.06071816012263298,
					1
				],
				"metallicFactor":0,
				"roughnessFactor":0.5
			}
		},
		{
			"doubleSided":true,
			"name":"border",
			"pbrMetallicRoughness":{
				"baseColorFactor":[
					0.698187530040741,
					0.698187530040741,
					0.698187530040741,
					1
				],
				"metallicFactor":0,
				"roughnessFactor":0.5
			}
		},
		{
			"doubleSided":true,
			"name":"Material",
			"pbrMetallicRoughness":{
				"baseColorTexture":{
					"index":0
				},
				"metallicFactor":0,
				"roughnessFactor":0.5
			}
		}
	],
	"meshes":[
		{
			"name":"Plane.001",
			"primitives":[
				{
					"attributes":{
						"POSITION":0,
						"TEXCOORD_0":1,
						"NORMAL":2
					},
					"indices":3,
					"material":0
				},
				{
					"attributes":{
						"POSITION":4,
						"TEXCOORD_0":5,
						"NORMAL":6
					},
					"indices":7,
					"material":1
				},
				{
					"attributes":{
						"POSITION":8,
						"TEXCOORD_0":9,
						"NORMAL":10
					},
					"indices":11,
					"material":2
				}
			]
		},
		{
			"name":"Cylinder.003",
			"primitives":[
				{
					"attributes":{
						"POSITION":12,
						"TEXCOORD_0":13,
						"NORMAL":14
					},
					"indices":15,
					"material":3
				},
				{
					"attributes":{
						"POSITION":16,
						"TEXCOORD_0":17,
						"NORMAL":18
					},
					"indices":19,
					"material":4
				},
				{
					"attributes":{
						"POSITION":20,
						"TEXCOORD_0":21,
						"NORMAL":22
					},
					"indices":23,
					"material":5
				}
			]
		},
		{
			"name":"Circle.001",
			"primitives":[
				{
					"attributes":{
						"POSITION":24,
						"TEXCOORD_0":25,
						"NORMAL":26
					},
					"indices":27,
					"material":6
				},
				{
					"attributes":{
						"POSITION":28,
						"TEXCOORD_0":29,
						"NORMAL":30
					},
					"indices":31,
					"material":7
				}
			]
		},
		{
			"name":"Cylinder.008",
			"primitives":[
				{
					"attributes":{
						"POSITION":32,
						"TEXCOORD_0":33,
						"NORMAL":34
					},
					"indices":35,
					"material":8
				}
			]
		}
	],
	"textures":[
		{
			"sampler":0,
			"source":0
		}
	],
	"images":[
		{
			"bufferView":36,
			"mimeType":"image/png",
			"name":"ariane6-4p.svg"
		}
	],
	"accessors":[
		{
			"bufferView":0,
			"componentType":5126,
			"count":144,
			"max":[
				1.4370883703231812,
				-0.12987825274467468,
				1.3451672792434692
			],
			"min":[
				-1.3848903179168701,
				-0.12987828254699707,
				-1.2301440238952637
			],
			"type":"VEC3"
		},
		{
			"bufferView":1,
			"componentType":5126,
			"count":144,
			"type":"VEC2"
		},
		{
			"bufferView":2,
			"componentType":5126,
			"count":144,
			"type":"VEC3"
		},
		{
			"bufferView":3,
			"componentType":5123,
			"count":726,
			"type":"SCALAR"
		},
		{
			"bufferView":4,
			"componentType":5126,
			"count":320,
			"max":[
				1.3890910148620605,
				0.12865158915519714,
				1.3003298044204712
			],
			"min":[
				-1.3388012647628784,
				0.004013918340206146,
				-1.1891192197799683
			],
			"type":"VEC3"
		},
		{
			"bufferView":5,
			"componentType":5126,
			"count":320,
			"type":"VEC2"
		},
		{
			"bufferView":6,
			"componentType":5126,
			"count":320,
			"type":"VEC3"
		},
		{
			"bufferView":7,
			"componentType":5123,
			"count":990,
			"type":"SCALAR"
		},
		{
			"bufferView":8,
			"componentType":5126,
			"count":176,
			"max":[
				1.4370883703231812,
				0.00401393324136734,
				1.3451672792434692
			],
			"min":[
				-1.3848903179168701,
				-0.12987828254699707,
				-1.2301440238952637
			],
			"type":"VEC3"
		},
		{
			"bufferView":9,
			"componentType":5126,
			"count":176,
			"type":"VEC2"
		},
		{
			"bufferView":10,
			"componentType":5126,
			"count":176,
			"type":"VEC3"
		},
		{
			"bufferView":11,
			"componentType":5123,
			"count":264,
			"type":"SCALAR"
		},
		{
			"bufferView":12,
			"componentType":5126,
			"count":59,
			"max":[
				0.9749279022216797,
				0.6685290336608887,
				0.9009688496589661
			],
			"min":[
				-0.9749279022216797,
				-1.3314709663391113,
				-1
			],
			"type":"VEC3"
		},
		{
			"bufferView":13,
			"componentType":5126,
			"count":59,
			"type":"VEC2"
		},
		{
			"bufferView":14,
			"componentType":5126,
			"count":59,
			"type":"VEC3"
		},
		{
			"bufferView":15,
			"componentType":5123,
			"count":93,
			"type":"SCALAR"
		},
		{
			"bufferView":16,
			"componentType":5126,
			"count":7,
			"max":[
				0.9305989742279053,
				-0.005587100982666016,
				0.8600028157234192
			],
			"min":[
				-0.93059903383255,
				-0.005587100982666016,
				-0.9545311331748962
			],
			"type":"VEC3"
		},
		{
			"bufferView":17,
			"componentType":5126,
			"count":7,
			"type":"VEC2"
		},
		{
			"bufferView":18,
			"componentType":5126,
			"count":7,
			"type":"VEC3"
		},
		{
			"bufferView":19,
			"componentType":5123,
			"count":15,
			"type":"SCALAR"
		},
		{
			"bufferView":20,
			"componentType":5126,
			"count":18,
			"max":[
				0.9749279022216797,
				0.6685290336608887,
				0.9009688496589661
			],
			"min":[
				-0.9749279022216797,
				-0.005587100982666016,
				-1
			],
			"type":"VEC3"
		},
		{
			"bufferView":21,
			"componentType":5126,
			"count":18,
			"type":"VEC2"
		},
		{
			"bufferView":22,
			"componentType":5126,
			"count":18,
			"type":"VEC3"
		},
		{
			"bufferView":23,
			"componentType":5123,
			"count":48,
			"type":"SCALAR"
		},
		{
			"bufferView":24,
			"componentType":5126,
			"count":70,
			"max":[
				0.9749279022216797,
				0.0880352333188057,
				0.9009688496589661
			],
			"min":[
				-0.9749279022216797,
				0,
				-1.0503278970718384
			],
			"type":"VEC3"
		},
		{
			"bufferView":25,
			"componentType":5126,
			"count":70,
			"type":"VEC2"
		},
		{
			"bufferView":26,
			"componentType":5126,
			"count":70,
			"type":"VEC3"
		},
		{
			"bufferView":27,
			"componentType":5123,
			"count":114,
			"type":"SCALAR"
		},
		{
			"bufferView":28,
			"componentType":5126,
			"count":14,
			"max":[
				0.9749279022216797,
				0.0880352333188057,
				0.9009688496589661
			],
			"min":[
				-0.9749279022216797,
				0.0880352333188057,
				-1.0503278970718384
			],
			"type":"VEC3"
		},
		{
			"bufferView":29,
			"componentType":5126,
			"count":14,
			"type":"VEC2"
		},
		{
			"bufferView":30,
			"componentType":5126,
			"count":14,
			"type":"VEC3"
		},
		{
			"bufferView":31,
			"componentType":5123,
			"count":42,
			"type":"SCALAR"
		},
		{
			"bufferView":32,
			"componentType":5126,
			"count":13632,
			"max":[
				-16.024169921875,
				13.500320434570312,
				61.81058883666992
			],
			"min":[
				-606.1358032226562,
				-13.500321388244629,
				-61.81060028076172
			],
			"type":"VEC3"
		},
		{
			"bufferView":33,
			"componentType":5126,
			"count":13632,
			"type":"VEC2"
		},
		{
			"bufferView":34,
			"componentType":5126,
			"count":13632,
			"type":"VEC3"
		},
		{
			"bufferView":35,
			"componentType":5123,
			"count":22884,
			"type":"SCALAR"
		}
	],
	"bufferViews":[
		{
			"buffer":0,
			"byteLength":1728,
			"byteOffset":0,
			"target":34962
		},
		{
			"buffer":0,
			"byteLength":1152,
			"byteOffset":1728,
			"target":34962
		},
		{
			"buffer":0,
			"byteLength":1728,
			"byteOffset":2880,
			"target":34962
		},
		{
			"buffer":0,
			"byteLength":1452,
			"byteOffset":4608,
			"target":34963
		},
		{
			"buffer":0,
			"byteLength":3840,
			"byteOffset":6060,
			"target":34962
		},
		{
			"buffer":0,
			"byteLength":2560,
			"byteOffset":9900,
			"target":34962
		},
		{
			"buffer":0,
			"byteLength":3840,
			"byteOffset":12460,
			"target":34962
		},
		{
			"buffer":0,
			"byteLength":1980,
			"byteOffset":16300,
			"target":34963
		},
		{
			"buffer":0,
			"byteLength":2112,
			"byteOffset":18280,
			"target":34962
		},
		{
			"buffer":0,
			"byteLength":1408,
			"byteOffset":20392,
			"target":34962
		},
		{
			"buffer":0,
			"byteLength":2112,
			"byteOffset":21800,
			"target":34962
		},
		{
			"buffer":0,
			"byteLength":528,
			"byteOffset":23912,
			"target":34963
		},
		{
			"buffer":0,
			"byteLength":708,
			"byteOffset":24440,
			"target":34962
		},
		{
			"buffer":0,
			"byteLength":472,
			"byteOffset":25148,
			"target":34962
		},
		{
			"buffer":0,
			"byteLength":708,
			"byteOffset":25620,
			"target":34962
		},
		{
			"buffer":0,
			"byteLength":186,
			"byteOffset":26328,
			"target":34963
		},
		{
			"buffer":0,
			"byteLength":84,
			"byteOffset":26516,
			"target":34962
		},
		{
			"buffer":0,
			"byteLength":56,
			"byteOffset":26600,
			"target":34962
		},
		{
			"buffer":0,
			"byteLength":84,
			"byteOffset":26656,
			"target":34962
		},
		{
			"buffer":0,
			"byteLength":30,
			"byteOffset":26740,
			"target":34963
		},
		{
			"buffer":0,
			"byteLength":216,
			"byteOffset":26772,
			"target":34962
		},
		{
			"buffer":0,
			"byteLength":144,
			"byteOffset":26988,
			"target":34962
		},
		{
			"buffer":0,
			"byteLength":216,
			"byteOffset":27132,
			"target":34962
		},
		{
			"buffer":0,
			"byteLength":96,
			"byteOffset":27348,
			"target":34963
		},
		{
			"buffer":0,
			"byteLength":840,
			"byteOffset":27444,
			"target":34962
		},
		{
			"buffer":0,
			"byteLength":560,
			"byteOffset":28284,
			"target":34962
		},
		{
			"buffer":0,
			"byteLength":840,
			"byteOffset":28844,
			"target":34962
		},
		{
			"buffer":0,
			"byteLength":228,
			"byteOffset":29684,
			"target":34963
		},
		{
			"buffer":0,
			"byteLength":168,
			"byteOffset":29912,
			"target":34962
		},
		{
			"buffer":0,
			"byteLength":112,
			"byteOffset":30080,
			"target":34962
		},
		{
			"buffer":0,
			"byteLength":168,
			"byteOffset":30192,
			"target":34962
		},
		{
			"buffer":0,
			"byteLength":84,
			"byteOffset":30360,
			"target":34963
		},
		{
			"buffer":0,
			"byteLength":163584,
			"byteOffset":30444,
			"target":34962
		},
		{
			"buffer":0,
			"byteLength":109056,
			"byteOffset":194028,
			"target":34962
		},
		{
			"buffer":0,
			"byteLength":163584,
			"byteOffset":303084,
			"target":34962
		},
		{
			"buffer":0,
			"byteLength":45768,
			"byteOffset":466668,
			"target":34963
		},
		{
			"buffer":0,
			"byteLength":67395,
			"byteOffset":512436
		}
	],
	"samplers":[
		{
			"magFilter":9729,
			"minFilter":9987
		}
	],
	"buffers":[
		{
			"byteLength":579832,
			"uri":"data:application/octet-stream;base64,"
		}
	]
}
