{
	"asset":{
		"generator":"Khronos glTF Blender I/O v3.5.30",
		"version":"2.0"
	},
	"scene":0,
	"scenes":[
		{
			"name":"Scene",
			"nodes":[
				0,
				1,
				2,
				3
			]
		}
	],
	"nodes":[
		{
			"mesh":0,
			"name":"Cylinder.001",
			"scale":[
				0.7034764885902405,
				0.014173208735883236,
				0.7034764885902405
			],
			"translation":[
				0.008878707885742188,
				0.09823852777481079,
				0.012632172554731369
			]
		},
		{
			"name":"Empty",
			"rotation":[
				0.70710688829422,
				0,
				0,
				0.7071066498756409
			],
			"scale":[
				0.5819147229194641,
				0.5819147229194641,
				0.5819147229194641
			],
			"translation":[
				0,
				1.5871671438217163,
				0
			]
		},
		{
			"name":"Empty.001",
			"rotation":[
				0.70710688829422,
				0,
				0,
				0.7071066498756409
			],
			"scale":[
				0.5948858857154846,
				0.5948858857154846,
				0.5948858857154846
			],
			"translation":[
				0,
				1.6008833646774292,
				0
			]
		},
		{
			"mesh":1,
			"name":"Cylinder.002",
			"scale":[
				0.06696613878011703,
				0.027228249236941338,
				0.05150437355041504
			],
			"translation":[
				0,
				0.1305355429649353,
				0
			]
		}
	],
	"materials":[
		{
			"doubleSided":true,
			"name":"launchfloor",
			"pbrMetallicRoughness":{
				"baseColorFactor":[
					0.28100714087486267,
					0.28100714087486267,
					0.28100714087486267,
					1
				],
				"metallicFactor":0,
				"roughnessFactor":0.5
			}
		},
		{
			"doubleSided":true,
			"name":"landingpad",
			"pbrMetallicRoughness":{
				"baseColorFactor":[
					0.4292215406894684,
					0.4292215406894684,
					0.4292215406894684,
					1
				],
				"metallicFactor":0,
				"roughnessFactor":0.5
			}
		},
		{
			"doubleSided":true,
			"name":"padborder",
			"pbrMetallicRoughness":{
				"baseColorFactor":[
					0.9403864741325378,
					0.9403864741325378,
					0.9403864741325378,
					1
				],
				"metallicFactor":0,
				"roughnessFactor":0.5
			}
		},
		{
			"doubleSided":true,
			"name":"grass",
			"pbrMetallicRoughness":{
				"baseColorFactor":[
					0.022529050707817078,
					0.20189496874809265,
					0.1319800764322281,
					1
				],
				"metallicFactor":0,
				"roughnessFactor":0.5
			}
		},
		{
			"doubleSided":true,
			"name":"dirt",
			"pbrMetallicRoughness":{
				"baseColorFactor":[
					0.08000966161489487,
					0.04727604612708092,
					0.014354920946061611,
					1
				],
				"metallicFactor":0,
				"roughnessFactor":0.5
			}
		},
		{
			"doubleSided":true,
			"name":"top",
			"pbrMetallicRoughness":{
				"baseColorFactor":[
					0.13976576924324036,
					0.3931110203266144,
					0.3396649956703186,
					1
				],
				"metallicFactor":0,
				"roughnessFactor":0.5
			}
		},
		{
			"doubleSided":true,
			"name":"concrete",
			"pbrMetallicRoughness":{
				"baseColorFactor":[
					0.06071816012263298,
					0.06071816012263298,
					0.06071816012263298,
					1
				],
				"metallicFactor":0,
				"roughnessFactor":0.5
			}
		},
		{
			"doubleSided":true,
			"name":"border",
			"pbrMetallicRoughness":{
				"baseColorFactor":[
					0.698187530040741,
					0.698187530040741,
					0.698187530040741,
					1
				],
				"metallicFactor":0,
				"roughnessFactor":0.5
			}
		},
		{
			"doubleSided":true,
			"name":"engine",
			"pbrMetallicRoughness":{
				"baseColorFactor":[
					0.01002122089266777,
					0.01002122089266777,
					0.01002122089266777,
					1
				],
				"metallicFactor":0,
				"roughnessFactor":0.5
			}
		},
		{
			"doubleSided":true,
			"name":"ceres1",
			"pbrMetallicRoughness":{
				"baseColorTexture":{
					"index":0
				},
				"metallicFactor":0,
				"roughnessFactor":0.5
			}
		}
	],
	"meshes":[
		{
			"name":"Cylinder.003",
			"primitives":[
				{
					"attributes":{
						"POSITION":0,
						"TEXCOORD_0":1,
						"NORMAL":2
					},
					"indices":3,
					"material":0
				},
				{
					"attributes":{
						"POSITION":4,
						"TEXCOORD_0":5,
						"NORMAL":6
					},
					"indices":7,
					"material":1
				},
				{
					"attributes":{
						"POSITION":8,
						"TEXCOORD_0":9,
						"NORMAL":10
					},
					"indices":11,
					"material":2
				},
				{
					"attributes":{
						"POSITION":12,
						"TEXCOORD_0":13,
						"NORMAL":14
					},
					"indices":15,
					"material":3
				},
				{
					"attributes":{
						"POSITION":16,
						"TEXCOORD_0":17,
						"NORMAL":18
					},
					"indices":19,
					"material":4
				},
				{
					"attributes":{
						"POSITION":20,
						"TEXCOORD_0":21,
						"NORMAL":22
					},
					"indices":23,
					"material":5
				},
				{
					"attributes":{
						"POSITION":24,
						"TEXCOORD_0":25,
						"NORMAL":26
					},
					"indices":27,
					"material":6
				},
				{
					"attributes":{
						"POSITION":28,
						"TEXCOORD_0":29,
						"NORMAL":30
					},
					"indices":31,
					"material":7
				}
			]
		},
		{
			"name":"Cylinder.001",
			"primitives":[
				{
					"attributes":{
						"POSITION":32,
						"TEXCOORD_0":33,
						"NORMAL":34
					},
					"indices":35,
					"material":8
				},
				{
					"attributes":{
						"POSITION":36,
						"TEXCOORD_0":37,
						"NORMAL":38
					},
					"indices":39,
					"material":9
				}
			]
		}
	],
	"textures":[
		{
			"sampler":0,
			"source":0
		}
	],
	"images":[
		{
			"bufferView":40,
			"mimeType":"image/png",
			"name":"CERES-1"
		}
	],
	"accessors":[
		{
			"bufferView":0,
			"componentType":5126,
			"count":59,
			"max":[
				0.9749279022216797,
				0.6685290336608887,
				0.9009688496589661
			],
			"min":[
				-0.9749279022216797,
				-1.3314709663391113,
				-1
			],
			"type":"VEC3"
		},
		{
			"bufferView":1,
			"componentType":5126,
			"count":59,
			"type":"VEC2"
		},
		{
			"bufferView":2,
			"componentType":5126,
			"count":59,
			"type":"VEC3"
		},
		{
			"bufferView":3,
			"componentType":5123,
			"count":93,
			"type":"SCALAR"
		},
		{
			"bufferView":4,
			"componentType":5126,
			"count":7,
			"max":[
				0.9305989742279053,
				-0.005587100982666016,
				0.8600028157234192
			],
			"min":[
				-0.93059903383255,
				-0.005587100982666016,
				-0.9545311331748962
			],
			"type":"VEC3"
		},
		{
			"bufferView":5,
			"componentType":5126,
			"count":7,
			"type":"VEC2"
		},
		{
			"bufferView":6,
			"componentType":5126,
			"count":7,
			"type":"VEC3"
		},
		{
			"bufferView":7,
			"componentType":5123,
			"count":15,
			"type":"SCALAR"
		},
		{
			"bufferView":8,
			"componentType":5126,
			"count":18,
			"max":[
				0.9749279022216797,
				0.6685290336608887,
				0.9009688496589661
			],
			"min":[
				-0.9749279022216797,
				-0.005587100982666016,
				-1
			],
			"type":"VEC3"
		},
		{
			"bufferView":9,
			"componentType":5126,
			"count":18,
			"type":"VEC2"
		},
		{
			"bufferView":10,
			"componentType":5126,
			"count":18,
			"type":"VEC3"
		},
		{
			"bufferView":11,
			"componentType":5123,
			"count":48,
			"type":"SCALAR"
		},
		{
			"bufferView":12,
			"componentType":5126,
			"count":176,
			"max":[
				5.610724925994873,
				-4.057764053344727,
				4.864363670349121
			],
			"min":[
				-5.8486785888671875,
				-35.53102111816406,
				-5.337103366851807
			],
			"type":"VEC3"
		},
		{
			"bufferView":13,
			"componentType":5126,
			"count":176,
			"type":"VEC2"
		},
		{
			"bufferView":14,
			"componentType":5126,
			"count":176,
			"type":"VEC3"
		},
		{
			"bufferView":15,
			"componentType":5123,
			"count":264,
			"type":"SCALAR"
		},
		{
			"bufferView":16,
			"componentType":5126,
			"count":320,
			"max":[
				5.423568248748779,
				-35.5310173034668,
				4.701854228973389
			],
			"min":[
				-5.653772830963135,
				-64.82886505126953,
				-5.159491062164307
			],
			"type":"VEC3"
		},
		{
			"bufferView":17,
			"componentType":5126,
			"count":320,
			"type":"VEC2"
		},
		{
			"bufferView":18,
			"componentType":5126,
			"count":320,
			"type":"VEC3"
		},
		{
			"bufferView":19,
			"componentType":5123,
			"count":990,
			"type":"SCALAR"
		},
		{
			"bufferView":20,
			"componentType":5126,
			"count":144,
			"max":[
				5.610724925994873,
				-4.057764053344727,
				4.864363670349121
			],
			"min":[
				-5.8486785888671875,
				-4.057771682739258,
				-5.337103366851807
			],
			"type":"VEC3"
		},
		{
			"bufferView":21,
			"componentType":5126,
			"count":144,
			"type":"VEC2"
		},
		{
			"bufferView":22,
			"componentType":5126,
			"count":144,
			"type":"VEC3"
		},
		{
			"bufferView":23,
			"componentType":5123,
			"count":726,
			"type":"SCALAR"
		},
		{
			"bufferView":24,
			"componentType":5126,
			"count":70,
			"max":[
				2.050567865371704,
				3.7954559326171875,
				1.873186469078064
			],
			"min":[
				-2.0449841022491455,
				-5.382540702819824,
				-2.2253921031951904
			],
			"type":"VEC3"
		},
		{
			"bufferView":25,
			"componentType":5126,
			"count":70,
			"type":"VEC2"
		},
		{
			"bufferView":26,
			"componentType":5126,
			"count":70,
			"type":"VEC3"
		},
		{
			"bufferView":27,
			"componentType":5123,
			"count":114,
			"type":"SCALAR"
		},
		{
			"bufferView":28,
			"componentType":5126,
			"count":14,
			"max":[
				2.050567865371704,
				3.7954559326171875,
				1.873186469078064
			],
			"min":[
				-2.0449841022491455,
				3.7954559326171875,
				-2.2253921031951904
			],
			"type":"VEC3"
		},
		{
			"bufferView":29,
			"componentType":5126,
			"count":14,
			"type":"VEC2"
		},
		{
			"bufferView":30,
			"componentType":5126,
			"count":14,
			"type":"VEC3"
		},
		{
			"bufferView":31,
			"componentType":5123,
			"count":42,
			"type":"SCALAR"
		},
		{
			"bufferView":32,
			"componentType":5126,
			"count":800,
			"max":[
				1.0190256834030151,
				1,
				1
			],
			"min":[
				-0.9809742569923401,
				-0.9812828302383423,
				-1
			],
			"type":"VEC3"
		},
		{
			"bufferView":33,
			"componentType":5126,
			"count":800,
			"type":"VEC2"
		},
		{
			"bufferView":34,
			"componentType":5126,
			"count":800,
			"type":"VEC3"
		},
		{
			"bufferView":35,
			"componentType":5123,
			"count":1242,
			"type":"SCALAR"
		},
		{
			"bufferView":36,
			"componentType":5126,
			"count":1984,
			"max":[
				1.6143419742584229,
				108.04388427734375,
				2.0813279151916504
			],
			"min":[
				-1.5872013568878174,
				0.9349021911621094,
				-2.0813279151916504
			],
			"type":"VEC3"
		},
		{
			"bufferView":37,
			"componentType":5126,
			"count":1984,
			"type":"VEC2"
		},
		{
			"bufferView":38,
			"componentType":5126,
			"count":1984,
			"type":"VEC3"
		},
		{
			"bufferView":39,
			"componentType":5123,
			"count":3060,
			"type":"SCALAR"
		}
	],
	"bufferViews":[
		{
			"buffer":0,
			"byteLength":708,
			"byteOffset":0,
			"target":34962
		},
		{
			"buffer":0,
			"byteLength":472,
			"byteOffset":708,
			"target":34962
		},
		{
			"buffer":0,
			"byteLength":708,
			"byteOffset":1180,
			"target":34962
		},
		{
			"buffer":0,
			"byteLength":186,
			"byteOffset":1888,
			"target":34963
		},
		{
			"buffer":0,
			"byteLength":84,
			"byteOffset":2076,
			"target":34962
		},
		{
			"buffer":0,
			"byteLength":56,
			"byteOffset":2160,
			"target":34962
		},
		{
			"buffer":0,
			"byteLength":84,
			"byteOffset":2216,
			"target":34962
		},
		{
			"buffer":0,
			"byteLength":30,
			"byteOffset":2300,
			"target":34963
		},
		{
			"buffer":0,
			"byteLength":216,
			"byteOffset":2332,
			"target":34962
		},
		{
			"buffer":0,
			"byteLength":144,
			"byteOffset":2548,
			"target":34962
		},
		{
			"buffer":0,
			"byteLength":216,
			"byteOffset":2692,
			"target":34962
		},
		{
			"buffer":0,
			"byteLength":96,
			"byteOffset":2908,
			"target":34963
		},
		{
			"buffer":0,
			"byteLength":2112,
			"byteOffset":3004,
			"target":34962
		},
		{
			"buffer":0,
			"byteLength":1408,
			"byteOffset":5116,
			"target":34962
		},
		{
			"buffer":0,
			"byteLength":2112,
			"byteOffset":6524,
			"target":34962
		},
		{
			"buffer":0,
			"byteLength":528,
			"byteOffset":8636,
			"target":34963
		},
		{
			"buffer":0,
			"byteLength":3840,
			"byteOffset":9164,
			"target":34962
		},
		{
			"buffer":0,
			"byteLength":2560,
			"byteOffset":13004,
			"target":34962
		},
		{
			"buffer":0,
			"byteLength":3840,
			"byteOffset":15564,
			"target":34962
		},
		{
			"buffer":0,
			"byteLength":1980,
			"byteOffset":19404,
			"target":34963
		},
		{
			"buffer":0,
			"byteLength":1728,
			"byteOffset":21384,
			"target":34962
		},
		{
			"buffer":0,
			"byteLength":1152,
			"byteOffset":23112,
			"target":34962
		},
		{
			"buffer":0,
			"byteLength":1728,
			"byteOffset":24264,
			"target":34962
		},
		{
			"buffer":0,
			"byteLength":1452,
			"byteOffset":25992,
			"target":34963
		},
		{
			"buffer":0,
			"byteLength":840,
			"byteOffset":27444,
			"target":34962
		},
		{
			"buffer":0,
			"byteLength":560,
			"byteOffset":28284,
			"target":34962
		},
		{
			"buffer":0,
			"byteLength":840,
			"byteOffset":28844,
			"target":34962
		},
		{
			"buffer":0,
			"byteLength":228,
			"byteOffset":29684,
			"target":34963
		},
		{
			"buffer":0,
			"byteLength":168,
			"byteOffset":29912,
			"target":34962
		},
		{
			"buffer":0,
			"byteLength":112,
			"byteOffset":30080,
			"target":34962
		},
		{
			"buffer":0,
			"byteLength":168,
			"byteOffset":30192,
			"target":34962
		},
		{
			"buffer":0,
			"byteLength":84,
			"byteOffset":30360,
			"target":34963
		},
		{
			"buffer":0,
			"byteLength":9600,
			"byteOffset":30444,
			"target":34962
		},
		{
			"buffer":0,
			"byteLength":6400,
			"byteOffset":40044,
			"target":34962
		},
		{
			"buffer":0,
			"byteLength":9600,
			"byteOffset":46444,
			"target":34962
		},
		{
			"buffer":0,
			"byteLength":2484,
			"byteOffset":56044,
			"target":34963
		},
		{
			"buffer":0,
			"byteLength":23808,
			"byteOffset":58528,
			"target":34962
		},
		{
			"buffer":0,
			"byteLength":15872,
			"byteOffset":82336,
			"target":34962
		},
		{
			"buffer":0,
			"byteLength":23808,
			"byteOffset":98208,
			"target":34962
		},
		{
			"buffer":0,
			"byteLength":6120,
			"byteOffset":122016,
			"target":34963
		},
		{
			"buffer":0,
			"byteLength":65232,
			"byteOffset":128136
		}
	],
	"samplers":[
		{
			"magFilter":9729,
			"minFilter":9987
		}
	],
	"buffers":[
		{
			"byteLength":193368,
			"uri":"data:application/octet-stream;base64,"
		}
	]
}
