{
	"asset":{
		"generator":"Khronos glTF Blender I/O v3.5.30",
		"version":"2.0"
	},
	"scene":0,
	"scenes":[
		{
			"name":"Scene",
			"nodes":[
				0,
				1,
				2,
				3,
				4,
				5,
				6,
				7,
				8,
				9,
				10,
				11,
				12
			]
		}
	],
	"nodes":[
		{
			"mesh":0,
			"name":"Cube",
			"scale":[
				0.01965950056910515,
				0.01965950056910515,
				0.01965950056910515
			],
			"translation":[
				-0.0005428354488685727,
				0.1491546630859375,
				0.0006215056637302041
			]
		},
		{
			"mesh":0,
			"name":"Cube.001",
			"scale":[
				0.01965950056910515,
				0.01965950056910515,
				0.01965950056910515
			],
			"translation":[
				-0.11004970222711563,
				0.1491546630859375,
				0.0006215056637302041
			]
		},
		{
			"mesh":0,
			"name":"Cube.002",
			"scale":[
				0.01965950056910515,
				0.01965950056910515,
				0.01965950056910515
			],
			"translation":[
				0.10702633857727051,
				0.1491546630859375,
				0.0006215056637302041
			]
		},
		{
			"mesh":0,
			"name":"Cube.003",
			"rotation":[
				0,
				0.7088667750358582,
				0,
				0.7053424119949341
			],
			"scale":[
				0.019659502431750298,
				0.01965950056910515,
				0.019659502431750298
			],
			"translation":[
				-0.0008632231620140374,
				0.1491546630859375,
				0.10196655988693237
			]
		},
		{
			"mesh":0,
			"name":"Cube.004",
			"rotation":[
				0,
				0.7088667750358582,
				0,
				0.7053424119949341
			],
			"scale":[
				0.019659502431750298,
				0.01965950056910515,
				0.019659502431750298
			],
			"translation":[
				-0.0015574430581182241,
				0.1491546630859375,
				-0.0955514907836914
			]
		},
		{
			"mesh":0,
			"name":"Cube.005",
			"rotation":[
				0,
				0.358114629983902,
				0,
				0.9336777329444885
			],
			"scale":[
				0.01965950056910515,
				0.01965950056910515,
				0.01965950056910515
			],
			"translation":[
				-0.08221055567264557,
				0.1491546630859375,
				0.07320382446050644
			]
		},
		{
			"mesh":0,
			"name":"Cube.006",
			"rotation":[
				0,
				0.358114629983902,
				0,
				0.9336777329444885
			],
			"scale":[
				0.01965950056910515,
				0.01965950056910515,
				0.01965950056910515
			],
			"translation":[
				0.07918718457221985,
				0.1491546630859375,
				-0.07196081429719925
			]
		},
		{
			"mesh":0,
			"name":"Cube.007",
			"rotation":[
				0,
				0.926357090473175,
				0,
				0.3766464591026306
			],
			"scale":[
				0.01965950056910515,
				0.01965950056910515,
				0.01965950056910515
			],
			"translation":[
				0.07623137533664703,
				0.1491546630859375,
				0.07636130601167679
			]
		},
		{
			"mesh":0,
			"name":"Cube.008",
			"rotation":[
				0,
				0.926357090473175,
				0,
				0.3766464591026306
			],
			"scale":[
				0.01965950056910515,
				0.01965950056910515,
				0.01965950056910515
			],
			"translation":[
				-0.07925474643707275,
				0.1491546630859375,
				-0.0751182958483696
			]
		},
		{
			"mesh":1,
			"name":"Plane",
			"scale":[
				-2.8566555976867676,
				-3.3316128253936768,
				-2.7866504192352295
			],
			"translation":[
				-0.011105481535196304,
				-0.3919771611690521,
				0.006616394966840744
			]
		},
		{
			"mesh":2,
			"name":"Cylinder.001",
			"scale":[
				0.7034764885902405,
				0.014173208735883236,
				0.7034764885902405
			],
			"translation":[
				-0.001964110881090164,
				0.09823852777481079,
				0.012632172554731369
			]
		},
		{
			"mesh":3,
			"name":"Circle",
			"scale":[
				1.4776090383529663,
				1.4776090383529663,
				1.4776090383529663
			],
			"translation":[
				0,
				0.02195066213607788,
				-0.0009047985076904297
			]
		},
		{
			"mesh":4,
			"name":"Cylinder",
			"scale":[
				1,
				1.2684189081192017,
				1
			],
			"translation":[
				0,
				1.4408479928970337,
				0
			]
		}
	],
	"materials":[
		{
			"doubleSided":true,
			"name":"Material.001",
			"pbrMetallicRoughness":{
				"metallicFactor":0,
				"roughnessFactor":0.5
			}
		},
		{
			"doubleSided":true,
			"name":"grass",
			"pbrMetallicRoughness":{
				"baseColorFactor":[
					0.04227468743920326,
					0.2018958330154419,
					0.044965289533138275,
					1
				],
				"metallicFactor":0,
				"roughnessFactor":0.5
			}
		},
		{
			"doubleSided":true,
			"name":"dirt",
			"pbrMetallicRoughness":{
				"baseColorFactor":[
					0.08000966161489487,
					0.04727604612708092,
					0.014354920946061611,
					1
				],
				"metallicFactor":0,
				"roughnessFactor":0.5
			}
		},
		{
			"doubleSided":true,
			"name":"top",
			"pbrMetallicRoughness":{
				"baseColorFactor":[
					0.1622062772512436,
					0.3931110203266144,
					0.09306300431489944,
					1
				],
				"metallicFactor":0,
				"roughnessFactor":0.5
			}
		},
		{
			"doubleSided":true,
			"name":"launchfloor",
			"pbrMetallicRoughness":{
				"baseColorFactor":[
					0.28100714087486267,
					0.28100714087486267,
					0.28100714087486267,
					1
				],
				"metallicFactor":0,
				"roughnessFactor":0.5
			}
		},
		{
			"doubleSided":true,
			"name":"landingpad",
			"pbrMetallicRoughness":{
				"baseColorFactor":[
					0.4292215406894684,
					0.4292215406894684,
					0.4292215406894684,
					1
				],
				"metallicFactor":0,
				"roughnessFactor":0.5
			}
		},
		{
			"doubleSided":true,
			"name":"padborder",
			"pbrMetallicRoughness":{
				"baseColorFactor":[
					0.9403864741325378,
					0.9403864741325378,
					0.9403864741325378,
					1
				],
				"metallicFactor":0,
				"roughnessFactor":0.5
			}
		},
		{
			"doubleSided":true,
			"name":"concrete",
			"pbrMetallicRoughness":{
				"baseColorFactor":[
					0.06071816012263298,
					0.06071816012263298,
					0.06071816012263298,
					1
				],
				"metallicFactor":0,
				"roughnessFactor":0.5
			}
		},
		{
			"doubleSided":true,
			"name":"border",
			"pbrMetallicRoughness":{
				"baseColorFactor":[
					0.698187530040741,
					0.698187530040741,
					0.698187530040741,
					1
				],
				"metallicFactor":0,
				"roughnessFactor":0.5
			}
		},
		{
			"doubleSided":true,
			"name":"black",
			"pbrMetallicRoughness":{
				"baseColorFactor":[
					0.010021137073636055,
					0.010021137073636055,
					0.010021137073636055,
					1
				],
				"metallicFactor":0,
				"roughnessFactor":0.5
			}
		},
		{
			"doubleSided":true,
			"name":"white",
			"pbrMetallicRoughness":{
				"baseColorFactor":[
					0.800000011920929,
					0.800000011920929,
					0.800000011920929,
					1
				],
				"metallicFactor":0,
				"roughnessFactor":0.5
			}
		}
	],
	"meshes":[
		{
			"name":"Cube.001",
			"primitives":[
				{
					"attributes":{
						"POSITION":0,
						"TEXCOORD_0":1,
						"NORMAL":2
					},
					"indices":3,
					"material":0
				}
			]
		},
		{
			"name":"Plane.001",
			"primitives":[
				{
					"attributes":{
						"POSITION":4,
						"TEXCOORD_0":5,
						"NORMAL":6
					},
					"indices":7,
					"material":1
				},
				{
					"attributes":{
						"POSITION":8,
						"TEXCOORD_0":9,
						"NORMAL":10
					},
					"indices":11,
					"material":2
				},
				{
					"attributes":{
						"POSITION":12,
						"TEXCOORD_0":13,
						"NORMAL":14
					},
					"indices":15,
					"material":3
				}
			]
		},
		{
			"name":"Cylinder.003",
			"primitives":[
				{
					"attributes":{
						"POSITION":16,
						"TEXCOORD_0":17,
						"NORMAL":18
					},
					"indices":19,
					"material":4
				},
				{
					"attributes":{
						"POSITION":20,
						"TEXCOORD_0":21,
						"NORMAL":22
					},
					"indices":23,
					"material":5
				},
				{
					"attributes":{
						"POSITION":24,
						"TEXCOORD_0":25,
						"NORMAL":26
					},
					"indices":27,
					"material":6
				}
			]
		},
		{
			"name":"Circle.001",
			"primitives":[
				{
					"attributes":{
						"POSITION":28,
						"TEXCOORD_0":29,
						"NORMAL":30
					},
					"indices":31,
					"material":7
				},
				{
					"attributes":{
						"POSITION":32,
						"TEXCOORD_0":33,
						"NORMAL":34
					},
					"indices":35,
					"material":8
				}
			]
		},
		{
			"name":"Cylinder.001",
			"primitives":[
				{
					"attributes":{
						"POSITION":36,
						"TEXCOORD_0":37,
						"NORMAL":38
					},
					"indices":39,
					"material":9
				},
				{
					"attributes":{
						"POSITION":40,
						"TEXCOORD_0":41,
						"NORMAL":42
					},
					"indices":43,
					"material":10
				}
			]
		}
	],
	"accessors":[
		{
			"bufferView":0,
			"componentType":5126,
			"count":88,
			"max":[
				1.9827415943145752,
				2.193903923034668,
				1.9827415943145752
			],
			"min":[
				-1.9827415943145752,
				-2.19651460647583,
				-1.9827415943145752
			],
			"type":"VEC3"
		},
		{
			"bufferView":1,
			"componentType":5126,
			"count":88,
			"type":"VEC2"
		},
		{
			"bufferView":2,
			"componentType":5126,
			"count":88,
			"type":"VEC3"
		},
		{
			"bufferView":3,
			"componentType":5123,
			"count":156,
			"type":"SCALAR"
		},
		{
			"bufferView":4,
			"componentType":5126,
			"count":176,
			"max":[
				1.4370883703231812,
				0.00401393324136734,
				1.3451672792434692
			],
			"min":[
				-1.3848903179168701,
				-0.12987828254699707,
				-1.2301440238952637
			],
			"type":"VEC3"
		},
		{
			"bufferView":5,
			"componentType":5126,
			"count":176,
			"type":"VEC2"
		},
		{
			"bufferView":6,
			"componentType":5126,
			"count":176,
			"type":"VEC3"
		},
		{
			"bufferView":7,
			"componentType":5123,
			"count":264,
			"type":"SCALAR"
		},
		{
			"bufferView":8,
			"componentType":5126,
			"count":320,
			"max":[
				1.3890910148620605,
				0.12865158915519714,
				1.3003298044204712
			],
			"min":[
				-1.3388012647628784,
				0.004013918340206146,
				-1.1891192197799683
			],
			"type":"VEC3"
		},
		{
			"bufferView":9,
			"componentType":5126,
			"count":320,
			"type":"VEC2"
		},
		{
			"bufferView":10,
			"componentType":5126,
			"count":320,
			"type":"VEC3"
		},
		{
			"bufferView":11,
			"componentType":5123,
			"count":990,
			"type":"SCALAR"
		},
		{
			"bufferView":12,
			"componentType":5126,
			"count":144,
			"max":[
				1.4370883703231812,
				-0.12987825274467468,
				1.3451672792434692
			],
			"min":[
				-1.3848903179168701,
				-0.12987828254699707,
				-1.2301440238952637
			],
			"type":"VEC3"
		},
		{
			"bufferView":13,
			"componentType":5126,
			"count":144,
			"type":"VEC2"
		},
		{
			"bufferView":14,
			"componentType":5126,
			"count":144,
			"type":"VEC3"
		},
		{
			"bufferView":15,
			"componentType":5123,
			"count":726,
			"type":"SCALAR"
		},
		{
			"bufferView":16,
			"componentType":5126,
			"count":59,
			"max":[
				0.9749279022216797,
				0.6685290336608887,
				0.9009688496589661
			],
			"min":[
				-0.9749279022216797,
				-1.3314709663391113,
				-1
			],
			"type":"VEC3"
		},
		{
			"bufferView":17,
			"componentType":5126,
			"count":59,
			"type":"VEC2"
		},
		{
			"bufferView":18,
			"componentType":5126,
			"count":59,
			"type":"VEC3"
		},
		{
			"bufferView":19,
			"componentType":5123,
			"count":93,
			"type":"SCALAR"
		},
		{
			"bufferView":20,
			"componentType":5126,
			"count":7,
			"max":[
				0.9305989742279053,
				-0.005587100982666016,
				0.8600028157234192
			],
			"min":[
				-0.93059903383255,
				-0.005587100982666016,
				-0.9545311331748962
			],
			"type":"VEC3"
		},
		{
			"bufferView":21,
			"componentType":5126,
			"count":7,
			"type":"VEC2"
		},
		{
			"bufferView":22,
			"componentType":5126,
			"count":7,
			"type":"VEC3"
		},
		{
			"bufferView":23,
			"componentType":5123,
			"count":15,
			"type":"SCALAR"
		},
		{
			"bufferView":24,
			"componentType":5126,
			"count":18,
			"max":[
				0.9749279022216797,
				0.6685290336608887,
				0.9009688496589661
			],
			"min":[
				-0.9749279022216797,
				-0.005587100982666016,
				-1
			],
			"type":"VEC3"
		},
		{
			"bufferView":25,
			"componentType":5126,
			"count":18,
			"type":"VEC2"
		},
		{
			"bufferView":26,
			"componentType":5126,
			"count":18,
			"type":"VEC3"
		},
		{
			"bufferView":27,
			"componentType":5123,
			"count":48,
			"type":"SCALAR"
		},
		{
			"bufferView":28,
			"componentType":5126,
			"count":70,
			"max":[
				0.9749279022216797,
				0.0880352333188057,
				0.9009688496589661
			],
			"min":[
				-0.9749279022216797,
				0,
				-1.0503278970718384
			],
			"type":"VEC3"
		},
		{
			"bufferView":29,
			"componentType":5126,
			"count":70,
			"type":"VEC2"
		},
		{
			"bufferView":30,
			"componentType":5126,
			"count":70,
			"type":"VEC3"
		},
		{
			"bufferView":31,
			"componentType":5123,
			"count":114,
			"type":"SCALAR"
		},
		{
			"bufferView":32,
			"componentType":5126,
			"count":14,
			"max":[
				0.9749279022216797,
				0.0880352333188057,
				0.9009688496589661
			],
			"min":[
				-0.9749279022216797,
				0.0880352333188057,
				-1.0503278970718384
			],
			"type":"VEC3"
		},
		{
			"bufferView":33,
			"componentType":5126,
			"count":14,
			"type":"VEC2"
		},
		{
			"bufferView":34,
			"componentType":5126,
			"count":14,
			"type":"VEC3"
		},
		{
			"bufferView":35,
			"componentType":5123,
			"count":42,
			"type":"SCALAR"
		},
		{
			"bufferView":36,
			"componentType":5126,
			"count":920,
			"max":[
				0.14000004529953003,
				1.2443667650222778,
				0.14000004529953003
			],
			"min":[
				-0.14000004529953003,
				-1,
				-0.14000004529953003
			],
			"type":"VEC3"
		},
		{
			"bufferView":37,
			"componentType":5126,
			"count":920,
			"type":"VEC2"
		},
		{
			"bufferView":38,
			"componentType":5126,
			"count":920,
			"type":"VEC3"
		},
		{
			"bufferView":39,
			"componentType":5123,
			"count":1428,
			"type":"SCALAR"
		},
		{
			"bufferView":40,
			"componentType":5126,
			"count":320,
			"max":[
				0.14000004529953003,
				0.75,
				0.14000004529953003
			],
			"min":[
				-0.14000004529953003,
				-0.824970006942749,
				-0.14000004529953003
			],
			"type":"VEC3"
		},
		{
			"bufferView":41,
			"componentType":5126,
			"count":320,
			"type":"VEC2"
		},
		{
			"bufferView":42,
			"componentType":5126,
			"count":320,
			"type":"VEC3"
		},
		{
			"bufferView":43,
			"componentType":5123,
			"count":480,
			"type":"SCALAR"
		}
	],
	"bufferViews":[
		{
			"buffer":0,
			"byteLength":1056,
			"byteOffset":0,
			"target":34962
		},
		{
			"buffer":0,
			"byteLength":704,
			"byteOffset":1056,
			"target":34962
		},
		{
			"buffer":0,
			"byteLength":1056,
			"byteOffset":1760,
			"target":34962
		},
		{
			"buffer":0,
			"byteLength":312,
			"byteOffset":2816,
			"target":34963
		},
		{
			"buffer":0,
			"byteLength":2112,
			"byteOffset":3128,
			"target":34962
		},
		{
			"buffer":0,
			"byteLength":1408,
			"byteOffset":5240,
			"target":34962
		},
		{
			"buffer":0,
			"byteLength":2112,
			"byteOffset":6648,
			"target":34962
		},
		{
			"buffer":0,
			"byteLength":528,
			"byteOffset":8760,
			"target":34963
		},
		{
			"buffer":0,
			"byteLength":3840,
			"byteOffset":9288,
			"target":34962
		},
		{
			"buffer":0,
			"byteLength":2560,
			"byteOffset":13128,
			"target":34962
		},
		{
			"buffer":0,
			"byteLength":3840,
			"byteOffset":15688,
			"target":34962
		},
		{
			"buffer":0,
			"byteLength":1980,
			"byteOffset":19528,
			"target":34963
		},
		{
			"buffer":0,
			"byteLength":1728,
			"byteOffset":21508,
			"target":34962
		},
		{
			"buffer":0,
			"byteLength":1152,
			"byteOffset":23236,
			"target":34962
		},
		{
			"buffer":0,
			"byteLength":1728,
			"byteOffset":24388,
			"target":34962
		},
		{
			"buffer":0,
			"byteLength":1452,
			"byteOffset":26116,
			"target":34963
		},
		{
			"buffer":0,
			"byteLength":708,
			"byteOffset":27568,
			"target":34962
		},
		{
			"buffer":0,
			"byteLength":472,
			"byteOffset":28276,
			"target":34962
		},
		{
			"buffer":0,
			"byteLength":708,
			"byteOffset":28748,
			"target":34962
		},
		{
			"buffer":0,
			"byteLength":186,
			"byteOffset":29456,
			"target":34963
		},
		{
			"buffer":0,
			"byteLength":84,
			"byteOffset":29644,
			"target":34962
		},
		{
			"buffer":0,
			"byteLength":56,
			"byteOffset":29728,
			"target":34962
		},
		{
			"buffer":0,
			"byteLength":84,
			"byteOffset":29784,
			"target":34962
		},
		{
			"buffer":0,
			"byteLength":30,
			"byteOffset":29868,
			"target":34963
		},
		{
			"buffer":0,
			"byteLength":216,
			"byteOffset":29900,
			"target":34962
		},
		{
			"buffer":0,
			"byteLength":144,
			"byteOffset":30116,
			"target":34962
		},
		{
			"buffer":0,
			"byteLength":216,
			"byteOffset":30260,
			"target":34962
		},
		{
			"buffer":0,
			"byteLength":96,
			"byteOffset":30476,
			"target":34963
		},
		{
			"buffer":0,
			"byteLength":840,
			"byteOffset":30572,
			"target":34962
		},
		{
			"buffer":0,
			"byteLength":560,
			"byteOffset":31412,
			"target":34962
		},
		{
			"buffer":0,
			"byteLength":840,
			"byteOffset":31972,
			"target":34962
		},
		{
			"buffer":0,
			"byteLength":228,
			"byteOffset":32812,
			"target":34963
		},
		{
			"buffer":0,
			"byteLength":168,
			"byteOffset":33040,
			"target":34962
		},
		{
			"buffer":0,
			"byteLength":112,
			"byteOffset":33208,
			"target":34962
		},
		{
			"buffer":0,
			"byteLength":168,
			"byteOffset":33320,
			"target":34962
		},
		{
			"buffer":0,
			"byteLength":84,
			"byteOffset":33488,
			"target":34963
		},
		{
			"buffer":0,
			"byteLength":11040,
			"byteOffset":33572,
			"target":34962
		},
		{
			"buffer":0,
			"byteLength":7360,
			"byteOffset":44612,
			"target":34962
		},
		{
			"buffer":0,
			"byteLength":11040,
			"byteOffset":51972,
			"target":34962
		},
		{
			"buffer":0,
			"byteLength":2856,
			"byteOffset":63012,
			"target":34963
		},
		{
			"buffer":0,
			"byteLength":3840,
			"byteOffset":65868,
			"target":34962
		},
		{
			"buffer":0,
			"byteLength":2560,
			"byteOffset":69708,
			"target":34962
		},
		{
			"buffer":0,
			"byteLength":3840,
			"byteOffset":72268,
			"target":34962
		},
		{
			"buffer":0,
			"byteLength":960,
			"byteOffset":76108,
			"target":34963
		}
	],
	"buffers":[
		{
			"byteLength":77068,
			"uri":"data:application/octet-stream;base64,"
		}
	]
}
