{
	"asset":{
		"generator":"Khronos glTF Blender I/O v3.5.30",
		"version":"2.0"
	},
	"scene":0,
	"scenes":[
		{
			"name":"Scene",
			"nodes":[
				0,
				1,
				2,
				3,
				4,
				5,
				6,
				7,
				8,
				9,
				10,
				11,
				12,
				13,
				14,
				15,
				16
			]
		}
	],
	"nodes":[
		{
			"mesh":0,
			"name":"Cylinder",
			"scale":[
				0.1864301860332489,
				1.5709806680679321,
				0.1864301860332489
			],
			"translation":[
				0,
				2.21138596534729,
				0
			]
		},
		{
			"mesh":1,
			"name":"Cube",
			"scale":[
				0.01965950056910515,
				0.01965950056910515,
				0.01965950056910515
			],
			"translation":[
				-0.0005428354488685727,
				0.1491546630859375,
				0.0006215056637302041
			]
		},
		{
			"mesh":1,
			"name":"Cube.001",
			"scale":[
				0.01965950056910515,
				0.01965950056910515,
				0.01965950056910515
			],
			"translation":[
				-0.11004970222711563,
				0.1491546630859375,
				0.0006215056637302041
			]
		},
		{
			"mesh":1,
			"name":"Cube.002",
			"scale":[
				0.01965950056910515,
				0.01965950056910515,
				0.01965950056910515
			],
			"translation":[
				0.10702633857727051,
				0.1491546630859375,
				0.0006215056637302041
			]
		},
		{
			"mesh":1,
			"name":"Cube.003",
			"rotation":[
				0,
				0.7088667750358582,
				0,
				0.7053424119949341
			],
			"scale":[
				0.019659502431750298,
				0.01965950056910515,
				0.019659502431750298
			],
			"translation":[
				-0.0008632231620140374,
				0.1491546630859375,
				0.10196655988693237
			]
		},
		{
			"mesh":1,
			"name":"Cube.004",
			"rotation":[
				0,
				0.7088667750358582,
				0,
				0.7053424119949341
			],
			"scale":[
				0.019659502431750298,
				0.01965950056910515,
				0.019659502431750298
			],
			"translation":[
				-0.0015574430581182241,
				0.1491546630859375,
				-0.0955514907836914
			]
		},
		{
			"mesh":1,
			"name":"Cube.005",
			"rotation":[
				0,
				0.358114629983902,
				0,
				0.9336777329444885
			],
			"scale":[
				0.01965950056910515,
				0.01965950056910515,
				0.01965950056910515
			],
			"translation":[
				-0.08221055567264557,
				0.1491546630859375,
				0.07320382446050644
			]
		},
		{
			"mesh":1,
			"name":"Cube.006",
			"rotation":[
				0,
				0.358114629983902,
				0,
				0.9336777329444885
			],
			"scale":[
				0.01965950056910515,
				0.01965950056910515,
				0.01965950056910515
			],
			"translation":[
				0.07918718457221985,
				0.1491546630859375,
				-0.07196081429719925
			]
		},
		{
			"mesh":1,
			"name":"Cube.007",
			"rotation":[
				0,
				0.926357090473175,
				0,
				0.3766464591026306
			],
			"scale":[
				0.01965950056910515,
				0.01965950056910515,
				0.01965950056910515
			],
			"translation":[
				0.07623137533664703,
				0.1491546630859375,
				0.07636130601167679
			]
		},
		{
			"mesh":1,
			"name":"Cube.008",
			"rotation":[
				0,
				0.926357090473175,
				0,
				0.3766464591026306
			],
			"scale":[
				0.01965950056910515,
				0.01965950056910515,
				0.01965950056910515
			],
			"translation":[
				-0.07925474643707275,
				0.1491546630859375,
				-0.0751182958483696
			]
		},
		{
			"mesh":2,
			"name":"s2e",
			"scale":[
				0.1864301860332489,
				1.5709806680679321,
				0.1864301860332489
			],
			"translation":[
				0,
				2.21138596534729,
				0
			]
		},
		{
			"name":"Cylinder.002",
			"scale":[
				0.1864301860332489,
				1.5709806680679321,
				0.1864301860332489
			],
			"translation":[
				0,
				1.556459665298462,
				0
			]
		},
		{
			"mesh":3,
			"name":"Cylinder.003",
			"scale":[
				0.1864301860332489,
				1.5709806680679321,
				0.1864301860332489
			],
			"translation":[
				0,
				2.21138596534729,
				0
			]
		},
		{
			"mesh":4,
			"name":"Plane",
			"scale":[
				-2.8566555976867676,
				-3.3316128253936768,
				-2.7866504192352295
			],
			"translation":[
				-0.011105481535196304,
				-0.3919771611690521,
				0.006616394966840744
			]
		},
		{
			"mesh":5,
			"name":"Cylinder.001",
			"scale":[
				0.7034764885902405,
				0.014173208735883236,
				0.7034764885902405
			],
			"translation":[
				-0.001964110881090164,
				0.09823852777481079,
				0.012632172554731369
			]
		},
		{
			"mesh":6,
			"name":"Circle",
			"scale":[
				1.4776090383529663,
				1.4776090383529663,
				1.4776090383529663
			],
			"translation":[
				0,
				0.02195066213607788,
				-0.0009047985076904297
			]
		},
		{
			"mesh":7,
			"name":"spacexvert",
			"rotation":[
				0,
				0,
				0.7086683511734009,
				0.7055418491363525
			],
			"scale":[
				1.0002484321594238,
				0.7373272180557251,
				1
			],
			"translation":[
				0,
				2.164339542388916,
				0.1913490742444992
			]
		}
	],
	"materials":[
		{
			"doubleSided":true,
			"name":"s2e",
			"pbrMetallicRoughness":{
				"baseColorFactor":[
					0.005981060676276684,
					0.005981060676276684,
					0.005981060676276684,
					1
				],
				"metallicFactor":0,
				"roughnessFactor":0.5
			}
		},
		{
			"doubleSided":true,
			"name":"s1/s2",
			"pbrMetallicRoughness":{
				"baseColorFactor":[
					0.841199517250061,
					0.841199517250061,
					0.841199517250061,
					1
				],
				"metallicFactor":0,
				"roughnessFactor":0.5
			}
		},
		{
			"doubleSided":true,
			"name":"shading",
			"pbrMetallicRoughness":{
				"baseColorFactor":[
					0.7105491757392883,
					0.7105491757392883,
					0.7105491757392883,
					1
				],
				"metallicFactor":0,
				"roughnessFactor":0.5
			}
		},
		{
			"doubleSided":true,
			"name":"grayshading",
			"pbrMetallicRoughness":{
				"baseColorFactor":[
					0.841199517250061,
					0.841199517250061,
					0.841199517250061,
					1
				],
				"metallicFactor":0,
				"roughnessFactor":0.5
			}
		},
		{
			"doubleSided":true,
			"name":"Material.001",
			"pbrMetallicRoughness":{
				"metallicFactor":0,
				"roughnessFactor":0.5
			}
		},
		{
			"doubleSided":true,
			"name":"grass",
			"pbrMetallicRoughness":{
				"baseColorFactor":[
					0.04227468743920326,
					0.2018958330154419,
					0.044965289533138275,
					1
				],
				"metallicFactor":0,
				"roughnessFactor":0.5
			}
		},
		{
			"doubleSided":true,
			"name":"dirt",
			"pbrMetallicRoughness":{
				"baseColorFactor":[
					0.08000966161489487,
					0.04727604612708092,
					0.014354920946061611,
					1
				],
				"metallicFactor":0,
				"roughnessFactor":0.5
			}
		},
		{
			"doubleSided":true,
			"name":"launchfloor",
			"pbrMetallicRoughness":{
				"baseColorFactor":[
					0.28100714087486267,
					0.28100714087486267,
					0.28100714087486267,
					1
				],
				"metallicFactor":0,
				"roughnessFactor":0.5
			}
		},
		{
			"doubleSided":true,
			"name":"landingpad",
			"pbrMetallicRoughness":{
				"baseColorFactor":[
					0.4292215406894684,
					0.4292215406894684,
					0.4292215406894684,
					1
				],
				"metallicFactor":0,
				"roughnessFactor":0.5
			}
		},
		{
			"doubleSided":true,
			"name":"padborder",
			"pbrMetallicRoughness":{
				"baseColorFactor":[
					0.9403864741325378,
					0.9403864741325378,
					0.9403864741325378,
					1
				],
				"metallicFactor":0,
				"roughnessFactor":0.5
			}
		},
		{
			"doubleSided":true,
			"name":"concrete",
			"pbrMetallicRoughness":{
				"baseColorFactor":[
					0.06071816012263298,
					0.06071816012263298,
					0.06071816012263298,
					1
				],
				"metallicFactor":0,
				"roughnessFactor":0.5
			}
		},
		{
			"doubleSided":true,
			"name":"border",
			"pbrMetallicRoughness":{
				"baseColorFactor":[
					0.698187530040741,
					0.698187530040741,
					0.698187530040741,
					1
				],
				"metallicFactor":0,
				"roughnessFactor":0.5
			}
		},
		{
			"alphaMode":"BLEND",
			"doubleSided":true,
			"name":"spacexvert",
			"pbrMetallicRoughness":{
				"baseColorTexture":{
					"index":0
				},
				"metallicFactor":0,
				"roughnessFactor":0.5
			}
		}
	],
	"meshes":[
		{
			"name":"Cylinder",
			"primitives":[
				{
					"attributes":{
						"POSITION":0,
						"TEXCOORD_0":1,
						"NORMAL":2
					},
					"indices":3,
					"material":0
				},
				{
					"attributes":{
						"POSITION":4,
						"TEXCOORD_0":5,
						"NORMAL":6
					},
					"indices":7,
					"material":1
				},
				{
					"attributes":{
						"POSITION":8,
						"TEXCOORD_0":9,
						"NORMAL":10
					},
					"indices":11,
					"material":2
				},
				{
					"attributes":{
						"POSITION":12,
						"TEXCOORD_0":13,
						"NORMAL":14
					},
					"indices":15,
					"material":3
				}
			]
		},
		{
			"name":"Cube.001",
			"primitives":[
				{
					"attributes":{
						"POSITION":16,
						"TEXCOORD_0":17,
						"NORMAL":18
					},
					"indices":19,
					"material":4
				}
			]
		},
		{
			"name":"Cylinder.002",
			"primitives":[
				{
					"attributes":{
						"POSITION":20,
						"TEXCOORD_0":21,
						"NORMAL":22
					},
					"indices":23,
					"material":0
				}
			]
		},
		{
			"name":"Cylinder.004",
			"primitives":[
				{
					"attributes":{
						"POSITION":24,
						"TEXCOORD_0":25,
						"NORMAL":26
					},
					"indices":27,
					"material":1
				}
			]
		},
		{
			"name":"Plane.001",
			"primitives":[
				{
					"attributes":{
						"POSITION":28,
						"TEXCOORD_0":29,
						"NORMAL":30
					},
					"indices":31,
					"material":5
				},
				{
					"attributes":{
						"POSITION":32,
						"TEXCOORD_0":33,
						"NORMAL":34
					},
					"indices":35,
					"material":6
				}
			]
		},
		{
			"name":"Cylinder.003",
			"primitives":[
				{
					"attributes":{
						"POSITION":36,
						"TEXCOORD_0":37,
						"NORMAL":38
					},
					"indices":39,
					"material":7
				},
				{
					"attributes":{
						"POSITION":40,
						"TEXCOORD_0":41,
						"NORMAL":42
					},
					"indices":43,
					"material":8
				},
				{
					"attributes":{
						"POSITION":44,
						"TEXCOORD_0":45,
						"NORMAL":46
					},
					"indices":47,
					"material":9
				}
			]
		},
		{
			"name":"Circle.001",
			"primitives":[
				{
					"attributes":{
						"POSITION":48,
						"TEXCOORD_0":49,
						"NORMAL":50
					},
					"indices":51,
					"material":10
				},
				{
					"attributes":{
						"POSITION":52,
						"TEXCOORD_0":53,
						"NORMAL":54
					},
					"indices":55,
					"material":11
				}
			]
		},
		{
			"name":"spacexvert",
			"primitives":[
				{
					"attributes":{
						"POSITION":56,
						"TEXCOORD_0":57,
						"NORMAL":58
					},
					"indices":59,
					"material":12
				}
			]
		}
	],
	"textures":[
		{
			"sampler":0,
			"source":0
		}
	],
	"images":[
		{
			"bufferView":60,
			"mimeType":"image/png",
			"name":"spacexvert"
		}
	],
	"accessors":[
		{
			"bufferView":0,
			"componentType":5126,
			"count":143,
			"max":[
				0.9493885040283203,
				-1.2354267835617065,
				0.9095690250396729
			],
			"min":[
				-0.9493890404701233,
				-1.299870252609253,
				-0.9095690250396729
			],
			"type":"VEC3"
		},
		{
			"bufferView":1,
			"componentType":5126,
			"count":143,
			"type":"VEC2"
		},
		{
			"bufferView":2,
			"componentType":5126,
			"count":143,
			"type":"VEC3"
		},
		{
			"bufferView":3,
			"componentType":5123,
			"count":474,
			"type":"SCALAR"
		},
		{
			"bufferView":4,
			"componentType":5126,
			"count":566,
			"max":[
				1.160081148147583,
				2.314671039581299,
				1.1714152097702026
			],
			"min":[
				-1.160082459449768,
				-1.2354267835617065,
				-1.1714153289794922
			],
			"type":"VEC3"
		},
		{
			"bufferView":5,
			"componentType":5126,
			"count":566,
			"type":"VEC2"
		},
		{
			"bufferView":6,
			"componentType":5126,
			"count":566,
			"type":"VEC3"
		},
		{
			"bufferView":7,
			"componentType":5123,
			"count":2010,
			"type":"SCALAR"
		},
		{
			"bufferView":8,
			"componentType":5126,
			"count":151,
			"max":[
				1.1686326265335083,
				1.7229582071304321,
				1.1800497770309448
			],
			"min":[
				-1.1686328649520874,
				1.6329083442687988,
				-1.1800497770309448
			],
			"type":"VEC3"
		},
		{
			"bufferView":9,
			"componentType":5126,
			"count":151,
			"type":"VEC2"
		},
		{
			"bufferView":10,
			"componentType":5126,
			"count":151,
			"type":"VEC3"
		},
		{
			"bufferView":11,
			"componentType":5123,
			"count":576,
			"type":"SCALAR"
		},
		{
			"bufferView":12,
			"componentType":5126,
			"count":131,
			"max":[
				1.1861722469329834,
				2.0881290435791016,
				1.1977611780166626
			],
			"min":[
				-1.186173439025879,
				1.7229582071304321,
				-1.1977611780166626
			],
			"type":"VEC3"
		},
		{
			"bufferView":13,
			"componentType":5126,
			"count":131,
			"type":"VEC2"
		},
		{
			"bufferView":14,
			"componentType":5126,
			"count":131,
			"type":"VEC3"
		},
		{
			"bufferView":15,
			"componentType":5123,
			"count":384,
			"type":"SCALAR"
		},
		{
			"bufferView":16,
			"componentType":5126,
			"count":88,
			"max":[
				1.9827415943145752,
				2.193903923034668,
				1.9827415943145752
			],
			"min":[
				-1.9827415943145752,
				-2.19651460647583,
				-1.9827415943145752
			],
			"type":"VEC3"
		},
		{
			"bufferView":17,
			"componentType":5126,
			"count":88,
			"type":"VEC2"
		},
		{
			"bufferView":18,
			"componentType":5126,
			"count":88,
			"type":"VEC3"
		},
		{
			"bufferView":19,
			"componentType":5123,
			"count":156,
			"type":"SCALAR"
		},
		{
			"bufferView":20,
			"componentType":5126,
			"count":74,
			"max":[
				0.9493888020515442,
				1.169037103652954,
				0.9095690250396729
			],
			"min":[
				-0.9493888020515442,
				0.8494939804077148,
				-0.9095690250396729
			],
			"type":"VEC3"
		},
		{
			"bufferView":21,
			"componentType":5126,
			"count":74,
			"type":"VEC2"
		},
		{
			"bufferView":22,
			"componentType":5126,
			"count":74,
			"type":"VEC3"
		},
		{
			"bufferView":23,
			"componentType":5123,
			"count":192,
			"type":"SCALAR"
		},
		{
			"bufferView":24,
			"componentType":5126,
			"count":74,
			"max":[
				0.9493888020515442,
				0.36706215143203735,
				0.9095690250396729
			],
			"min":[
				-0.9493892788887024,
				-0.4168899655342102,
				-0.9095690250396729
			],
			"type":"VEC3"
		},
		{
			"bufferView":25,
			"componentType":5126,
			"count":74,
			"type":"VEC2"
		},
		{
			"bufferView":26,
			"componentType":5126,
			"count":74,
			"type":"VEC3"
		},
		{
			"bufferView":27,
			"componentType":5123,
			"count":192,
			"type":"SCALAR"
		},
		{
			"bufferView":28,
			"componentType":5126,
			"count":320,
			"max":[
				1.4370883703231812,
				0.00401393324136734,
				1.3451672792434692
			],
			"min":[
				-1.3848903179168701,
				-0.12987828254699707,
				-1.2301440238952637
			],
			"type":"VEC3"
		},
		{
			"bufferView":29,
			"componentType":5126,
			"count":320,
			"type":"VEC2"
		},
		{
			"bufferView":30,
			"componentType":5126,
			"count":320,
			"type":"VEC3"
		},
		{
			"bufferView":31,
			"componentType":5123,
			"count":990,
			"type":"SCALAR"
		},
		{
			"bufferView":32,
			"componentType":5126,
			"count":320,
			"max":[
				1.3890910148620605,
				0.12865158915519714,
				1.3003298044204712
			],
			"min":[
				-1.3388012647628784,
				0.004013918340206146,
				-1.1891192197799683
			],
			"type":"VEC3"
		},
		{
			"bufferView":33,
			"componentType":5126,
			"count":320,
			"type":"VEC2"
		},
		{
			"bufferView":34,
			"componentType":5126,
			"count":320,
			"type":"VEC3"
		},
		{
			"bufferView":35,
			"componentType":5123,
			"count":990,
			"type":"SCALAR"
		},
		{
			"bufferView":36,
			"componentType":5126,
			"count":59,
			"max":[
				0.9749279022216797,
				0.6685290336608887,
				0.9009688496589661
			],
			"min":[
				-0.9749279022216797,
				-1.3314709663391113,
				-1
			],
			"type":"VEC3"
		},
		{
			"bufferView":37,
			"componentType":5126,
			"count":59,
			"type":"VEC2"
		},
		{
			"bufferView":38,
			"componentType":5126,
			"count":59,
			"type":"VEC3"
		},
		{
			"bufferView":39,
			"componentType":5123,
			"count":93,
			"type":"SCALAR"
		},
		{
			"bufferView":40,
			"componentType":5126,
			"count":7,
			"max":[
				0.9305989742279053,
				-0.005587100982666016,
				0.8600028157234192
			],
			"min":[
				-0.93059903383255,
				-0.005587100982666016,
				-0.9545311331748962
			],
			"type":"VEC3"
		},
		{
			"bufferView":41,
			"componentType":5126,
			"count":7,
			"type":"VEC2"
		},
		{
			"bufferView":42,
			"componentType":5126,
			"count":7,
			"type":"VEC3"
		},
		{
			"bufferView":43,
			"componentType":5123,
			"count":15,
			"type":"SCALAR"
		},
		{
			"bufferView":44,
			"componentType":5126,
			"count":18,
			"max":[
				0.9749279022216797,
				0.6685290336608887,
				0.9009688496589661
			],
			"min":[
				-0.9749279022216797,
				-0.005587100982666016,
				-1
			],
			"type":"VEC3"
		},
		{
			"bufferView":45,
			"componentType":5126,
			"count":18,
			"type":"VEC2"
		},
		{
			"bufferView":46,
			"componentType":5126,
			"count":18,
			"type":"VEC3"
		},
		{
			"bufferView":47,
			"componentType":5123,
			"count":48,
			"type":"SCALAR"
		},
		{
			"bufferView":48,
			"componentType":5126,
			"count":70,
			"max":[
				0.9749279022216797,
				0.0880352333188057,
				0.9009688496589661
			],
			"min":[
				-0.9749279022216797,
				0,
				-1.0503278970718384
			],
			"type":"VEC3"
		},
		{
			"bufferView":49,
			"componentType":5126,
			"count":70,
			"type":"VEC2"
		},
		{
			"bufferView":50,
			"componentType":5126,
			"count":70,
			"type":"VEC3"
		},
		{
			"bufferView":51,
			"componentType":5123,
			"count":114,
			"type":"SCALAR"
		},
		{
			"bufferView":52,
			"componentType":5126,
			"count":14,
			"max":[
				0.9749279022216797,
				0.0880352333188057,
				0.9009688496589661
			],
			"min":[
				-0.9749279022216797,
				0.0880352333188057,
				-1.0503278970718384
			],
			"type":"VEC3"
		},
		{
			"bufferView":53,
			"componentType":5126,
			"count":14,
			"type":"VEC2"
		},
		{
			"bufferView":54,
			"componentType":5126,
			"count":14,
			"type":"VEC3"
		},
		{
			"bufferView":55,
			"componentType":5123,
			"count":42,
			"type":"SCALAR"
		},
		{
			"bufferView":56,
			"componentType":5126,
			"count":104,
			"max":[
				0.5010266304016113,
				0.14807355403900146,
				0.0005064010620117188
			],
			"min":[
				-0.5010273456573486,
				-0.14809513092041016,
				-0.006817359011620283
			],
			"type":"VEC3"
		},
		{
			"bufferView":57,
			"componentType":5126,
			"count":104,
			"type":"VEC2"
		},
		{
			"bufferView":58,
			"componentType":5126,
			"count":104,
			"type":"VEC3"
		},
		{
			"bufferView":59,
			"componentType":5123,
			"count":276,
			"type":"SCALAR"
		}
	],
	"bufferViews":[
		{
			"buffer":0,
			"byteLength":1716,
			"byteOffset":0,
			"target":34962
		},
		{
			"buffer":0,
			"byteLength":1144,
			"byteOffset":1716,
			"target":34962
		},
		{
			"buffer":0,
			"byteLength":1716,
			"byteOffset":2860,
			"target":34962
		},
		{
			"buffer":0,
			"byteLength":948,
			"byteOffset":4576,
			"target":34963
		},
		{
			"buffer":0,
			"byteLength":6792,
			"byteOffset":5524,
			"target":34962
		},
		{
			"buffer":0,
			"byteLength":4528,
			"byteOffset":12316,
			"target":34962
		},
		{
			"buffer":0,
			"byteLength":6792,
			"byteOffset":16844,
			"target":34962
		},
		{
			"buffer":0,
			"byteLength":4020,
			"byteOffset":23636,
			"target":34963
		},
		{
			"buffer":0,
			"byteLength":1812,
			"byteOffset":27656,
			"target":34962
		},
		{
			"buffer":0,
			"byteLength":1208,
			"byteOffset":29468,
			"target":34962
		},
		{
			"buffer":0,
			"byteLength":1812,
			"byteOffset":30676,
			"target":34962
		},
		{
			"buffer":0,
			"byteLength":1152,
			"byteOffset":32488,
			"target":34963
		},
		{
			"buffer":0,
			"byteLength":1572,
			"byteOffset":33640,
			"target":34962
		},
		{
			"buffer":0,
			"byteLength":1048,
			"byteOffset":35212,
			"target":34962
		},
		{
			"buffer":0,
			"byteLength":1572,
			"byteOffset":36260,
			"target":34962
		},
		{
			"buffer":0,
			"byteLength":768,
			"byteOffset":37832,
			"target":34963
		},
		{
			"buffer":0,
			"byteLength":1056,
			"byteOffset":38600,
			"target":34962
		},
		{
			"buffer":0,
			"byteLength":704,
			"byteOffset":39656,
			"target":34962
		},
		{
			"buffer":0,
			"byteLength":1056,
			"byteOffset":40360,
			"target":34962
		},
		{
			"buffer":0,
			"byteLength":312,
			"byteOffset":41416,
			"target":34963
		},
		{
			"buffer":0,
			"byteLength":888,
			"byteOffset":41728,
			"target":34962
		},
		{
			"buffer":0,
			"byteLength":592,
			"byteOffset":42616,
			"target":34962
		},
		{
			"buffer":0,
			"byteLength":888,
			"byteOffset":43208,
			"target":34962
		},
		{
			"buffer":0,
			"byteLength":384,
			"byteOffset":44096,
			"target":34963
		},
		{
			"buffer":0,
			"byteLength":888,
			"byteOffset":44480,
			"target":34962
		},
		{
			"buffer":0,
			"byteLength":592,
			"byteOffset":45368,
			"target":34962
		},
		{
			"buffer":0,
			"byteLength":888,
			"byteOffset":45960,
			"target":34962
		},
		{
			"buffer":0,
			"byteLength":384,
			"byteOffset":46848,
			"target":34963
		},
		{
			"buffer":0,
			"byteLength":3840,
			"byteOffset":47232,
			"target":34962
		},
		{
			"buffer":0,
			"byteLength":2560,
			"byteOffset":51072,
			"target":34962
		},
		{
			"buffer":0,
			"byteLength":3840,
			"byteOffset":53632,
			"target":34962
		},
		{
			"buffer":0,
			"byteLength":1980,
			"byteOffset":57472,
			"target":34963
		},
		{
			"buffer":0,
			"byteLength":3840,
			"byteOffset":59452,
			"target":34962
		},
		{
			"buffer":0,
			"byteLength":2560,
			"byteOffset":63292,
			"target":34962
		},
		{
			"buffer":0,
			"byteLength":3840,
			"byteOffset":65852,
			"target":34962
		},
		{
			"buffer":0,
			"byteLength":1980,
			"byteOffset":69692,
			"target":34963
		},
		{
			"buffer":0,
			"byteLength":708,
			"byteOffset":71672,
			"target":34962
		},
		{
			"buffer":0,
			"byteLength":472,
			"byteOffset":72380,
			"target":34962
		},
		{
			"buffer":0,
			"byteLength":708,
			"byteOffset":72852,
			"target":34962
		},
		{
			"buffer":0,
			"byteLength":186,
			"byteOffset":73560,
			"target":34963
		},
		{
			"buffer":0,
			"byteLength":84,
			"byteOffset":73748,
			"target":34962
		},
		{
			"buffer":0,
			"byteLength":56,
			"byteOffset":73832,
			"target":34962
		},
		{
			"buffer":0,
			"byteLength":84,
			"byteOffset":73888,
			"target":34962
		},
		{
			"buffer":0,
			"byteLength":30,
			"byteOffset":73972,
			"target":34963
		},
		{
			"buffer":0,
			"byteLength":216,
			"byteOffset":74004,
			"target":34962
		},
		{
			"buffer":0,
			"byteLength":144,
			"byteOffset":74220,
			"target":34962
		},
		{
			"buffer":0,
			"byteLength":216,
			"byteOffset":74364,
			"target":34962
		},
		{
			"buffer":0,
			"byteLength":96,
			"byteOffset":74580,
			"target":34963
		},
		{
			"buffer":0,
			"byteLength":840,
			"byteOffset":74676,
			"target":34962
		},
		{
			"buffer":0,
			"byteLength":560,
			"byteOffset":75516,
			"target":34962
		},
		{
			"buffer":0,
			"byteLength":840,
			"byteOffset":76076,
			"target":34962
		},
		{
			"buffer":0,
			"byteLength":228,
			"byteOffset":76916,
			"target":34963
		},
		{
			"buffer":0,
			"byteLength":168,
			"byteOffset":77144,
			"target":34962
		},
		{
			"buffer":0,
			"byteLength":112,
			"byteOffset":77312,
			"target":34962
		},
		{
			"buffer":0,
			"byteLength":168,
			"byteOffset":77424,
			"target":34962
		},
		{
			"buffer":0,
			"byteLength":84,
			"byteOffset":77592,
			"target":34963
		},
		{
			"buffer":0,
			"byteLength":1248,
			"byteOffset":77676,
			"target":34962
		},
		{
			"buffer":0,
			"byteLength":832,
			"byteOffset":78924,
			"target":34962
		},
		{
			"buffer":0,
			"byteLength":1248,
			"byteOffset":79756,
			"target":34962
		},
		{
			"buffer":0,
			"byteLength":552,
			"byteOffset":81004,
			"target":34963
		},
		{
			"buffer":0,
			"byteLength":18939,
			"byteOffset":81556
		}
	],
	"samplers":[
		{
			"magFilter":9729,
			"minFilter":9987,
			"wrapS":33071,
			"wrapT":33071
		}
	],
	"buffers":[
		{
			"byteLength":100496,
			"uri":"data:application/octet-stream;base64,"
		}
	]
}
