{
	"asset":{
		"generator":"Khronos glTF Blender I/O v3.5.30",
		"version":"2.0"
	},
	"scene":0,
	"scenes":[
		{
			"name":"Scene",
			"nodes":[
				0,
				1,
				2,
				3,
				4,
				5,
				6,
				7,
				8,
				9,
				10,
				11,
				12,
				13,
				14,
				15,
				16,
				17
			]
		}
	],
	"nodes":[
		{
			"name":"Empty",
			"rotation":[
				0.70710688829422,
				0,
				0,
				0.7071066498756409
			],
			"scale":[
				1.1881273984909058,
				1.1881273984909058,
				1.1881273984909058
			],
			"translation":[
				2.00240421295166,
				2.919109344482422,
				0
			]
		},
		{
			"name":"Empty.001",
			"rotation":[
				0.7071069478988647,
				0,
				0,
				0.7071066498756409
			],
			"scale":[
				1.2018104791641235,
				1.2018104791641235,
				1.2018104791641235
			],
			"translation":[
				0,
				2.923858642578125,
				0
			]
		},
		{
			"name":"Empty.002",
			"rotation":[
				0.5,
				-0.5,
				0.5,
				0.5
			],
			"scale":[
				0.7045358419418335,
				0.7045358419418335,
				0.7045358419418335
			],
			"translation":[
				0,
				1.8118757009506226,
				0
			]
		},
		{
			"name":"Empty.003",
			"rotation":[
				0.70710688829422,
				0,
				0,
				0.7071066498756409
			],
			"scale":[
				0.6553486585617065,
				0.6553486585617065,
				0.6553486585617065
			],
			"translation":[
				0.0027220845222473145,
				1.7617934942245483,
				0
			]
		},
		{
			"name":"Empty.004",
			"rotation":[
				0.70710688829422,
				0,
				0,
				0.7071066498756409
			],
			"scale":[
				0.5367533564567566,
				0.5367533564567566,
				0.5367533564567566
			],
			"translation":[
				0,
				1.4117342233657837,
				0
			]
		},
		{
			"name":"Empty.006",
			"rotation":[
				0.7071069478988647,
				0,
				0,
				0.7071066498756409
			],
			"scale":[
				0.759209930896759,
				0.759209930896759,
				0.759209930896759
			],
			"translation":[
				-0.0037943946663290262,
				1.8403576612472534,
				0
			]
		},
		{
			"name":"Empty.007",
			"rotation":[
				0.70710688829422,
				0,
				0,
				0.7071066498756409
			],
			"scale":[
				1.0434199571609497,
				1.0434199571609497,
				1.0434199571609497
			],
			"translation":[
				0.0011153221130371094,
				2.6035051345825195,
				0
			]
		},
		{
			"name":"Empty.008",
			"rotation":[
				0.70710688829422,
				0,
				0,
				0.7071066498756409
			],
			"scale":[
				1.5690853595733643,
				1.5690853595733643,
				1.5690853595733643
			],
			"translation":[
				0,
				4.376840114593506,
				0
			]
		},
		{
			"mesh":0,
			"name":"Cylinder.003",
			"scale":[
				0.7034764885902405,
				0.014173208735883236,
				0.7034764885902405
			],
			"translation":[
				-0.08501625061035156,
				0,
				-0.13619232177734375
			]
		},
		{
			"name":"Empty.005",
			"rotation":[
				0.7071069478988647,
				0,
				0,
				0.7071066498756409
			],
			"scale":[
				0.9925476312637329,
				0.9925476312637329,
				0.9925476312637329
			],
			"translation":[
				0,
				2.9349288940429688,
				0
			]
		},
		{
			"name":"Empty.009",
			"rotation":[
				0.70710688829422,
				0,
				0,
				0.7071066498756409
			],
			"scale":[
				1.4741976261138916,
				1.4741976261138916,
				1.4741976261138916
			],
			"translation":[
				0,
				4.024935722351074,
				0
			]
		},
		{
			"name":"Empty.010",
			"rotation":[
				0.70710688829422,
				0,
				0,
				0.7071066498756409
			],
			"scale":[
				1.0433164834976196,
				1.0433164834976196,
				1.0433164834976196
			],
			"translation":[
				-0.0039133718237280846,
				2.988084316253662,
				0
			]
		},
		{
			"name":"Empty.011",
			"rotation":[
				0.707101583480835,
				-0.0027344117406755686,
				-0.002734412206336856,
				0.7071014642715454
			],
			"scale":[
				0.9500223994255066,
				0.9500223994255066,
				0.9500223994255066
			],
			"translation":[
				0.0005727699026465416,
				2.7937815189361572,
				0
			]
		},
		{
			"name":"Empty.012",
			"rotation":[
				0.70710688829422,
				0,
				0,
				0.7071066498756409
			],
			"scale":[
				0.48583683371543884,
				0.48583683371543884,
				0.48583683371543884
			],
			"translation":[
				0,
				1.6649558544158936,
				0
			]
		},
		{
			"name":"Empty.013",
			"rotation":[
				0.7071069478988647,
				0,
				0,
				0.7071066498756409
			],
			"scale":[
				0.747901976108551,
				0.747901976108551,
				0.747901976108551
			],
			"translation":[
				0,
				1.4556490182876587,
				0
			]
		},
		{
			"name":"Empty.014",
			"rotation":[
				0.70710688829422,
				0,
				0,
				0.7071066498756409
			],
			"scale":[
				0.4894627332687378,
				0.4894627332687378,
				0.4894627332687378
			],
			"translation":[
				0,
				1.679296851158142,
				0
			]
		},
		{
			"name":"Empty.015",
			"rotation":[
				0.70710688829422,
				0,
				0,
				0.7071066498756409
			],
			"scale":[
				0.49604159593582153,
				0.49604159593582153,
				0.49604159593582153
			],
			"translation":[
				0,
				1.696397304534912,
				0
			]
		},
		{
			"mesh":1,
			"name":"Cylinder.001",
			"rotation":[
				0,
				-0.9961947202682495,
				0,
				0.08715580403804779
			],
			"scale":[
				0.09990520775318146,
				0.30709823966026306,
				0.09990520775318146
			],
			"translation":[
				0,
				-0.03439435362815857,
				0
			]
		}
	],
	"materials":[
		{
			"doubleSided":true,
			"name":"padborder",
			"pbrMetallicRoughness":{
				"baseColorFactor":[
					0.9403864741325378,
					0.9403864741325378,
					0.9403864741325378,
					1
				],
				"metallicFactor":0,
				"roughnessFactor":0.5
			}
		},
		{
			"doubleSided":true,
			"name":"border",
			"pbrMetallicRoughness":{
				"baseColorFactor":[
					0.698187530040741,
					0.698187530040741,
					0.698187530040741,
					1
				],
				"metallicFactor":0,
				"roughnessFactor":0.5
			}
		},
		{
			"doubleSided":true,
			"name":"launchfloor",
			"pbrMetallicRoughness":{
				"baseColorFactor":[
					0.28100714087486267,
					0.28100714087486267,
					0.28100714087486267,
					1
				],
				"metallicFactor":0,
				"roughnessFactor":0.5
			}
		},
		{
			"doubleSided":true,
			"name":"landingpad",
			"pbrMetallicRoughness":{
				"baseColorFactor":[
					0.4292215406894684,
					0.4292215406894684,
					0.4292215406894684,
					1
				],
				"metallicFactor":0,
				"roughnessFactor":0.5
			}
		},
		{
			"doubleSided":true,
			"name":"dirt",
			"pbrMetallicRoughness":{
				"baseColorFactor":[
					0.0802198201417923,
					0.04666505753993988,
					0.014443851076066494,
					1
				],
				"metallicFactor":0,
				"roughnessFactor":0.5
			}
		},
		{
			"doubleSided":true,
			"name":"grass",
			"pbrMetallicRoughness":{
				"baseColorFactor":[
					0.051268793642520905,
					0.5840782523155212,
					0.3613068461418152,
					1
				],
				"metallicFactor":0,
				"roughnessFactor":0.5
			}
		},
		{
			"doubleSided":true,
			"name":"topgrass",
			"pbrMetallicRoughness":{
				"baseColorFactor":[
					0.02842560224235058,
					0.33245134353637695,
					0.30054378509521484,
					1
				],
				"metallicFactor":0,
				"roughnessFactor":0.5
			}
		},
		{
			"doubleSided":true,
			"name":"concrete",
			"pbrMetallicRoughness":{
				"baseColorFactor":[
					0.06071816012263298,
					0.06071816012263298,
					0.06071816012263298,
					1
				],
				"metallicFactor":0,
				"roughnessFactor":0.5
			}
		},
		{
			"doubleSided":true,
			"name":"Material.001",
			"pbrMetallicRoughness":{
				"baseColorTexture":{
					"index":0
				},
				"metallicFactor":0,
				"roughnessFactor":0.5
			}
		}
	],
	"meshes":[
		{
			"name":"Cylinder.002",
			"primitives":[
				{
					"attributes":{
						"POSITION":0,
						"TEXCOORD_0":1,
						"NORMAL":2
					},
					"indices":3,
					"material":0
				},
				{
					"attributes":{
						"POSITION":4,
						"TEXCOORD_0":5,
						"NORMAL":6
					},
					"indices":7,
					"material":1
				},
				{
					"attributes":{
						"POSITION":8,
						"TEXCOORD_0":9,
						"NORMAL":10
					},
					"indices":11,
					"material":2
				},
				{
					"attributes":{
						"POSITION":12,
						"TEXCOORD_0":13,
						"NORMAL":14
					},
					"indices":15,
					"material":3
				},
				{
					"attributes":{
						"POSITION":16,
						"TEXCOORD_0":17,
						"NORMAL":18
					},
					"indices":19,
					"material":4
				},
				{
					"attributes":{
						"POSITION":20,
						"TEXCOORD_0":21,
						"NORMAL":22
					},
					"indices":23,
					"material":5
				},
				{
					"attributes":{
						"POSITION":24,
						"TEXCOORD_0":25,
						"NORMAL":26
					},
					"indices":27,
					"material":6
				},
				{
					"attributes":{
						"POSITION":28,
						"TEXCOORD_0":29,
						"NORMAL":30
					},
					"indices":31,
					"material":7
				}
			]
		},
		{
			"name":"Cylinder.007",
			"primitives":[
				{
					"attributes":{
						"POSITION":32,
						"TEXCOORD_0":33,
						"NORMAL":34
					},
					"indices":35,
					"material":8
				}
			]
		}
	],
	"textures":[
		{
			"sampler":0,
			"source":0
		}
	],
	"images":[
		{
			"bufferView":36,
			"mimeType":"image/png",
			"name":"gravity1"
		}
	],
	"accessors":[
		{
			"bufferView":0,
			"componentType":5126,
			"count":26,
			"max":[
				1.0939054489135742,
				31.185230255126953,
				1.1373387575149536
			],
			"min":[
				-0.8559503555297852,
				30.51111602783203,
				-0.7636300921440125
			],
			"type":"VEC3"
		},
		{
			"bufferView":1,
			"componentType":5126,
			"count":26,
			"type":"VEC2"
		},
		{
			"bufferView":2,
			"componentType":5126,
			"count":26,
			"type":"VEC3"
		},
		{
			"bufferView":3,
			"componentType":5123,
			"count":48,
			"type":"SCALAR"
		},
		{
			"bufferView":4,
			"componentType":5126,
			"count":14,
			"max":[
				2.1695451736450195,
				34.31216049194336,
				2.1095564365386963
			],
			"min":[
				-1.92600679397583,
				34.31216049194336,
				-1.989022135734558
			],
			"type":"VEC3"
		},
		{
			"bufferView":5,
			"componentType":5126,
			"count":14,
			"type":"VEC2"
		},
		{
			"bufferView":6,
			"componentType":5126,
			"count":14,
			"type":"VEC3"
		},
		{
			"bufferView":7,
			"componentType":5123,
			"count":42,
			"type":"SCALAR"
		},
		{
			"bufferView":8,
			"componentType":5126,
			"count":59,
			"max":[
				1.0939054489135742,
				31.185230255126953,
				1.1373387575149536
			],
			"min":[
				-0.8559503555297852,
				29.185230255126953,
				-0.7636300921440125
			],
			"type":"VEC3"
		},
		{
			"bufferView":9,
			"componentType":5126,
			"count":59,
			"type":"VEC2"
		},
		{
			"bufferView":10,
			"componentType":5126,
			"count":59,
			"type":"VEC3"
		},
		{
			"bufferView":11,
			"componentType":5123,
			"count":93,
			"type":"SCALAR"
		},
		{
			"bufferView":12,
			"componentType":5126,
			"count":7,
			"max":[
				1.0495774745941162,
				30.511117935180664,
				1.0963727235794067
			],
			"min":[
				-0.8116204738616943,
				30.511117935180664,
				-0.7181612253189087
			],
			"type":"VEC3"
		},
		{
			"bufferView":13,
			"componentType":5126,
			"count":7,
			"type":"VEC2"
		},
		{
			"bufferView":14,
			"componentType":5126,
			"count":7,
			"type":"VEC3"
		},
		{
			"bufferView":15,
			"componentType":5123,
			"count":15,
			"type":"SCALAR"
		},
		{
			"bufferView":16,
			"componentType":5126,
			"count":320,
			"max":[
				5.542545318603516,
				-5.014313697814941,
				4.938223838806152
			],
			"min":[
				-5.53479528427124,
				-34.31216049194336,
				-4.923121452331543
			],
			"type":"VEC3"
		},
		{
			"bufferView":17,
			"componentType":5126,
			"count":320,
			"type":"VEC2"
		},
		{
			"bufferView":18,
			"componentType":5126,
			"count":320,
			"type":"VEC3"
		},
		{
			"bufferView":19,
			"componentType":5123,
			"count":990,
			"type":"SCALAR"
		},
		{
			"bufferView":20,
			"componentType":5126,
			"count":144,
			"max":[
				5.729701995849609,
				26.458938598632812,
				5.100733757019043
			],
			"min":[
				-5.729701519012451,
				26.45893096923828,
				-5.100733757019043
			],
			"type":"VEC3"
		},
		{
			"bufferView":21,
			"componentType":5126,
			"count":144,
			"type":"VEC2"
		},
		{
			"bufferView":22,
			"componentType":5126,
			"count":144,
			"type":"VEC3"
		},
		{
			"bufferView":23,
			"componentType":5123,
			"count":726,
			"type":"SCALAR"
		},
		{
			"bufferView":24,
			"componentType":5126,
			"count":176,
			"max":[
				5.729701995849609,
				26.458938598632812,
				5.100733757019043
			],
			"min":[
				-5.729701519012451,
				-5.014317512512207,
				-5.100733757019043
			],
			"type":"VEC3"
		},
		{
			"bufferView":25,
			"componentType":5126,
			"count":176,
			"type":"VEC2"
		},
		{
			"bufferView":26,
			"componentType":5126,
			"count":176,
			"type":"VEC3"
		},
		{
			"bufferView":27,
			"componentType":5123,
			"count":264,
			"type":"SCALAR"
		},
		{
			"bufferView":28,
			"componentType":5126,
			"count":70,
			"max":[
				2.1695451736450195,
				34.31216049194336,
				2.1095564365386963
			],
			"min":[
				-1.92600679397583,
				25.134159088134766,
				-1.989022135734558
			],
			"type":"VEC3"
		},
		{
			"bufferView":29,
			"componentType":5126,
			"count":70,
			"type":"VEC2"
		},
		{
			"bufferView":30,
			"componentType":5126,
			"count":70,
			"type":"VEC3"
		},
		{
			"bufferView":31,
			"componentType":5123,
			"count":114,
			"type":"SCALAR"
		},
		{
			"bufferView":32,
			"componentType":5126,
			"count":14496,
			"max":[
				3.1975786685943604,
				9.53864574432373,
				3.227416753768921
			],
			"min":[
				-3.1975786685943604,
				1.5285500288009644,
				-3.1583590507507324
			],
			"type":"VEC3"
		},
		{
			"bufferView":33,
			"componentType":5126,
			"count":14496,
			"type":"VEC2"
		},
		{
			"bufferView":34,
			"componentType":5126,
			"count":14496,
			"type":"VEC3"
		},
		{
			"bufferView":35,
			"componentType":5123,
			"count":22548,
			"type":"SCALAR"
		}
	],
	"bufferViews":[
		{
			"buffer":0,
			"byteLength":312,
			"byteOffset":0,
			"target":34962
		},
		{
			"buffer":0,
			"byteLength":208,
			"byteOffset":312,
			"target":34962
		},
		{
			"buffer":0,
			"byteLength":312,
			"byteOffset":520,
			"target":34962
		},
		{
			"buffer":0,
			"byteLength":96,
			"byteOffset":832,
			"target":34963
		},
		{
			"buffer":0,
			"byteLength":168,
			"byteOffset":928,
			"target":34962
		},
		{
			"buffer":0,
			"byteLength":112,
			"byteOffset":1096,
			"target":34962
		},
		{
			"buffer":0,
			"byteLength":168,
			"byteOffset":1208,
			"target":34962
		},
		{
			"buffer":0,
			"byteLength":84,
			"byteOffset":1376,
			"target":34963
		},
		{
			"buffer":0,
			"byteLength":708,
			"byteOffset":1460,
			"target":34962
		},
		{
			"buffer":0,
			"byteLength":472,
			"byteOffset":2168,
			"target":34962
		},
		{
			"buffer":0,
			"byteLength":708,
			"byteOffset":2640,
			"target":34962
		},
		{
			"buffer":0,
			"byteLength":186,
			"byteOffset":3348,
			"target":34963
		},
		{
			"buffer":0,
			"byteLength":84,
			"byteOffset":3536,
			"target":34962
		},
		{
			"buffer":0,
			"byteLength":56,
			"byteOffset":3620,
			"target":34962
		},
		{
			"buffer":0,
			"byteLength":84,
			"byteOffset":3676,
			"target":34962
		},
		{
			"buffer":0,
			"byteLength":30,
			"byteOffset":3760,
			"target":34963
		},
		{
			"buffer":0,
			"byteLength":3840,
			"byteOffset":3792,
			"target":34962
		},
		{
			"buffer":0,
			"byteLength":2560,
			"byteOffset":7632,
			"target":34962
		},
		{
			"buffer":0,
			"byteLength":3840,
			"byteOffset":10192,
			"target":34962
		},
		{
			"buffer":0,
			"byteLength":1980,
			"byteOffset":14032,
			"target":34963
		},
		{
			"buffer":0,
			"byteLength":1728,
			"byteOffset":16012,
			"target":34962
		},
		{
			"buffer":0,
			"byteLength":1152,
			"byteOffset":17740,
			"target":34962
		},
		{
			"buffer":0,
			"byteLength":1728,
			"byteOffset":18892,
			"target":34962
		},
		{
			"buffer":0,
			"byteLength":1452,
			"byteOffset":20620,
			"target":34963
		},
		{
			"buffer":0,
			"byteLength":2112,
			"byteOffset":22072,
			"target":34962
		},
		{
			"buffer":0,
			"byteLength":1408,
			"byteOffset":24184,
			"target":34962
		},
		{
			"buffer":0,
			"byteLength":2112,
			"byteOffset":25592,
			"target":34962
		},
		{
			"buffer":0,
			"byteLength":528,
			"byteOffset":27704,
			"target":34963
		},
		{
			"buffer":0,
			"byteLength":840,
			"byteOffset":28232,
			"target":34962
		},
		{
			"buffer":0,
			"byteLength":560,
			"byteOffset":29072,
			"target":34962
		},
		{
			"buffer":0,
			"byteLength":840,
			"byteOffset":29632,
			"target":34962
		},
		{
			"buffer":0,
			"byteLength":228,
			"byteOffset":30472,
			"target":34963
		},
		{
			"buffer":0,
			"byteLength":173952,
			"byteOffset":30700,
			"target":34962
		},
		{
			"buffer":0,
			"byteLength":115968,
			"byteOffset":204652,
			"target":34962
		},
		{
			"buffer":0,
			"byteLength":173952,
			"byteOffset":320620,
			"target":34962
		},
		{
			"buffer":0,
			"byteLength":45096,
			"byteOffset":494572,
			"target":34963
		},
		{
			"buffer":0,
			"byteLength":299014,
			"byteOffset":539668
		}
	],
	"samplers":[
		{
			"magFilter":9729,
			"minFilter":9987
		}
	],
	"buffers":[
		{
			"byteLength":838684,
			"uri":"data:application/octet-stream;base64,"
		}
	]
}
