{
	"asset":{
		"generator":"Khronos glTF Blender I/O v3.5.30",
		"version":"2.0"
	},
	"scene":0,
	"scenes":[
		{
			"name":"Scene",
			"nodes":[
				0,
				1,
				2,
				3,
				4,
				5,
				6,
				7
			]
		}
	],
	"nodes":[
		{
			"mesh":0,
			"name":"Cylinder.001",
			"scale":[
				0.7034764885902405,
				0.014173208735883236,
				0.7034764885902405
			],
			"translation":[
				0.0033125877380371094,
				0.09823852777481079,
				0.012632172554731369
			]
		},
		{
			"name":"Empty",
			"rotation":[
				0.70710688829422,
				0,
				0,
				0.7071066498756409
			],
			"scale":[
				1.1881273984909058,
				1.1881273984909058,
				1.1881273984909058
			],
			"translation":[
				2.00240421295166,
				2.919109344482422,
				0
			]
		},
		{
			"name":"Empty.001",
			"rotation":[
				0.7071069478988647,
				0,
				0,
				0.7071066498756409
			],
			"scale":[
				1.2018104791641235,
				1.2018104791641235,
				1.2018104791641235
			],
			"translation":[
				0,
				2.923858642578125,
				0
			]
		},
		{
			"name":"Empty.002",
			"rotation":[
				0.70710688829422,
				0,
				0,
				0.7071066498756409
			],
			"scale":[
				0.7276553511619568,
				0.7276553511619568,
				0.7276553511619568
			],
			"translation":[
				0,
				1.9407271146774292,
				0
			]
		},
		{
			"mesh":1,
			"name":"Cylinder.002",
			"scale":[
				0.0868338868021965,
				0.37073013186454773,
				0.0868338868021965
			],
			"translation":[
				0.23077760636806488,
				0.6532407999038696,
				0
			]
		},
		{
			"mesh":2,
			"name":"Cylinder.003",
			"scale":[
				0.030775129795074463,
				0.030775129795074463,
				0.030775129795074463
			],
			"translation":[
				0.23317062854766846,
				0.18679460883140564,
				0
			]
		},
		{
			"mesh":3,
			"name":"Cylinder.004",
			"scale":[
				0.03505600988864899,
				0.03505600988864899,
				0.03505600988864899
			],
			"translation":[
				0,
				0.16321632266044617,
				0
			]
		},
		{
			"mesh":2,
			"name":"Cylinder.006",
			"rotation":[
				0,
				-1,
				0,
				7.549790126404332e-08
			],
			"scale":[
				0.030775129795074463,
				0.030775129795074463,
				0.030775129795074463
			],
			"translation":[
				-0.23317062854766846,
				0.18679460883140564,
				0
			]
		}
	],
	"materials":[
		{
			"doubleSided":true,
			"name":"launchfloor",
			"pbrMetallicRoughness":{
				"baseColorFactor":[
					0.28100714087486267,
					0.28100714087486267,
					0.28100714087486267,
					1
				],
				"metallicFactor":0,
				"roughnessFactor":0.5
			}
		},
		{
			"doubleSided":true,
			"name":"landingpad",
			"pbrMetallicRoughness":{
				"baseColorFactor":[
					0.4292215406894684,
					0.4292215406894684,
					0.4292215406894684,
					1
				],
				"metallicFactor":0,
				"roughnessFactor":0.5
			}
		},
		{
			"doubleSided":true,
			"name":"padborder",
			"pbrMetallicRoughness":{
				"baseColorFactor":[
					0.9403864741325378,
					0.9403864741325378,
					0.9403864741325378,
					1
				],
				"metallicFactor":0,
				"roughnessFactor":0.5
			}
		},
		{
			"doubleSided":true,
			"name":"grass",
			"pbrMetallicRoughness":{
				"baseColorFactor":[
					0.07910966128110886,
					0.3843688666820526,
					0.07261242717504501,
					1
				],
				"metallicFactor":0,
				"roughnessFactor":0.5
			}
		},
		{
			"doubleSided":true,
			"name":"dirt",
			"pbrMetallicRoughness":{
				"baseColorFactor":[
					0.08000966161489487,
					0.04727604612708092,
					0.014354920946061611,
					1
				],
				"metallicFactor":0,
				"roughnessFactor":0.5
			}
		},
		{
			"doubleSided":true,
			"name":"concrete",
			"pbrMetallicRoughness":{
				"baseColorFactor":[
					0.06071816012263298,
					0.06071816012263298,
					0.06071816012263298,
					1
				],
				"metallicFactor":0,
				"roughnessFactor":0.5
			}
		},
		{
			"doubleSided":true,
			"name":"border",
			"pbrMetallicRoughness":{
				"baseColorFactor":[
					0.698187530040741,
					0.698187530040741,
					0.698187530040741,
					1
				],
				"metallicFactor":0,
				"roughnessFactor":0.5
			}
		},
		{
			"doubleSided":true,
			"name":"dirt2",
			"pbrMetallicRoughness":{
				"baseColorFactor":[
					0.8000000715255737,
					0.7826310396194458,
					0.3278082311153412,
					1
				],
				"metallicFactor":0,
				"roughnessFactor":0.5
			}
		},
		{
			"doubleSided":true,
			"name":"HII-A",
			"pbrMetallicRoughness":{
				"baseColorTexture":{
					"index":0
				},
				"metallicFactor":0,
				"roughnessFactor":0.5
			}
		},
		{
			"doubleSided":true,
			"name":"side enignes",
			"pbrMetallicRoughness":{
				"baseColorFactor":[
					0.207901731133461,
					0,
					0.001942749717272818,
					1
				],
				"metallicFactor":0,
				"roughnessFactor":0.5
			}
		},
		{
			"doubleSided":true,
			"name":"middle engine",
			"pbrMetallicRoughness":{
				"baseColorFactor":[
					0.02909790351986885,
					0.02909790351986885,
					0.02909790351986885,
					1
				],
				"metallicFactor":0,
				"roughnessFactor":0.5
			}
		}
	],
	"meshes":[
		{
			"name":"Cylinder.003",
			"primitives":[
				{
					"attributes":{
						"POSITION":0,
						"TEXCOORD_0":1,
						"NORMAL":2
					},
					"indices":3,
					"material":0
				},
				{
					"attributes":{
						"POSITION":4,
						"TEXCOORD_0":5,
						"NORMAL":6
					},
					"indices":7,
					"material":1
				},
				{
					"attributes":{
						"POSITION":8,
						"TEXCOORD_0":9,
						"NORMAL":10
					},
					"indices":11,
					"material":2
				},
				{
					"attributes":{
						"POSITION":12,
						"TEXCOORD_0":13,
						"NORMAL":14
					},
					"indices":15,
					"material":3
				},
				{
					"attributes":{
						"POSITION":16,
						"TEXCOORD_0":17,
						"NORMAL":18
					},
					"indices":19,
					"material":4
				},
				{
					"attributes":{
						"POSITION":20,
						"TEXCOORD_0":21,
						"NORMAL":22
					},
					"indices":23,
					"material":5
				},
				{
					"attributes":{
						"POSITION":24,
						"TEXCOORD_0":25,
						"NORMAL":26
					},
					"indices":27,
					"material":6
				},
				{
					"attributes":{
						"POSITION":28,
						"TEXCOORD_0":29,
						"NORMAL":30
					},
					"indices":31,
					"material":7
				}
			]
		},
		{
			"name":"Cylinder.004",
			"primitives":[
				{
					"attributes":{
						"POSITION":32,
						"TEXCOORD_0":33,
						"NORMAL":34
					},
					"indices":35,
					"material":8
				}
			]
		},
		{
			"name":"Cylinder.005",
			"primitives":[
				{
					"attributes":{
						"POSITION":36,
						"TEXCOORD_0":37,
						"NORMAL":38
					},
					"indices":39,
					"material":9
				}
			]
		},
		{
			"name":"Cylinder.006",
			"primitives":[
				{
					"attributes":{
						"POSITION":40,
						"TEXCOORD_0":41,
						"NORMAL":42
					},
					"indices":39,
					"material":10
				}
			]
		}
	],
	"textures":[
		{
			"sampler":0,
			"source":0
		}
	],
	"images":[
		{
			"bufferView":36,
			"mimeType":"image/png",
			"name":"Screenshot_2023-07-31_at_8.21.12_pm-removebg-preview"
		}
	],
	"accessors":[
		{
			"bufferView":0,
			"componentType":5126,
			"count":59,
			"max":[
				0.9749279022216797,
				0.6685290336608887,
				0.9009688496589661
			],
			"min":[
				-0.9749279022216797,
				-1.3314709663391113,
				-1
			],
			"type":"VEC3"
		},
		{
			"bufferView":1,
			"componentType":5126,
			"count":59,
			"type":"VEC2"
		},
		{
			"bufferView":2,
			"componentType":5126,
			"count":59,
			"type":"VEC3"
		},
		{
			"bufferView":3,
			"componentType":5123,
			"count":93,
			"type":"SCALAR"
		},
		{
			"bufferView":4,
			"componentType":5126,
			"count":7,
			"max":[
				0.9305989742279053,
				-0.005587100982666016,
				0.8600028157234192
			],
			"min":[
				-0.93059903383255,
				-0.005587100982666016,
				-0.9545311331748962
			],
			"type":"VEC3"
		},
		{
			"bufferView":5,
			"componentType":5126,
			"count":7,
			"type":"VEC2"
		},
		{
			"bufferView":6,
			"componentType":5126,
			"count":7,
			"type":"VEC3"
		},
		{
			"bufferView":7,
			"componentType":5123,
			"count":15,
			"type":"SCALAR"
		},
		{
			"bufferView":8,
			"componentType":5126,
			"count":18,
			"max":[
				0.9749279022216797,
				0.6685290336608887,
				0.9009688496589661
			],
			"min":[
				-0.9749279022216797,
				-0.005587100982666016,
				-1
			],
			"type":"VEC3"
		},
		{
			"bufferView":9,
			"componentType":5126,
			"count":18,
			"type":"VEC2"
		},
		{
			"bufferView":10,
			"componentType":5126,
			"count":18,
			"type":"VEC3"
		},
		{
			"bufferView":11,
			"componentType":5123,
			"count":48,
			"type":"SCALAR"
		},
		{
			"bufferView":12,
			"componentType":5126,
			"count":16,
			"max":[
				1.2651770114898682,
				-4.057771682739258,
				1.1992006301879883
			],
			"min":[
				-1.2432137727737427,
				-4.057771682739258,
				-1.2037426233291626
			],
			"type":"VEC3"
		},
		{
			"bufferView":13,
			"componentType":5126,
			"count":16,
			"type":"VEC2"
		},
		{
			"bufferView":14,
			"componentType":5126,
			"count":16,
			"type":"VEC3"
		},
		{
			"bufferView":15,
			"componentType":5123,
			"count":54,
			"type":"SCALAR"
		},
		{
			"bufferView":16,
			"componentType":5126,
			"count":320,
			"max":[
				5.423567771911621,
				-35.5310173034668,
				4.701854228973389
			],
			"min":[
				-5.653773307800293,
				-64.82886505126953,
				-5.159491062164307
			],
			"type":"VEC3"
		},
		{
			"bufferView":17,
			"componentType":5126,
			"count":320,
			"type":"VEC2"
		},
		{
			"bufferView":18,
			"componentType":5126,
			"count":320,
			"type":"VEC3"
		},
		{
			"bufferView":19,
			"componentType":5123,
			"count":990,
			"type":"SCALAR"
		},
		{
			"bufferView":20,
			"componentType":5126,
			"count":70,
			"max":[
				2.050567388534546,
				3.7954559326171875,
				1.873186469078064
			],
			"min":[
				-2.0449845790863037,
				-5.382540702819824,
				-2.2253921031951904
			],
			"type":"VEC3"
		},
		{
			"bufferView":21,
			"componentType":5126,
			"count":70,
			"type":"VEC2"
		},
		{
			"bufferView":22,
			"componentType":5126,
			"count":70,
			"type":"VEC3"
		},
		{
			"bufferView":23,
			"componentType":5123,
			"count":114,
			"type":"SCALAR"
		},
		{
			"bufferView":24,
			"componentType":5126,
			"count":14,
			"max":[
				2.050567388534546,
				3.7954559326171875,
				1.873186469078064
			],
			"min":[
				-2.0449845790863037,
				3.7954559326171875,
				-2.2253921031951904
			],
			"type":"VEC3"
		},
		{
			"bufferView":25,
			"componentType":5126,
			"count":14,
			"type":"VEC2"
		},
		{
			"bufferView":26,
			"componentType":5126,
			"count":14,
			"type":"VEC3"
		},
		{
			"bufferView":27,
			"componentType":5123,
			"count":42,
			"type":"SCALAR"
		},
		{
			"bufferView":28,
			"componentType":5126,
			"count":316,
			"max":[
				5.610724449157715,
				-4.057764053344727,
				4.864363670349121
			],
			"min":[
				-5.848679065704346,
				-35.53102111816406,
				-5.337103366851807
			],
			"type":"VEC3"
		},
		{
			"bufferView":29,
			"componentType":5126,
			"count":316,
			"type":"VEC2"
		},
		{
			"bufferView":30,
			"componentType":5126,
			"count":316,
			"type":"VEC3"
		},
		{
			"bufferView":31,
			"componentType":5123,
			"count":936,
			"type":"SCALAR"
		},
		{
			"bufferView":32,
			"componentType":5126,
			"count":3108,
			"max":[
				1,
				8.104085922241211,
				1.5497056245803833
			],
			"min":[
				-6.315381050109863,
				-1.2315120697021484,
				-1.5497056245803833
			],
			"type":"VEC3"
		},
		{
			"bufferView":33,
			"componentType":5126,
			"count":3108,
			"type":"VEC2"
		},
		{
			"bufferView":34,
			"componentType":5126,
			"count":3108,
			"type":"VEC3"
		},
		{
			"bufferView":35,
			"componentType":5123,
			"count":5868,
			"type":"SCALAR"
		},
		{
			"bufferView":37,
			"componentType":5126,
			"count":160,
			"max":[
				2.226248264312744,
				1,
				2.226248264312744
			],
			"min":[
				-2.226248264312744,
				-2.397764205932617,
				-2.226248264312744
			],
			"type":"VEC3"
		},
		{
			"bufferView":38,
			"componentType":5126,
			"count":160,
			"type":"VEC2"
		},
		{
			"bufferView":39,
			"componentType":5126,
			"count":160,
			"type":"VEC3"
		},
		{
			"bufferView":40,
			"componentType":5123,
			"count":282,
			"type":"SCALAR"
		},
		{
			"bufferView":41,
			"componentType":5126,
			"count":160,
			"max":[
				1.5457011461257935,
				1,
				1.5457011461257935
			],
			"min":[
				-1.5457011461257935,
				-1,
				-1.5457011461257935
			],
			"type":"VEC3"
		},
		{
			"bufferView":42,
			"componentType":5126,
			"count":160,
			"type":"VEC2"
		},
		{
			"bufferView":43,
			"componentType":5126,
			"count":160,
			"type":"VEC3"
		}
	],
	"bufferViews":[
		{
			"buffer":0,
			"byteLength":708,
			"byteOffset":0,
			"target":34962
		},
		{
			"buffer":0,
			"byteLength":472,
			"byteOffset":708,
			"target":34962
		},
		{
			"buffer":0,
			"byteLength":708,
			"byteOffset":1180,
			"target":34962
		},
		{
			"buffer":0,
			"byteLength":186,
			"byteOffset":1888,
			"target":34963
		},
		{
			"buffer":0,
			"byteLength":84,
			"byteOffset":2076,
			"target":34962
		},
		{
			"buffer":0,
			"byteLength":56,
			"byteOffset":2160,
			"target":34962
		},
		{
			"buffer":0,
			"byteLength":84,
			"byteOffset":2216,
			"target":34962
		},
		{
			"buffer":0,
			"byteLength":30,
			"byteOffset":2300,
			"target":34963
		},
		{
			"buffer":0,
			"byteLength":216,
			"byteOffset":2332,
			"target":34962
		},
		{
			"buffer":0,
			"byteLength":144,
			"byteOffset":2548,
			"target":34962
		},
		{
			"buffer":0,
			"byteLength":216,
			"byteOffset":2692,
			"target":34962
		},
		{
			"buffer":0,
			"byteLength":96,
			"byteOffset":2908,
			"target":34963
		},
		{
			"buffer":0,
			"byteLength":192,
			"byteOffset":3004,
			"target":34962
		},
		{
			"buffer":0,
			"byteLength":128,
			"byteOffset":3196,
			"target":34962
		},
		{
			"buffer":0,
			"byteLength":192,
			"byteOffset":3324,
			"target":34962
		},
		{
			"buffer":0,
			"byteLength":108,
			"byteOffset":3516,
			"target":34963
		},
		{
			"buffer":0,
			"byteLength":3840,
			"byteOffset":3624,
			"target":34962
		},
		{
			"buffer":0,
			"byteLength":2560,
			"byteOffset":7464,
			"target":34962
		},
		{
			"buffer":0,
			"byteLength":3840,
			"byteOffset":10024,
			"target":34962
		},
		{
			"buffer":0,
			"byteLength":1980,
			"byteOffset":13864,
			"target":34963
		},
		{
			"buffer":0,
			"byteLength":840,
			"byteOffset":15844,
			"target":34962
		},
		{
			"buffer":0,
			"byteLength":560,
			"byteOffset":16684,
			"target":34962
		},
		{
			"buffer":0,
			"byteLength":840,
			"byteOffset":17244,
			"target":34962
		},
		{
			"buffer":0,
			"byteLength":228,
			"byteOffset":18084,
			"target":34963
		},
		{
			"buffer":0,
			"byteLength":168,
			"byteOffset":18312,
			"target":34962
		},
		{
			"buffer":0,
			"byteLength":112,
			"byteOffset":18480,
			"target":34962
		},
		{
			"buffer":0,
			"byteLength":168,
			"byteOffset":18592,
			"target":34962
		},
		{
			"buffer":0,
			"byteLength":84,
			"byteOffset":18760,
			"target":34963
		},
		{
			"buffer":0,
			"byteLength":3792,
			"byteOffset":18844,
			"target":34962
		},
		{
			"buffer":0,
			"byteLength":2528,
			"byteOffset":22636,
			"target":34962
		},
		{
			"buffer":0,
			"byteLength":3792,
			"byteOffset":25164,
			"target":34962
		},
		{
			"buffer":0,
			"byteLength":1872,
			"byteOffset":28956,
			"target":34963
		},
		{
			"buffer":0,
			"byteLength":37296,
			"byteOffset":30828,
			"target":34962
		},
		{
			"buffer":0,
			"byteLength":24864,
			"byteOffset":68124,
			"target":34962
		},
		{
			"buffer":0,
			"byteLength":37296,
			"byteOffset":92988,
			"target":34962
		},
		{
			"buffer":0,
			"byteLength":11736,
			"byteOffset":130284,
			"target":34963
		},
		{
			"buffer":0,
			"byteLength":205095,
			"byteOffset":142020
		},
		{
			"buffer":0,
			"byteLength":1920,
			"byteOffset":347116,
			"target":34962
		},
		{
			"buffer":0,
			"byteLength":1280,
			"byteOffset":349036,
			"target":34962
		},
		{
			"buffer":0,
			"byteLength":1920,
			"byteOffset":350316,
			"target":34962
		},
		{
			"buffer":0,
			"byteLength":564,
			"byteOffset":352236,
			"target":34963
		},
		{
			"buffer":0,
			"byteLength":1920,
			"byteOffset":352800,
			"target":34962
		},
		{
			"buffer":0,
			"byteLength":1280,
			"byteOffset":354720,
			"target":34962
		},
		{
			"buffer":0,
			"byteLength":1920,
			"byteOffset":356000,
			"target":34962
		}
	],
	"samplers":[
		{
			"magFilter":9729,
			"minFilter":9987
		}
	],
	"buffers":[
		{
			"byteLength":357920,
			"uri":"data:application/octet-stream;base64,"
		}
	]
}
