{
	"asset":{
		"generator":"Khronos glTF Blender I/O v3.5.30",
		"version":"2.0"
	},
	"scene":0,
	"scenes":[
		{
			"name":"Scene",
			"nodes":[
				0,
				1,
				2,
				3
			]
		}
	],
	"nodes":[
		{
			"mesh":0,
			"name":"Plane",
			"scale":[
				-2.8566555976867676,
				-3.3316128253936768,
				-2.7866504192352295
			],
			"translation":[
				-0.011260509490966797,
				-0.03776845335960388,
				0.006616394966840744
			]
		},
		{
			"name":"Empty",
			"rotation":[
				0.70710688829422,
				0,
				0,
				0.7071066498756409
			],
			"scale":[
				0.5819147229194641,
				0.5819147229194641,
				0.5819147229194641
			],
			"translation":[
				0,
				1.5871671438217163,
				0
			]
		},
		{
			"name":"Empty.001",
			"rotation":[
				0.70710688829422,
				0,
				0,
				0.7071066498756409
			],
			"scale":[
				0.3102797567844391,
				0.3102797567844391,
				0.3102797567844391
			],
			"translation":[
				0,
				0.8310456275939941,
				0
			]
		},
		{
			"mesh":1,
			"name":"Cylinder",
			"scale":[
				0.06917867064476013,
				0.26778146624565125,
				0.06917867064476013
			],
			"translation":[
				0,
				1.1492631435394287,
				0
			]
		}
	],
	"materials":[
		{
			"doubleSided":true,
			"name":"dirt",
			"pbrMetallicRoughness":{
				"baseColorFactor":[
					0.0802198201417923,
					0.04666505753993988,
					0.014443851076066494,
					1
				],
				"metallicFactor":0,
				"roughnessFactor":0.5
			}
		},
		{
			"doubleSided":true,
			"name":"top",
			"pbrMetallicRoughness":{
				"baseColorFactor":[
					0.1651315540075302,
					0.10224130749702454,
					1,
					1
				],
				"metallicFactor":0,
				"roughnessFactor":0.5
			}
		},
		{
			"doubleSided":true,
			"name":"launchfloor",
			"pbrMetallicRoughness":{
				"baseColorFactor":[
					0.28100714087486267,
					0.28100714087486267,
					0.28100714087486267,
					1
				],
				"metallicFactor":0,
				"roughnessFactor":0.5
			}
		},
		{
			"doubleSided":true,
			"name":"landingpad",
			"pbrMetallicRoughness":{
				"baseColorFactor":[
					0.4292215406894684,
					0.4292215406894684,
					0.4292215406894684,
					1
				],
				"metallicFactor":0,
				"roughnessFactor":0.5
			}
		},
		{
			"doubleSided":true,
			"name":"padborder",
			"pbrMetallicRoughness":{
				"baseColorFactor":[
					0.9403864741325378,
					0.9403864741325378,
					0.9403864741325378,
					1
				],
				"metallicFactor":0,
				"roughnessFactor":0.5
			}
		},
		{
			"doubleSided":true,
			"name":"concrete",
			"pbrMetallicRoughness":{
				"baseColorFactor":[
					0.06071816012263298,
					0.06071816012263298,
					0.06071816012263298,
					1
				],
				"metallicFactor":0,
				"roughnessFactor":0.5
			}
		},
		{
			"doubleSided":true,
			"name":"border",
			"pbrMetallicRoughness":{
				"baseColorFactor":[
					0.698187530040741,
					0.698187530040741,
					0.698187530040741,
					1
				],
				"metallicFactor":0,
				"roughnessFactor":0.5
			}
		},
		{
			"doubleSided":true,
			"name":"Material",
			"pbrMetallicRoughness":{
				"baseColorTexture":{
					"index":0
				},
				"metallicFactor":0,
				"roughnessFactor":0.5
			}
		}
	],
	"meshes":[
		{
			"name":"Plane.001",
			"primitives":[
				{
					"attributes":{
						"POSITION":0,
						"TEXCOORD_0":1,
						"NORMAL":2
					},
					"indices":3,
					"material":0
				},
				{
					"attributes":{
						"POSITION":4,
						"TEXCOORD_0":5,
						"NORMAL":6
					},
					"indices":7,
					"material":1
				},
				{
					"attributes":{
						"POSITION":8,
						"TEXCOORD_0":9,
						"NORMAL":10
					},
					"indices":11,
					"material":2
				},
				{
					"attributes":{
						"POSITION":12,
						"TEXCOORD_0":13,
						"NORMAL":14
					},
					"indices":15,
					"material":3
				},
				{
					"attributes":{
						"POSITION":16,
						"TEXCOORD_0":17,
						"NORMAL":18
					},
					"indices":19,
					"material":4
				},
				{
					"attributes":{
						"POSITION":20,
						"TEXCOORD_0":21,
						"NORMAL":22
					},
					"indices":23,
					"material":5
				},
				{
					"attributes":{
						"POSITION":24,
						"TEXCOORD_0":25,
						"NORMAL":26
					},
					"indices":27,
					"material":6
				}
			]
		},
		{
			"name":"Cylinder",
			"primitives":[
				{
					"attributes":{
						"POSITION":28,
						"TEXCOORD_0":29,
						"NORMAL":30
					},
					"indices":31,
					"material":7
				}
			]
		}
	],
	"textures":[
		{
			"sampler":0,
			"source":0
		}
	],
	"images":[
		{
			"bufferView":32,
			"mimeType":"image/png",
			"name":"lm11-removebg-preview-transformed"
		}
	],
	"accessors":[
		{
			"bufferView":0,
			"componentType":5126,
			"count":320,
			"max":[
				1.3890910148620605,
				0.12865158915519714,
				1.3003298044204712
			],
			"min":[
				-1.3388012647628784,
				0.004013918340206146,
				-1.1891192197799683
			],
			"type":"VEC3"
		},
		{
			"bufferView":1,
			"componentType":5126,
			"count":320,
			"type":"VEC2"
		},
		{
			"bufferView":2,
			"componentType":5126,
			"count":320,
			"type":"VEC3"
		},
		{
			"bufferView":3,
			"componentType":5123,
			"count":990,
			"type":"SCALAR"
		},
		{
			"bufferView":4,
			"componentType":5126,
			"count":320,
			"max":[
				1.4370883703231812,
				0.00401393324136734,
				1.3451672792434692
			],
			"min":[
				-1.3848903179168701,
				-0.12987828254699707,
				-1.2301440238952637
			],
			"type":"VEC3"
		},
		{
			"bufferView":5,
			"componentType":5126,
			"count":320,
			"type":"VEC2"
		},
		{
			"bufferView":6,
			"componentType":5126,
			"count":320,
			"type":"VEC3"
		},
		{
			"bufferView":7,
			"componentType":5123,
			"count":990,
			"type":"SCALAR"
		},
		{
			"bufferView":8,
			"componentType":5126,
			"count":59,
			"max":[
				0.2368844896554947,
				-0.1414763629436493,
				0.25028637051582336
			],
			"min":[
				-0.24328459799289703,
				-0.1499846875667572,
				-0.22960402071475983
			],
			"type":"VEC3"
		},
		{
			"bufferView":9,
			"componentType":5126,
			"count":59,
			"type":"VEC2"
		},
		{
			"bufferView":10,
			"componentType":5126,
			"count":59,
			"type":"VEC3"
		},
		{
			"bufferView":11,
			"componentType":5123,
			"count":93,
			"type":"SCALAR"
		},
		{
			"bufferView":12,
			"componentType":5126,
			"count":7,
			"max":[
				0.2259681224822998,
				-0.14711688458919525,
				0.23880797624588013
			],
			"min":[
				-0.23236821591854095,
				-0.14711688458919525,
				-0.21926234662532806
			],
			"type":"VEC3"
		},
		{
			"bufferView":13,
			"componentType":5126,
			"count":7,
			"type":"VEC2"
		},
		{
			"bufferView":14,
			"componentType":5126,
			"count":7,
			"type":"VEC3"
		},
		{
			"bufferView":15,
			"componentType":5123,
			"count":15,
			"type":"SCALAR"
		},
		{
			"bufferView":16,
			"componentType":5126,
			"count":18,
			"max":[
				0.2368844896554947,
				-0.14711688458919525,
				0.25028637051582336
			],
			"min":[
				-0.24328459799289703,
				-0.1499846875667572,
				-0.22960402071475983
			],
			"type":"VEC3"
		},
		{
			"bufferView":17,
			"componentType":5126,
			"count":18,
			"type":"VEC2"
		},
		{
			"bufferView":18,
			"componentType":5126,
			"count":18,
			"type":"VEC3"
		},
		{
			"bufferView":19,
			"componentType":5123,
			"count":48,
			"type":"SCALAR"
		},
		{
			"bufferView":20,
			"componentType":5126,
			"count":70,
			"max":[
				0.5003951787948608,
				-0.12424246966838837,
				0.5596306324005127
			],
			"min":[
				-0.5081703662872314,
				-0.16328711807727814,
				-0.4750356376171112
			],
			"type":"VEC3"
		},
		{
			"bufferView":21,
			"componentType":5126,
			"count":70,
			"type":"VEC2"
		},
		{
			"bufferView":22,
			"componentType":5126,
			"count":70,
			"type":"VEC3"
		},
		{
			"bufferView":23,
			"componentType":5123,
			"count":114,
			"type":"SCALAR"
		},
		{
			"bufferView":24,
			"componentType":5126,
			"count":14,
			"max":[
				0.5003951787948608,
				-0.16328711807727814,
				0.5596306324005127
			],
			"min":[
				-0.5081703662872314,
				-0.16328711807727814,
				-0.4750356376171112
			],
			"type":"VEC3"
		},
		{
			"bufferView":25,
			"componentType":5126,
			"count":14,
			"type":"VEC2"
		},
		{
			"bufferView":26,
			"componentType":5126,
			"count":14,
			"type":"VEC3"
		},
		{
			"bufferView":27,
			"componentType":5123,
			"count":42,
			"type":"SCALAR"
		},
		{
			"bufferView":28,
			"componentType":5126,
			"count":1920,
			"max":[
				1,
				3.375093460083008,
				1
			],
			"min":[
				-1,
				-2.5932841300964355,
				-1
			],
			"type":"VEC3"
		},
		{
			"bufferView":29,
			"componentType":5126,
			"count":1920,
			"type":"VEC2"
		},
		{
			"bufferView":30,
			"componentType":5126,
			"count":1920,
			"type":"VEC3"
		},
		{
			"bufferView":31,
			"componentType":5123,
			"count":3060,
			"type":"SCALAR"
		}
	],
	"bufferViews":[
		{
			"buffer":0,
			"byteLength":3840,
			"byteOffset":0,
			"target":34962
		},
		{
			"buffer":0,
			"byteLength":2560,
			"byteOffset":3840,
			"target":34962
		},
		{
			"buffer":0,
			"byteLength":3840,
			"byteOffset":6400,
			"target":34962
		},
		{
			"buffer":0,
			"byteLength":1980,
			"byteOffset":10240,
			"target":34963
		},
		{
			"buffer":0,
			"byteLength":3840,
			"byteOffset":12220,
			"target":34962
		},
		{
			"buffer":0,
			"byteLength":2560,
			"byteOffset":16060,
			"target":34962
		},
		{
			"buffer":0,
			"byteLength":3840,
			"byteOffset":18620,
			"target":34962
		},
		{
			"buffer":0,
			"byteLength":1980,
			"byteOffset":22460,
			"target":34963
		},
		{
			"buffer":0,
			"byteLength":708,
			"byteOffset":24440,
			"target":34962
		},
		{
			"buffer":0,
			"byteLength":472,
			"byteOffset":25148,
			"target":34962
		},
		{
			"buffer":0,
			"byteLength":708,
			"byteOffset":25620,
			"target":34962
		},
		{
			"buffer":0,
			"byteLength":186,
			"byteOffset":26328,
			"target":34963
		},
		{
			"buffer":0,
			"byteLength":84,
			"byteOffset":26516,
			"target":34962
		},
		{
			"buffer":0,
			"byteLength":56,
			"byteOffset":26600,
			"target":34962
		},
		{
			"buffer":0,
			"byteLength":84,
			"byteOffset":26656,
			"target":34962
		},
		{
			"buffer":0,
			"byteLength":30,
			"byteOffset":26740,
			"target":34963
		},
		{
			"buffer":0,
			"byteLength":216,
			"byteOffset":26772,
			"target":34962
		},
		{
			"buffer":0,
			"byteLength":144,
			"byteOffset":26988,
			"target":34962
		},
		{
			"buffer":0,
			"byteLength":216,
			"byteOffset":27132,
			"target":34962
		},
		{
			"buffer":0,
			"byteLength":96,
			"byteOffset":27348,
			"target":34963
		},
		{
			"buffer":0,
			"byteLength":840,
			"byteOffset":27444,
			"target":34962
		},
		{
			"buffer":0,
			"byteLength":560,
			"byteOffset":28284,
			"target":34962
		},
		{
			"buffer":0,
			"byteLength":840,
			"byteOffset":28844,
			"target":34962
		},
		{
			"buffer":0,
			"byteLength":228,
			"byteOffset":29684,
			"target":34963
		},
		{
			"buffer":0,
			"byteLength":168,
			"byteOffset":29912,
			"target":34962
		},
		{
			"buffer":0,
			"byteLength":112,
			"byteOffset":30080,
			"target":34962
		},
		{
			"buffer":0,
			"byteLength":168,
			"byteOffset":30192,
			"target":34962
		},
		{
			"buffer":0,
			"byteLength":84,
			"byteOffset":30360,
			"target":34963
		},
		{
			"buffer":0,
			"byteLength":23040,
			"byteOffset":30444,
			"target":34962
		},
		{
			"buffer":0,
			"byteLength":15360,
			"byteOffset":53484,
			"target":34962
		},
		{
			"buffer":0,
			"byteLength":23040,
			"byteOffset":68844,
			"target":34962
		},
		{
			"buffer":0,
			"byteLength":6120,
			"byteOffset":91884,
			"target":34963
		},
		{
			"buffer":0,
			"byteLength":231767,
			"byteOffset":98004
		}
	],
	"samplers":[
		{
			"magFilter":9729,
			"minFilter":9987
		}
	],
	"buffers":[
		{
			"byteLength":329772,
			"uri":"data:application/octet-stream;base64,"
		}
	]
}
