{
	"asset":{
		"generator":"Khronos glTF Blender I/O v3.5.30",
		"version":"2.0"
	},
	"scene":0,
	"scenes":[
		{
			"name":"Scene",
			"nodes":[
				0,
				1,
				2,
				3,
				4,
				5,
				6,
				7,
				8,
				9
			]
		}
	],
	"nodes":[
		{
			"mesh":0,
			"name":"Plane",
			"scale":[
				-2.8566555976867676,
				-3.3316128253936768,
				-2.7866504192352295
			],
			"translation":[
				0.007925033569335938,
				-0.3919771611690521,
				-0.003352642059326172
			]
		},
		{
			"mesh":1,
			"name":"Cylinder.001",
			"scale":[
				0.7034764885902405,
				0.014173208735883236,
				0.7034764885902405
			],
			"translation":[
				0.01706695556640625,
				0.09823852777481079,
				0.002663135528564453
			]
		},
		{
			"mesh":2,
			"name":"Circle",
			"scale":[
				1.4776090383529663,
				1.4776090383529663,
				1.4776090383529663
			],
			"translation":[
				0.01903057098388672,
				0.02195066213607788,
				-0.010873794555664062
			]
		},
		{
			"name":"Empty",
			"rotation":[
				0.70710688829422,
				0,
				0,
				0.7071066498756409
			],
			"scale":[
				1.1881273984909058,
				1.1881273984909058,
				1.1881273984909058
			],
			"translation":[
				2.00240421295166,
				2.919109344482422,
				0
			]
		},
		{
			"name":"Empty.001",
			"rotation":[
				0.7071069478988647,
				0,
				0,
				0.7071066498756409
			],
			"scale":[
				1.2018104791641235,
				1.2018104791641235,
				1.2018104791641235
			],
			"translation":[
				0,
				2.923858642578125,
				0
			]
		},
		{
			"name":"Empty.002",
			"rotation":[
				0.5,
				-0.5,
				0.5,
				0.5
			],
			"scale":[
				0.7045358419418335,
				0.7045358419418335,
				0.7045358419418335
			],
			"translation":[
				0,
				1.8118757009506226,
				0
			]
		},
		{
			"name":"Empty.003",
			"rotation":[
				0.70710688829422,
				0,
				0,
				0.7071066498756409
			],
			"scale":[
				0.6553486585617065,
				0.6553486585617065,
				0.6553486585617065
			],
			"translation":[
				0.0027220845222473145,
				1.7617934942245483,
				0
			]
		},
		{
			"name":"Empty.004",
			"rotation":[
				0.70710688829422,
				0,
				0,
				0.7071066498756409
			],
			"scale":[
				0.5367533564567566,
				0.5367533564567566,
				0.5367533564567566
			],
			"translation":[
				0,
				1.4117342233657837,
				0
			]
		},
		{
			"name":"Empty.006",
			"rotation":[
				0.7071069478988647,
				0,
				0,
				0.7071066498756409
			],
			"scale":[
				0.759209930896759,
				0.759209930896759,
				0.759209930896759
			],
			"translation":[
				-0.0037943946663290262,
				1.8403576612472534,
				0
			]
		},
		{
			"mesh":3,
			"name":"Cylinder.004",
			"scale":[
				0.05512875318527222,
				0.04656574875116348,
				0.05512875318527222
			],
			"translation":[
				0.06608863174915314,
				0.11340650171041489,
				0
			]
		}
	],
	"materials":[
		{
			"doubleSided":true,
			"name":"grass",
			"pbrMetallicRoughness":{
				"baseColorFactor":[
					0.2688226103782654,
					0.3843688666820526,
					0.13207849860191345,
					1
				],
				"metallicFactor":0,
				"roughnessFactor":0.5
			}
		},
		{
			"doubleSided":true,
			"name":"dirt",
			"pbrMetallicRoughness":{
				"baseColorFactor":[
					0.08000966161489487,
					0.04727604612708092,
					0.014354920946061611,
					1
				],
				"metallicFactor":0,
				"roughnessFactor":0.5
			}
		},
		{
			"doubleSided":true,
			"name":"launchfloor",
			"pbrMetallicRoughness":{
				"baseColorFactor":[
					0.28100714087486267,
					0.28100714087486267,
					0.28100714087486267,
					1
				],
				"metallicFactor":0,
				"roughnessFactor":0.5
			}
		},
		{
			"doubleSided":true,
			"name":"landingpad",
			"pbrMetallicRoughness":{
				"baseColorFactor":[
					0.4292215406894684,
					0.4292215406894684,
					0.4292215406894684,
					1
				],
				"metallicFactor":0,
				"roughnessFactor":0.5
			}
		},
		{
			"doubleSided":true,
			"name":"padborder",
			"pbrMetallicRoughness":{
				"baseColorFactor":[
					0.9403864741325378,
					0.9403864741325378,
					0.9403864741325378,
					1
				],
				"metallicFactor":0,
				"roughnessFactor":0.5
			}
		},
		{
			"doubleSided":true,
			"name":"concrete",
			"pbrMetallicRoughness":{
				"baseColorFactor":[
					0.06071816012263298,
					0.06071816012263298,
					0.06071816012263298,
					1
				],
				"metallicFactor":0,
				"roughnessFactor":0.5
			}
		},
		{
			"doubleSided":true,
			"name":"border",
			"pbrMetallicRoughness":{
				"baseColorFactor":[
					0.698187530040741,
					0.698187530040741,
					0.698187530040741,
					1
				],
				"metallicFactor":0,
				"roughnessFactor":0.5
			}
		},
		{
			"doubleSided":true,
			"name":"Material",
			"pbrMetallicRoughness":{
				"baseColorTexture":{
					"index":0
				},
				"metallicFactor":0,
				"roughnessFactor":0.5
			}
		}
	],
	"meshes":[
		{
			"name":"Plane.001",
			"primitives":[
				{
					"attributes":{
						"POSITION":0,
						"TEXCOORD_0":1,
						"NORMAL":2
					},
					"indices":3,
					"material":0
				},
				{
					"attributes":{
						"POSITION":4,
						"TEXCOORD_0":5,
						"NORMAL":6
					},
					"indices":7,
					"material":1
				}
			]
		},
		{
			"name":"Cylinder.003",
			"primitives":[
				{
					"attributes":{
						"POSITION":8,
						"TEXCOORD_0":9,
						"NORMAL":10
					},
					"indices":11,
					"material":2
				},
				{
					"attributes":{
						"POSITION":12,
						"TEXCOORD_0":13,
						"NORMAL":14
					},
					"indices":15,
					"material":3
				},
				{
					"attributes":{
						"POSITION":16,
						"TEXCOORD_0":17,
						"NORMAL":18
					},
					"indices":19,
					"material":4
				}
			]
		},
		{
			"name":"Circle.001",
			"primitives":[
				{
					"attributes":{
						"POSITION":20,
						"TEXCOORD_0":21,
						"NORMAL":22
					},
					"indices":23,
					"material":5
				},
				{
					"attributes":{
						"POSITION":24,
						"TEXCOORD_0":25,
						"NORMAL":26
					},
					"indices":27,
					"material":6
				}
			]
		},
		{
			"name":"Cylinder.002",
			"primitives":[
				{
					"attributes":{
						"POSITION":28,
						"TEXCOORD_0":29,
						"NORMAL":30
					},
					"indices":31,
					"material":7
				}
			]
		}
	],
	"textures":[
		{
			"sampler":0,
			"source":0
		}
	],
	"images":[
		{
			"bufferView":32,
			"mimeType":"image/png",
			"name":"CZ-2D_rendering_no_background"
		}
	],
	"accessors":[
		{
			"bufferView":0,
			"componentType":5126,
			"count":320,
			"max":[
				1.4370883703231812,
				0.00401393324136734,
				1.3451672792434692
			],
			"min":[
				-1.3848903179168701,
				-0.12987828254699707,
				-1.2301440238952637
			],
			"type":"VEC3"
		},
		{
			"bufferView":1,
			"componentType":5126,
			"count":320,
			"type":"VEC2"
		},
		{
			"bufferView":2,
			"componentType":5126,
			"count":320,
			"type":"VEC3"
		},
		{
			"bufferView":3,
			"componentType":5123,
			"count":990,
			"type":"SCALAR"
		},
		{
			"bufferView":4,
			"componentType":5126,
			"count":320,
			"max":[
				1.3890910148620605,
				0.12865158915519714,
				1.3003298044204712
			],
			"min":[
				-1.3388012647628784,
				0.004013918340206146,
				-1.1891192197799683
			],
			"type":"VEC3"
		},
		{
			"bufferView":5,
			"componentType":5126,
			"count":320,
			"type":"VEC2"
		},
		{
			"bufferView":6,
			"componentType":5126,
			"count":320,
			"type":"VEC3"
		},
		{
			"bufferView":7,
			"componentType":5123,
			"count":990,
			"type":"SCALAR"
		},
		{
			"bufferView":8,
			"componentType":5126,
			"count":59,
			"max":[
				0.9749279022216797,
				0.6685290336608887,
				0.9009688496589661
			],
			"min":[
				-0.9749279022216797,
				-1.3314709663391113,
				-1
			],
			"type":"VEC3"
		},
		{
			"bufferView":9,
			"componentType":5126,
			"count":59,
			"type":"VEC2"
		},
		{
			"bufferView":10,
			"componentType":5126,
			"count":59,
			"type":"VEC3"
		},
		{
			"bufferView":11,
			"componentType":5123,
			"count":93,
			"type":"SCALAR"
		},
		{
			"bufferView":12,
			"componentType":5126,
			"count":7,
			"max":[
				0.9305989742279053,
				-0.005587100982666016,
				0.8600028157234192
			],
			"min":[
				-0.93059903383255,
				-0.005587100982666016,
				-0.9545311331748962
			],
			"type":"VEC3"
		},
		{
			"bufferView":13,
			"componentType":5126,
			"count":7,
			"type":"VEC2"
		},
		{
			"bufferView":14,
			"componentType":5126,
			"count":7,
			"type":"VEC3"
		},
		{
			"bufferView":15,
			"componentType":5123,
			"count":15,
			"type":"SCALAR"
		},
		{
			"bufferView":16,
			"componentType":5126,
			"count":18,
			"max":[
				0.9749279022216797,
				0.6685290336608887,
				0.9009688496589661
			],
			"min":[
				-0.9749279022216797,
				-0.005587100982666016,
				-1
			],
			"type":"VEC3"
		},
		{
			"bufferView":17,
			"componentType":5126,
			"count":18,
			"type":"VEC2"
		},
		{
			"bufferView":18,
			"componentType":5126,
			"count":18,
			"type":"VEC3"
		},
		{
			"bufferView":19,
			"componentType":5123,
			"count":48,
			"type":"SCALAR"
		},
		{
			"bufferView":20,
			"componentType":5126,
			"count":70,
			"max":[
				0.9749279022216797,
				0.0880352333188057,
				0.9009688496589661
			],
			"min":[
				-0.9749279022216797,
				0,
				-1.0503278970718384
			],
			"type":"VEC3"
		},
		{
			"bufferView":21,
			"componentType":5126,
			"count":70,
			"type":"VEC2"
		},
		{
			"bufferView":22,
			"componentType":5126,
			"count":70,
			"type":"VEC3"
		},
		{
			"bufferView":23,
			"componentType":5123,
			"count":114,
			"type":"SCALAR"
		},
		{
			"bufferView":24,
			"componentType":5126,
			"count":14,
			"max":[
				0.9749279022216797,
				0.0880352333188057,
				0.9009688496589661
			],
			"min":[
				-0.9749279022216797,
				0.0880352333188057,
				-1.0503278970718384
			],
			"type":"VEC3"
		},
		{
			"bufferView":25,
			"componentType":5126,
			"count":14,
			"type":"VEC2"
		},
		{
			"bufferView":26,
			"componentType":5126,
			"count":14,
			"type":"VEC3"
		},
		{
			"bufferView":27,
			"componentType":5123,
			"count":42,
			"type":"SCALAR"
		},
		{
			"bufferView":28,
			"componentType":5126,
			"count":2020,
			"max":[
				2.1638662815093994,
				72.98541259765625,
				2.5507113933563232
			],
			"min":[
				-4.487038612365723,
				-0.9999999403953552,
				-2.5507113933563232
			],
			"type":"VEC3"
		},
		{
			"bufferView":29,
			"componentType":5126,
			"count":2020,
			"type":"VEC2"
		},
		{
			"bufferView":30,
			"componentType":5126,
			"count":2020,
			"type":"VEC3"
		},
		{
			"bufferView":31,
			"componentType":5123,
			"count":3288,
			"type":"SCALAR"
		}
	],
	"bufferViews":[
		{
			"buffer":0,
			"byteLength":3840,
			"byteOffset":0,
			"target":34962
		},
		{
			"buffer":0,
			"byteLength":2560,
			"byteOffset":3840,
			"target":34962
		},
		{
			"buffer":0,
			"byteLength":3840,
			"byteOffset":6400,
			"target":34962
		},
		{
			"buffer":0,
			"byteLength":1980,
			"byteOffset":10240,
			"target":34963
		},
		{
			"buffer":0,
			"byteLength":3840,
			"byteOffset":12220,
			"target":34962
		},
		{
			"buffer":0,
			"byteLength":2560,
			"byteOffset":16060,
			"target":34962
		},
		{
			"buffer":0,
			"byteLength":3840,
			"byteOffset":18620,
			"target":34962
		},
		{
			"buffer":0,
			"byteLength":1980,
			"byteOffset":22460,
			"target":34963
		},
		{
			"buffer":0,
			"byteLength":708,
			"byteOffset":24440,
			"target":34962
		},
		{
			"buffer":0,
			"byteLength":472,
			"byteOffset":25148,
			"target":34962
		},
		{
			"buffer":0,
			"byteLength":708,
			"byteOffset":25620,
			"target":34962
		},
		{
			"buffer":0,
			"byteLength":186,
			"byteOffset":26328,
			"target":34963
		},
		{
			"buffer":0,
			"byteLength":84,
			"byteOffset":26516,
			"target":34962
		},
		{
			"buffer":0,
			"byteLength":56,
			"byteOffset":26600,
			"target":34962
		},
		{
			"buffer":0,
			"byteLength":84,
			"byteOffset":26656,
			"target":34962
		},
		{
			"buffer":0,
			"byteLength":30,
			"byteOffset":26740,
			"target":34963
		},
		{
			"buffer":0,
			"byteLength":216,
			"byteOffset":26772,
			"target":34962
		},
		{
			"buffer":0,
			"byteLength":144,
			"byteOffset":26988,
			"target":34962
		},
		{
			"buffer":0,
			"byteLength":216,
			"byteOffset":27132,
			"target":34962
		},
		{
			"buffer":0,
			"byteLength":96,
			"byteOffset":27348,
			"target":34963
		},
		{
			"buffer":0,
			"byteLength":840,
			"byteOffset":27444,
			"target":34962
		},
		{
			"buffer":0,
			"byteLength":560,
			"byteOffset":28284,
			"target":34962
		},
		{
			"buffer":0,
			"byteLength":840,
			"byteOffset":28844,
			"target":34962
		},
		{
			"buffer":0,
			"byteLength":228,
			"byteOffset":29684,
			"target":34963
		},
		{
			"buffer":0,
			"byteLength":168,
			"byteOffset":29912,
			"target":34962
		},
		{
			"buffer":0,
			"byteLength":112,
			"byteOffset":30080,
			"target":34962
		},
		{
			"buffer":0,
			"byteLength":168,
			"byteOffset":30192,
			"target":34962
		},
		{
			"buffer":0,
			"byteLength":84,
			"byteOffset":30360,
			"target":34963
		},
		{
			"buffer":0,
			"byteLength":24240,
			"byteOffset":30444,
			"target":34962
		},
		{
			"buffer":0,
			"byteLength":16160,
			"byteOffset":54684,
			"target":34962
		},
		{
			"buffer":0,
			"byteLength":24240,
			"byteOffset":70844,
			"target":34962
		},
		{
			"buffer":0,
			"byteLength":6576,
			"byteOffset":95084,
			"target":34963
		},
		{
			"buffer":0,
			"byteLength":105399,
			"byteOffset":101660
		}
	],
	"samplers":[
		{
			"magFilter":9729,
			"minFilter":9987
		}
	],
	"buffers":[
		{
			"byteLength":207060,
			"uri":"data:application/octet-stream;base64,"
		}
	]
}
