{
	"asset":{
		"generator":"Khronos glTF Blender I/O v3.5.30",
		"version":"2.0"
	},
	"scene":0,
	"scenes":[
		{
			"name":"Scene",
			"nodes":[
				0,
				1,
				2,
				3,
				4,
				5
			]
		}
	],
	"nodes":[
		{
			"mesh":0,
			"name":"Cylinder.001",
			"scale":[
				0.7034764885902405,
				0.014173208735883236,
				0.7034764885902405
			],
			"translation":[
				0.018605709075927734,
				0.09823852777481079,
				0.014491632580757141
			]
		},
		{
			"name":"Empty",
			"rotation":[
				0.70710688829422,
				0,
				0,
				0.7071066498756409
			],
			"scale":[
				1.1881273984909058,
				1.1881273984909058,
				1.1881273984909058
			],
			"translation":[
				2.00240421295166,
				2.919109344482422,
				0
			]
		},
		{
			"name":"Empty.001",
			"rotation":[
				0.7071069478988647,
				0,
				0,
				0.7071066498756409
			],
			"scale":[
				1.2018104791641235,
				1.2018104791641235,
				1.2018104791641235
			],
			"translation":[
				0,
				2.923858642578125,
				0
			]
		},
		{
			"name":"Empty.002",
			"rotation":[
				0.70710688829422,
				0,
				0,
				0.7071066498756409
			],
			"scale":[
				0.9888249039649963,
				0.9888249039649963,
				0.9888249039649963
			],
			"translation":[
				0.014089795760810375,
				2.625415802001953,
				0
			]
		},
		{
			"name":"Empty.003",
			"rotation":[
				0.70710688829422,
				0,
				0,
				0.7071066498756409
			],
			"scale":[
				0.9987976551055908,
				0.9987976551055908,
				0.9987976551055908
			],
			"translation":[
				0,
				2.6165273189544678,
				0
			]
		},
		{
			"mesh":1,
			"name":"Cylinder.004",
			"rotation":[
				-0.03216943517327309,
				-0.9994824528694153,
				0,
				7.546331204366652e-08
			],
			"scale":[
				0.03803126886487007,
				0.03803126886487007,
				0.038031257688999176
			],
			"translation":[
				-0.23475968837738037,
				0.1543126255273819,
				0
			]
		}
	],
	"materials":[
		{
			"doubleSided":true,
			"name":"launchfloor",
			"pbrMetallicRoughness":{
				"baseColorFactor":[
					0.28100714087486267,
					0.28100714087486267,
					0.28100714087486267,
					1
				],
				"metallicFactor":0,
				"roughnessFactor":0.5
			}
		},
		{
			"doubleSided":true,
			"name":"landingpad",
			"pbrMetallicRoughness":{
				"baseColorFactor":[
					0.4292215406894684,
					0.4292215406894684,
					0.4292215406894684,
					1
				],
				"metallicFactor":0,
				"roughnessFactor":0.5
			}
		},
		{
			"doubleSided":true,
			"name":"padborder",
			"pbrMetallicRoughness":{
				"baseColorFactor":[
					0.9403864741325378,
					0.9403864741325378,
					0.9403864741325378,
					1
				],
				"metallicFactor":0,
				"roughnessFactor":0.5
			}
		},
		{
			"doubleSided":true,
			"name":"grass",
			"pbrMetallicRoughness":{
				"baseColorFactor":[
					0.07910966128110886,
					0.3843688666820526,
					0.07261242717504501,
					1
				],
				"metallicFactor":0,
				"roughnessFactor":0.5
			}
		},
		{
			"doubleSided":true,
			"name":"dirt",
			"pbrMetallicRoughness":{
				"baseColorFactor":[
					0.08000966161489487,
					0.04727604612708092,
					0.014354920946061611,
					1
				],
				"metallicFactor":0,
				"roughnessFactor":0.5
			}
		},
		{
			"doubleSided":true,
			"name":"concrete",
			"pbrMetallicRoughness":{
				"baseColorFactor":[
					0.06071816012263298,
					0.06071816012263298,
					0.06071816012263298,
					1
				],
				"metallicFactor":0,
				"roughnessFactor":0.5
			}
		},
		{
			"doubleSided":true,
			"name":"border",
			"pbrMetallicRoughness":{
				"baseColorFactor":[
					0.698187530040741,
					0.698187530040741,
					0.698187530040741,
					1
				],
				"metallicFactor":0,
				"roughnessFactor":0.5
			}
		},
		{
			"doubleSided":true,
			"name":"booster",
			"pbrMetallicRoughness":{
				"baseColorFactor":[
					0.1448443979024887,
					0.1448443979024887,
					0.1448443979024887,
					1
				],
				"metallicFactor":0,
				"roughnessFactor":0.5
			}
		},
		{
			"doubleSided":true,
			"name":"3b",
			"pbrMetallicRoughness":{
				"baseColorTexture":{
					"index":0
				},
				"metallicFactor":0,
				"roughnessFactor":0.5
			}
		},
		{
			"doubleSided":true,
			"name":"main",
			"pbrMetallicRoughness":{
				"baseColorFactor":[
					0.011643650941550732,
					0.011643650941550732,
					0.011643650941550732,
					1
				],
				"metallicFactor":0,
				"roughnessFactor":0.5
			}
		}
	],
	"meshes":[
		{
			"name":"Cylinder.003",
			"primitives":[
				{
					"attributes":{
						"POSITION":0,
						"TEXCOORD_0":1,
						"NORMAL":2
					},
					"indices":3,
					"material":0
				},
				{
					"attributes":{
						"POSITION":4,
						"TEXCOORD_0":5,
						"NORMAL":6
					},
					"indices":7,
					"material":1
				},
				{
					"attributes":{
						"POSITION":8,
						"TEXCOORD_0":9,
						"NORMAL":10
					},
					"indices":11,
					"material":2
				},
				{
					"attributes":{
						"POSITION":12,
						"TEXCOORD_0":13,
						"NORMAL":14
					},
					"indices":15,
					"material":3
				},
				{
					"attributes":{
						"POSITION":16,
						"TEXCOORD_0":17,
						"NORMAL":18
					},
					"indices":19,
					"material":4
				},
				{
					"attributes":{
						"POSITION":20,
						"TEXCOORD_0":21,
						"NORMAL":22
					},
					"indices":23,
					"material":5
				},
				{
					"attributes":{
						"POSITION":24,
						"TEXCOORD_0":25,
						"NORMAL":26
					},
					"indices":27,
					"material":6
				}
			]
		},
		{
			"name":"Cylinder.002",
			"primitives":[
				{
					"attributes":{
						"POSITION":28,
						"TEXCOORD_0":29,
						"NORMAL":30
					},
					"indices":31,
					"material":7
				},
				{
					"attributes":{
						"POSITION":32,
						"TEXCOORD_0":33,
						"NORMAL":34
					},
					"indices":35,
					"material":8
				},
				{
					"attributes":{
						"POSITION":36,
						"TEXCOORD_0":37,
						"NORMAL":38
					},
					"indices":39,
					"material":9
				}
			]
		}
	],
	"textures":[
		{
			"sampler":0,
			"source":0
		}
	],
	"images":[
		{
			"bufferView":36,
			"mimeType":"image/png",
			"name":"Screenshot_2023-08-09_at_5.12.28_pm-removebg-preview"
		}
	],
	"accessors":[
		{
			"bufferView":0,
			"componentType":5126,
			"count":59,
			"max":[
				0.9749279022216797,
				0.6685290336608887,
				0.9009688496589661
			],
			"min":[
				-0.9749279022216797,
				-1.3314709663391113,
				-1
			],
			"type":"VEC3"
		},
		{
			"bufferView":1,
			"componentType":5126,
			"count":59,
			"type":"VEC2"
		},
		{
			"bufferView":2,
			"componentType":5126,
			"count":59,
			"type":"VEC3"
		},
		{
			"bufferView":3,
			"componentType":5123,
			"count":93,
			"type":"SCALAR"
		},
		{
			"bufferView":4,
			"componentType":5126,
			"count":7,
			"max":[
				0.9305989742279053,
				-0.005587100982666016,
				0.8600028157234192
			],
			"min":[
				-0.93059903383255,
				-0.005587100982666016,
				-0.9545311331748962
			],
			"type":"VEC3"
		},
		{
			"bufferView":5,
			"componentType":5126,
			"count":7,
			"type":"VEC2"
		},
		{
			"bufferView":6,
			"componentType":5126,
			"count":7,
			"type":"VEC3"
		},
		{
			"bufferView":7,
			"componentType":5123,
			"count":15,
			"type":"SCALAR"
		},
		{
			"bufferView":8,
			"componentType":5126,
			"count":18,
			"max":[
				0.9749279022216797,
				0.6685290336608887,
				0.9009688496589661
			],
			"min":[
				-0.9749279022216797,
				-0.005587100982666016,
				-1
			],
			"type":"VEC3"
		},
		{
			"bufferView":9,
			"componentType":5126,
			"count":18,
			"type":"VEC2"
		},
		{
			"bufferView":10,
			"componentType":5126,
			"count":18,
			"type":"VEC3"
		},
		{
			"bufferView":11,
			"componentType":5123,
			"count":48,
			"type":"SCALAR"
		},
		{
			"bufferView":12,
			"componentType":5126,
			"count":320,
			"max":[
				5.610724449157715,
				-4.057764053344727,
				4.864363670349121
			],
			"min":[
				-5.848679065704346,
				-35.53102111816406,
				-5.337103366851807
			],
			"type":"VEC3"
		},
		{
			"bufferView":13,
			"componentType":5126,
			"count":320,
			"type":"VEC2"
		},
		{
			"bufferView":14,
			"componentType":5126,
			"count":320,
			"type":"VEC3"
		},
		{
			"bufferView":15,
			"componentType":5123,
			"count":990,
			"type":"SCALAR"
		},
		{
			"bufferView":16,
			"componentType":5126,
			"count":320,
			"max":[
				5.423567771911621,
				-35.5310173034668,
				4.701854228973389
			],
			"min":[
				-5.653773307800293,
				-64.82886505126953,
				-5.159491062164307
			],
			"type":"VEC3"
		},
		{
			"bufferView":17,
			"componentType":5126,
			"count":320,
			"type":"VEC2"
		},
		{
			"bufferView":18,
			"componentType":5126,
			"count":320,
			"type":"VEC3"
		},
		{
			"bufferView":19,
			"componentType":5123,
			"count":990,
			"type":"SCALAR"
		},
		{
			"bufferView":20,
			"componentType":5126,
			"count":70,
			"max":[
				2.050567388534546,
				3.7954559326171875,
				1.873186469078064
			],
			"min":[
				-2.0449845790863037,
				-5.382540702819824,
				-2.2253921031951904
			],
			"type":"VEC3"
		},
		{
			"bufferView":21,
			"componentType":5126,
			"count":70,
			"type":"VEC2"
		},
		{
			"bufferView":22,
			"componentType":5126,
			"count":70,
			"type":"VEC3"
		},
		{
			"bufferView":23,
			"componentType":5123,
			"count":114,
			"type":"SCALAR"
		},
		{
			"bufferView":24,
			"componentType":5126,
			"count":14,
			"max":[
				2.050567388534546,
				3.7954559326171875,
				1.873186469078064
			],
			"min":[
				-2.0449845790863037,
				3.7954559326171875,
				-2.2253921031951904
			],
			"type":"VEC3"
		},
		{
			"bufferView":25,
			"componentType":5126,
			"count":14,
			"type":"VEC2"
		},
		{
			"bufferView":26,
			"componentType":5126,
			"count":14,
			"type":"VEC3"
		},
		{
			"bufferView":27,
			"componentType":5123,
			"count":42,
			"type":"SCALAR"
		},
		{
			"bufferView":28,
			"componentType":5126,
			"count":1792,
			"max":[
				1.0488264560699463,
				1.8646557331085205,
				7.332019805908203
			],
			"min":[
				-13.584857940673828,
				-1,
				-7.332018852233887
			],
			"type":"VEC3"
		},
		{
			"bufferView":29,
			"componentType":5126,
			"count":1792,
			"type":"VEC2"
		},
		{
			"bufferView":30,
			"componentType":5126,
			"count":1792,
			"type":"VEC3"
		},
		{
			"bufferView":31,
			"componentType":5123,
			"count":3024,
			"type":"SCALAR"
		},
		{
			"bufferView":32,
			"componentType":5126,
			"count":4600,
			"max":[
				4.667215824127197,
				114.06732940673828,
				10.74567985534668
			],
			"min":[
				-16.870929718017578,
				0.4654264450073242,
				-10.74567985534668
			],
			"type":"VEC3"
		},
		{
			"bufferView":33,
			"componentType":5126,
			"count":4600,
			"type":"VEC2"
		},
		{
			"bufferView":34,
			"componentType":5126,
			"count":4600,
			"type":"VEC3"
		},
		{
			"bufferView":35,
			"componentType":5123,
			"count":7428,
			"type":"SCALAR"
		},
		{
			"bufferView":37,
			"componentType":5126,
			"count":896,
			"max":[
				-4.022508144378662,
				1.1628214120864868,
				0.9314686059951782
			],
			"min":[
				-8.504775047302246,
				-0.8781082034111023,
				-0.9314704537391663
			],
			"type":"VEC3"
		},
		{
			"bufferView":38,
			"componentType":5126,
			"count":896,
			"type":"VEC2"
		},
		{
			"bufferView":39,
			"componentType":5126,
			"count":896,
			"type":"VEC3"
		},
		{
			"bufferView":40,
			"componentType":5123,
			"count":1512,
			"type":"SCALAR"
		}
	],
	"bufferViews":[
		{
			"buffer":0,
			"byteLength":708,
			"byteOffset":0,
			"target":34962
		},
		{
			"buffer":0,
			"byteLength":472,
			"byteOffset":708,
			"target":34962
		},
		{
			"buffer":0,
			"byteLength":708,
			"byteOffset":1180,
			"target":34962
		},
		{
			"buffer":0,
			"byteLength":186,
			"byteOffset":1888,
			"target":34963
		},
		{
			"buffer":0,
			"byteLength":84,
			"byteOffset":2076,
			"target":34962
		},
		{
			"buffer":0,
			"byteLength":56,
			"byteOffset":2160,
			"target":34962
		},
		{
			"buffer":0,
			"byteLength":84,
			"byteOffset":2216,
			"target":34962
		},
		{
			"buffer":0,
			"byteLength":30,
			"byteOffset":2300,
			"target":34963
		},
		{
			"buffer":0,
			"byteLength":216,
			"byteOffset":2332,
			"target":34962
		},
		{
			"buffer":0,
			"byteLength":144,
			"byteOffset":2548,
			"target":34962
		},
		{
			"buffer":0,
			"byteLength":216,
			"byteOffset":2692,
			"target":34962
		},
		{
			"buffer":0,
			"byteLength":96,
			"byteOffset":2908,
			"target":34963
		},
		{
			"buffer":0,
			"byteLength":3840,
			"byteOffset":3004,
			"target":34962
		},
		{
			"buffer":0,
			"byteLength":2560,
			"byteOffset":6844,
			"target":34962
		},
		{
			"buffer":0,
			"byteLength":3840,
			"byteOffset":9404,
			"target":34962
		},
		{
			"buffer":0,
			"byteLength":1980,
			"byteOffset":13244,
			"target":34963
		},
		{
			"buffer":0,
			"byteLength":3840,
			"byteOffset":15224,
			"target":34962
		},
		{
			"buffer":0,
			"byteLength":2560,
			"byteOffset":19064,
			"target":34962
		},
		{
			"buffer":0,
			"byteLength":3840,
			"byteOffset":21624,
			"target":34962
		},
		{
			"buffer":0,
			"byteLength":1980,
			"byteOffset":25464,
			"target":34963
		},
		{
			"buffer":0,
			"byteLength":840,
			"byteOffset":27444,
			"target":34962
		},
		{
			"buffer":0,
			"byteLength":560,
			"byteOffset":28284,
			"target":34962
		},
		{
			"buffer":0,
			"byteLength":840,
			"byteOffset":28844,
			"target":34962
		},
		{
			"buffer":0,
			"byteLength":228,
			"byteOffset":29684,
			"target":34963
		},
		{
			"buffer":0,
			"byteLength":168,
			"byteOffset":29912,
			"target":34962
		},
		{
			"buffer":0,
			"byteLength":112,
			"byteOffset":30080,
			"target":34962
		},
		{
			"buffer":0,
			"byteLength":168,
			"byteOffset":30192,
			"target":34962
		},
		{
			"buffer":0,
			"byteLength":84,
			"byteOffset":30360,
			"target":34963
		},
		{
			"buffer":0,
			"byteLength":21504,
			"byteOffset":30444,
			"target":34962
		},
		{
			"buffer":0,
			"byteLength":14336,
			"byteOffset":51948,
			"target":34962
		},
		{
			"buffer":0,
			"byteLength":21504,
			"byteOffset":66284,
			"target":34962
		},
		{
			"buffer":0,
			"byteLength":6048,
			"byteOffset":87788,
			"target":34963
		},
		{
			"buffer":0,
			"byteLength":55200,
			"byteOffset":93836,
			"target":34962
		},
		{
			"buffer":0,
			"byteLength":36800,
			"byteOffset":149036,
			"target":34962
		},
		{
			"buffer":0,
			"byteLength":55200,
			"byteOffset":185836,
			"target":34962
		},
		{
			"buffer":0,
			"byteLength":14856,
			"byteOffset":241036,
			"target":34963
		},
		{
			"buffer":0,
			"byteLength":205972,
			"byteOffset":255892
		},
		{
			"buffer":0,
			"byteLength":10752,
			"byteOffset":461864,
			"target":34962
		},
		{
			"buffer":0,
			"byteLength":7168,
			"byteOffset":472616,
			"target":34962
		},
		{
			"buffer":0,
			"byteLength":10752,
			"byteOffset":479784,
			"target":34962
		},
		{
			"buffer":0,
			"byteLength":3024,
			"byteOffset":490536,
			"target":34963
		}
	],
	"samplers":[
		{
			"magFilter":9729,
			"minFilter":9987
		}
	],
	"buffers":[
		{
			"byteLength":493560,
			"uri":"data:application/octet-stream;base64,"
		}
	]
}
