{
	"asset":{
		"generator":"Khronos glTF Blender I/O v3.5.30",
		"version":"2.0"
	},
	"extensionsUsed":[
		"KHR_materials_emissive_strength"
	],
	"scene":0,
	"scenes":[
		{
			"name":"Scene",
			"nodes":[
				0
			]
		}
	],
	"nodes":[
		{
			"mesh":0,
			"name":"Falcon 9_Block5_Object",
			"rotation":[
				0,
				0.7071068286895752,
				0,
				0.7071068286895752
			],
			"scale":[
				0.3347477614879608,
				5.411221981048584,
				0.3347477614879608
			]
		}
	],
	"materials":[
		{
			"doubleSided":true,
			"emissiveFactor":[
				0.7230422496795654,
				0.7230422496795654,
				0.7230422496795654
			],
			"name":"Rocket",
			"pbrMetallicRoughness":{
				"baseColorFactor":[
					0.800000011920929,
					0.800000011920929,
					0.800000011920929,
					1
				],
				"metallicFactor":0,
				"roughnessFactor":0.5
			}
		},
		{
			"doubleSided":true,
			"name":"RocketBlack",
			"pbrMetallicRoughness":{
				"baseColorFactor":[
					0.8006561994552612,
					0.8006561994552612,
					0.8006561994552612,
					1
				],
				"metallicFactor":0,
				"roughnessFactor":0.5
			}
		},
		{
			"doubleSided":true,
			"name":"Booster",
			"pbrMetallicRoughness":{
				"baseColorFactor":[
					0.08001197129487991,
					0.08001197129487991,
					0.08001197129487991,
					1
				],
				"roughnessFactor":0.5333333015441895
			}
		},
		{
			"doubleSided":true,
			"emissiveFactor":[
				1,
				0.09778958559036255,
				0.12170583009719849
			],
			"extensions":{
				"KHR_materials_emissive_strength":{
					"emissiveStrength":40
				}
			},
			"name":"BoosterEmieeion",
			"pbrMetallicRoughness":{
				"baseColorFactor":[
					0,
					0,
					0,
					1
				]
			}
		},
		{
			"doubleSided":true,
			"name":"Finns",
			"pbrMetallicRoughness":{
				"baseColorFactor":[
					0.012286489829421043,
					0.012286489829421043,
					0.012286489829421043,
					1
				],
				"metallicFactor":0.675000011920929,
				"roughnessFactor":0.5
			}
		},
		{
			"doubleSided":true,
			"name":"LandingGear",
			"pbrMetallicRoughness":{
				"baseColorFactor":[
					0.01599504053592682,
					0.01599504053592682,
					0.01599504053592682,
					1
				],
				"metallicFactor":0.699999988079071,
				"roughnessFactor":0.29166701436042786
			}
		}
	],
	"meshes":[
		{
			"name":"Cylinder.007",
			"primitives":[
				{
					"attributes":{
						"POSITION":0,
						"TEXCOORD_0":1,
						"NORMAL":2
					},
					"indices":3,
					"material":0
				},
				{
					"attributes":{
						"POSITION":4,
						"TEXCOORD_0":5,
						"NORMAL":6
					},
					"indices":7,
					"material":1
				},
				{
					"attributes":{
						"POSITION":8,
						"TEXCOORD_0":9,
						"NORMAL":10
					},
					"indices":11,
					"material":2
				},
				{
					"attributes":{
						"POSITION":12,
						"TEXCOORD_0":13,
						"NORMAL":14
					},
					"indices":15,
					"material":3
				},
				{
					"attributes":{
						"POSITION":16,
						"TEXCOORD_0":17,
						"NORMAL":18
					},
					"indices":19,
					"material":4
				},
				{
					"attributes":{
						"POSITION":20,
						"TEXCOORD_0":21,
						"NORMAL":22
					},
					"indices":23,
					"material":5
				}
			]
		}
	],
	"accessors":[
		{
			"bufferView":0,
			"componentType":5126,
			"count":752,
			"max":[
				1.4161853790283203,
				2.471297264099121,
				1.4161853790283203
			],
			"min":[
				-1.4161853790283203,
				0.12384817749261856,
				-1.4161852598190308
			],
			"type":"VEC3"
		},
		{
			"bufferView":1,
			"componentType":5126,
			"count":752,
			"type":"VEC2"
		},
		{
			"bufferView":2,
			"componentType":5126,
			"count":752,
			"type":"VEC3"
		},
		{
			"bufferView":3,
			"componentType":5123,
			"count":1182,
			"type":"SCALAR"
		},
		{
			"bufferView":4,
			"componentType":5126,
			"count":240,
			"max":[
				1,
				1.6840609312057495,
				1
			],
			"min":[
				-1,
				-0.005033016204833984,
				-1
			],
			"type":"VEC3"
		},
		{
			"bufferView":5,
			"componentType":5126,
			"count":240,
			"type":"VEC2"
		},
		{
			"bufferView":6,
			"componentType":5126,
			"count":240,
			"type":"VEC3"
		},
		{
			"bufferView":7,
			"componentType":5123,
			"count":414,
			"type":"SCALAR"
		},
		{
			"bufferView":8,
			"componentType":5126,
			"count":4352,
			"max":[
				1.0014160871505737,
				-0.0033169155940413475,
				1.0207924842834473
			],
			"min":[
				-1.0013189315795898,
				-0.03931501507759094,
				-0.9529731869697571
			],
			"type":"VEC3"
		},
		{
			"bufferView":9,
			"componentType":5126,
			"count":4352,
			"type":"VEC2"
		},
		{
			"bufferView":10,
			"componentType":5126,
			"count":4352,
			"type":"VEC3"
		},
		{
			"bufferView":11,
			"componentType":5123,
			"count":6816,
			"type":"SCALAR"
		},
		{
			"bufferView":12,
			"componentType":5126,
			"count":512,
			"max":[
				0.834990382194519,
				-0.0046325246803462505,
				0.8536518812179565
			],
			"min":[
				-0.8362336158752441,
				-0.013303238898515701,
				-0.7855497002601624
			],
			"type":"VEC3"
		},
		{
			"bufferView":13,
			"componentType":5126,
			"count":512,
			"type":"VEC2"
		},
		{
			"bufferView":14,
			"componentType":5126,
			"count":512,
			"type":"VEC3"
		},
		{
			"bufferView":15,
			"componentType":5123,
			"count":768,
			"type":"SCALAR"
		},
		{
			"bufferView":16,
			"componentType":5126,
			"count":33516,
			"max":[
				1.0468380451202393,
				1.474643588066101,
				1.049524188041687
			],
			"min":[
				-1.0514721870422363,
				1.3987977504730225,
				-1.0485398769378662
			],
			"type":"VEC3"
		},
		{
			"bufferView":17,
			"componentType":5126,
			"count":33516,
			"type":"VEC2"
		},
		{
			"bufferView":18,
			"componentType":5126,
			"count":33516,
			"type":"VEC3"
		},
		{
			"bufferView":19,
			"componentType":5123,
			"count":57600,
			"type":"SCALAR"
		},
		{
			"bufferView":20,
			"componentType":5126,
			"count":736,
			"max":[
				1.1781632900238037,
				0.34017881751060486,
				1.107096791267395
			],
			"min":[
				-1.1396210193634033,
				0.022541463375091553,
				-1.214066982269287
			],
			"type":"VEC3"
		},
		{
			"bufferView":21,
			"componentType":5126,
			"count":736,
			"type":"VEC2"
		},
		{
			"bufferView":22,
			"componentType":5126,
			"count":736,
			"type":"VEC3"
		},
		{
			"bufferView":23,
			"componentType":5123,
			"count":1344,
			"type":"SCALAR"
		}
	],
	"bufferViews":[
		{
			"buffer":0,
			"byteLength":9024,
			"byteOffset":0,
			"target":34962
		},
		{
			"buffer":0,
			"byteLength":6016,
			"byteOffset":9024,
			"target":34962
		},
		{
			"buffer":0,
			"byteLength":9024,
			"byteOffset":15040,
			"target":34962
		},
		{
			"buffer":0,
			"byteLength":2364,
			"byteOffset":24064,
			"target":34963
		},
		{
			"buffer":0,
			"byteLength":2880,
			"byteOffset":26428,
			"target":34962
		},
		{
			"buffer":0,
			"byteLength":1920,
			"byteOffset":29308,
			"target":34962
		},
		{
			"buffer":0,
			"byteLength":2880,
			"byteOffset":31228,
			"target":34962
		},
		{
			"buffer":0,
			"byteLength":828,
			"byteOffset":34108,
			"target":34963
		},
		{
			"buffer":0,
			"byteLength":52224,
			"byteOffset":34936,
			"target":34962
		},
		{
			"buffer":0,
			"byteLength":34816,
			"byteOffset":87160,
			"target":34962
		},
		{
			"buffer":0,
			"byteLength":52224,
			"byteOffset":121976,
			"target":34962
		},
		{
			"buffer":0,
			"byteLength":13632,
			"byteOffset":174200,
			"target":34963
		},
		{
			"buffer":0,
			"byteLength":6144,
			"byteOffset":187832,
			"target":34962
		},
		{
			"buffer":0,
			"byteLength":4096,
			"byteOffset":193976,
			"target":34962
		},
		{
			"buffer":0,
			"byteLength":6144,
			"byteOffset":198072,
			"target":34962
		},
		{
			"buffer":0,
			"byteLength":1536,
			"byteOffset":204216,
			"target":34963
		},
		{
			"buffer":0,
			"byteLength":402192,
			"byteOffset":205752,
			"target":34962
		},
		{
			"buffer":0,
			"byteLength":268128,
			"byteOffset":607944,
			"target":34962
		},
		{
			"buffer":0,
			"byteLength":402192,
			"byteOffset":876072,
			"target":34962
		},
		{
			"buffer":0,
			"byteLength":115200,
			"byteOffset":1278264,
			"target":34963
		},
		{
			"buffer":0,
			"byteLength":8832,
			"byteOffset":1393464,
			"target":34962
		},
		{
			"buffer":0,
			"byteLength":5888,
			"byteOffset":1402296,
			"target":34962
		},
		{
			"buffer":0,
			"byteLength":8832,
			"byteOffset":1408184,
			"target":34962
		},
		{
			"buffer":0,
			"byteLength":2688,
			"byteOffset":1417016,
			"target":34963
		}
	],
	"buffers":[
		{
			"byteLength":1419704,
			"uri":"data:application/octet-stream;base64,"
		}
	]
}
