{
	"asset":{
		"generator":"Khronos glTF Blender I/O v3.5.30",
		"version":"2.0"
	},
	"scene":0,
	"scenes":[
		{
			"name":"Scene",
			"nodes":[
				0,
				1,
				2,
				3
			]
		}
	],
	"nodes":[
		{
			"name":"Empty",
			"rotation":[
				0.70710688829422,
				0,
				0,
				0.7071066498756409
			],
			"scale":[
				0.5819147229194641,
				0.5819147229194641,
				0.5819147229194641
			],
			"translation":[
				0,
				1.5871671438217163,
				0
			]
		},
		{
			"name":"Empty.002",
			"rotation":[
				0.70710688829422,
				0,
				0,
				0.7071066498756409
			],
			"scale":[
				0.29440823197364807,
				0.29440823197364807,
				0.29440823197364807
			],
			"translation":[
				0,
				0.8359732031822205,
				0
			]
		},
		{
			"mesh":0,
			"name":"Cube",
			"scale":[
				0.1791926622390747,
				0.0616496317088604,
				0.04732106253504753
			],
			"translation":[
				0,
				0.7099554538726807,
				0
			]
		},
		{
			"mesh":1,
			"name":"Plane.001",
			"scale":[
				-2.8566555976867676,
				-3.3316128253936768,
				-2.7866504192352295
			],
			"translation":[
				0.09032058715820312,
				-0.05796945095062256,
				0.006616394966840744
			]
		}
	],
	"materials":[
		{
			"doubleSided":true,
			"name":"Material",
			"pbrMetallicRoughness":{
				"baseColorTexture":{
					"index":0
				},
				"metallicFactor":0,
				"roughnessFactor":0.5
			}
		},
		{
			"doubleSided":true,
			"name":"dirt.001",
			"pbrMetallicRoughness":{
				"baseColorFactor":[
					0.08000966161489487,
					0.04727604612708092,
					0.014354920946061611,
					1
				],
				"metallicFactor":0,
				"roughnessFactor":0.5
			}
		},
		{
			"doubleSided":true,
			"name":"top.001",
			"pbrMetallicRoughness":{
				"baseColorFactor":[
					0.03954597935080528,
					0.14995968341827393,
					0.23839756846427917,
					1
				],
				"metallicFactor":0,
				"roughnessFactor":0.5
			}
		},
		{
			"doubleSided":true,
			"name":"launchfloor",
			"pbrMetallicRoughness":{
				"baseColorFactor":[
					0.28100714087486267,
					0.28100714087486267,
					0.28100714087486267,
					1
				],
				"metallicFactor":0,
				"roughnessFactor":0.5
			}
		},
		{
			"doubleSided":true,
			"name":"landingpad",
			"pbrMetallicRoughness":{
				"baseColorFactor":[
					0.4292215406894684,
					0.4292215406894684,
					0.4292215406894684,
					1
				],
				"metallicFactor":0,
				"roughnessFactor":0.5
			}
		},
		{
			"doubleSided":true,
			"name":"padborder",
			"pbrMetallicRoughness":{
				"baseColorFactor":[
					0.9403864741325378,
					0.9403864741325378,
					0.9403864741325378,
					1
				],
				"metallicFactor":0,
				"roughnessFactor":0.5
			}
		},
		{
			"doubleSided":true,
			"name":"concrete",
			"pbrMetallicRoughness":{
				"baseColorFactor":[
					0.06071816012263298,
					0.06071816012263298,
					0.06071816012263298,
					1
				],
				"metallicFactor":0,
				"roughnessFactor":0.5
			}
		},
		{
			"doubleSided":true,
			"name":"border",
			"pbrMetallicRoughness":{
				"baseColorFactor":[
					0.698187530040741,
					0.698187530040741,
					0.698187530040741,
					1
				],
				"metallicFactor":0,
				"roughnessFactor":0.5
			}
		}
	],
	"meshes":[
		{
			"name":"Cube",
			"primitives":[
				{
					"attributes":{
						"POSITION":0,
						"TEXCOORD_0":1,
						"NORMAL":2
					},
					"indices":3,
					"material":0
				}
			]
		},
		{
			"name":"Plane.002",
			"primitives":[
				{
					"attributes":{
						"POSITION":4,
						"TEXCOORD_0":5,
						"NORMAL":6
					},
					"indices":7,
					"material":1
				},
				{
					"attributes":{
						"POSITION":8,
						"TEXCOORD_0":9,
						"NORMAL":10
					},
					"indices":11,
					"material":2
				},
				{
					"attributes":{
						"POSITION":12,
						"TEXCOORD_0":13,
						"NORMAL":14
					},
					"indices":15,
					"material":3
				},
				{
					"attributes":{
						"POSITION":16,
						"TEXCOORD_0":17,
						"NORMAL":18
					},
					"indices":19,
					"material":4
				},
				{
					"attributes":{
						"POSITION":20,
						"TEXCOORD_0":21,
						"NORMAL":22
					},
					"indices":23,
					"material":5
				},
				{
					"attributes":{
						"POSITION":24,
						"TEXCOORD_0":25,
						"NORMAL":26
					},
					"indices":27,
					"material":6
				},
				{
					"attributes":{
						"POSITION":28,
						"TEXCOORD_0":29,
						"NORMAL":30
					},
					"indices":31,
					"material":7
				}
			]
		}
	],
	"textures":[
		{
			"sampler":0,
			"source":0
		}
	],
	"images":[
		{
			"bufferView":4,
			"mimeType":"image/png",
			"name":"8506a3894596b552aae26c24fcd768f1-removebg-preview"
		}
	],
	"accessors":[
		{
			"bufferView":0,
			"componentType":5126,
			"count":10232,
			"max":[
				1.0310604572296143,
				19.3598575592041,
				3.7867417335510254
			],
			"min":[
				-1.0314704179763794,
				-4.464557647705078,
				-3.7867417335510254
			],
			"type":"VEC3"
		},
		{
			"bufferView":1,
			"componentType":5126,
			"count":10232,
			"type":"VEC2"
		},
		{
			"bufferView":2,
			"componentType":5126,
			"count":10232,
			"type":"VEC3"
		},
		{
			"bufferView":3,
			"componentType":5123,
			"count":15864,
			"type":"SCALAR"
		},
		{
			"bufferView":5,
			"componentType":5126,
			"count":320,
			"max":[
				1.3890910148620605,
				0.12865158915519714,
				1.3003298044204712
			],
			"min":[
				-1.3388012647628784,
				0.004013918340206146,
				-1.1891192197799683
			],
			"type":"VEC3"
		},
		{
			"bufferView":6,
			"componentType":5126,
			"count":320,
			"type":"VEC2"
		},
		{
			"bufferView":7,
			"componentType":5126,
			"count":320,
			"type":"VEC3"
		},
		{
			"bufferView":8,
			"componentType":5123,
			"count":990,
			"type":"SCALAR"
		},
		{
			"bufferView":9,
			"componentType":5126,
			"count":320,
			"max":[
				1.4370883703231812,
				0.00401393324136734,
				1.3451672792434692
			],
			"min":[
				-1.3848903179168701,
				-0.12987828254699707,
				-1.2301440238952637
			],
			"type":"VEC3"
		},
		{
			"bufferView":10,
			"componentType":5126,
			"count":320,
			"type":"VEC2"
		},
		{
			"bufferView":11,
			"componentType":5126,
			"count":320,
			"type":"VEC3"
		},
		{
			"bufferView":12,
			"componentType":5123,
			"count":990,
			"type":"SCALAR"
		},
		{
			"bufferView":13,
			"componentType":5126,
			"count":59,
			"max":[
				0.26962095499038696,
				-0.1414763629436493,
				0.25028637051582336
			],
			"min":[
				-0.21054811775684357,
				-0.1499846875667572,
				-0.22960402071475983
			],
			"type":"VEC3"
		},
		{
			"bufferView":14,
			"componentType":5126,
			"count":59,
			"type":"VEC2"
		},
		{
			"bufferView":15,
			"componentType":5126,
			"count":59,
			"type":"VEC3"
		},
		{
			"bufferView":16,
			"componentType":5123,
			"count":93,
			"type":"SCALAR"
		},
		{
			"bufferView":17,
			"componentType":5126,
			"count":7,
			"max":[
				0.25870460271835327,
				-0.14711688458919525,
				0.23880797624588013
			],
			"min":[
				-0.1996317356824875,
				-0.14711688458919525,
				-0.21926234662532806
			],
			"type":"VEC3"
		},
		{
			"bufferView":18,
			"componentType":5126,
			"count":7,
			"type":"VEC2"
		},
		{
			"bufferView":19,
			"componentType":5126,
			"count":7,
			"type":"VEC3"
		},
		{
			"bufferView":20,
			"componentType":5123,
			"count":15,
			"type":"SCALAR"
		},
		{
			"bufferView":21,
			"componentType":5126,
			"count":18,
			"max":[
				0.26962095499038696,
				-0.14711688458919525,
				0.25028637051582336
			],
			"min":[
				-0.21054811775684357,
				-0.1499846875667572,
				-0.22960402071475983
			],
			"type":"VEC3"
		},
		{
			"bufferView":22,
			"componentType":5126,
			"count":18,
			"type":"VEC2"
		},
		{
			"bufferView":23,
			"componentType":5126,
			"count":18,
			"type":"VEC3"
		},
		{
			"bufferView":24,
			"componentType":5123,
			"count":48,
			"type":"SCALAR"
		},
		{
			"bufferView":25,
			"componentType":5126,
			"count":70,
			"max":[
				0.5331318378448486,
				-0.12424246966838837,
				0.5596306324005127
			],
			"min":[
				-0.47543373703956604,
				-0.16328711807727814,
				-0.4750356376171112
			],
			"type":"VEC3"
		},
		{
			"bufferView":26,
			"componentType":5126,
			"count":70,
			"type":"VEC2"
		},
		{
			"bufferView":27,
			"componentType":5126,
			"count":70,
			"type":"VEC3"
		},
		{
			"bufferView":28,
			"componentType":5123,
			"count":114,
			"type":"SCALAR"
		},
		{
			"bufferView":29,
			"componentType":5126,
			"count":14,
			"max":[
				0.5331318378448486,
				-0.16328711807727814,
				0.5596306324005127
			],
			"min":[
				-0.47543373703956604,
				-0.16328711807727814,
				-0.4750356376171112
			],
			"type":"VEC3"
		},
		{
			"bufferView":30,
			"componentType":5126,
			"count":14,
			"type":"VEC2"
		},
		{
			"bufferView":31,
			"componentType":5126,
			"count":14,
			"type":"VEC3"
		},
		{
			"bufferView":32,
			"componentType":5123,
			"count":42,
			"type":"SCALAR"
		}
	],
	"bufferViews":[
		{
			"buffer":0,
			"byteLength":122784,
			"byteOffset":0,
			"target":34962
		},
		{
			"buffer":0,
			"byteLength":81856,
			"byteOffset":122784,
			"target":34962
		},
		{
			"buffer":0,
			"byteLength":122784,
			"byteOffset":204640,
			"target":34962
		},
		{
			"buffer":0,
			"byteLength":31728,
			"byteOffset":327424,
			"target":34963
		},
		{
			"buffer":0,
			"byteLength":317579,
			"byteOffset":359152
		},
		{
			"buffer":0,
			"byteLength":3840,
			"byteOffset":676732,
			"target":34962
		},
		{
			"buffer":0,
			"byteLength":2560,
			"byteOffset":680572,
			"target":34962
		},
		{
			"buffer":0,
			"byteLength":3840,
			"byteOffset":683132,
			"target":34962
		},
		{
			"buffer":0,
			"byteLength":1980,
			"byteOffset":686972,
			"target":34963
		},
		{
			"buffer":0,
			"byteLength":3840,
			"byteOffset":688952,
			"target":34962
		},
		{
			"buffer":0,
			"byteLength":2560,
			"byteOffset":692792,
			"target":34962
		},
		{
			"buffer":0,
			"byteLength":3840,
			"byteOffset":695352,
			"target":34962
		},
		{
			"buffer":0,
			"byteLength":1980,
			"byteOffset":699192,
			"target":34963
		},
		{
			"buffer":0,
			"byteLength":708,
			"byteOffset":701172,
			"target":34962
		},
		{
			"buffer":0,
			"byteLength":472,
			"byteOffset":701880,
			"target":34962
		},
		{
			"buffer":0,
			"byteLength":708,
			"byteOffset":702352,
			"target":34962
		},
		{
			"buffer":0,
			"byteLength":186,
			"byteOffset":703060,
			"target":34963
		},
		{
			"buffer":0,
			"byteLength":84,
			"byteOffset":703248,
			"target":34962
		},
		{
			"buffer":0,
			"byteLength":56,
			"byteOffset":703332,
			"target":34962
		},
		{
			"buffer":0,
			"byteLength":84,
			"byteOffset":703388,
			"target":34962
		},
		{
			"buffer":0,
			"byteLength":30,
			"byteOffset":703472,
			"target":34963
		},
		{
			"buffer":0,
			"byteLength":216,
			"byteOffset":703504,
			"target":34962
		},
		{
			"buffer":0,
			"byteLength":144,
			"byteOffset":703720,
			"target":34962
		},
		{
			"buffer":0,
			"byteLength":216,
			"byteOffset":703864,
			"target":34962
		},
		{
			"buffer":0,
			"byteLength":96,
			"byteOffset":704080,
			"target":34963
		},
		{
			"buffer":0,
			"byteLength":840,
			"byteOffset":704176,
			"target":34962
		},
		{
			"buffer":0,
			"byteLength":560,
			"byteOffset":705016,
			"target":34962
		},
		{
			"buffer":0,
			"byteLength":840,
			"byteOffset":705576,
			"target":34962
		},
		{
			"buffer":0,
			"byteLength":228,
			"byteOffset":706416,
			"target":34963
		},
		{
			"buffer":0,
			"byteLength":168,
			"byteOffset":706644,
			"target":34962
		},
		{
			"buffer":0,
			"byteLength":112,
			"byteOffset":706812,
			"target":34962
		},
		{
			"buffer":0,
			"byteLength":168,
			"byteOffset":706924,
			"target":34962
		},
		{
			"buffer":0,
			"byteLength":84,
			"byteOffset":707092,
			"target":34963
		}
	],
	"samplers":[
		{
			"magFilter":9729,
			"minFilter":9987
		}
	],
	"buffers":[
		{
			"byteLength":707176,
			"uri":"data:application/octet-stream;base64,"
		}
	]
}
