<?xml version="1.0" standalone="no"?>
<!DOCTYPE svg PUBLIC "-//W3C//DTD SVG 20010904//EN"
 "http://www.w3.org/TR/2001/REC-SVG-20010904/DTD/svg10.dtd">
<svg version="1.0" xmlns="http://www.w3.org/2000/svg"
 width="1024.000000pt" height="1024.000000pt" viewBox="0 0 1024.000000 1024.000000"
 preserveAspectRatio="xMidYMid meet">
<metadata>
Created by potrace 1.14, written by Peter Selinger 2001-2017
</metadata>
<g transform="translate(0.000000,1024.000000) scale(0.100000,-0.100000)"
fill="#000000" stroke="none">
<path d="M4730 9146 c-344 -37 -683 -114 -980 -223 -356 -130 -687 -303 -975
-508 -560 -399 -1046 -958 -1332 -1531 -54 -110 -115 -242 -135 -294 -49 -126
-128 -348 -128 -358 0 -4 29 -37 64 -74 145 -148 208 -302 207 -508 0 -104
-22 -191 -66 -266 l-25 -43 58 -6 c243 -28 475 -146 603 -308 47 -58 121 -208
138 -279 16 -67 15 -215 -2 -270 -15 -48 -13 -58 9 -58 26 0 130 -70 185 -123
31 -30 68 -75 83 -101 63 -108 87 -322 46 -428 -11 -28 -19 -53 -17 -54 1 -1
21 -13 45 -28 90 -56 174 -175 188 -267 6 -35 8 -37 63 -48 31 -7 84 -21 118
-32 35 -11 67 -18 73 -14 6 3 13 0 16 -8 3 -8 13 -13 24 -10 10 3 21 0 24 -6
4 -6 16 -11 27 -11 19 0 26 -14 12 -23 -5 -2 -3 -2 4 -1 7 2 20 -5 30 -14 11
-9 12 -12 3 -7 -13 9 -13 8 -2 -7 8 -9 20 -14 27 -11 17 6 72 -26 98 -57 10
-11 23 -18 29 -14 7 4 8 3 4 -4 -4 -7 -2 -12 3 -12 6 0 10 -5 8 -12 -1 -7 3
-12 10 -13 6 0 15 -4 20 -9 5 -5 2 -6 -6 -1 -9 5 -12 4 -7 -3 4 -7 16 -12 27
-12 10 0 19 -7 19 -15 0 -8 4 -15 8 -15 5 0 14 -11 20 -24 17 -37 73 -97 85
-89 6 4 8 -1 5 -14 -4 -16 -2 -19 13 -16 11 3 26 0 34 -7 17 -14 17 -14 34 15
11 18 12 17 6 -10 -6 -28 -6 -29 9 -10 8 11 16 18 18 15 2 -3 8 -14 14 -25 6
-11 23 -21 40 -23 24 -2 26 -1 11 8 -9 6 -21 9 -26 6 -5 -3 -11 1 -15 9 -5 13
-1 13 29 1 19 -8 35 -13 35 -10 0 2 19 -6 43 -19 47 -27 74 -30 74 -10 0 9 -4
10 -11 3 -22 -22 -28 -8 -6 15 25 27 22 35 -4 9 -15 -14 -17 -14 -32 1 -16 15
-16 16 1 13 22 -4 31 37 10 46 -8 3 -15 1 -15 -5 0 -6 -5 -7 -10 -4 -6 4 -8
10 -5 15 5 8 -65 40 -90 40 -19 0 -28 16 -10 19 37 5 73 5 105 -2 31 -6 33 -5
17 7 -11 9 -20 31 -22 58 -6 62 -45 145 -101 214 -45 56 -91 104 -99 104 -2 0
-1 -27 2 -59 7 -72 -12 -177 -38 -221 -11 -18 -22 -31 -23 -29 -2 2 -6 49 -9
104 -6 119 -23 168 -91 275 -33 51 -129 150 -163 169 -22 11 -22 10 -13 -14 6
-15 10 -36 9 -48 0 -21 -2 -20 -22 7 -12 16 -50 61 -84 99 -35 39 -61 73 -58
75 6 7 84 -26 117 -49 31 -23 36 -11 11 27 -9 14 -24 38 -32 54 -33 58 -149
174 -226 225 -91 61 -179 96 -280 114 -38 7 -80 15 -92 17 -13 2 -23 11 -23
18 0 13 76 31 167 38 33 3 32 4 -120 162 -83 88 -152 164 -152 169 0 6 6 12
13 15 6 2 12 -3 12 -12 0 -10 6 -13 18 -9 9 3 14 3 10 -1 -4 -5 12 -24 34 -44
23 -21 62 -57 87 -82 26 -25 56 -52 66 -60 17 -13 18 -13 11 0 -4 8 2 5 13 -8
17 -19 24 -21 41 -12 16 9 22 8 26 -5 3 -8 10 -12 15 -9 5 3 9 1 9 -4 0 -5 14
-12 31 -16 20 -4 28 -10 23 -17 -4 -8 -3 -9 5 -5 12 8 68 -31 141 -99 25 -23
73 -59 107 -79 79 -47 202 -178 242 -257 17 -34 36 -89 43 -122 10 -46 19 -65
41 -81 15 -11 41 -41 56 -67 22 -34 43 -52 84 -73 31 -15 84 -55 121 -92 84
-83 121 -159 139 -284 13 -88 13 -93 -4 -97 -14 -4 -3 -13 39 -33 32 -15 74
-41 93 -58 28 -24 43 -30 70 -27 19 2 28 1 21 -2 -6 -2 -10 -9 -7 -14 4 -5 -1
-6 -9 -3 -21 8 -20 -10 1 -27 14 -12 16 -12 9 1 -4 8 6 0 23 -18 17 -18 31
-29 31 -24 0 11 53 7 76 -6 13 -7 22 -6 32 4 10 10 18 12 26 4 7 -5 17 -6 21
-2 5 4 5 -2 2 -13 -7 -19 -7 -19 7 -1 9 11 21 16 32 12 12 -5 15 -2 10 11 -4
10 -4 14 0 10 4 -4 19 0 33 9 l26 15 -24 -21 c-21 -18 -22 -23 -10 -31 20 -13
39 -11 40 4 0 6 4 3 9 -8 6 -14 9 3 9 53 1 42 -3 72 -9 72 -5 0 -10 6 -10 13
0 42 -140 201 -206 235 -75 37 -81 37 -89 -5 -18 -99 -49 -98 -64 1 -20 138
-76 242 -185 344 -72 67 -125 99 -211 127 l-60 20 42 3 c78 6 226 -56 313
-131 73 -62 160 -203 160 -257 0 -15 17 -28 67 -50 36 -17 85 -45 107 -64 60
-49 126 -115 126 -125 0 -5 7 -11 15 -15 17 -6 20 15 4 31 -8 8 -8 13 0 17 14
9 14 76 0 76 -6 0 -3 7 5 16 18 17 22 74 5 74 -5 0 -7 5 -4 10 4 6 11 8 16 5
5 -4 9 23 9 64 0 38 3 78 6 88 5 15 4 15 -5 3 -9 -13 -11 -13 -11 2 0 9 4 20
10 23 15 9 13 65 -3 60 -13 -6 -14 100 -2 300 11 175 11 245 1 245 -6 0 -5 5
2 12 7 7 8 17 1 30 -7 12 -6 18 2 18 6 0 1 9 -12 21 -13 11 -19 18 -13 15 17
-8 39 20 23 30 -8 5 -9 3 -4 -6 5 -8 4 -11 -3 -7 -5 4 -8 16 -5 27 4 16 2 19
-13 14 -12 -4 -15 -3 -7 3 16 11 5 56 -12 49 -8 -3 -11 4 -9 20 1 14 -3 24
-11 24 -7 0 -16 16 -19 35 -7 37 -22 46 -29 18 -4 -14 -5 -12 -6 5 -1 13 5 22
14 22 9 0 12 6 8 16 -3 8 -12 13 -20 10 -8 -3 -12 -2 -9 3 3 4 -1 17 -8 27
-10 12 -11 24 -5 36 11 21 -6 35 -18 15 -6 -12 -12 -10 -28 6 l-20 20 20 -11
c15 -7 23 -6 32 3 14 15 7 26 -13 18 -8 -3 -14 0 -14 6 0 6 5 11 11 11 5 0 8
4 4 10 -8 14 -37 0 -31 -16 3 -8 0 -11 -10 -7 -19 7 -18 19 2 27 14 5 10 12
-18 34 -34 26 -57 63 -62 100 -3 18 -36 31 -36 13 0 -5 -10 -8 -22 -6 -12 3
-27 0 -35 -6 -9 -8 -17 -8 -28 1 -8 6 -19 9 -24 5 -7 -4 -8 1 -4 12 6 15 5 16
-9 3 -9 -8 -14 -18 -11 -22 2 -5 -1 -8 -8 -8 -6 0 -3 -8 8 -17 10 -10 14 -15
9 -10 -6 4 -16 7 -24 7 -12 0 -12 -3 -1 -17 11 -15 11 -16 -1 -5 -17 14 -34
16 -25 2 3 -5 1 -10 -5 -10 -6 0 -9 -4 -5 -9 6 -11 -12 -25 -37 -26 -20 -2
-19 -3 -23 40 -1 17 -7 48 -13 69 -19 67 -8 414 16 521 42 183 128 383 222
515 67 94 69 102 10 40 -29 -30 -45 -43 -36 -29 9 14 14 29 11 32 -3 4 -2 5 2
2 7 -5 32 25 33 39 0 5 -8 2 -17 -5 -9 -8 -7 0 7 19 13 17 28 32 32 32 5 0 7
4 4 9 -3 4 4 17 15 27 14 13 18 25 14 44 -4 17 -3 21 4 11 12 -19 34 -3 28 21
-5 16 -3 17 11 6 13 -11 15 -10 10 9 -4 16 -2 20 8 16 9 -3 12 0 9 9 -3 8 4
23 16 34 13 10 19 13 14 5 -5 -10 -4 -12 3 -7 7 4 12 16 12 26 0 10 4 21 10
25 5 3 7 12 3 20 -4 11 -1 13 11 9 9 -3 17 -1 17 5 3 26 4 30 13 38 5 5 6 2 1
-6 -5 -9 -4 -12 3 -7 7 4 12 14 12 23 0 12 3 13 14 4 11 -9 15 -7 20 13 3 13
20 39 38 57 17 19 28 28 24 22 -4 -7 -2 -13 3 -13 15 0 14 13 -1 30 -7 8 -9
12 -4 8 4 -4 17 2 29 13 26 24 44 25 26 2 -13 -16 -12 -17 3 -5 10 8 14 20 11
29 -4 11 -2 14 5 9 7 -4 12 -3 12 3 0 5 8 12 19 16 10 3 23 15 30 28 7 13 9
14 6 4 -3 -10 -1 -15 5 -12 6 3 11 16 11 28 1 17 3 15 9 -8 4 -18 8 43 9 145
3 544 13 1053 22 1105 18 101 103 295 129 295 21 0 107 -253 117 -341 l6 -61
-33 21 c-25 15 -34 28 -36 53 -2 18 -8 56 -13 83 -6 28 -13 67 -16 89 -10 64
-17 34 -18 -88 l-2 -115 -47 -6 c-25 -4 -55 -13 -65 -21 -17 -14 -17 -14 4 -5
12 6 45 11 74 11 41 0 49 -3 41 -13 -6 -7 -12 -54 -13 -105 -1 -70 -5 -92 -15
-92 -25 0 -15 -18 14 -25 15 -4 21 -10 15 -12 -9 -3 -13 -33 -13 -99 0 -88 -1
-94 -21 -94 -17 0 -18 -2 -7 -13 7 -8 20 -16 28 -20 9 -3 5 -6 -11 -6 -30 -1
-122 -31 -116 -38 3 -2 22 0 43 6 23 6 53 7 74 2 30 -8 31 -9 10 -11 -18 -2
-20 -4 -7 -7 12 -3 15 -11 12 -26 -3 -12 -6 -68 -8 -124 l-2 -103 -33 -6 c-46
-9 -50 -24 -5 -24 21 0 45 -5 53 -10 12 -8 12 -10 -5 -10 -19 0 -20 -6 -18
-111 1 -61 4 -113 7 -116 3 -3 -5 -14 -17 -24 l-22 -18 23 -1 c14 0 20 -4 17
-11 -4 -5 -4 -37 0 -69 6 -53 9 -58 25 -48 26 17 97 127 113 178 27 82 54 254
89 575 6 53 14 -401 13 -732 -1 -255 -4 -376 -12 -384 -18 -18 -22 2 -24 119
-1 62 -4 114 -8 116 -4 3 -7 -3 -8 -12 -3 -35 -36 -148 -49 -162 -7 -8 -16
-27 -19 -42 -5 -19 -14 -28 -27 -28 -32 0 -9 -20 25 -21 23 -1 16 -4 -22 -10
-61 -10 -72 -16 -52 -28 11 -7 10 -11 -4 -18 -15 -9 -13 -12 14 -21 17 -6 31
-18 31 -26 0 -9 9 -16 20 -16 11 0 20 -4 20 -10 0 -5 7 -10 15 -10 9 0 18 -6
21 -14 3 -9 12 -12 21 -9 11 4 14 2 9 -5 -4 -7 -2 -12 3 -12 6 0 11 8 12 18 1
25 28 -37 29 -67 0 -24 -1 -24 -77 -18 -43 4 -125 9 -183 13 -166 9 -150 -5
-150 132 0 136 -1 133 126 282 222 262 274 383 273 625 l-1 100 -14 -112 c-33
-278 -62 -336 -289 -583 -58 -63 -114 -133 -124 -155 -16 -32 -21 -72 -27
-206 -8 -193 -4 -218 29 -212 20 4 306 -29 365 -42 12 -3 22 -13 22 -23 1 -34
29 18 41 77 32 156 105 352 155 419 18 23 33 32 54 32 35 0 66 -36 49 -57 -8
-9 -9 -51 -4 -133 5 -86 4 -120 -4 -120 -7 0 -11 43 -11 135 0 113 -2 135 -15
135 -13 0 -15 -38 -16 -282 0 -156 -2 -294 -4 -308 -2 -14 -1 -33 2 -44 4 -15
7 -16 15 -5 6 9 7 0 3 -28 -5 -28 -3 -43 4 -43 7 0 11 33 12 93 1 136 8 300
14 305 3 3 5 -88 5 -201 l0 -206 50 -22 c28 -12 50 -27 50 -33 0 -6 5 -3 11 7
8 14 6 25 -7 45 -16 24 -16 25 -1 13 15 -12 17 -11 17 13 0 37 -41 76 -80 76
-23 0 -30 4 -30 19 0 23 15 24 108 9 35 -6 65 -8 69 -5 13 14 -52 57 -103 67
-77 16 -83 35 -9 27 35 -4 70 -14 86 -26 l28 -21 -6 38 c-10 62 -16 68 -98 82
-71 12 -75 14 -74 39 0 14 3 20 6 14 2 -7 13 -13 23 -13 10 0 22 -5 25 -11 4
-6 19 -9 35 -7 15 1 35 -4 44 -11 20 -17 20 -19 -4 84 -18 78 -54 160 -112
258 -15 25 -19 40 -12 47 7 7 29 -27 67 -108 31 -65 57 -125 57 -132 0 -33 54
-200 64 -200 6 1 103 11 216 24 113 13 209 22 213 19 15 -9 4 389 -12 417 -7
14 -57 78 -110 143 -53 65 -108 133 -122 152 -15 19 -29 32 -32 29 -3 -3 -4 3
-3 13 0 10 -4 17 -11 16 -8 -2 -10 4 -6 14 4 10 2 14 -5 9 -6 -3 -13 -2 -16 3
-4 5 0 8 8 7 8 -1 32 -24 54 -51 22 -28 56 -66 76 -84 l36 -35 2 65 c3 83 5
122 8 134 8 33 -4 302 -13 314 -10 11 -8 13 11 7 25 -8 29 5 7 24 -9 8 -13 21
-9 32 11 36 8 217 -5 232 -10 12 -9 14 8 9 11 -3 25 -11 30 -17 6 -7 11 -128
13 -302 1 -159 5 -314 8 -344 l7 -55 2 55 c2 44 4 51 12 35 5 -11 24 -28 40
-38 17 -9 33 -26 36 -36 3 -13 12 -18 24 -16 10 2 18 -1 16 -8 -1 -7 4 -11 11
-9 8 1 11 -2 7 -8 -3 -5 -1 -10 5 -10 6 0 9 -4 6 -9 -3 -4 15 -23 40 -41 28
-20 43 -38 40 -46 -3 -8 -1 -14 4 -14 6 0 19 -9 30 -20 11 -11 17 -20 14 -20
-4 0 -1 -6 5 -13 6 -8 7 -18 3 -22 -4 -5 -2 -5 4 -2 6 4 21 -12 34 -38 13 -25
27 -45 32 -45 4 0 8 -8 8 -17 0 -10 5 -25 11 -33 9 -13 10 -12 5 3 -3 9 -1 17
4 17 6 0 10 -6 10 -14 0 -7 7 -19 15 -26 9 -7 14 -18 12 -24 -2 -6 5 -17 15
-26 11 -8 20 -22 21 -30 2 -9 13 -30 25 -47 41 -58 22 -57 -33 3 -55 58 -55
58 12 -27 37 -47 74 -95 81 -105 12 -17 12 -17 8 -1 -4 11 -2 16 5 12 6 -4 8
-14 5 -22 -7 -17 11 -56 22 -49 4 2 8 -3 9 -12 0 -9 19 -59 42 -111 87 -194
121 -377 115 -621 -1 -80 -3 -157 -3 -172 -1 -15 -5 -29 -10 -32 -4 -3 -7 -17
-6 -31 2 -14 -1 -28 -6 -31 -6 -4 -6 -11 1 -19 7 -8 7 -16 2 -19 -6 -3 -12 4
-15 16 -4 13 -1 26 6 30 11 7 2 12 -16 9 -5 -1 -5 4 -1 11 15 23 14 49 0 64
-13 12 -17 12 -31 -2 -9 -9 -18 -14 -21 -12 -2 3 2 11 10 17 16 14 10 45 -7
34 -5 -3 -7 -2 -4 3 3 6 1 16 -4 24 -8 13 -10 13 -19 0 -9 -13 -10 -12 -8 4 2
10 -3 21 -9 23 -7 3 -13 -2 -13 -11 0 -9 -7 -16 -15 -16 -9 0 -12 6 -9 15 4 8
2 15 -2 15 -12 -1 -41 -23 -42 -32 -2 -9 -15 -9 -22 -1 -3 4 1 3 7 -1 9 -5 11
-2 7 8 -8 22 -23 20 -19 -1 3 -20 -25 -73 -38 -73 -5 0 -4 6 2 14 7 9 8 17 2
20 -5 3 -11 3 -14 -1 -2 -5 -2 -3 -1 4 2 7 -1 15 -6 18 -5 3 -6 13 -3 22 6 15
5 16 -9 3 -11 -10 -13 -19 -7 -27 6 -7 6 -13 0 -17 -5 -3 -7 -15 -4 -26 3 -12
0 -20 -6 -20 -7 0 -10 -4 -7 -9 4 -5 -2 -8 -11 -6 -10 2 -22 4 -26 4 -5 1 -6
5 -2 10 3 5 1 12 -5 16 -5 3 -10 -1 -10 -9 0 -10 -6 -13 -15 -10 -11 5 -13 2
-9 -9 3 -9 12 -13 20 -10 8 3 14 0 14 -7 0 -6 -4 -8 -10 -5 -5 3 -19 -10 -31
-29 -12 -20 -26 -36 -31 -36 -9 0 -7 -22 8 -71 3 -13 -1 -15 -19 -12 -18 4
-26 0 -30 -17 -5 -18 -3 -19 9 -9 9 7 18 8 22 3 4 -5 6 -8 4 -7 -2 1 -9 -3
-16 -8 -6 -5 -19 -15 -30 -23 -16 -10 -16 -14 -4 -27 20 -21 17 -66 -4 -64
-10 1 -21 5 -25 10 -5 4 -3 5 4 1 7 -4 16 2 22 13 8 15 7 20 -6 26 -10 3 -14
3 -11 -1 11 -10 -20 -36 -34 -29 -7 4 -2 -2 12 -13 21 -18 22 -22 10 -38 -13
-16 -13 -17 2 -11 10 3 20 1 24 -5 4 -7 3 -8 -4 -4 -21 13 -13 -5 11 -25 l22
-18 -22 -1 c-17 0 -24 -8 -29 -35 -5 -30 -10 -35 -26 -29 -14 4 -18 2 -14 -5
4 -6 1 -11 -7 -11 -11 0 -16 -14 -19 -46 -4 -53 2 -67 25 -59 14 6 15 3 8 -34
-1 -2 -7 2 -15 8 -11 10 -13 -4 -11 -81 4 -118 11 -223 30 -408 2 -19 6 -64
10 -100 3 -36 8 -82 11 -102 3 -20 0 -39 -6 -43 -5 -3 -7 0 -4 8 3 8 2 17 -3
20 -4 3 -9 -13 -10 -34 -1 -32 2 -39 15 -37 13 2 17 -5 17 -32 0 -19 4 -41 8
-47 10 -16 -5 -17 -21 -1 -9 9 -12 4 -12 -25 0 -36 20 -55 20 -19 1 15 2 15
15 -2 8 -11 15 -30 15 -43 0 -13 5 -23 10 -23 6 0 10 6 10 14 0 25 111 136
161 162 27 13 53 24 59 24 21 0 8 -16 -31 -40 -85 -52 -189 -192 -189 -255 0
-14 -6 -25 -12 -25 -10 0 -9 -3 1 -9 11 -7 11 -9 0 -13 -12 -4 -11 -8 1 -23 9
-11 10 -16 3 -11 -8 4 -13 2 -13 -7 0 -8 7 -18 16 -21 22 -8 25 -8 23 7 -5 39
1 46 30 37 33 -9 52 3 44 29 -3 11 -1 11 7 -3 10 -14 10 -20 -1 -26 -7 -5 -14
-17 -15 -27 -2 -14 2 -12 21 9 12 15 26 24 30 20 5 -4 5 4 2 16 -5 22 -4 23
12 8 10 -9 23 -16 29 -16 16 0 15 -13 0 -30 -7 -7 -1 -5 13 6 25 18 26 20 8
26 -27 10 -23 17 6 12 15 -3 32 2 41 11 9 8 24 15 35 15 11 0 18 4 15 9 -4 5
3 7 14 4 11 -3 20 -1 20 4 0 5 8 9 18 10 9 0 46 4 82 8 36 4 63 6 60 3 -7 -8
-141 -98 -144 -98 -2 0 -24 -21 -50 -47 -34 -34 -43 -49 -34 -55 7 -4 18 -8
23 -8 6 0 3 5 -5 10 -9 6 -10 10 -3 10 6 0 15 -5 18 -10 4 -6 11 -8 16 -4 5 3
7 9 5 12 -2 4 18 7 46 7 33 0 52 4 58 14 6 11 9 10 14 -7 8 -24 21 -28 32 -10
4 6 3 8 -4 4 -6 -3 -14 -1 -17 5 -11 17 -1 19 33 10 28 -9 32 -7 32 10 0 11 4
18 10 14 5 -3 6 -13 3 -22 -4 -10 -2 -14 4 -10 6 4 19 42 28 84 28 128 82 228
167 309 40 38 100 83 133 101 75 40 194 73 260 73 l51 0 24 57 c65 160 200
289 369 354 34 13 92 24 146 28 l90 6 -5 30 c-11 63 -4 181 13 232 40 121 161
274 280 355 49 33 58 44 53 61 -4 12 -12 43 -19 69 -7 26 -16 50 -19 54 -16
15 -141 -58 -204 -117 -65 -63 -124 -160 -124 -204 0 -21 -3 -22 -73 -17 -139
9 -277 -29 -389 -106 -78 -54 -143 -119 -168 -169 -13 -26 -32 -59 -42 -72
-29 -39 -22 -39 48 -4 73 36 131 47 84 15 -81 -55 -158 -153 -187 -237 -14
-43 -17 -45 -53 -45 -153 0 -324 -100 -433 -253 -57 -80 -73 -118 -101 -242
-15 -67 -27 -100 -36 -100 -35 0 -36 168 -2 270 l19 54 -28 -20 c-49 -34 -105
-115 -134 -192 -15 -40 -20 -46 -28 -32 -14 26 -3 106 23 161 31 63 141 172
212 208 31 16 65 41 76 56 12 15 49 46 84 70 35 23 63 46 63 50 0 5 4 12 9 17
5 5 6 3 2 -5 -10 -17 4 -15 56 8 24 10 74 25 110 32 l66 12 7 65 c15 138 61
235 162 338 64 65 128 108 227 151 75 33 89 36 181 36 55 1 123 -3 151 -7 l52
-9 16 49 c41 123 170 229 349 287 12 4 17 16 17 45 0 22 11 70 24 105 68 188
233 350 416 407 77 24 209 41 252 32 28 -6 30 -4 23 13 -5 10 -22 57 -38 104
-27 76 -30 97 -30 195 1 123 20 200 79 316 41 81 131 197 208 265 l57 51 -45
125 c-178 503 -399 898 -724 1298 -126 155 -485 509 -642 634 -152 122 -387
280 -565 381 -468 267 -947 424 -1495 491 -183 22 -708 28 -880 10z m445 -338
c51 -69 119 -208 155 -317 52 -161 62 -253 58 -583 -3 -268 -7 -322 -23 -306
-3 3 -6 129 -5 279 0 307 -10 414 -44 441 -16 13 -17 18 -6 18 10 0 7 7 -10
22 -16 14 -21 22 -13 25 9 3 10 10 4 21 -4 9 -8 38 -8 64 -1 60 -15 103 -70
213 -42 84 -81 140 -90 131 -7 -6 30 -120 41 -127 19 -14 -7 -29 -52 -30 -54
-1 -48 -5 21 -14 35 -5 46 -10 39 -18 -5 -7 -13 -48 -16 -92 -4 -44 -10 -88
-13 -98 -3 -13 2 -20 19 -25 17 -5 7 -9 -42 -18 -59 -11 -61 -12 -23 -13 47
-1 71 -21 26 -21 -27 0 -72 -20 -45 -20 6 0 12 -4 12 -10 0 -5 -7 -10 -15 -10
-8 0 -14 -3 -13 -7 1 -5 -2 -19 -5 -33 -7 -25 -15 -78 -17 -115 -1 -18 -2 -17
-15 5 -13 23 -14 13 -16 -110 -2 -112 -3 -125 -9 -75 -4 33 -8 95 -9 137 -1
42 -5 80 -11 83 -6 4 -10 -47 -10 -144 0 -94 -4 -151 -10 -151 -6 0 -10 29
-10 67 0 61 -1 65 -15 47 -13 -17 -15 -11 -16 66 -1 75 -2 80 -9 40 -4 -25 -9
-89 -11 -143 -1 -54 -6 -100 -11 -103 -4 -3 -8 -9 -8 -14 0 -5 20 0 43 10 63
28 180 46 209 33 22 -10 21 -11 -17 -17 -126 -21 -163 -30 -197 -47 l-38 -19
0 -115 c0 -109 -12 -155 -26 -99 -4 14 -7 159 -8 322 0 162 -2 288 -4 279 -2
-10 -10 -17 -18 -17 -8 0 -13 4 -9 9 3 5 1 12 -5 16 -5 3 -10 20 -10 36 0 17
-6 32 -15 35 -8 4 -13 10 -10 14 5 8 -34 23 -80 33 -12 2 0 7 27 11 47 8 87
44 73 66 -3 6 -2 10 3 10 5 0 15 13 21 28 7 16 25 43 41 60 16 18 36 42 46 54
l16 23 -5 -23 c-10 -43 10 -12 67 103 59 121 106 185 135 185 9 0 34 -24 56
-52z m1315 -198 c0 -5 -8 -10 -17 -10 -15 0 -16 2 -3 10 19 12 20 12 20 0z
m-3130 -141 c0 -5 -4 -9 -10 -9 -5 0 -10 7 -10 16 0 8 5 12 10 9 6 -3 10 -10
10 -16z m3550 1 c0 -5 -4 -10 -10 -10 -5 0 -10 5 -10 10 0 6 5 10 10 10 6 0
10 -4 10 -10z m-550 -404 c0 -3 -4 -8 -10 -11 -5 -3 -10 -1 -10 4 0 6 5 11 10
11 6 0 10 -2 10 -4z m-729 -250 c36 -94 69 -217 69 -259 0 -28 -1 -29 -22 -15
-13 9 -24 26 -26 39 -3 23 -33 161 -54 247 -6 23 -14 45 -19 47 -11 7 -21
-126 -17 -218 l3 -77 -35 -10 c-56 -16 -60 -14 -60 33 0 80 57 272 93 315 15
19 29 -2 68 -102z m-601 35 c-5 -11 -11 -37 -12 -58 -1 -35 -2 -34 -7 12 -7
57 -6 65 15 65 11 0 12 -4 4 -19z m-40 -53 c0 -45 -3 -59 -10 -48 -13 20 -13
110 0 110 6 0 10 -27 10 -62z m-36 -5 c-5 -72 -14 -82 -14 -15 0 53 -6 62 -28
40 -6 -6 -14 -9 -18 -6 -5 6 42 37 58 38 3 0 5 -25 2 -57z m-2467 -49 c8 -22
-18 -37 -36 -20 -7 8 -10 19 -7 25 10 16 36 13 43 -5z m5319 4 c9 -15 -27 -41
-39 -29 -13 13 -1 41 17 41 8 0 18 -5 22 -12z m-2650 -139 c3 -5 -6 -9 -21 -9
-37 0 -72 -26 -100 -75 -32 -54 -31 -59 5 -40 32 17 96 20 105 6 3 -6 -11 -13
-32 -16 -87 -14 -106 -27 -141 -95 -27 -53 -32 -59 -27 -30 11 52 60 177 87
216 35 52 103 76 124 43z m434 -69 c0 -5 -3 -9 -7 -9 -25 4 -28 -8 -27 -95 0
-87 -2 -95 -20 -102 -21 -6 -21 -7 -1 -11 19 -3 20 -10 16 -106 -2 -61 -8
-105 -15 -110 -8 -6 -8 -10 2 -14 20 -8 3 -23 -26 -23 l-28 0 -3 111 c-2 75 1
115 9 125 9 10 10 14 1 14 -9 0 -11 31 -10 106 1 98 3 106 23 114 29 12 86 12
86 0z m-816 -16 c31 -31 11 -34 -24 -4 -18 15 -19 20 -7 20 8 0 23 -7 31 -16z
m873 10 c-3 -3 -12 -4 -19 -1 -8 3 -5 6 6 6 11 1 17 -2 13 -5z m51 -258 l2
-248 -28 24 c-16 12 -26 25 -22 28 13 10 21 114 21 282 -1 131 2 169 12 165 9
-3 13 -64 15 -251z m-483 176 c-3 -3 -11 0 -18 7 -9 10 -8 11 6 5 10 -3 15 -9
12 -12z m-75 -50 c0 -39 -4 -49 -22 -57 -31 -14 -34 -33 -6 -40 20 -5 23 -12
23 -50 0 -39 -3 -44 -27 -49 -59 -12 -41 -81 19 -74 37 4 42 -4 16 -24 -16
-12 -18 -34 -18 -203 -1 -104 -2 -322 -3 -482 l-2 -293 -22 -1 c-19 -1 -19 -2
-5 -6 11 -3 16 -11 13 -19 -3 -9 1 -14 12 -14 13 -1 11 -4 -7 -14 -23 -13 -23
-14 -5 -18 12 -3 4 -7 -23 -12 -23 -4 -48 -15 -55 -24 -11 -13 -11 -15 2 -10
10 4 4 -17 -20 -64 -19 -39 -36 -65 -38 -58 -3 9 -6 9 -13 -1 -4 -7 -10 -11
-12 -9 -2 3 -7 275 -11 605 -5 499 -4 616 8 695 20 127 43 196 82 236 26 28
39 34 73 34 l41 0 0 -48z m-393 -44 c-3 -8 -6 -5 -6 6 -1 11 2 17 5 13 3 -3 4
-12 1 -19z m23 -73 c8 -10 10 -30 6 -60 -10 -65 -23 -64 -18 2 3 40 1 58 -9
64 -8 5 -9 9 -3 9 6 0 17 -7 24 -15z m524 -738 c1 -329 -2 -604 -6 -610 -4 -7
-8 247 -8 563 0 316 -2 607 -5 645 -4 63 -3 66 7 35 8 -25 12 -209 12 -633z
m-537 561 c-2 -13 -4 -5 -4 17 -1 22 1 32 4 23 2 -10 2 -28 0 -40z m803 -78
c13 -9 13 -10 0 -10 -13 0 -15 -21 -15 -125 l0 -125 -27 -9 -27 -10 -3 125
c-2 78 1 124 7 125 6 0 4 3 -2 6 -18 7 -16 21 5 26 29 8 46 7 62 -3z m-780
-20 c0 -5 -2 -10 -4 -10 -3 0 -8 5 -11 10 -3 6 -1 10 4 10 6 0 11 -4 11 -10z
m-10 -136 c0 -69 -4 -114 -10 -114 -6 0 -10 47 -10 121 0 77 4 118 10 114 6
-4 10 -55 10 -121z m780 -144 c0 -5 -6 -10 -14 -10 -8 0 -18 -5 -22 -12 -4 -7
-3 -8 4 -4 7 4 12 2 12 -3 0 -6 -5 -11 -11 -11 -5 0 -7 -5 -3 -11 9 -15 11
-149 2 -149 -8 0 -5 -21 5 -37 5 -8 3 -13 -7 -13 -11 0 -16 11 -18 38 -6 164
-7 199 -3 210 5 14 55 17 55 2z m-3696 -26 c9 -23 8 -24 -14 -24 -19 0 -27 20
-13 33 11 11 20 8 27 -9z m2913 10 c-3 -3 -12 -4 -19 -1 -8 3 -5 6 6 6 11 1
17 -2 13 -5z m3663 -20 c0 -9 -7 -14 -17 -12 -25 5 -28 28 -4 28 12 0 21 -6
21 -16z m-2849 -538 c109 -132 161 -205 157 -223 -2 -10 -12 1 -28 28 -13 24
-65 93 -115 152 -49 59 -100 127 -113 150 l-23 42 23 -29 c13 -16 57 -70 99
-120z m-1296 26 c-3 -3 -11 0 -18 7 -9 10 -8 11 6 5 10 -3 15 -9 12 -12z
m-607 -324 c-6 -18 -28 -21 -28 -4 0 9 7 16 16 16 9 0 14 -5 12 -12z m2917 2
c3 -5 -1 -10 -9 -10 -9 0 -16 5 -16 10 0 6 4 10 9 10 6 0 13 -4 16 -10z m-860
-20 c4 -6 -6 -10 -22 -9 -25 0 -26 1 -8 9 11 5 21 9 22 9 1 1 5 -3 8 -9z m-50
-30 c13 0 27 -5 30 -10 4 -6 10 -8 15 -5 5 3 8 -15 8 -39 l0 -45 -51 -6 c-126
-14 -313 -23 -321 -14 -6 6 -3 9 8 9 10 0 26 8 35 18 9 9 33 26 54 36 20 11
37 23 37 27 0 8 62 32 90 35 8 1 26 6 40 12 19 7 26 6 28 -4 2 -8 14 -14 27
-14z m574 -105 c0 -5 -6 -1 -14 9 -8 10 -11 24 -8 29 6 10 21 -16 22 -38z
m-1082 -27 c-3 -7 -5 -2 -5 12 0 14 2 19 5 13 2 -7 2 -19 0 -25z m560 -35 c-8
-7 -252 -32 -312 -31 -40 0 -40 0 -10 9 31 9 317 38 324 32 2 -2 1 -6 -2 -10z
m-1032 -13 c97 -11 131 -18 95 -18 -66 -1 -288 23 -297 32 -10 9 38 6 202 -14z
m1568 -910 c-3 -12 -8 -19 -11 -16 -5 6 5 36 12 36 2 0 2 -9 -1 -20z m97 -24
c0 -2 -9 -6 -20 -9 -11 -3 -20 -1 -20 4 0 5 9 9 20 9 11 0 20 -2 20 -4z m-45
-28 c5 -4 0 -6 -12 -6 -13 1 -19 7 -16 15 3 8 8 10 12 6 3 -4 10 -11 16 -15z
m-2278 -13 c0 -8 -6 -15 -14 -15 -12 0 -17 -13 -14 -33 1 -5 -3 -6 -9 -2 -6 3
-7 11 -4 17 4 6 0 15 -7 20 -11 8 -10 9 3 5 9 -3 19 1 22 9 7 19 23 18 23 -1z
m2126 1 c4 -10 1 -13 -8 -9 -8 3 -12 9 -9 14 7 12 11 11 17 -5z m222 -25 c3
-5 2 -12 -3 -15 -5 -3 -9 1 -9 9 0 17 3 19 12 6z m-2344 -8 c0 -5 2 -16 4 -26
2 -11 0 -16 -3 -12 -4 4 -7 10 -7 13 0 4 -4 13 -8 20 -5 7 -4 12 2 12 6 0 11
-3 12 -7z m2038 -16 c-9 -7 -14 -18 -12 -24 3 -7 0 -13 -7 -13 -6 0 -8 -6 -4
-12 4 -7 3 -10 -1 -5 -18 16 -14 44 8 55 29 14 35 14 16 -1z m-3720 -53 c2 -2
-5 -4 -16 -4 -12 0 -23 7 -27 15 -5 13 -2 14 17 4 12 -6 24 -13 26 -15z m1481
6 c0 -5 -5 -10 -11 -10 -5 0 -7 5 -4 10 3 6 8 10 11 10 2 0 4 -4 4 -10z m2195
-18 c-8 -8 -25 10 -19 20 4 6 9 5 15 -3 4 -7 6 -15 4 -17z m-2031 10 c3 -5 -1
-9 -9 -9 -8 0 -12 4 -9 9 3 4 7 8 9 8 2 0 6 -4 9 -8z m68 -14 c-7 -7 -12 -8
-12 -2 0 6 3 14 7 17 3 4 9 5 12 2 2 -3 -1 -11 -7 -17z m2343 12 c-3 -5 -12
-10 -18 -10 -7 0 -6 4 3 10 19 12 23 12 15 0z m-2610 -10 c4 -6 11 -8 16 -5 5
4 9 1 9 -4 0 -14 -13 -14 -28 1 -9 9 -12 8 -12 -4 0 -9 6 -18 13 -21 6 -2 8
-8 4 -13 -10 -10 -27 14 -27 39 0 19 15 23 25 7z m300 0 c3 -5 1 -10 -4 -10
-6 0 -11 5 -11 10 0 6 2 10 4 10 3 0 8 -4 11 -10z m2320 -46 c-4 -25 -9 -33
-15 -25 -7 13 10 75 18 66 3 -2 1 -21 -3 -41z m-2895 12 c0 -3 -4 -8 -10 -11
-5 -3 -10 -1 -10 4 0 6 5 11 10 11 6 0 10 -2 10 -4z m3190 -6 c0 -5 -4 -10
-10 -10 -5 0 -10 5 -10 10 0 6 5 10 10 10 6 0 10 -4 10 -10z m-2902 -80 c0 -9
-3 -7 -8 5 -5 11 -8 29 -8 40 0 16 2 15 8 -5 4 -14 8 -32 8 -40z m2222 40 c0
-5 -4 -10 -10 -10 -5 0 -10 5 -10 10 0 6 5 10 10 10 6 0 10 -4 10 -10z m-1899
-17 c13 -17 13 -17 -6 -3 -11 8 -22 16 -24 17 -2 2 0 3 6 3 6 0 17 -8 24 -17z
m2273 -8 c-4 -8 -8 -15 -10 -15 -2 0 -4 7 -4 15 0 8 4 15 10 15 5 0 7 -7 4
-15z m579 -20 c-3 -13 -11 -30 -19 -36 -8 -6 -14 -19 -14 -29 0 -10 -20 -45
-45 -78 -25 -33 -45 -64 -45 -70 0 -6 -3 -12 -8 -14 -4 -1 -18 -16 -31 -33
-12 -16 -75 -86 -139 -155 -257 -274 -269 -279 -84 -34 150 198 372 472 383
473 3 1 4 -10 2 -24z m-2810 -19 c4 -10 1 -13 -9 -9 -15 6 -19 23 -5 23 5 0
11 -7 14 -14z m2208 -9 c-10 -9 -11 -8 -5 6 3 10 9 15 12 12 3 -3 0 -11 -7
-18z m-20 -40 c-10 -9 -11 -8 -5 6 3 10 9 15 12 12 3 -3 0 -11 -7 -18z m-2997
-96 c-2 -3 -12 3 -22 13 -16 17 -16 18 5 5 12 -7 20 -15 17 -18z m16 -21 c0
-5 7 -10 15 -10 8 0 15 -9 15 -21 0 -13 4 -18 12 -13 7 5 9 2 5 -9 -4 -10 -2
-14 6 -11 7 2 28 -17 47 -42 19 -25 47 -58 61 -73 14 -14 39 -44 55 -66 16
-22 65 -83 109 -135 91 -108 145 -176 145 -183 0 -13 -355 358 -443 463 -21
25 -37 62 -31 71 3 6 0 16 -6 24 -9 11 -9 15 -1 15 6 0 11 -4 11 -10z m4140
-245 c0 -2 -22 -16 -49 -29 -27 -14 -88 -62 -135 -107 -47 -45 -86 -77 -86
-71 0 19 77 112 121 147 53 41 149 80 149 60z m-620 -200 c0 -11 -10 -15 -32
-14 -31 2 -31 2 -5 6 15 2 27 9 27 14 0 5 2 9 5 9 3 0 5 -7 5 -15z m-77 -22
c-7 -2 -19 -2 -25 0 -7 3 -2 5 12 5 14 0 19 -2 13 -5z m-73 -18 c-46 -18 -64
-17 -25 0 17 8 37 14 45 14 8 0 -1 -7 -20 -14z m-2557 -610 c26 -21 53 -48 59
-59 6 -12 -4 -6 -23 14 -19 20 -50 49 -69 65 -49 41 -26 27 33 -20z m-789
-174 c-5 -6 -34 20 -34 30 0 5 8 1 18 -8 10 -10 17 -20 16 -22z m78 -37 c-9
-16 -10 -14 -9 8 1 15 6 23 11 18 4 -4 4 -16 -2 -26z m515 -98 c2 -19 0 -18
-12 4 -18 32 -19 44 -2 29 7 -7 14 -22 14 -33z m2463 8 c0 -2 -9 -4 -20 -4
-11 0 -20 4 -20 9 0 5 9 7 20 4 11 -3 20 -7 20 -9z m-2421 -17 c0 -9 -2 -8 -6
1 -2 6 -10 9 -15 6 -7 -4 -8 -2 -4 5 9 13 26 5 25 -12z m221 -17 c0 -5 -5 -10
-11 -10 -5 0 -7 5 -4 10 3 6 8 10 11 10 2 0 4 -4 4 -10z"/>
<path d="M4873 6390 c0 -25 2 -35 4 -22 2 12 2 32 0 45 -2 12 -4 2 -4 -23z"/>
<path d="M4873 6245 c0 -22 2 -30 4 -17 2 12 2 30 0 40 -3 9 -5 -1 -4 -23z"/>
<path d="M1170 6155 c0 -6 13 -26 30 -45 16 -19 29 -41 30 -47 0 -7 5 -13 11
-13 5 0 2 14 -8 30 -25 43 -62 87 -63 75z"/>
<path d="M1117 5962 c-9 -32 -26 -116 -38 -186 l-21 -128 23 -16 c52 -36 126
-132 207 -268 13 -22 21 -32 18 -23 -2 9 1 22 7 28 7 7 7 11 1 11 -14 0 -11
29 4 57 10 18 9 24 -5 32 -15 8 -15 11 -3 12 8 1 18 1 23 0 11 -2 8 14 -5 27
-6 6 -13 20 -14 29 -2 16 -1 15 13 -2 14 -18 15 -18 9 -2 -3 10 -6 25 -6 33 0
9 -4 13 -9 9 -5 -3 -12 -1 -16 5 -3 5 2 10 12 10 14 0 15 2 4 9 -7 5 -13 21
-13 35 l0 27 -26 -23 c-14 -13 -22 -17 -18 -10 4 6 2 12 -3 12 -6 0 -11 7 -11
16 0 13 -3 14 -14 5 -10 -8 -16 -9 -21 -1 -3 5 1 10 9 10 8 0 17 4 20 9 9 15
-5 41 -21 41 -13 0 -13 4 2 26 17 27 15 33 -24 74 -13 13 -14 13 -8 -2 3 -10
2 -18 -3 -18 -5 0 -7 -6 -4 -14 3 -7 -2 -16 -11 -20 -10 -3 -13 -11 -9 -18 5
-9 3 -9 -9 1 -9 7 -17 19 -17 25 0 6 4 6 9 -2 6 -10 10 -7 13 12 3 14 2 23 -2
21 -4 -3 -14 3 -21 12 -12 15 -12 16 4 10 11 -4 16 -3 12 3 -3 6 -18 7 -32 4
-23 -6 -25 -5 -18 12 4 10 7 26 7 34 0 8 7 41 15 74 19 76 11 83 -10 8z m7
-148 c16 -6 11 -34 -7 -34 -6 0 -7 3 -4 7 4 3 2 12 -4 20 -12 14 -9 16 15 7z
m105 -48 c-3 -3 -11 5 -18 17 -13 21 -12 21 5 5 10 -10 16 -20 13 -22z m-29
-38 c0 -16 -3 -19 -11 -11 -6 6 -8 16 -5 22 11 17 16 13 16 -11z m100 -117 c0
-6 -4 -12 -8 -15 -5 -3 -9 1 -9 9 0 8 4 15 9 15 4 0 8 -4 8 -9z m10 -167 c0
-8 -5 -12 -10 -9 -6 4 -8 11 -5 16 9 14 15 11 15 -7z"/>
<path d="M4530 5890 c-9 -6 -10 -10 -3 -10 6 0 15 5 18 10 8 12 4 12 -15 0z"/>
<path d="M1260 5885 c0 -5 5 -17 10 -25 5 -8 10 -10 10 -5 0 6 -5 17 -10 25
-5 8 -10 11 -10 5z"/>
<path d="M4095 5850 c-10 -11 -16 -22 -14 -24 2 -2 12 7 22 20 22 29 17 32 -8
4z"/>
<path d="M4530 5860 c-24 -15 -7 -19 20 -5 15 8 19 14 10 14 -8 1 -22 -3 -30
-9z"/>
<path d="M9141 5854 c0 -11 3 -14 6 -6 3 7 2 16 -1 19 -3 4 -6 -2 -5 -13z"/>
<path d="M4026 5814 c-5 -14 -4 -15 9 -4 17 14 19 20 6 20 -5 0 -12 -7 -15
-16z"/>
<path d="M4524 5815 c-20 -15 -11 -18 20 -6 11 4 15 10 9 14 -5 3 -19 0 -29
-8z"/>
<path d="M9147 5803 c-5 -7 -3 -21 3 -32 5 -11 10 -47 10 -80 0 -50 -4 -62
-22 -75 -21 -15 -21 -15 8 -13 l29 3 -3 67 c-3 85 -15 146 -25 130z"/>
<path d="M1246 5735 c-3 -8 1 -21 9 -28 8 -9 10 -18 4 -24 -6 -6 -3 -16 6 -29
16 -18 16 -18 10 4 -4 13 -1 30 6 40 7 9 9 14 5 10 -13 -11 -36 11 -29 28 3 8
3 14 0 14 -3 0 -7 -7 -11 -15z"/>
<path d="M1295 5680 c3 -5 8 -10 11 -10 2 0 4 5 4 10 0 6 -5 10 -11 10 -5 0
-7 -4 -4 -10z"/>
<path d="M1045 5559 c-12 -34 -25 -235 -25 -378 l1 -156 70 -45 c95 -60 225
-197 267 -280 51 -103 75 -216 70 -328 -3 -52 -2 -88 2 -81 9 14 117 7 220
-15 114 -24 258 -100 367 -193 62 -53 147 -177 170 -250 17 -53 41 -71 72 -53
9 5 23 4 33 -1 11 -6 19 -5 23 1 5 8 11 7 21 -1 11 -9 14 -8 14 5 0 9 6 15 12
14 33 -7 -11 112 -80 222 -68 107 -164 195 -291 266 -37 21 -54 37 -60 59 -5
17 -10 24 -10 18 -1 -7 -6 -13 -12 -13 -5 0 -7 6 -3 13 6 9 4 9 -8 -1 -13 -11
-18 -7 -31 25 -8 21 -18 63 -22 93 -9 68 -47 185 -87 265 -34 69 -107 185
-117 185 -4 0 -15 14 -25 32 -29 49 -46 66 -120 125 -98 76 -187 126 -286 159
-113 37 -126 49 -69 65 24 7 46 14 48 15 2 2 -7 20 -19 41 l-22 38 26 -30 c14
-16 26 -33 26 -37 0 -5 7 -8 15 -8 8 0 15 2 15 5 0 15 -91 139 -149 204 -22
23 -32 29 -36 20z m88 -104 c10 -14 13 -26 7 -30 -5 -3 -10 0 -10 8 0 8 -7 17
-15 21 -8 3 -15 10 -15 16 0 17 14 11 33 -15z m480 -508 c35 -44 67 -93 67
-102 0 -21 -53 41 -55 65 0 3 -24 28 -53 55 -28 28 -52 54 -52 58 0 15 59 -33
93 -76z m87 -137 c6 -11 8 -20 6 -20 -3 0 -10 9 -16 20 -6 11 -8 20 -6 20 3 0
10 -9 16 -20z m-65 -236 c64 -49 91 -79 124 -144 27 -54 46 -110 36 -110 -2 0
-28 35 -57 78 -28 42 -72 100 -98 127 -62 68 -75 85 -62 85 6 0 32 -16 57 -36z"/>
<path d="M4968 5551 c-60 -9 -66 -15 -74 -76 l-7 -48 37 28 c30 22 51 30 99
33 54 4 59 3 54 -13 -4 -9 -7 -19 -7 -21 0 -2 -19 -4 -42 -5 -55 -1 -108 -20
-124 -45 -11 -16 -10 -23 7 -43 l20 -25 -6 26 c-9 36 19 50 93 46 43 -2 57 -7
57 -18 0 -9 -11 -16 -25 -18 -48 -5 -69 -12 -84 -28 -24 -24 -19 -35 10 -24
33 13 84 13 84 0 0 -5 -13 -10 -29 -10 -40 0 -61 -24 -61 -68 l0 -37 19 24
c11 15 33 26 57 30 l39 6 3 148 3 147 -38 -1 c-21 -1 -59 -5 -85 -8z"/>
<path d="M4645 5525 c28 -7 61 -13 75 -13 14 0 -2 6 -35 14 -76 17 -107 16
-40 -1z"/>
<path d="M5553 5518 c-35 -5 -63 -14 -63 -20 0 -6 8 -7 17 -3 10 3 47 9 83 12
72 6 119 23 60 21 -19 0 -63 -5 -97 -10z"/>
<path d="M4593 5500 c-40 -9 -83 -36 -84 -53 -3 -32 -7 -207 -5 -207 2 0 17 7
34 15 49 25 154 19 214 -11 35 -18 38 -18 38 7 0 11 -13 34 -29 50 -32 32 -29
38 7 13 21 -15 22 -14 22 12 0 15 -8 36 -17 47 -17 19 -17 20 0 14 14 -5 17
-1 17 23 0 40 -28 66 -91 84 -57 17 -59 17 -106 6z m25 -69 c13 -8 5 -12 -85
-48 -30 -12 -10 29 20 42 38 17 47 18 65 6z m-9 -70 c19 -12 6 -28 -29 -36
-17 -4 -37 -13 -45 -22 -13 -13 -15 -12 -15 7 0 14 10 25 31 34 21 9 27 15 18
19 -9 3 -7 6 6 6 11 0 26 -3 34 -8z"/>
<path d="M4770 5500 c14 -4 36 -8 50 -8 22 0 22 1 -5 8 -16 4 -39 8 -50 8 -16
0 -15 -2 5 -8z"/>
<path d="M5360 5500 c0 -5 5 -10 10 -10 6 0 10 5 10 10 0 6 -4 10 -10 10 -5 0
-10 -4 -10 -10z"/>
<path d="M5528 5482 c-37 -10 -70 -20 -73 -23 -9 -9 -16 -79 -8 -79 4 0 17 7
27 15 11 8 34 15 50 15 28 -1 25 -3 -19 -19 l-50 -17 -2 -81 c-1 -79 -1 -81
17 -63 21 21 80 40 125 40 42 0 107 -19 128 -38 16 -14 17 -12 17 25 0 39 -2
42 -42 58 -37 15 -40 18 -24 27 10 6 21 6 25 2 3 -5 14 -15 23 -22 16 -13 17
-8 17 57 0 91 -14 109 -89 116 -36 3 -78 -1 -122 -13z m189 -79 c3 -7 -3 -9
-17 -6 -29 8 -37 25 -9 21 12 -1 24 -8 26 -15z m-157 -59 c0 -8 -12 -16 -27
-20 -16 -3 -39 -10 -52 -15 -21 -9 -23 -8 -11 5 7 9 19 16 26 16 7 0 11 6 8
13 -3 10 4 14 26 14 18 0 30 -5 30 -13z"/>
<path d="M4592 5240 c-45 -11 -53 -21 -11 -15 34 5 28 1 -24 -15 -17 -6 -25
-6 -22 0 4 6 2 10 -3 10 -17 0 -32 -27 -30 -53 2 -24 3 -25 30 -11 35 18 154
18 206 0 65 -23 63 12 -3 48 -27 15 -28 16 -5 11 16 -3 10 2 -15 15 -42 21
-69 23 -123 10z m96 -17 c-10 -2 -26 -2 -35 0 -10 3 -2 5 17 5 19 0 27 -2 18
-5z m-128 -27 c0 -2 -12 -11 -27 -20 l-28 -17 24 20 c23 21 31 25 31 17z"/>
<path d="M5053 5223 c-34 -17 -42 -29 -20 -31 6 0 48 -5 91 -10 66 -9 82 -8
94 5 12 12 16 12 23 1 6 -9 9 -10 9 -1 0 21 -76 53 -122 52 -24 0 -58 -8 -75
-16z"/>
<path d="M5515 5214 c-70 -36 -94 -85 -29 -58 58 24 156 23 237 -2 32 -10 20
34 -15 56 -42 25 -149 27 -193 4z"/>
<path d="M9208 5195 c-2 -19 0 -35 4 -35 4 0 8 16 8 35 0 19 -2 35 -4 35 -2 0
-6 -16 -8 -35z"/>
<path d="M8955 5200 c-3 -5 -1 -10 4 -10 6 0 11 5 11 10 0 6 -2 10 -4 10 -3 0
-8 -4 -11 -10z"/>
<path d="M8942 5145 c-7 -8 -9 -15 -4 -15 5 0 15 7 22 15 16 19 -1 19 -18 0z"/>
<path d="M9140 5150 c-9 -6 -10 -10 -3 -10 6 0 15 5 18 10 8 12 4 12 -15 0z"/>
<path d="M5570 5137 l-45 -11 65 -8 c36 -4 70 -6 75 -4 6 3 -2 5 -17 5 -15 1
-30 6 -33 11 -9 15 48 12 89 -5 20 -8 36 -13 36 -10 0 11 -69 35 -97 34 -15
-1 -48 -6 -73 -12z"/>
<path d="M4603 5129 c-15 -6 -13 -8 7 -7 14 0 35 -2 47 -5 13 -3 25 -2 28 3 7
11 -58 18 -82 9z"/>
<path d="M8877 5123 c-12 -12 -7 -23 10 -23 15 0 14 -2 -3 -15 -10 -8 -23 -14
-29 -15 -5 0 -4 4 3 9 11 7 11 9 -2 14 -9 4 -16 2 -16 -4 0 -6 -5 -7 -12 -3
-6 4 -8 3 -5 -3 4 -6 0 -16 -8 -23 -8 -7 -12 -17 -8 -23 4 -6 0 -8 -10 -4 -10
3 -17 2 -17 -3 0 -6 4 -10 10 -10 5 0 7 -7 4 -15 -4 -8 -10 -15 -16 -15 -5 0
-6 6 -2 13 4 6 4 9 -1 5 -4 -4 -14 -3 -22 4 -11 8 -17 8 -26 -2 -9 -10 -9 -11
1 -5 8 4 21 0 31 -9 17 -16 22 -15 67 16 27 18 71 45 99 60 75 39 66 61 -18
44 -17 -4 -26 -2 -22 4 7 11 2 13 -8 3z"/>
<path d="M9156 4959 c-157 -127 -264 -294 -308 -475 -12 -49 -24 -92 -27 -96
-4 -4 -50 -16 -103 -27 -109 -23 -253 -74 -283 -102 -11 -10 -31 -23 -45 -29
-36 -16 -72 -37 -79 -47 -3 -4 -15 -13 -25 -19 -11 -6 -22 -16 -24 -24 -3 -9
0 -10 9 -4 12 6 12 5 1 -8 -8 -9 -20 -14 -28 -11 -19 7 -73 -43 -129 -122 -56
-78 -76 -126 -82 -200 -2 -33 -9 -64 -14 -69 -16 -18 -9 -28 14 -22 69 21 141
35 214 41 l81 7 12 66 c13 79 75 207 134 283 83 105 260 218 383 244 37 8 69
13 70 11 2 -2 -30 -20 -72 -39 -125 -60 -255 -179 -339 -309 -40 -64 -84 -186
-93 -259 l-6 -49 74 6 c86 8 84 0 -11 -40 -68 -29 -211 -121 -293 -189 -27
-22 -88 -84 -137 -138 -49 -54 -91 -95 -94 -91 -7 11 28 103 56 148 37 57 121
147 179 190 28 20 48 38 46 41 -9 8 -104 -31 -152 -63 -164 -109 -272 -268
-309 -454 l-11 -55 -155 -31 c-243 -50 -376 -117 -507 -258 -62 -66 -114 -144
-151 -230 -12 -25 -18 -46 -14 -46 4 0 34 9 67 19 87 27 195 36 219 18 18 -13
13 -16 -64 -41 -172 -56 -290 -133 -417 -272 -43 -46 -81 -84 -86 -84 -4 0 -5
15 -2 33 l7 34 -74 23 c-63 21 -93 24 -218 24 -165 0 -233 -13 -341 -70 -175
-92 -288 -238 -339 -439 -9 -35 -11 -36 -194 -34 -99 0 -209 -2 -242 -6 -37
-4 -69 -3 -79 3 -17 9 -16 11 6 25 24 15 114 39 204 55 l50 9 -77 36 c-101 49
-188 68 -307 68 -130 0 -216 -21 -327 -81 -100 -54 -90 -54 -179 1 -52 33
-151 72 -167 67 -7 -3 30 -25 82 -51 107 -52 246 -170 267 -226 11 -30 10 -31
-13 -27 -13 3 -57 25 -97 50 -88 55 -220 117 -307 145 -75 24 -266 67 -340 77
-60 8 -67 15 -39 40 19 17 38 19 175 19 85 0 154 2 154 5 0 9 -75 70 -86 70
-6 0 -18 7 -25 16 -8 9 -32 25 -54 35 -22 11 -78 47 -125 80 -111 80 -410 225
-410 200 0 -4 18 -15 39 -23 88 -35 261 -180 261 -219 0 -23 10 -29 -120 71
-77 59 -248 149 -343 180 -37 12 -65 26 -61 31 6 10 -5 15 -56 23 l-35 6 0
157 c0 126 -4 169 -19 211 -18 54 -37 71 -28 27 8 -43 -16 -28 -44 27 -66 130
-226 293 -359 365 -65 35 -229 90 -307 103 -103 18 -113 23 -144 77 -64 111
-189 224 -299 270 -25 10 -45 20 -45 23 0 3 20 4 45 2 63 -5 78 8 60 57 -42
120 -206 310 -328 380 -31 18 -57 39 -57 48 0 12 3 13 14 4 8 -7 25 -14 37
-16 24 -4 24 -4 4 11 -44 34 -166 84 -264 108 -58 14 -106 28 -108 29 -2 2
-10 48 -18 103 -19 123 -33 171 -80 265 -54 107 -133 201 -259 309 l-29 25 7
-180 c4 -99 11 -200 16 -225 4 -25 14 -85 20 -135 113 -857 533 -1633 1235
-2278 306 -281 620 -496 990 -677 273 -133 407 -186 679 -264 190 -55 179 -52
317 -81 308 -64 601 -89 951 -82 447 9 801 69 1210 207 220 74 341 126 578
246 427 215 710 422 1066 778 639 640 1001 1366 1109 2221 34 271 44 505 23
505 -7 -1 -35 -19 -62 -41z m-8019 -463 c54 -37 124 -107 117 -117 -3 -5 0 -8
8 -7 7 2 12 -3 10 -11 -1 -7 4 -24 13 -37 25 -38 -1 -37 -30 2 -29 38 -170
177 -186 182 -5 2 -9 8 -9 14 0 13 39 0 77 -26z m299 -338 l29 -33 -32 29
c-18 17 -33 31 -33 33 0 8 8 1 36 -29z m6804 -52 c0 -2 -7 -7 -16 -10 -8 -3
-12 -2 -9 4 6 10 25 14 25 6z m-30 -30 c0 -2 -8 -10 -17 -17 -16 -13 -17 -12
-4 4 13 16 21 21 21 13z m875 -25 c-6 -4 -45 -34 -88 -65 -43 -32 -107 -85
-143 -118 -35 -33 -67 -59 -70 -56 -10 11 43 95 88 139 49 49 96 75 168 95 56
16 56 16 45 5z m-7280 -37 c98 -65 157 -141 194 -252 29 -84 26 -97 -7 -37
-48 86 -107 167 -176 240 -36 39 -66 71 -66 73 0 8 20 -1 55 -24z m-245 -389
c67 -52 165 -154 207 -215 30 -45 80 -166 71 -175 -2 -2 -29 30 -59 72 -55 78
-213 245 -349 368 l-75 68 75 -38 c41 -21 100 -57 130 -80z m504 -162 c89 -47
231 -184 272 -263 29 -56 56 -131 50 -138 -2 -2 -21 18 -42 44 -134 163 -301
326 -376 365 -21 11 -38 22 -38 24 0 17 73 -1 134 -32z m6756 -22 c0 -5 -33
-27 -73 -49 -86 -47 -197 -129 -321 -236 -94 -81 -126 -103 -126 -87 0 31 91
152 158 208 88 74 165 117 302 166 25 9 60 8 60 -2z m-6175 -239 c112 -34 202
-82 279 -147 125 -106 216 -256 223 -364 l4 -56 -42 80 c-121 233 -326 417
-540 485 -33 11 -67 24 -77 30 -28 17 63 0 153 -28z m5329 -157 c3 -8 2 -15
-2 -15 -16 0 -190 -104 -247 -148 -70 -55 -66 -51 -130 -126 -27 -32 -51 -53
-53 -47 -7 22 73 147 132 207 63 62 138 106 223 129 64 18 70 18 77 0z m-5245
-300 c82 -41 109 -61 192 -144 75 -76 103 -112 132 -171 39 -81 55 -140 38
-140 -5 0 -31 33 -56 73 -53 82 -139 174 -205 220 -25 17 -47 34 -50 37 -3 4
-26 19 -52 34 -27 15 -48 32 -48 37 0 5 -39 28 -87 51 -66 32 -82 43 -65 46
12 2 22 7 22 11 0 18 87 -9 179 -54z m-474 27 c-3 -3 -11 0 -18 7 -9 10 -8 11
6 5 10 -3 15 -9 12 -12z m5505 -100 c-19 -15 -70 -61 -114 -102 -74 -72 -77
-73 -63 -38 34 82 132 167 192 167 16 0 13 -5 -15 -27z m340 -11 c0 -8 -25
-26 -105 -77 -29 -18 -30 -18 -15 0 17 22 101 85 113 86 4 0 7 -4 7 -9z
m-5561 -383 c50 -30 112 -80 107 -86 -6 -5 -143 84 -151 99 -10 15 5 11 44
-13z m4746 3 c3 -6 -18 -18 -47 -28 -86 -29 -262 -119 -345 -174 -74 -50 -197
-165 -276 -258 -46 -55 -47 -34 -3 55 92 184 286 339 492 394 75 20 169 26
179 11z m435 -54 c0 -6 -137 -107 -145 -107 -17 0 42 53 90 81 51 29 55 31 55
26z m-1307 -164 c4 -3 -35 -20 -85 -38 -51 -17 -128 -49 -170 -71 -43 -23 -80
-39 -82 -36 -3 2 16 24 42 48 56 53 174 103 243 104 25 0 49 -3 52 -7z m-2417
-339 c55 -14 126 -55 114 -67 -3 -3 -59 10 -125 29 -157 45 -155 44 -130 54
23 9 55 5 141 -16z m1799 -98 c67 -19 103 -36 109 -52 4 -12 -26 -14 -173 -14
-237 0 -345 -21 -564 -107 -107 -42 -131 -41 -91 3 61 67 226 146 374 179 78
18 269 13 345 -9z"/>
<path d="M8726 4955 c4 -8 1 -15 -7 -15 -7 0 -10 -3 -6 -6 3 -4 18 3 33 15
l27 21 -26 0 c-19 0 -25 -4 -21 -15z"/>
<path d="M6259 4813 c-13 -17 -13 -17 6 -3 11 8 22 16 24 17 2 2 0 3 -6 3 -6
0 -17 -8 -24 -17z"/>
<path d="M6187 4793 c-4 -3 -7 -11 -7 -17 0 -6 5 -5 12 2 6 6 9 14 7 17 -3 3
-9 2 -12 -2z"/>
<path d="M6227 4789 c7 -7 15 -10 18 -7 3 3 -2 9 -12 12 -14 6 -15 5 -6 -5z"/>
<path d="M6357 4794 c-4 -4 2 -14 13 -21 11 -8 18 -18 15 -23 -7 -12 56 -70
69 -63 7 5 7 8 -1 10 -6 2 -10 12 -8 21 1 9 0 11 -2 4 -6 -18 -29 -8 -25 11 1
9 -7 21 -18 27 -11 6 -17 16 -14 22 4 6 3 8 -4 4 -5 -3 -12 -1 -14 5 -2 5 -7
7 -11 3z"/>
<path d="M6445 4760 c3 -5 8 -10 11 -10 2 0 4 5 4 10 0 6 -5 10 -11 10 -5 0
-7 -4 -4 -10z"/>
<path d="M3960 4740 c-9 -6 -10 -10 -3 -10 6 0 15 5 18 10 8 12 4 12 -15 0z"/>
<path d="M4025 4740 c-4 -6 -3 -10 2 -9 20 3 27 -2 13 -11 -9 -6 -10 -10 -3
-10 19 0 24 17 9 29 -10 9 -16 9 -21 1z"/>
<path d="M6190 4740 c0 -5 5 -10 10 -10 6 0 10 5 10 10 0 6 -4 10 -10 10 -5 0
-10 -4 -10 -10z"/>
<path d="M3850 4720 c0 -5 5 -10 11 -10 5 0 7 5 4 10 -3 6 -8 10 -11 10 -2 0
-4 -4 -4 -10z"/>
<path d="M3907 4723 c-11 -11 -8 -20 9 -27 10 -4 13 -2 8 6 -4 7 -3 8 4 4 6
-4 8 -14 5 -23 -5 -13 -2 -15 11 -10 10 4 20 7 23 7 2 0 -2 6 -9 13 -29 27
-45 37 -51 30z"/>
<path d="M6120 4720 c0 -5 4 -10 9 -10 6 0 13 5 16 10 3 6 -1 10 -9 10 -9 0
-16 -4 -16 -10z"/>
<path d="M3814 4698 c-4 -6 -3 -8 4 -4 6 3 20 -4 31 -16 16 -16 21 -18 21 -6
0 20 -47 42 -56 26z"/>
<path d="M3986 4702 c-2 -4 4 -8 15 -8 10 0 19 4 19 8 0 4 -6 8 -14 8 -8 0
-17 -4 -20 -8z"/>
<path d="M6100 4705 c0 -18 19 -40 26 -32 4 4 0 15 -9 24 -9 10 -17 13 -17 8z"/>
<path d="M4070 4653 c0 -19 3 -24 9 -14 6 9 11 10 15 2 4 -6 4 -11 0 -11 -4 0
0 -8 9 -17 8 -10 16 -21 16 -25 1 -5 3 -8 6 -8 3 0 8 0 11 0 7 0 -35 70 -53
88 -11 11 -13 8 -13 -15z"/>
<path d="M3795 4660 c3 -5 8 -10 11 -10 2 0 4 5 4 10 0 6 -5 10 -11 10 -5 0
-7 -4 -4 -10z"/>
<path d="M3837 4644 c3 -7 9 -14 14 -14 14 0 10 17 -5 23 -10 4 -13 1 -9 -9z"/>
<path d="M3801 4631 c-9 -6 -10 -11 -2 -15 6 -4 9 -12 6 -17 -4 -5 -2 -9 3 -9
13 0 24 32 15 41 -5 5 -14 4 -22 0z"/>
<path d="M6000 4634 c0 -2 10 -8 21 -15 17 -8 20 -8 17 2 -4 11 -38 23 -38 13z"/>
<path d="M5980 4536 c0 -2 7 -7 16 -10 8 -3 12 -2 9 4 -6 10 -25 14 -25 6z"/>
<path d="M4224 4462 c3 -6 0 -17 -8 -25 -15 -15 -11 -27 7 -27 6 0 7 3 4 6 -3
4 -2 15 3 25 7 12 6 20 -2 25 -6 4 -8 3 -4 -4z"/>
<path d="M4322 4241 c1 -16 5 -28 9 -26 6 5 0 55 -7 55 -3 0 -3 -13 -2 -29z"/>
<path d="M5938 4253 c7 -3 16 -2 19 1 4 3 -2 6 -13 5 -11 0 -14 -3 -6 -6z"/>
<path d="M1800 4100 c0 -5 5 -10 11 -10 5 0 7 5 4 10 -3 6 -8 10 -11 10 -2 0
-4 -4 -4 -10z"/>
<path d="M4371 3995 c-1 -11 -5 -31 -7 -45 -3 -18 -2 -22 6 -14 7 7 10 27 7
45 -2 19 -5 25 -6 14z"/>
<path d="M4362 3878 c-1 -25 -5 -55 -8 -65 -5 -17 -5 -17 6 0 6 9 9 39 7 65
l-3 47 -2 -47z"/>
<path d="M4352 3760 c0 -14 2 -19 5 -12 2 6 2 18 0 25 -3 6 -5 1 -5 -13z"/>
<path d="M7893 3656 c-86 -28 -151 -64 -218 -123 -27 -24 -55 -43 -62 -43 -15
0 -84 -91 -107 -141 -24 -51 -47 -142 -38 -150 4 -4 40 -9 80 -11 63 -3 72 -2
72 14 0 9 11 52 25 96 41 130 140 253 273 339 28 18 52 36 52 38 0 6 7 8 -77
-19z"/>
<path d="M4347 3647 c-3 -8 -1 -20 4 -28 6 -10 9 -7 9 14 0 29 -5 35 -13 14z"/>
<path d="M2325 3518 c38 -40 73 -77 79 -83 5 -5 0 4 -12 21 -33 48 -113 134
-125 134 -5 0 21 -33 58 -72z"/>
<path d="M4343 3560 c1 -11 5 -20 9 -20 3 0 6 9 5 20 -1 11 -5 20 -9 20 -3 0
-6 -9 -5 -20z"/>
<path d="M7033 3296 c-136 -44 -285 -159 -367 -283 -29 -44 -52 -145 -31 -136
7 2 20 -3 29 -12 15 -15 16 -15 16 7 0 18 2 20 10 8 8 -13 10 -12 10 3 0 10 7
17 18 17 9 0 13 -4 7 -8 -14 -10 -18 -42 -5 -42 5 0 10 6 10 14 0 15 49 51 58
42 3 -3 -1 -6 -8 -6 -7 0 -11 -3 -7 -6 3 -4 18 3 33 15 30 23 52 18 32 -7 -9
-12 -7 -12 9 2 13 10 20 24 16 30 -3 6 -3 8 2 4 4 -4 31 12 59 36 57 49 152
111 192 126 24 9 26 14 20 48 -3 20 -6 67 -6 105 0 47 -4 67 -12 67 -7 -1 -45
-11 -85 -24z"/>
<path d="M5428 3117 c-1 -26 -3 -73 -4 -104 -3 -71 -6 -435 -3 -445 1 -5 2
-12 3 -17 0 -5 4 -12 8 -16 4 -4 4 8 2 25 -4 25 -3 30 8 24 11 -6 11 -5 0 8
-10 13 -10 17 3 22 9 3 14 2 11 -2 -2 -4 0 -14 5 -22 7 -11 8 -8 5 10 -3 14
-5 25 -6 25 -1 0 -3 12 -4 28 -2 15 1 27 7 27 6 0 5 5 -1 13 -6 7 -8 18 -3 25
4 6 6 31 4 54 -2 24 -3 76 -3 117 1 51 -3 77 -12 82 -10 7 -10 9 0 9 6 0 12 7
12 16 0 8 -4 13 -8 10 -5 -3 -9 1 -9 9 0 8 3 15 7 15 3 0 6 9 6 20 0 11 -3 20
-7 20 -4 0 -7 18 -7 41 -1 58 -12 62 -14 6z"/>
<path d="M3230 3115 c13 -14 26 -25 28 -25 3 0 -5 11 -18 25 -13 14 -26 25
-28 25 -3 0 5 -11 18 -25z"/>
<path d="M5711 3088 c0 -26 4 -50 9 -53 6 -3 10 -12 10 -18 0 -7 -4 -6 -10 3
-7 12 -10 8 -10 -15 -1 -16 -2 -60 -4 -97 -1 -45 1 -65 8 -61 8 5 8 2 0 -8
-16 -22 -15 -61 3 -81 15 -17 15 -18 -3 -18 -14 0 -9 -6 16 -24 37 -25 57 -26
24 -1 -14 11 -15 14 -3 9 10 -3 20 0 25 7 4 8 3 10 -4 5 -7 -4 -12 -3 -12 3 0
5 5 13 11 17 13 8 10 161 -5 189 -5 11 -11 41 -11 68 -1 30 -7 52 -18 60 -8 6
-18 23 -20 37 -2 14 -5 4 -6 -22z m34 -36 c-3 -3 -11 0 -18 7 -9 10 -8 11 6 5
10 -3 15 -9 12 -12z"/>
<path d="M5920 3085 c0 -8 4 -15 10 -15 5 0 7 7 4 15 -4 8 -8 15 -10 15 -2 0
-4 -7 -4 -15z"/>
<path d="M4793 3071 c0 -11 6 -17 12 -15 5 3 3 0 -5 -8 -12 -10 -15 -36 -15
-110 0 -54 -3 -98 -6 -98 -4 0 -3 -18 1 -40 4 -22 4 -40 0 -40 -10 0 -1 -113
11 -124 5 -6 9 -17 9 -25 0 -14 -1 -14 -10 -1 -7 12 -9 10 -7 -7 0 -12 3 -20
6 -18 2 3 9 0 16 -5 14 -12 13 -36 19 257 6 224 5 242 -11 236 -11 -4 -14 -3
-9 5 4 7 3 12 -3 12 -5 0 -9 -9 -8 -19z m17 -342 c0 -6 -4 -7 -10 -4 -5 3 -10
11 -10 16 0 6 5 7 10 4 6 -3 10 -11 10 -16z m-6 -75 c3 -8 2 -12 -4 -9 -6 3
-10 10 -10 16 0 14 7 11 14 -7z"/>
<path d="M3295 3070 c3 -5 8 -10 11 -10 2 0 4 5 4 10 0 6 -5 10 -11 10 -5 0
-7 -4 -4 -10z"/>
<path d="M5925 3050 c-3 -5 -1 -10 4 -10 6 0 11 5 11 10 0 6 -2 10 -4 10 -3 0
-8 -4 -11 -10z"/>
<path d="M3310 3025 c0 -5 9 -23 20 -40 26 -39 26 -25 0 17 -11 18 -20 29 -20
23z"/>
<path d="M5911 2974 c0 -11 3 -14 6 -6 3 7 2 16 -1 19 -3 4 -6 -2 -5 -13z"/>
<path d="M5616 2919 c-10 -49 -7 -242 4 -259 11 -17 15 29 12 145 -1 39 -2 87
-2 108 1 45 -5 48 -14 6z"/>
<path d="M4493 2933 c-7 -3 -13 -9 -13 -14 0 -6 6 -7 13 -3 10 6 10 4 0 -7
-10 -10 -16 -10 -25 -1 -18 18 -23 15 -26 -13 -2 -25 11 -34 23 -15 3 6 1 10
-6 10 -7 0 -10 2 -8 5 8 7 49 -7 49 -17 0 -5 -4 -7 -9 -3 -5 3 -12 1 -16 -5
-3 -5 -1 -10 5 -10 7 0 10 -6 7 -14 -8 -19 3 -28 18 -16 10 8 12 0 11 -35 -1
-25 2 -45 6 -45 3 0 7 25 7 56 0 31 2 58 5 62 3 3 -1 16 -10 30 -9 13 -11 21
-5 18 6 -4 11 -1 11 7 0 14 -14 17 -37 10z"/>
<path d="M5910 2910 c0 -15 6 -32 13 -39 10 -11 9 -12 -3 -6 -13 8 -13 7 0
-10 15 -18 15 -18 18 1 2 11 -4 33 -13 50 l-15 29 0 -25z"/>
<path d="M5529 2898 c-6 -121 -4 -250 3 -254 4 -3 7 19 6 48 -1 29 0 58 4 63
3 6 4 24 2 40 -2 17 -5 51 -5 78 0 47 -8 67 -10 25z"/>
<path d="M5930 2916 c0 -2 8 -10 18 -17 15 -13 16 -12 3 4 -13 16 -21 21 -21
13z"/>
<path d="M6010 2878 c0 -11 12 -10 30 2 12 7 10 9 -8 7 -12 0 -22 -5 -22 -9z"/>
<path d="M3647 2869 c7 -7 15 -10 18 -7 3 3 -2 9 -12 12 -14 6 -15 5 -6 -5z"/>
<path d="M4435 2847 c-8 -25 -11 -127 -4 -127 5 0 11 16 15 35 3 19 9 35 13
35 4 0 5 -16 3 -35 -3 -22 0 -35 8 -35 7 0 9 8 5 23 -6 21 -6 21 9 3 17 -21
56 -30 56 -13 0 5 -9 7 -19 4 -16 -4 -19 1 -18 29 1 18 -7 41 -16 52 -9 10
-15 21 -12 24 3 3 -4 8 -15 11 -12 3 -23 0 -25 -6z m19 -37 c-6 -6 -10 -3 -10
10 0 13 4 16 10 10 7 -7 7 -13 0 -20z"/>
<path d="M6605 2851 c-3 -5 -1 -12 4 -15 5 -3 11 1 15 9 6 16 -9 21 -19 6z"/>
<path d="M4700 2820 c0 -5 5 -10 10 -10 6 0 10 5 10 10 0 6 -4 10 -10 10 -5 0
-10 -4 -10 -10z"/>
<path d="M4613 2720 c0 -49 4 -87 9 -84 10 6 9 162 -1 168 -4 3 -7 -35 -8 -84z"/>
<path d="M4702 2750 c0 -19 2 -27 5 -17 2 9 2 25 0 35 -3 9 -5 1 -5 -18z"/>
<path d="M5700 2701 c0 -6 4 -13 10 -16 6 -3 7 1 4 9 -7 18 -14 21 -14 7z"/>
<path d="M4693 2665 c1 -18 5 -31 9 -29 3 2 4 -15 2 -38 -2 -23 -1 -38 3 -34
13 12 10 125 -3 130 -9 3 -12 -6 -11 -29z"/>
<path d="M5821 2644 c0 -11 3 -14 6 -6 3 7 2 16 -1 19 -3 4 -6 -2 -5 -13z"/>
<path d="M5615 2630 c-3 -5 1 -10 10 -10 9 0 13 5 10 10 -3 6 -8 10 -10 10 -2
0 -7 -4 -10 -10z"/>
<path d="M5720 2610 c0 -5 5 -10 11 -10 5 0 7 5 4 10 -3 6 -8 10 -11 10 -2 0
-4 -4 -4 -10z"/>
<path d="M3436 2573 c-3 -15 -8 -44 -11 -64 l-7 -36 109 -6 c59 -3 142 -15
183 -26 41 -11 78 -17 83 -12 11 11 -53 66 -111 95 -55 27 -152 61 -204 70
-34 6 -37 5 -42 -21z"/>
<path d="M5523 2585 c0 -8 4 -12 9 -9 5 3 6 10 3 15 -9 13 -12 11 -12 -6z"/>
<path d="M4797 2548 c4 -19 3 -20 -7 -8 -9 12 -11 12 -8 1 3 -8 10 -17 16 -19
14 -4 16 34 3 42 -5 4 -7 -4 -4 -16z"/>
<path d="M5426 2512 c-3 -5 1 -9 9 -9 8 0 12 4 9 9 -3 4 -7 8 -9 8 -2 0 -6 -4
-9 -8z"/>
<path d="M3520 2326 c0 -2 7 -7 16 -10 8 -3 12 -2 9 4 -6 10 -25 14 -25 6z"/>
<path d="M4343 2083 c-9 -3 -9 -11 3 -29 17 -25 7 -33 -15 -11 -11 10 -11 8
-1 -8 9 -16 20 -20 50 -17 29 3 37 8 33 18 -3 8 -8 12 -11 9 -3 -2 -10 5 -16
17 -12 23 -24 29 -43 21z m27 -13 c0 -5 -2 -10 -4 -10 -3 0 -8 5 -11 10 -3 6
-1 10 4 10 6 0 11 -4 11 -10z"/>
</g>
</svg>
