{
	"asset":{
		"generator":"Khronos glTF Blender I/O v3.5.30",
		"version":"2.0"
	},
	"scene":0,
	"scenes":[
		{
			"name":"Scene",
			"nodes":[
				0,
				1,
				2,
				3,
				4
			]
		}
	],
	"nodes":[
		{
			"mesh":0,
			"name":"Plane",
			"scale":[
				-2.8566555976867676,
				-3.3316128253936768,
				-2.7866504192352295
			],
			"translation":[
				0.1926565170288086,
				-0.3919771611690521,
				0.007050037384033203
			]
		},
		{
			"name":"Empty",
			"rotation":[
				0.70710688829422,
				0,
				0,
				0.7071066498756409
			],
			"scale":[
				0.7842570543289185,
				0.7842570543289185,
				0.7842570543289185
			],
			"translation":[
				0,
				2.113391876220703,
				0
			]
		},
		{
			"mesh":1,
			"name":"Cylinder.002",
			"scale":[
				0.7034764885902405,
				0.014173208735883236,
				0.7034764885902405
			],
			"translation":[
				-0.009537220001220703,
				0.09823852777481079,
				0.012632172554731369
			]
		},
		{
			"mesh":2,
			"name":"Circle.001",
			"scale":[
				1.4776090383529663,
				1.4776090383529663,
				1.4776090383529663
			],
			"translation":[
				-0.007573604583740234,
				0.02195066213607788,
				-0.0009047985076904297
			]
		},
		{
			"mesh":3,
			"name":"Cylinder.001",
			"rotation":[
				-0.03514784574508667,
				0.9986730813980103,
				-0.037615466862916946,
				0.0013237837702035904
			],
			"scale":[
				-0.022906294092535973,
				-0.022906290367245674,
				-0.022906294092535973
			],
			"translation":[
				0.0849093347787857,
				0.1303422749042511,
				0.14399871230125427
			]
		}
	],
	"materials":[
		{
			"doubleSided":true,
			"name":"grass",
			"pbrMetallicRoughness":{
				"baseColorFactor":[
					0.49302685260772705,
					0.7824132442474365,
					0.8549739718437195,
					1
				],
				"metallicFactor":0,
				"roughnessFactor":0.5
			}
		},
		{
			"doubleSided":true,
			"name":"dirt",
			"pbrMetallicRoughness":{
				"baseColorFactor":[
					0.08000966161489487,
					0.04727604612708092,
					0.014354920946061611,
					1
				],
				"metallicFactor":0,
				"roughnessFactor":0.5
			}
		},
		{
			"doubleSided":true,
			"name":"launchfloor.002",
			"pbrMetallicRoughness":{
				"baseColorFactor":[
					0.28100714087486267,
					0.28100714087486267,
					0.28100714087486267,
					1
				],
				"metallicFactor":0,
				"roughnessFactor":0.5
			}
		},
		{
			"doubleSided":true,
			"name":"landingpad.002",
			"pbrMetallicRoughness":{
				"baseColorFactor":[
					0.4292215406894684,
					0.4292215406894684,
					0.4292215406894684,
					1
				],
				"metallicFactor":0,
				"roughnessFactor":0.5
			}
		},
		{
			"doubleSided":true,
			"name":"padborder.002",
			"pbrMetallicRoughness":{
				"baseColorFactor":[
					0.9403864741325378,
					0.9403864741325378,
					0.9403864741325378,
					1
				],
				"metallicFactor":0,
				"roughnessFactor":0.5
			}
		},
		{
			"doubleSided":true,
			"name":"concrete.002",
			"pbrMetallicRoughness":{
				"baseColorFactor":[
					0.06071816012263298,
					0.06071816012263298,
					0.06071816012263298,
					1
				],
				"metallicFactor":0,
				"roughnessFactor":0.5
			}
		},
		{
			"doubleSided":true,
			"name":"border.002",
			"pbrMetallicRoughness":{
				"baseColorFactor":[
					0.698187530040741,
					0.698187530040741,
					0.698187530040741,
					1
				],
				"metallicFactor":0,
				"roughnessFactor":0.5
			}
		},
		{
			"doubleSided":true,
			"name":"engine.003",
			"pbrMetallicRoughness":{
				"baseColorTexture":{
					"index":0
				},
				"metallicFactor":0,
				"roughnessFactor":0.5
			}
		},
		{
			"doubleSided":true,
			"name":"soyuz2.003",
			"pbrMetallicRoughness":{
				"baseColorTexture":{
					"index":1
				},
				"metallicFactor":0,
				"roughnessFactor":0.5
			}
		}
	],
	"meshes":[
		{
			"name":"Plane.001",
			"primitives":[
				{
					"attributes":{
						"POSITION":0,
						"TEXCOORD_0":1,
						"NORMAL":2
					},
					"indices":3,
					"material":0
				},
				{
					"attributes":{
						"POSITION":4,
						"TEXCOORD_0":5,
						"NORMAL":6
					},
					"indices":7,
					"material":1
				}
			]
		},
		{
			"name":"Cylinder.007",
			"primitives":[
				{
					"attributes":{
						"POSITION":8,
						"TEXCOORD_0":9,
						"NORMAL":10
					},
					"indices":11,
					"material":2
				},
				{
					"attributes":{
						"POSITION":12,
						"TEXCOORD_0":13,
						"NORMAL":14
					},
					"indices":15,
					"material":3
				},
				{
					"attributes":{
						"POSITION":16,
						"TEXCOORD_0":17,
						"NORMAL":18
					},
					"indices":19,
					"material":4
				}
			]
		},
		{
			"name":"Circle.003",
			"primitives":[
				{
					"attributes":{
						"POSITION":20,
						"TEXCOORD_0":21,
						"NORMAL":22
					},
					"indices":23,
					"material":5
				},
				{
					"attributes":{
						"POSITION":24,
						"TEXCOORD_0":25,
						"NORMAL":26
					},
					"indices":27,
					"material":6
				}
			]
		},
		{
			"name":"Cylinder.004",
			"primitives":[
				{
					"attributes":{
						"POSITION":28,
						"TEXCOORD_0":29,
						"NORMAL":30
					},
					"indices":31,
					"material":7
				},
				{
					"attributes":{
						"POSITION":32,
						"TEXCOORD_0":33,
						"NORMAL":34
					},
					"indices":35,
					"material":8
				}
			]
		}
	],
	"textures":[
		{
			"sampler":0,
			"source":0
		},
		{
			"sampler":0,
			"source":0
		}
	],
	"images":[
		{
			"bufferView":32,
			"mimeType":"image/png",
			"name":"pngegg"
		}
	],
	"accessors":[
		{
			"bufferView":0,
			"componentType":5126,
			"count":320,
			"max":[
				1.4370883703231812,
				0.00401393324136734,
				1.3451672792434692
			],
			"min":[
				-1.3848903179168701,
				-0.12987828254699707,
				-1.2301440238952637
			],
			"type":"VEC3"
		},
		{
			"bufferView":1,
			"componentType":5126,
			"count":320,
			"type":"VEC2"
		},
		{
			"bufferView":2,
			"componentType":5126,
			"count":320,
			"type":"VEC3"
		},
		{
			"bufferView":3,
			"componentType":5123,
			"count":990,
			"type":"SCALAR"
		},
		{
			"bufferView":4,
			"componentType":5126,
			"count":320,
			"max":[
				1.3890910148620605,
				0.12865158915519714,
				1.3003298044204712
			],
			"min":[
				-1.3388012647628784,
				0.004013918340206146,
				-1.1891192197799683
			],
			"type":"VEC3"
		},
		{
			"bufferView":5,
			"componentType":5126,
			"count":320,
			"type":"VEC2"
		},
		{
			"bufferView":6,
			"componentType":5126,
			"count":320,
			"type":"VEC3"
		},
		{
			"bufferView":7,
			"componentType":5123,
			"count":990,
			"type":"SCALAR"
		},
		{
			"bufferView":8,
			"componentType":5126,
			"count":59,
			"max":[
				0.9749279022216797,
				0.6685290336608887,
				0.9009688496589661
			],
			"min":[
				-0.9749279022216797,
				-1.3314709663391113,
				-1
			],
			"type":"VEC3"
		},
		{
			"bufferView":9,
			"componentType":5126,
			"count":59,
			"type":"VEC2"
		},
		{
			"bufferView":10,
			"componentType":5126,
			"count":59,
			"type":"VEC3"
		},
		{
			"bufferView":11,
			"componentType":5123,
			"count":93,
			"type":"SCALAR"
		},
		{
			"bufferView":12,
			"componentType":5126,
			"count":7,
			"max":[
				0.9305989742279053,
				-0.005587100982666016,
				0.8600028157234192
			],
			"min":[
				-0.93059903383255,
				-0.005587100982666016,
				-0.9545311331748962
			],
			"type":"VEC3"
		},
		{
			"bufferView":13,
			"componentType":5126,
			"count":7,
			"type":"VEC2"
		},
		{
			"bufferView":14,
			"componentType":5126,
			"count":7,
			"type":"VEC3"
		},
		{
			"bufferView":15,
			"componentType":5123,
			"count":15,
			"type":"SCALAR"
		},
		{
			"bufferView":16,
			"componentType":5126,
			"count":18,
			"max":[
				0.9749279022216797,
				0.6685290336608887,
				0.9009688496589661
			],
			"min":[
				-0.9749279022216797,
				-0.005587100982666016,
				-1
			],
			"type":"VEC3"
		},
		{
			"bufferView":17,
			"componentType":5126,
			"count":18,
			"type":"VEC2"
		},
		{
			"bufferView":18,
			"componentType":5126,
			"count":18,
			"type":"VEC3"
		},
		{
			"bufferView":19,
			"componentType":5123,
			"count":48,
			"type":"SCALAR"
		},
		{
			"bufferView":20,
			"componentType":5126,
			"count":70,
			"max":[
				0.9749279022216797,
				0.0880352333188057,
				0.9009688496589661
			],
			"min":[
				-0.9749279022216797,
				0,
				-1.0503278970718384
			],
			"type":"VEC3"
		},
		{
			"bufferView":21,
			"componentType":5126,
			"count":70,
			"type":"VEC2"
		},
		{
			"bufferView":22,
			"componentType":5126,
			"count":70,
			"type":"VEC3"
		},
		{
			"bufferView":23,
			"componentType":5123,
			"count":114,
			"type":"SCALAR"
		},
		{
			"bufferView":24,
			"componentType":5126,
			"count":14,
			"max":[
				0.9749279022216797,
				0.0880352333188057,
				0.9009688496589661
			],
			"min":[
				-0.9749279022216797,
				0.0880352333188057,
				-1.0503278970718384
			],
			"type":"VEC3"
		},
		{
			"bufferView":25,
			"componentType":5126,
			"count":14,
			"type":"VEC2"
		},
		{
			"bufferView":26,
			"componentType":5126,
			"count":14,
			"type":"VEC3"
		},
		{
			"bufferView":27,
			"componentType":5123,
			"count":42,
			"type":"SCALAR"
		},
		{
			"bufferView":28,
			"componentType":5126,
			"count":11648,
			"max":[
				6.173248767852783,
				0.9978030920028687,
				3.791466474533081
			],
			"min":[
				-13.608041763305664,
				-3.2804622650146484,
				-15.55657958984375
			],
			"type":"VEC3"
		},
		{
			"bufferView":29,
			"componentType":5126,
			"count":11648,
			"type":"VEC2"
		},
		{
			"bufferView":30,
			"componentType":5126,
			"count":11648,
			"type":"VEC3"
		},
		{
			"bufferView":31,
			"componentType":5123,
			"count":18648,
			"type":"SCALAR"
		},
		{
			"bufferView":33,
			"componentType":5126,
			"count":4800,
			"max":[
				13.709996223449707,
				-0.6862397193908691,
				11.963305473327637
			],
			"min":[
				-15.356277465820312,
				-160.03170776367188,
				-17.149221420288086
			],
			"type":"VEC3"
		},
		{
			"bufferView":34,
			"componentType":5126,
			"count":4800,
			"type":"VEC2"
		},
		{
			"bufferView":35,
			"componentType":5126,
			"count":4800,
			"type":"VEC3"
		},
		{
			"bufferView":36,
			"componentType":5123,
			"count":7620,
			"type":"SCALAR"
		}
	],
	"bufferViews":[
		{
			"buffer":0,
			"byteLength":3840,
			"byteOffset":0,
			"target":34962
		},
		{
			"buffer":0,
			"byteLength":2560,
			"byteOffset":3840,
			"target":34962
		},
		{
			"buffer":0,
			"byteLength":3840,
			"byteOffset":6400,
			"target":34962
		},
		{
			"buffer":0,
			"byteLength":1980,
			"byteOffset":10240,
			"target":34963
		},
		{
			"buffer":0,
			"byteLength":3840,
			"byteOffset":12220,
			"target":34962
		},
		{
			"buffer":0,
			"byteLength":2560,
			"byteOffset":16060,
			"target":34962
		},
		{
			"buffer":0,
			"byteLength":3840,
			"byteOffset":18620,
			"target":34962
		},
		{
			"buffer":0,
			"byteLength":1980,
			"byteOffset":22460,
			"target":34963
		},
		{
			"buffer":0,
			"byteLength":708,
			"byteOffset":24440,
			"target":34962
		},
		{
			"buffer":0,
			"byteLength":472,
			"byteOffset":25148,
			"target":34962
		},
		{
			"buffer":0,
			"byteLength":708,
			"byteOffset":25620,
			"target":34962
		},
		{
			"buffer":0,
			"byteLength":186,
			"byteOffset":26328,
			"target":34963
		},
		{
			"buffer":0,
			"byteLength":84,
			"byteOffset":26516,
			"target":34962
		},
		{
			"buffer":0,
			"byteLength":56,
			"byteOffset":26600,
			"target":34962
		},
		{
			"buffer":0,
			"byteLength":84,
			"byteOffset":26656,
			"target":34962
		},
		{
			"buffer":0,
			"byteLength":30,
			"byteOffset":26740,
			"target":34963
		},
		{
			"buffer":0,
			"byteLength":216,
			"byteOffset":26772,
			"target":34962
		},
		{
			"buffer":0,
			"byteLength":144,
			"byteOffset":26988,
			"target":34962
		},
		{
			"buffer":0,
			"byteLength":216,
			"byteOffset":27132,
			"target":34962
		},
		{
			"buffer":0,
			"byteLength":96,
			"byteOffset":27348,
			"target":34963
		},
		{
			"buffer":0,
			"byteLength":840,
			"byteOffset":27444,
			"target":34962
		},
		{
			"buffer":0,
			"byteLength":560,
			"byteOffset":28284,
			"target":34962
		},
		{
			"buffer":0,
			"byteLength":840,
			"byteOffset":28844,
			"target":34962
		},
		{
			"buffer":0,
			"byteLength":228,
			"byteOffset":29684,
			"target":34963
		},
		{
			"buffer":0,
			"byteLength":168,
			"byteOffset":29912,
			"target":34962
		},
		{
			"buffer":0,
			"byteLength":112,
			"byteOffset":30080,
			"target":34962
		},
		{
			"buffer":0,
			"byteLength":168,
			"byteOffset":30192,
			"target":34962
		},
		{
			"buffer":0,
			"byteLength":84,
			"byteOffset":30360,
			"target":34963
		},
		{
			"buffer":0,
			"byteLength":139776,
			"byteOffset":30444,
			"target":34962
		},
		{
			"buffer":0,
			"byteLength":93184,
			"byteOffset":170220,
			"target":34962
		},
		{
			"buffer":0,
			"byteLength":139776,
			"byteOffset":263404,
			"target":34962
		},
		{
			"buffer":0,
			"byteLength":37296,
			"byteOffset":403180,
			"target":34963
		},
		{
			"buffer":0,
			"byteLength":122023,
			"byteOffset":440476
		},
		{
			"buffer":0,
			"byteLength":57600,
			"byteOffset":562500,
			"target":34962
		},
		{
			"buffer":0,
			"byteLength":38400,
			"byteOffset":620100,
			"target":34962
		},
		{
			"buffer":0,
			"byteLength":57600,
			"byteOffset":658500,
			"target":34962
		},
		{
			"buffer":0,
			"byteLength":15240,
			"byteOffset":716100,
			"target":34963
		}
	],
	"samplers":[
		{
			"magFilter":9729,
			"minFilter":9987
		}
	],
	"buffers":[
		{
			"byteLength":731340,
			"uri":"data:application/octet-stream;base64,"
		}
	]
}
