{
	"asset":{
		"generator":"Khronos glTF Blender I/O v3.5.30",
		"version":"2.0"
	},
	"scene":0,
	"scenes":[
		{
			"name":"Scene",
			"nodes":[
				2,
				3,
				4
			]
		}
	],
	"nodes":[
		{
			"mesh":0,
			"name":"Object_2",
			"scale":[
				2.0584218502044678,
				2.058422088623047,
				2.058422088623047
			],
			"translation":[
				0,
				-1.4871947765350342,
				0.34666478633880615
			]
		},
		{
			"children":[
				0
			],
			"name":"full.obj.cleaner.materialmerger.gles"
		},
		{
			"children":[
				1
			],
			"name":"Sketchfab_model",
			"rotation":[
				-0.70710688829422,
				0,
				0,
				0.7071066498756409
			]
		},
		{
			"mesh":1,
			"name":"Plane",
			"scale":[
				-2.8566555976867676,
				-3.3316128253936768,
				-2.7866504192352295
			],
			"translation":[
				-0.024842940270900726,
				-0.3919771611690521,
				0.006616394966840744
			]
		},
		{
			"mesh":2,
			"name":"Cube",
			"rotation":[
				0,
				1,
				0,
				0
			],
			"scale":[
				-1.1401917934417725,
				-0.03260507434606552,
				-2.558661699295044
			],
			"translation":[
				0,
				0.056687671691179276,
				0
			]
		}
	],
	"materials":[
		{
			"doubleSided":true,
			"name":"Material.001",
			"pbrMetallicRoughness":{
				"baseColorTexture":{
					"index":0
				},
				"metallicFactor":0,
				"metallicRoughnessTexture":{
					"index":1
				}
			}
		},
		{
			"doubleSided":true,
			"name":"Material.002",
			"pbrMetallicRoughness":{
				"baseColorTexture":{
					"index":2
				},
				"metallicFactor":0,
				"roughnessFactor":0.30571871995925903
			}
		},
		{
			"doubleSided":true,
			"name":"grass",
			"pbrMetallicRoughness":{
				"baseColorFactor":[
					0.07910966128110886,
					0.3843688666820526,
					0.07261242717504501,
					1
				],
				"metallicFactor":0,
				"roughnessFactor":0.5
			}
		},
		{
			"doubleSided":true,
			"name":"dirt",
			"pbrMetallicRoughness":{
				"baseColorFactor":[
					0.08000966161489487,
					0.04727604612708092,
					0.014354920946061611,
					1
				],
				"metallicFactor":0,
				"roughnessFactor":0.5
			}
		},
		{
			"doubleSided":true,
			"name":"concerete",
			"pbrMetallicRoughness":{
				"baseColorFactor":[
					0.04954886436462402,
					0.04954886436462402,
					0.04954886436462402,
					1
				],
				"metallicFactor":0,
				"roughnessFactor":0.5
			}
		},
		{
			"doubleSided":true,
			"name":"edges",
			"pbrMetallicRoughness":{
				"baseColorFactor":[
					0.34238243103027344,
					0.34238243103027344,
					0.34238243103027344,
					1
				],
				"metallicFactor":0,
				"roughnessFactor":0.5
			}
		}
	],
	"meshes":[
		{
			"name":"Object_0",
			"primitives":[
				{
					"attributes":{
						"POSITION":0,
						"TEXCOORD_0":1,
						"NORMAL":2
					},
					"indices":3,
					"material":0
				},
				{
					"attributes":{
						"POSITION":4,
						"TEXCOORD_0":5,
						"NORMAL":6
					},
					"indices":7,
					"material":1
				}
			]
		},
		{
			"name":"Plane.001",
			"primitives":[
				{
					"attributes":{
						"POSITION":8,
						"TEXCOORD_0":9,
						"NORMAL":10
					},
					"indices":11,
					"material":2
				},
				{
					"attributes":{
						"POSITION":12,
						"TEXCOORD_0":13,
						"NORMAL":14
					},
					"indices":15,
					"material":3
				}
			]
		},
		{
			"name":"Cube.001",
			"primitives":[
				{
					"attributes":{
						"POSITION":16,
						"TEXCOORD_0":17,
						"NORMAL":18
					},
					"indices":19,
					"material":4
				},
				{
					"attributes":{
						"POSITION":20,
						"TEXCOORD_0":21,
						"NORMAL":22
					},
					"indices":23,
					"material":5
				}
			]
		}
	],
	"textures":[
		{
			"sampler":0,
			"source":0
		},
		{
			"sampler":0,
			"source":1
		},
		{
			"sampler":0,
			"source":2
		}
	],
	"images":[
		{
			"bufferView":4,
			"mimeType":"image/jpeg",
			"name":"Material.001_baseColor"
		},
		{
			"bufferView":5,
			"mimeType":"image/png",
			"name":"Material.001_metallicRoughness"
		},
		{
			"bufferView":10,
			"mimeType":"image/jpeg",
			"name":"Material_baseColor"
		}
	],
	"accessors":[
		{
			"bufferView":0,
			"componentType":5126,
			"count":55722,
			"max":[
				0.4365279972553253,
				1.3164429664611816,
				0.25931400060653687
			],
			"min":[
				-0.4365279972553253,
				-0.0034149999264627695,
				-0.04769200086593628
			],
			"type":"VEC3"
		},
		{
			"bufferView":1,
			"componentType":5126,
			"count":55722,
			"type":"VEC2"
		},
		{
			"bufferView":2,
			"componentType":5126,
			"count":55722,
			"type":"VEC3"
		},
		{
			"bufferView":3,
			"componentType":5123,
			"count":230535,
			"type":"SCALAR"
		},
		{
			"bufferView":6,
			"componentType":5126,
			"count":14132,
			"max":[
				0.2868269979953766,
				0.9919059872627258,
				0.019236000254750252
			],
			"min":[
				-0.2868269979953766,
				-0.01912900060415268,
				-0.050223998725414276
			],
			"type":"VEC3"
		},
		{
			"bufferView":7,
			"componentType":5126,
			"count":14132,
			"type":"VEC2"
		},
		{
			"bufferView":8,
			"componentType":5126,
			"count":14132,
			"type":"VEC3"
		},
		{
			"bufferView":9,
			"componentType":5123,
			"count":73233,
			"type":"SCALAR"
		},
		{
			"bufferView":11,
			"componentType":5126,
			"count":320,
			"max":[
				1.4370883703231812,
				0.00401393324136734,
				1.3451672792434692
			],
			"min":[
				-1.3848903179168701,
				-0.12987828254699707,
				-1.2301440238952637
			],
			"type":"VEC3"
		},
		{
			"bufferView":12,
			"componentType":5126,
			"count":320,
			"type":"VEC2"
		},
		{
			"bufferView":13,
			"componentType":5126,
			"count":320,
			"type":"VEC3"
		},
		{
			"bufferView":14,
			"componentType":5123,
			"count":990,
			"type":"SCALAR"
		},
		{
			"bufferView":15,
			"componentType":5126,
			"count":320,
			"max":[
				1.3890910148620605,
				0.12865158915519714,
				1.3003298044204712
			],
			"min":[
				-1.3388012647628784,
				0.004013918340206146,
				-1.1891192197799683
			],
			"type":"VEC3"
		},
		{
			"bufferView":16,
			"componentType":5126,
			"count":320,
			"type":"VEC2"
		},
		{
			"bufferView":17,
			"componentType":5126,
			"count":320,
			"type":"VEC3"
		},
		{
			"bufferView":18,
			"componentType":5123,
			"count":990,
			"type":"SCALAR"
		},
		{
			"bufferView":19,
			"componentType":5126,
			"count":298,
			"max":[
				1,
				1,
				1
			],
			"min":[
				-1,
				-1,
				-1
			],
			"type":"VEC3"
		},
		{
			"bufferView":20,
			"componentType":5126,
			"count":298,
			"type":"VEC2"
		},
		{
			"bufferView":21,
			"componentType":5126,
			"count":298,
			"type":"VEC3"
		},
		{
			"bufferView":22,
			"componentType":5123,
			"count":984,
			"type":"SCALAR"
		},
		{
			"bufferView":23,
			"componentType":5126,
			"count":82,
			"max":[
				1,
				-0.38801896572113037,
				1
			],
			"min":[
				-1,
				-1,
				-1
			],
			"type":"VEC3"
		},
		{
			"bufferView":24,
			"componentType":5126,
			"count":82,
			"type":"VEC2"
		},
		{
			"bufferView":25,
			"componentType":5126,
			"count":82,
			"type":"VEC3"
		},
		{
			"bufferView":26,
			"componentType":5123,
			"count":192,
			"type":"SCALAR"
		}
	],
	"bufferViews":[
		{
			"buffer":0,
			"byteLength":668664,
			"byteOffset":0,
			"target":34962
		},
		{
			"buffer":0,
			"byteLength":445776,
			"byteOffset":668664,
			"target":34962
		},
		{
			"buffer":0,
			"byteLength":668664,
			"byteOffset":1114440,
			"target":34962
		},
		{
			"buffer":0,
			"byteLength":461070,
			"byteOffset":1783104,
			"target":34963
		},
		{
			"buffer":0,
			"byteLength":95105,
			"byteOffset":2244176
		},
		{
			"buffer":0,
			"byteLength":5873,
			"byteOffset":2339284
		},
		{
			"buffer":0,
			"byteLength":169584,
			"byteOffset":2345160,
			"target":34962
		},
		{
			"buffer":0,
			"byteLength":113056,
			"byteOffset":2514744,
			"target":34962
		},
		{
			"buffer":0,
			"byteLength":169584,
			"byteOffset":2627800,
			"target":34962
		},
		{
			"buffer":0,
			"byteLength":146466,
			"byteOffset":2797384,
			"target":34963
		},
		{
			"buffer":0,
			"byteLength":111108,
			"byteOffset":2943852
		},
		{
			"buffer":0,
			"byteLength":3840,
			"byteOffset":3054960,
			"target":34962
		},
		{
			"buffer":0,
			"byteLength":2560,
			"byteOffset":3058800,
			"target":34962
		},
		{
			"buffer":0,
			"byteLength":3840,
			"byteOffset":3061360,
			"target":34962
		},
		{
			"buffer":0,
			"byteLength":1980,
			"byteOffset":3065200,
			"target":34963
		},
		{
			"buffer":0,
			"byteLength":3840,
			"byteOffset":3067180,
			"target":34962
		},
		{
			"buffer":0,
			"byteLength":2560,
			"byteOffset":3071020,
			"target":34962
		},
		{
			"buffer":0,
			"byteLength":3840,
			"byteOffset":3073580,
			"target":34962
		},
		{
			"buffer":0,
			"byteLength":1980,
			"byteOffset":3077420,
			"target":34963
		},
		{
			"buffer":0,
			"byteLength":3576,
			"byteOffset":3079400,
			"target":34962
		},
		{
			"buffer":0,
			"byteLength":2384,
			"byteOffset":3082976,
			"target":34962
		},
		{
			"buffer":0,
			"byteLength":3576,
			"byteOffset":3085360,
			"target":34962
		},
		{
			"buffer":0,
			"byteLength":1968,
			"byteOffset":3088936,
			"target":34963
		},
		{
			"buffer":0,
			"byteLength":984,
			"byteOffset":3090904,
			"target":34962
		},
		{
			"buffer":0,
			"byteLength":656,
			"byteOffset":3091888,
			"target":34962
		},
		{
			"buffer":0,
			"byteLength":984,
			"byteOffset":3092544,
			"target":34962
		},
		{
			"buffer":0,
			"byteLength":384,
			"byteOffset":3093528,
			"target":34963
		}
	],
	"samplers":[
		{
			"magFilter":9729,
			"minFilter":9987
		}
	],
	"buffers":[
		{
			"byteLength":3093912,
			"uri":"data:application/octet-stream;base64,"
		}
	]
}
