<?xml version="1.0" encoding="utf-8"?>
<!-- Generator: Adobe Illustrator 19.0.0, SVG Export Plug-In . SVG Version: 6.00 Build 0)  -->
<svg version="1.1" id="layer" xmlns="http://www.w3.org/2000/svg" xmlns:xlink="http://www.w3.org/1999/xlink" x="0px" y="0px"
	 viewBox="-153 -46 652 652" style="enable-background:new -153 -46 652 652;" xml:space="preserve">
<style type="text/css">
	.st0{fill:#007BC4;}
	.st1{fill:#1D1D1B;}
</style>
<path class="st0" d="M27.4,245.3c0,3.9-3.2,7.1-7.1,7.1s-7.1-3.2-7.1-7.1c0-3.9,3.2-7.1,7.1-7.1S27.4,241.4,27.4,245.3z M60.2,248.7
	c-2.4-5.3-12.2-8.1-27.8-7.1c0.2,0.8,0.4,1.6,0.5,2.4c10.1,0.5,16.3,3,17.3,6.7c1.6,6-11,15.5-34.1,25.6
	c-2.1-25.1-23.2-44.7-48.8-44.6c-24.7,0.1-45.1,18.6-48.2,42.5c-29.9,15.8-48.2,31.9-43.8,41.8c3.3,7.4,21.5,10,50.3,3.8
	c-0.4-0.6-0.7-1.3-0.9-2c-23,3.5-37.7,0.8-39.2-3.9c-1.9-6.1,11.6-15.9,35.7-26.2l0,0c7.3-3.1,33.4-14,64.2-22.1
	c0.4-0.1,0.6,0.4,0.2,0.6c-28.4,13.2-48,27.2-51.4,37.9c-4.4,13.8,13.8,25.2,33.4,25.1c23.1-0.1,42.4-16.2,47.4-37.9
	C45.8,275.2,64.8,258.7,60.2,248.7z"/>
<path class="st1" d="M84.4,302.3c-3.5,0-5.9,0.7-8.3,1.8l1.4,4c2-0.8,3.8-1.4,6.2-1.4c3.5,0,5.3,1.6,5.3,4.7v0.4
	c-1.7-0.5-3.4-0.9-6-0.9c-4.7,0-8.8,2.1-8.8,7.2c0,4.5,3.7,6.7,7.7,6.7c3.3,0,5.6-1.4,7-3.1v2.7h4.9v-12.9
	C93.9,305.7,90.8,302.3,84.4,302.3z M89.1,316.5c0,2.7-2.5,4.6-5.8,4.6c-2,0-4.2-0.9-4.2-3.3c0-2.2,2-3.4,5-3.4c1.9,0,3.7,0.4,5,0.9
	V316.5z M132.1,302.3c-3.5,0-5.9,0.7-8.3,1.8l1.4,4c2-0.8,3.8-1.4,6.2-1.4c3.5,0,5.3,1.6,5.3,4.7v0.4c-1.7-0.5-3.4-0.9-6-0.9
	c-4.7,0-8.8,2.1-8.8,7.2c0,4.5,3.7,6.7,7.7,6.7c3.3,0,5.6-1.4,7-3.1v2.7h4.9v-12.9C141.6,305.7,138.5,302.3,132.1,302.3z
	 M136.8,316.5c0,2.7-2.5,4.6-5.8,4.6c-2,0-4.2-0.9-4.2-3.3c0-2.2,2-3.4,5-3.4c1.9,0,3.7,0.4,5,0.9V316.5z M168.2,313.5L168.2,313.5
	c0-6.2,4.4-11.4,10.6-11.4c6.9,0,10.4,5.4,10.4,11.7c0,0.5,0,0.9-0.1,1.4h-16c0.5,3.5,3,5.5,6.3,5.5c2.4,0,4.2-0.9,5.9-2.6l2.9,2.6
	c-2.1,2.5-4.9,4.1-8.9,4.1C173.1,324.8,168.2,320.2,168.2,313.5z M184.3,312c-0.3-3.2-2.2-5.7-5.5-5.7c-3,0-5.2,2.3-5.6,5.7H184.3z
	 M113.5,302.6h5v21.7h-5V302.6z M145.7,302.6h5v3.4c1.4-2.1,3.4-3.8,6.8-3.8c4.9,0,7.7,3.3,7.7,8.4v13.8h-5V312
	c0-3.4-1.7-5.3-4.7-5.3c-2.9,0-4.9,2-4.9,5.4v12.3h-5V302.6z M110.8,302.2v5.3c-5-0.1-7.7,3.2-7.7,8.6v8.3h-5v-21.7h5v4.9
	C104.4,304.3,106.9,302,110.8,302.2z M211.9,312.7v8.7c-2,1.8-5.1,3.4-8.8,3.4c-6.9,0-11.2-5.1-11.2-11.3c0-6,4.4-11.4,11-11.4
	c3.7,0,6,1.1,8.2,2.9l-1.6,1.9c-1.7-1.5-3.6-2.5-6.7-2.5c-4.9,0-8.3,4.1-8.3,9c0,5.1,3.3,9.1,8.6,9.1c2.5,0,4.8-0.9,6.3-2.1v-5.3
	h-6.6v-2.4H211.9z M239.9,302.1c-6.3,0-11.2,5-11.2,11.4c0,6.3,4.8,11.3,11.1,11.3c6.3,0,11.2-5,11.2-11.4
	C251,307.1,246.2,302.1,239.9,302.1z M239.9,322.5c-4.8,0-8.6-4-8.6-9.1c0-5.1,3.8-9,8.5-9c4.8,0,8.6,4,8.6,9.1
	C248.4,318.6,244.7,322.5,239.9,322.5z M271,302.6h2.4v21.7H271v-3.5c-1.7,2.6-4.2,4-7.5,4c-5.3,0-8.7-3.5-8.7-9v-13.2h2.4v12.9
	c0,4.4,2.5,7.1,6.6,7.1c4.1,0,7.2-3.2,7.2-7.4V302.6z M287.2,302.6H279v21.7h2.4v-7.5h5.3c4.7,0,8.6-2.5,8.6-7.2
	C295.4,305.3,292.1,302.6,287.2,302.6z M286.9,314.6h-5.4v-9.7h5.6c3.5,0,5.8,1.7,5.8,4.8C292.8,312.6,290.5,314.6,286.9,314.6z
	 M228.3,304.8c-3.7,0-9.1,2.6-9.1,10.6v8.9h-2.4v-21.7h2.4v5.4c2.5-4.7,6.8-5.8,9.1-5.8V304.8z M376.1,244.7c-6.4,0-10.7,1.3-15,3.3
	l2.5,7.3c3.6-1.5,6.9-2.5,11.3-2.5c6.3,0,9.7,3,9.7,8.5v0.7c-3.1-1-6.1-1.6-10.9-1.6c-8.6,0-16,3.7-16,13c0,8.1,6.7,12.3,14.1,12.3
	c6,0,10.1-2.5,12.8-5.7v4.9h9v-23.4C393.5,250.9,387.8,244.7,376.1,244.7z M384.7,270.5c0,4.9-4.5,8.3-10.5,8.3
	c-3.6,0-7.6-1.6-7.6-5.9c0-4.1,3.6-6.2,9.1-6.2c3.5,0,6.7,0.7,9.1,1.6V270.5z M435.2,278.3c-3.9,4.3-8.5,7.4-16.2,7.4
	c-11.8,0-20.4-9.2-20.4-20.5c0-11.2,8.6-20.7,20.5-20.7c7.5,0,12.1,2.8,15.8,6.8l-5.6,6.1c-2.8-2.9-5.7-4.9-10.3-4.9
	c-6.7,0-11.4,5.8-11.4,12.6c0,7.1,4.8,12.8,11.8,12.8c4.3,0,7.4-2,10.3-4.9L435.2,278.3z M436.4,265.2L436.4,265.2
	c0-11.3,8-20.7,19.3-20.7c12.6,0,18.9,9.9,18.9,21.2c0,0.8-0.1,1.6-0.1,2.5h-29c1,6.4,5.5,10,11.4,10c4.4,0,7.6-1.6,10.7-4.7
	l5.3,4.7c-3.7,4.5-8.9,7.4-16.2,7.4C445.2,285.7,436.4,277.4,436.4,265.2z M465.7,262.3c-0.6-5.8-4-10.4-10-10.4
	c-5.5,0-9.4,4.3-10.3,10.4H465.7z M316.8,273.1c0,8.3-6.3,12.5-14.7,12.5c-5.6,0-11.8-2-16.8-5.9l4-6.1c4.3,3.2,8.9,4.9,12.9,4.9
	c3.7,0,6.1-1.5,6.1-4.3c0-3.2-4.2-4.2-8.8-5.6c-5.9-1.7-12.3-4-12.3-11.7c0-7.6,6.2-12.1,14.1-12.1c4.9,0,10.3,1.7,14.5,4.5
	l-3.6,6.4c-3.8-2.3-7.9-3.7-11.1-3.7c-3.6,0-5.5,1.7-5.5,4c0,2.8,3.7,3.9,8.9,5.6C310.3,263.3,316.8,265.9,316.8,273.1z
	 M341.6,245.3h-19.9v39.5h9.1v-10.7h10c8.8,0,15.8-5.4,15.8-14.4C356.6,251.7,350.9,245.3,341.6,245.3z M340.7,266.5h-9.9V253h9.8
	c4.3,0,7,2.9,7,6.7C347.5,263,345,266.5,340.7,266.5z M91.8,244.7c-6.4,0-10.7,1.3-15,3.3l2.5,7.3c3.6-1.5,6.9-2.5,11.3-2.5
	c6.3,0,9.7,3,9.7,8.5v0.7c-3.1-1-6.1-1.6-10.9-1.6c-8.6,0-16,3.7-16,13c0,8.1,6.7,12.3,14.1,12.3c6,0,10.1-2.5,12.8-5.7v4.9h9v-23.4
	C109.1,250.9,103.4,244.7,91.8,244.7z M100.4,270.5c0,4.9-4.5,8.3-10.5,8.3c-3.6,0-7.6-1.6-7.6-5.9c0-4.1,3.6-6.2,9.1-6.2
	c3.5,0,6.7,0.7,9.1,1.6V270.5z M178.4,244.7c-6.4,0-10.7,1.3-15,3.3l2.5,7.3c3.6-1.5,6.9-2.5,11.3-2.5c6.3,0,9.7,3,9.7,8.5v0.7
	c-3.1-1-6.1-1.6-10.9-1.6c-8.6,0-16,3.7-16,13c0,8.1,6.7,12.3,14.1,12.3c6,0,10.1-2.5,12.8-5.7v4.9h9v-23.4
	C195.8,250.9,190.1,244.7,178.4,244.7z M187,270.5c0,4.9-4.5,8.3-10.5,8.3c-3.6,0-7.6-1.6-7.6-5.9c0-4.1,3.6-6.2,9.1-6.2
	c3.5,0,6.7,0.7,9.1,1.6V270.5z M244.2,265.2L244.2,265.2c0-11.3,8-20.7,19.3-20.7c12.6,0,18.9,9.9,18.9,21.2c0,0.8-0.1,1.6-0.1,2.5
	h-29c1,6.4,5.5,10,11.4,10c4.4,0,7.6-1.6,10.7-4.7l5.3,4.7c-3.7,4.5-8.9,7.4-16.2,7.4C253,285.7,244.2,277.4,244.2,265.2z
	 M273.5,262.3c-0.6-5.8-4-10.4-10-10.4c-5.5,0-9.4,4.3-10.3,10.4H273.5z M144.8,245.3h9.1v39.5h-9.1V245.3z M203.2,245.3h9.1v6.1
	c2.5-3.7,6.2-7,12.3-7c8.9,0,14.1,6,14.1,15.2v25.1h-9.1v-22.4c0-6.1-3.1-9.7-8.5-9.7c-5.2,0-8.9,3.7-8.9,9.8v22.3h-9.1V245.3z
	 M139.7,244.6v9.6c-9-0.2-14,5.9-14,15.6v15h-9.1v-39.5h9.1v8.9C128.2,248.3,132.8,244.3,139.7,244.6z"/>
</svg>
