<?xml version="1.0" encoding="utf-8"?>
<!-- Generator: Adobe Illustrator 19.0.0, SVG Export Plug-In . SVG Version: 6.00 Build 0)  -->
<svg version="1.1" id="layer" xmlns="http://www.w3.org/2000/svg" xmlns:xlink="http://www.w3.org/1999/xlink" x="0px" y="0px"
	 viewBox="-153 -46 652 652" style="enable-background:new -153 -46 652 652;" xml:space="preserve">
<style type="text/css">
	.st0{fill:#1C1926;}
	.st1{fill:#CDDE00;}
</style>
<path class="st0" d="M27.1,318.9h-2.7l-2-3.4h-6.8l1.3-2.2H21l-2.7-4.6l-0.1-0.2l-0.2,0.2l-6.1,10.2H9.2l7.3-12.3
	c0.1-0.3,0.3-0.6,0.6-0.9c0.2-0.2,0.6-0.4,1.1-0.4c0.5,0,0.9,0.2,1.1,0.4c0.3,0.2,0.5,0.6,0.6,0.9L27.1,318.9z M355.8,318.9h-2.7
	l-2-3.4h-6.8l1.3-2.2h4.1l-2.7-4.6l-0.1-0.2l-0.2,0.2l-6.1,10.2h-2.7l7.3-12.3c0.1-0.3,0.3-0.6,0.6-0.9c0.2-0.2,0.6-0.4,1.1-0.4
	c0.5,0,0.9,0.2,1.1,0.4c0.3,0.2,0.5,0.6,0.6,0.9L355.8,318.9z M77.3,316.6H68v-8.9h9.3v-2.4H65.7v13.6h11.6V316.6z M76.6,310.8H69
	v2.4h7.7V310.8z M129.8,314.8c1.1-0.3,2-0.9,2.6-1.6c0.7-0.8,1-1.8,1-3c0-1.7-0.6-3-1.8-3.8c-1-0.7-2.5-1.1-4.2-1.1h-9.6v13.6h2.3
	v-11.2h7.7c2.2,0,3.2,0.9,3.2,2.6c0,0.8-0.3,1.5-1,1.9c-0.6,0.4-1.3,0.6-2.2,0.6h-6.3v2.3h5l3.8,3.8h3.4L129.8,314.8z M187.4,307.1
	c-1.3-1.2-2.9-1.8-4.9-1.8h-3.8c-2,0-3.6,0.6-4.9,1.8c-1.3,1.2-1.9,2.8-1.9,4.8c0,2,0.6,3.7,1.9,5c1.3,1.3,2.9,2,4.9,2h3.8
	c2,0,3.6-0.6,4.9-2c1.3-1.3,1.9-3,1.9-5C189.4,310,188.7,308.3,187.4,307.1 M185.8,315.4c-0.8,0.8-1.9,1.2-3.2,1.2h-3.8
	c-1.3,0-2.3-0.4-3.2-1.2c-0.8-0.8-1.3-1.8-1.3-3.2c0-1.3,0.4-2.4,1.3-3.2c0.8-0.8,1.9-1.3,3.2-1.3h3.8c1.3,0,2.4,0.4,3.2,1.3
	c0.8,0.8,1.3,1.9,1.3,3.2C187,313.5,186.6,314.5,185.8,315.4 M240.5,311.6c-0.9-0.7-1.9-1.1-3.3-1.1h-6.3c-0.5,0-0.8-0.2-1.1-0.3
	c-0.3-0.2-0.5-0.6-0.5-1c0-0.4,0.2-0.8,0.5-1c0.3-0.2,0.7-0.4,1.1-0.4h10.2v-2.4h-10.2c-1.2,0-2.2,0.3-3,1c-0.8,0.7-1.3,1.6-1.3,2.8
	c0,1.1,0.4,2.1,1.3,2.8c0.8,0.6,1.8,1,3,1h6.3c0.6,0,1.2,0.2,1.7,0.4c0.6,0.3,0.8,0.8,0.8,1.4s-0.2,1.1-0.8,1.4
	c-0.5,0.3-1,0.4-1.7,0.4H227v2.4h10.2c1.3,0,2.4-0.4,3.3-1.1c0.9-0.8,1.4-1.8,1.4-3.1C241.9,313.5,241.4,312.4,240.5,311.6
	 M297.1,306.6c-1-0.9-2.2-1.3-3.8-1.3h-9.6v13.6h2.3v-11.2h7.7c0.8,0,1.4,0.2,1.9,0.6c0.6,0.5,0.8,1,0.8,1.8c0,0.8-0.2,1.4-0.8,1.8
	c-0.6,0.5-1.2,0.7-1.9,0.7h-6.3v2.3h5.9c1.5,0,2.7-0.4,3.8-1.3c1-0.9,1.6-2.1,1.6-3.6C298.7,308.7,298.1,307.5,297.1,306.6
	 M409.3,316.6h-7.6c-1.3,0-2.3-0.4-3.2-1.2c-0.8-0.8-1.3-1.8-1.3-3.2c0-1.3,0.4-2.4,1.3-3.2c0.8-0.8,1.9-1.3,3.2-1.3h7.6v-2.4h-7.6
	c-2,0-3.6,0.6-4.9,1.8c-1.3,1.2-1.9,2.8-1.9,4.8c0,2,0.6,3.7,1.9,5c1.3,1.3,2.9,2,4.9,2h7.6V316.6z M462.5,316.6h-9.3v-8.9h9.3v-2.4
	h-11.6v13.6h11.6V316.6z M461.9,310.8h-7.7v2.4h7.7V310.8z M44.2,263.4v-6.7h-34l6.7,6.7H44.2z M399.1,289.3v-6.7h-25.8v-25.9h-6.7
	v32.6H399.1z M326.1,263.4v-6.6h-33.9l6.6,6.6H326.1z M324.4,269.6l-33,0.1v19.6h6.7v-13h26.3V269.6z M170.5,289.3l-9-10.1l-0.9-1
	h4.3c1.4,0,2.7-0.3,3.8-0.8c1.1-0.6,2.1-1.4,2.9-2.5c0.7-1,1.4-2.2,1.7-3.4l0,0c0.4-1.2,0.6-2.6,0.6-4c0-1.5-0.2-2.9-0.6-4.1
	c-0.4-1.3-1-2.4-1.7-3.4c-0.8-1.1-1.8-2-2.9-2.5c-1.1-0.6-2.4-0.9-3.8-0.9h-32.1v32.6h6.7v-26h25c1,0,1.6,0.4,2.1,1.1
	c0.5,0.6,0.6,1.6,0.6,3c0,1.3-0.2,2.2-0.6,2.9c-0.5,0.8-1.2,1.1-2.1,1.1h-19l15.8,17.8L170.5,289.3L170.5,289.3z M85.5,256.7h6.6
	v32.6h-6.6V256.7z M42.5,269.6h-33v19.7h6.7v-13h26.3V269.6z M249.8,263.4v-6.6h-33.9l6,6.6H249.8z M221.8,282.6v-6.3h26.2v-6.6h-33
	v19.7h34.8v-6.7C249.9,282.6,221.8,282.6,221.8,282.6z M458.1,275.8l-16-19.1h-8.3l17.3,20.6v12h7V275.8z"/>
<path class="st1" d="M462.2,271.1l11.8-14.4h-8.2l-7.8,9.4L462.2,271.1z M-83.3,249h17.7c-1.7-7.4-4.2-14.1-8.8-17
	C-79.2,234.9-81.7,241.6-83.3,249z M-123.3,251.7c1.8,0,95.8,0,97.8,0c1.8,0,3.8,0.6,1.8,2.6c-2.1,2-10.6,10.3-10.7,10.4
	c-0.2,0.2-1.4,1.6-5,0.8c-3.6-0.8-25.2-5.8-25.2-5.8l-0.1,2.4c0,0,19.3,8.1,20.6,8.6c0.7,0.3,2.8,1.2-0.5,3s-9.6,5-10.6,5.2
	c-1,0.2-2.3,0.2-3.6-1.1c-1.2-1.4-14.6-15.7-15.5-16.7h-0.1c-1,1-14.3,15.4-15.5,16.7c-1.3,1.4-2.6,1.4-3.6,1.1
	c-1-0.2-7.3-3.4-10.6-5.2c-3.3-1.7-1.3-2.6-0.5-3c1.3-0.6,20.6-8.6,20.6-8.6l-0.1-2.4c0,0-21.6,5-25.2,5.8c-3.6,0.8-4.8-0.6-5-0.8
	c-0.2-0.2-8.6-8.4-10.7-10.4C-127.2,252.3-125.3,251.7-123.3,251.7z M-73,273.6c2.6,8.4-0.8,17.6-1.4,18.6h-0.1
	c-0.6-1-4-10.2-1.4-18.6c-3.1,0.5-10.9,4.8-10.9,18.9c0,17,9.8,31.8,12.3,35.7h0.1c2.5-3.9,12.3-18.7,12.3-35.7
	C-62.1,278.4-69.9,274.1-73,273.6z M-74.5,316.3L-74.5,316.3c-0.9-1.4-8.6-14.1-8.6-23.6c0-7.4,1.8-9.8,3.1-11.4
	c0,4.4,0.9,15.4,5.3,22.8h0.1c4.4-7.4,5.4-18.4,5.3-22.8c1.4,1.5,3.1,4,3.1,11.4C-66,302.2-73.7,315-74.5,316.3z"/>
</svg>
