<?xml version="1.0" encoding="utf-8"?>
<!-- Generator: Adobe Illustrator 25.4.1, SVG Export Plug-In . SVG Version: 6.00 Build 0)  -->
<svg version="1.0" id="Layer_1" xmlns="http://www.w3.org/2000/svg" xmlns:xlink="http://www.w3.org/1999/xlink" x="0px" y="0px"
	 viewBox="0 0 934 654.6" style="enable-background:new 0 0 934 654.6;" xml:space="preserve">
<style type="text/css">
	.st0{fill:#1460A6;}
	.st1{fill:none;}
</style>
<g id="_Group_">
	<path class="st0" d="M771.2,161.7h61.5c-11.1,2.9-12.9,13.7-12.1,27.7c2.9,53.8,3.7,125.2,6.1,178.5h-49.4
		c-0.2-13.4-0.2-29.2-0.9-43.3h-58.1c-9.9,13.8-17.8,29.6-27.7,43.3H585.7c-4.4-19.9-7.6-40.9-12.1-60.7
		c-15.8,17.2-32.4,41.3-49.4,60.7h-54.9c0,0,4.6-5.5,6.4-7.8c14.4-18.1,30.9-39.2,45.1-58.1c-26.9,11.6-51.7,25.1-77.1,38.1
		c-6.2,50.2-12.5,100.1-18.2,150.8c-21.4-33.7-43.7-66.6-71.1-94.5c-59.7,40.9-115.6,86.5-161.2,142.1c-2.8,3.4-5.5,8.7-10.4,9.5
		c41.3-66.2,91.8-123.1,152.5-169.9c-8.8-8.5-18.2-15.7-28.2-23.3c-5.4,4.3-24.5,30.3-25.1,30.5c0,0-0.2-0.2-2.2-0.2
		c6.7-11.8,15.1-22.5,23.1-33c-9.3-7.2-21.9-13.3-32.6-19.9c-24.2,32.7-81,55.8-137.8,38.1l1.5-5.5c0,0,9.1,1.2,13.2,1.2
		c37.8,0.2,64-25.5,79.7-50.3c-37.4-12.8-79.2-21.3-125.7-25.1l1.6-2.9c40.2-0.4,95.4,8.4,130.1,16.8c0,0,6.3-10.2,8.7-15.6
		c16.3-37.2,27.7-84,39-126.5h61.5c3,0.3-1.8,2.7-2.6,3.5c-9,8.5-11.6,28.1-16.5,44.2c-11.5,38.5-24.1,81.2-44.2,110.1
		c10.7,5.8,22.8,10.1,32.9,16.5c16.3-21.8,31.6-44.6,46.8-67.6c-1.7,0.2-36.2,1.7-44.2,2.6c1.1-3.4,2-6.9,2.6-10.4
		c16-1,31.9-2.2,48.5-2.6c36.1-50,70.5-101.7,105.7-152.5c-4.3,47.1-11.4,98.6-17,147.3c30.6-1.7,61-3.4,91.6-5.2
		c-3-15.8-16.5-70.9-19.9-86.7h71.9c-22.1,5.2-4.5,42.6-4.3,62.4c8.7-9.2,14.6-20.7,21.7-31.2s15.2-20.4,21.7-31.2h67.6
		c-13.5,4.4-20.8,14.6-29.5,26c-13.4,17.7-27.5,37.4-40.7,55.5c24-0.6,46.3-2.8,70.2-3.5c-30.1,7.4-58.7,14.7-87.5,25.1
		c8,32.7,16.9,64.6,25.1,97.1C685.6,295.7,727.6,228,771.2,161.7z M739.1,287.4h38.1c-0.2-5.2-0.3-44.1-0.9-62.4
		C763.9,245.8,751.2,266.3,739.1,287.4z M448.8,306.5c36.3-18.8,77-33.3,119.6-45.9c-38.5,1.9-77.1,2.8-115.4,4.9
		C451.5,279.2,450,293,448.8,306.5z M417.6,255.3c2-17.5,3.3-34.8,5.2-50.3c-13.4,17.8-27.5,35-40.7,52.9
		C395.1,257.1,406.8,256.1,417.6,255.3L417.6,255.3z M408.1,328.1c2.6-21.1,4.8-40.8,7.8-60.7c-14.7,0-29,0.5-42.5,1.7
		c-18.9,23.3-37.2,47.2-55.5,71.1c13,6.5,24.3,15.3,35.5,23.4C371.3,351.5,389.1,339.2,408.1,328.1L408.1,328.1z M396.8,410.5
		c1.6-14.8,4.8-41.9,5.2-45.9c-9.5,6.9-20,11.8-28.6,19.1C382.6,391.2,388.9,401.6,396.8,410.5z"/>
</g>
<rect x="74" y="90.3" class="st1" width="786" height="474"/>
</svg>
