<svg xmlns="http://www.w3.org/2000/svg" height="800" width="1200" viewBox="-15.047505 -11.129725 130.41171 66.77835"><defs><clipPath id="a" clipPathUnits="userSpaceOnUse"><path d="M0 54h99V0H0z"/></clipPath></defs><g clip-path="url(#a)" transform="matrix(1.25 0 0 -1.25 -11.2496 56.2505)"><path d="M55.8867 30.8789h-11.742v12.659h-5.224v-17.036h16.966zm17.231.004l.742-1.369 1.624-3.012h5.811l-4.917 8.946c-.805-2.815-.354-4.565-.354-4.565zm-4.682 8.65l2.096-3.871c.331.263.676.539 1.037.83 1.04.836 2.013 1.647 2.908 2.413l-2.547 4.633h-6.8l-9.224-17.036h5.835zm-45.693-13.218h7.484c4.8 0 6.989 2.022 6.989 6.258v10.965h-5.225v-9.836c0-2.164-.776-3.011-2.917-3.011h-5.177c-2.141 0-2.918.847-2.918 3.011v9.836h-5.223v-10.965c0-4.236 2.188-6.258 6.987-6.258" fill="#254893"/><path d="M79.126 43.8184c.104.039.216.063.334.063.142 0 .274-.035.395-.089-1.26-1.225-4.289-4.085-8.287-7.301-5.692-4.579-7.513-5.61-7.513-5.61h4.796s2.123 2.868 5.824 6.744c1.414 1.482 2.524 2.721 3.385 3.725-.685-.95-1.492-2.135-2.394-3.572-2.035-3.244-3.586-6.897-3.586-6.897h3.942s-.573 2.209.712 5.661c1.502 4.036 1.977 4.76 3.33 7.122a.9595.9595 0 00.323-.508l.555 1.844" fill="#fbc018"/><path d="M10.4063 16.0762v-4.576c0-.653.156-1.139.772-1.139s.772.486.772 1.139v4.576h1.323v-4.576c0-1.672-1.019-2.113-2.095-2.113-1.075 0-2.094.357-2.094 2.113v4.576m4.8512-1.6182h1.213v-.578h.018c.267.487.726.708 1.259.708.79 0 1.259-.432 1.259-1.406V9.516h-1.269v3.408c0 .496-.165.69-.541.69-.432 0-.671-.268-.671-.819V9.516h-1.268m4.5025 4.942h1.269V9.515h-1.269zm0 1.691h1.269v-1.085h-1.269zm2.2974-.275h1.269v-1.415h.734v-.864h-.734v-2.673c0-.387.082-.543.449-.543.101 0 .202.009.285.018v-.881c-.275-.028-.533-.055-.827-.055-.991 0-1.176.303-1.176 1.304v2.83h-.643v.864h.643m4.6865-1.9121c-.027.753-.119 1.175-.644 1.175-.505 0-.652-.523-.652-.982v-.193zm-1.296-.754v-.394c0-.579.156-1.15.625-1.15.423 0 .598.322.671.928h1.139c-.046-1.148-.597-1.791-1.791-1.791-1.838 0-1.912 1.415-1.912 2.647 0 1.322.257 2.554 1.966 2.554 1.48 0 1.811-.993 1.811-2.509v-.285m2.3339-1.4316c.56 0 .67.551.67 1.626 0 1.074-.11 1.627-.67 1.627-.552 0-.662-.553-.662-1.627 0-1.075.11-1.626.662-1.626m.726-.323h-.019c-.276-.458-.625-.652-1.121-.652-1.038 0-1.517.763-1.517 2.601s.479 2.601 1.517 2.601c.477 0 .8-.195 1.065-.588h.019v2.076h1.268v-6.561h-1.212m4.023-.0007v6.561h1.324v-5.478h2.342v-1.083m2.7207 2.4727c-.175-.129-.386-.212-.542-.249-.515-.11-.717-.358-.717-.799 0-.378.138-.689.478-.689.341 0 .781.219.781.762zm-2.315.955v.119c0 1.14.78 1.526 1.735 1.526 1.508 0 1.793-.625 1.793-1.516v-2.602c0-.459.027-.67.156-.955h-1.213c-.083.157-.12.35-.156.516h-.019c-.294-.516-.652-.645-1.258-.645-.883 0-1.195.754-1.195 1.415 0 .928.377 1.306 1.25 1.544l.716.193c.377.101.506.249.506.579 0 .378-.166.606-.588.606-.386 0-.588-.256-.588-.642v-.138m5.6877-2.8485h-.02c-.264-.486-.725-.708-1.258-.708-.789 0-1.259.433-1.259 1.406v3.666h1.267v-3.409c0-.495.166-.687.543-.687.431 0 .672.265.672.816v3.28h1.267v-4.943h-1.212m1.9199 4.9432h1.214v-.578h.017c.267.487.726.708 1.26.708.789 0 1.258-.432 1.258-1.406V9.516h-1.268v3.408c0 .496-.166.69-.543.69-.43 0-.669-.268-.669-.819V9.516h-1.269m6.8369 3.1598c0 .479-.093.992-.57.992-.624 0-.726-.551-.726-1.691 0-1.221.11-1.727.68-1.727.423 0 .616.36.616 1.158h1.213c0-1.295-.542-2.022-1.885-2.022-1.266 0-1.891.616-1.891 2.602 0 2.029.835 2.599 2.001 2.599 1.167 0 1.775-.744 1.775-1.911m.5224 3.4004h1.269v-2.122h.018c.238.422.67.634 1.203.634.791 0 1.259-.432 1.259-1.407v-3.666h-1.268v3.409c0 .497-.166.69-.542.69-.432 0-.67-.267-.67-.819v-3.28h-1.269m8.0127 2.4721h1.286l-.634 2.948h-.017zm-.175 4.089h1.637l1.736-6.562h-1.379l-.302 1.388h-1.746l-.303-1.388h-1.378m5.4379.0007h1.269v6.561h-1.269zm2.069 0h1.268v6.561h-1.268zm2.066 4.943h1.269V9.515h-1.269zm0 1.691h1.269v-1.085h-1.269zm4.3273-4.1617c-.175-.129-.386-.212-.542-.249-.515-.11-.717-.358-.717-.799 0-.378.138-.689.478-.689.341 0 .781.219.781.762zm-2.314.955v.119c0 1.14.779 1.526 1.735 1.526 1.507 0 1.792-.625 1.792-1.516v-2.602c0-.459.028-.67.156-.955h-1.213c-.082.157-.12.35-.156.516h-.019c-.294-.516-.652-.645-1.257-.645-.883 0-1.196.754-1.196 1.415 0 .928.377 1.306 1.25 1.544l.717.193c.376.101.505.249.505.579 0 .378-.165.606-.588.606-.386 0-.589-.256-.589-.642v-.138m3.1536 1.5157h1.213v-.578h.018c.267.487.726.708 1.258.708.791 0 1.26-.432 1.26-1.406V9.516h-1.269v3.408c0 .496-.166.69-.542.69-.431 0-.67-.268-.67-.819V9.516h-1.268m6.8359 3.1598c0 .479-.092.992-.57.992-.625 0-.726-.551-.726-1.691 0-1.221.11-1.727.68-1.727.423 0 .616.36.616 1.158h1.213c0-1.295-.542-2.022-1.884-2.022-1.268 0-1.893.616-1.893 2.602 0 2.029.835 2.599 2.002 2.599 1.167 0 1.775-.744 1.775-1.911m2.9023-.1289c-.025.753-.119 1.175-.643 1.175-.505 0-.653-.523-.653-.982v-.193zm-1.296-.754v-.394c0-.579.158-1.15.625-1.15.423 0 .599.322.671.928h1.14c-.045-1.148-.597-1.791-1.792-1.791-1.837 0-1.911 1.415-1.911 2.647 0 1.322.257 2.554 1.965 2.554 1.482 0 1.812-.993 1.812-2.509v-.285" fill="#11100e"/><path d="M48.3877 21.5459c15.505 0 29.631-1.74 40.26-4.593-8.114 4.968-22.995 8.298-40.014 8.298-16.756 0-31.441-3.227-39.634-8.07 10.524 2.718 24.303 4.365 39.388 4.365" fill="#5b90d3"/><path d="M85.5684 41.8691c.269 0 .504.013.504.304 0 .254-.214.286-.419.286h-.401v-.59zm-.611.856h.751c.427 0 .659-.182.659-.566 0-.343-.228-.504-.522-.535l.553-.835h-.294l-.536.811h-.316v-.811h-.295zm2.022-.96c0 .769-.606 1.39-1.362 1.39-.754 0-1.362-.621-1.362-1.39 0-.766.608-1.387 1.362-1.387.756 0 1.362.621 1.362 1.387m-1.362 1.658c.915 0 1.656-.741 1.656-1.658 0-.915-.741-1.655-1.656-1.655-.915 0-1.655.74-1.655 1.655 0 .917.74 1.658 1.655 1.658" fill="#254893"/></g></svg>