{"accessors" : [{"bufferView" : 0, "byteOffset" : 0, "componentType" : 5123, "count" : 36, "type" : "SCALAR", "max" : [29], "min" : [0]}, {"bufferView" : 1, "byteOffset" : 0, "componentType" : 5126, "count" : 30, "type" : "VEC3", "max" : [0.25, 0.25, 0.25], "min" : [-0.25, -0.25, -0.25], "name" : "POSITION"}, {"bufferView" : 1, "byteOffset" : 12, "componentType" : 5126, "count" : 30, "type" : "VEC3", "max" : [1.0000044107437134, 1.0000044107437134, 1.0000044107437134], "min" : [-1.0000044107437134, -1.0000044107437134, -1.0000044107437134], "name" : "NORMAL"}, {"bufferView" : 0, "byteOffset" : 72, "componentType" : 5123, "count" : 10380, "type" : "SCALAR", "max" : [8750], "min" : [0]}, {"bufferView" : 2, "byteOffset" : 0, "componentType" : 5126, "count" : 8751, "type" : "VEC3", "max" : [1.9924073219299316, 17.938194274902344, 2.012439489364624], "min" : [-2.061305522918701, -19.209442138671875, -1.9143861532211304], "name" : "POSITION"}, {"bufferView" : 2, "byteOffset" : 12, "componentType" : 5126, "count" : 8751, "type" : "VEC3", "max" : [1.0000044107437134, 1.0000044107437134, 1.0000044107437134], "min" : [-1.0000044107437134, -1.0000044107437134, -1.0000044107437134], "name" : "NORMAL"}, {"bufferView" : 2, "byteOffset" : 24, "componentType" : 5126, "count" : 8751, "type" : "VEC2", "max" : [0.992946445941925, 0.9848484992980957], "min" : [0.027520326897501945, 0.011406183242797852], "name" : "TEXCOORD_0"}, {"bufferView" : 0, "byteOffset" : 20832, "componentType" : 5123, "count" : 9774, "type" : "SCALAR", "max" : [8193], "min" : [0]}, {"bufferView" : 3, "byteOffset" : 0, "componentType" : 5126, "count" : 8194, "type" : "VEC3", "max" : [1.5439709424972534, 4.895343780517578, 1.5439708232879639], "min" : [-1.6416966915130615, -6.46562385559082, -1.5439708232879639], "name" : "POSITION"}, {"bufferView" : 3, "byteOffset" : 12, "componentType" : 5126, "count" : 8194, "type" : "VEC3", "max" : [1.0000044107437134, 1.0000044107437134, 1.0000044107437134], "min" : [-1.0000044107437134, -1.0000044107437134, -1.0000044107437134], "name" : "NORMAL"}, {"bufferView" : 3, "byteOffset" : 24, "componentType" : 5126, "count" : 8194, "type" : "VEC2", "max" : [0.9825117588043213, 0.9539898037910461], "min" : [0.026723712682724, 0.21794748306274414], "name" : "TEXCOORD_0"}, {"bufferView" : 0, "byteOffset" : 40380, "componentType" : 5123, "count" : 240, "type" : "SCALAR", "max" : [204], "min" : [0]}, {"bufferView" : 4, "byteOffset" : 0, "componentType" : 5126, "count" : 205, "type" : "VEC3", "max" : [0.9786347150802612, 1.2473845481872559, 0.9786347150802612], "min" : [-0.9786347150802612, -0.5509309768676758, -0.9786347150802612], "name" : "POSITION"}, {"bufferView" : 4, "byteOffset" : 12, "componentType" : 5126, "count" : 205, "type" : "VEC3", "max" : [1.0000044107437134, 0.7742700576782227, 1.0000044107437134], "min" : [-1.0000044107437134, 0, -1.0000044107437134], "name" : "NORMAL"}, {"bufferView" : 4, "byteOffset" : 24, "componentType" : 5126, "count" : 205, "type" : "VEC2", "max" : [0.7037428617477417, 0.7896531820297241], "min" : [0.4690258502960205, 0.5797230005264282], "name" : "TEXCOORD_0"}, {"bufferView" : 0, "byteOffset" : 40860, "componentType" : 5123, "count" : 36, "type" : "SCALAR", "max" : [28], "min" : [0]}, {"bufferView" : 5, "byteOffset" : 0, "componentType" : 5126, "count" : 29, "type" : "VEC3", "max" : [0.09281939268112183, 1.0209320783615112, 0.7392774820327759], "min" : [-0.09281939268112183, 0.860688328742981, 0.5182900428771973], "name" : "POSITION"}, {"bufferView" : 5, "byteOffset" : 12, "componentType" : 5126, "count" : 29, "type" : "VEC3", "max" : [0.5773589015007019, 0.7192112803459167, 0.7192112803459167], "min" : [-0.5773589015007019, -0.7192112803459167, -0.7192112803459167], "name" : "NORMAL"}, {"bufferView" : 5, "byteOffset" : 24, "componentType" : 5126, "count" : 29, "type" : "VEC2", "max" : [0, 1], "min" : [0, 1], "name" : "TEXCOORD_0"}, {"bufferView" : 0, "byteOffset" : 40932, "componentType" : 5123, "count" : 2100, "type" : "SCALAR", "max" : [1766], "min" : [0]}, {"bufferView" : 6, "byteOffset" : 0, "componentType" : 5126, "count" : 1767, "type" : "VEC3", "max" : [2.1555471420288086, 12.187166213989258, 2.1334365101211006E-06], "min" : [-2.1555471420288086, 0.3162860870361328, -2.155548095703125], "name" : "POSITION"}, {"bufferView" : 6, "byteOffset" : 12, "componentType" : 5126, "count" : 1767, "type" : "VEC3", "max" : [0.9523659944534302, 1.0000044107437134, 1.0000044107437134], "min" : [-0.9523659944534302, -1.0000044107437134, -1.0000044107437134], "name" : "NORMAL"}, {"bufferView" : 6, "byteOffset" : 24, "componentType" : 5126, "count" : 1767, "type" : "VEC2", "max" : [0.9107115268707275, 0.9550814628601074], "min" : [0.4263990521430969, 0.017013072967529297], "name" : "TEXCOORD_0"}, {"bufferView" : 0, "byteOffset" : 45132, "componentType" : 5123, "count" : 3180, "type" : "SCALAR", "max" : [2645], "min" : [0]}, {"bufferView" : 7, "byteOffset" : 0, "componentType" : 5126, "count" : 2646, "type" : "VEC3", "max" : [2.1555471420288086, 12.353507995605469, 2.155548095703125], "min" : [-2.1555471420288086, 0.3162879943847656, -0.3164067268371582], "name" : "POSITION"}, {"bufferView" : 7, "byteOffset" : 12, "componentType" : 5126, "count" : 2646, "type" : "VEC3", "max" : [0.9876964688301086, 1.0000044107437134, 1.0000044107437134], "min" : [-0.9876964688301086, -1.0000044107437134, -1.0000044107437134], "name" : "NORMAL"}, {"bufferView" : 7, "byteOffset" : 24, "componentType" : 5126, "count" : 2646, "type" : "VEC2", "max" : [0.9107115268707275, 0.9693917036056519], "min" : [0.29951366782188416, 0.010766386985778809], "name" : "TEXCOORD_0"}], "asset" : {"generator" : "Aspose.3D 23.4.0", "version" : "2.0"}, "buffers" : [{"uri" : "data:application/octet-stream;base64,", "byteLength" : 875108}], "bufferViews" : [{"buffer" : 0, "byteOffset" : 0, "byteLength" : 51492, "target" : 34963}, {"buffer" : 0, "byteOffset" : 51496, "byteLength" : 864, "byteStride" : 24, "target" : 34962}, {"buffer" : 0, "byteOffset" : 52364, "byteLength" : 332160, "byteStride" : 32, "target" : 34962}, {"buffer" : 0, "byteOffset" : 384528, "byteLength" : 312768, "byteStride" : 32, "target" : 34962}, {"buffer" : 0, "byteOffset" : 697300, "byteLength" : 7680, "byteStride" : 32, "target" : 34962}, {"buffer" : 0, "byteOffset" : 704984, "byteLength" : 1152, "byteStride" : 32, "target" : 34962}, {"buffer" : 0, "byteOffset" : 706140, "byteLength" : 67200, "byteStride" : 32, "target" : 34962}, {"buffer" : 0, "byteOffset" : 773344, "byteLength" : 101760, "byteStride" : 32, "target" : 34962}], "images" : [{"uri" : "data:image/png;base64,"}], "materials" : [{"name" : "Atlas_401", "pbrMetallicRoughness" : {"baseColorFactor" : [1, 1, 1, 1], "baseColorTexture" : {"index" : 0, "texCoord" : 0}, "metallicFactor" : 0, "roughnessFactor" : 0.5}, "emissiveFactor" : [0, 0, 0], "alphaMode" : "OPAQUE", "doubleSided" : false}, {"name" : "Atlas_401", "pbrMetallicRoughness" : {"baseColorFactor" : [1, 1, 1, 1], "baseColorTexture" : {"index" : 0, "texCoord" : 0}, "metallicFactor" : 0, "roughnessFactor" : 0.5}, "emissiveFactor" : [0, 0, 0], "alphaMode" : "OPAQUE", "doubleSided" : false}, {"name" : "Atlas_401", "pbrMetallicRoughness" : {"baseColorFactor" : [1, 1, 1, 1], "baseColorTexture" : {"index" : 0, "texCoord" : 0}, "metallicFactor" : 0, "roughnessFactor" : 0.5}, "emissiveFactor" : [0, 0, 0], "alphaMode" : "OPAQUE", "doubleSided" : false}, {"name" : "Atlas_401", "pbrMetallicRoughness" : {"baseColorFactor" : [1, 1, 1, 1], "baseColorTexture" : {"index" : 0, "texCoord" : 0}, "metallicFactor" : 0, "roughnessFactor" : 0.5}, "emissiveFactor" : [0, 0, 0], "alphaMode" : "OPAQUE", "doubleSided" : false}, {"name" : "Atlas_401", "pbrMetallicRoughness" : {"baseColorFactor" : [1, 1, 1, 1], "baseColorTexture" : {"index" : 0, "texCoord" : 0}, "metallicFactor" : 0, "roughnessFactor" : 0.5}, "emissiveFactor" : [0, 0, 0], "alphaMode" : "OPAQUE", "doubleSided" : false}], "meshes" : [{"primitives" : [{"attributes" : {"POSITION" : 1, "NORMAL" : 2}, "indices" : 0, "mode" : 4}]}, {"primitives" : [{"attributes" : {"POSITION" : 4, "NORMAL" : 5, "TEXCOORD_0" : 6}, "indices" : 3, "material" : 0, "mode" : 4}]}, {"primitives" : [{"attributes" : {"POSITION" : 8, "NORMAL" : 9, "TEXCOORD_0" : 10}, "indices" : 7, "material" : 1, "mode" : 4}]}, {"primitives" : [{"attributes" : {"POSITION" : 12, "NORMAL" : 13, "TEXCOORD_0" : 14}, "indices" : 11, "mode" : 4}]}, {"primitives" : [{"attributes" : {"POSITION" : 16, "NORMAL" : 17, "TEXCOORD_0" : 18}, "indices" : 15, "material" : 2, "mode" : 4}]}, {"primitives" : [{"attributes" : {"POSITION" : 20, "NORMAL" : 21, "TEXCOORD_0" : 22}, "indices" : 19, "material" : 3, "mode" : 4}]}, {"primitives" : [{"attributes" : {"POSITION" : 24, "NORMAL" : 25, "TEXCOORD_0" : 26}, "indices" : 23, "material" : 4, "mode" : 4}]}], "nodes" : [{"matrix" : [1, 0, 0, 0, 0, 1, 0, 0, 0, 0, 1, 0, 0, -9.104968070983887, 0, 1], "mesh" : 1, "name" : "1st_stage"}, {"matrix" : [1, 0, 0, 0, 0, 1, 0, 0, 0, 0, 1, 0, 0, 5.4462738037109375, 0, 1], "mesh" : 3, "name" : "adapter"}, {"matrix" : [0.5877852172312643, 0, -0.8090170334502957, 0, 0, 1, 0, 0, 0.8090170334502957, 0, 0.5877852172312643, 0, 0, -5.465926170349121, 0, 1], "mesh" : 4, "name" : "Cylinder.004"}, {"matrix" : [1, 0, 0, 0, 0, 1, 0, 0, 0, 0, 1, 0, 0, 4.014570236206055, 0, 1], "mesh" : 5, "name" : "fairing_back"}, {"matrix" : [1, 0, 0, 0, 0, 1, 0, 0, 0, 0, 1, 0, 0, 4.014570236206055, 0, 1], "mesh" : 6, "name" : "fairing_front"}, {"children" : [1, 2, 3, 4], "matrix" : [1, 0, 0, 0, 0, 1, 0, 0, 0, 0, 1, 0, 0, 11.943294525146484, 0, 1], "mesh" : 2, "name" : "2nd_stage_centaur"}, {"children" : [0, 5], "mesh" : 0, "name" : "_root"}], "samplers" : [{"magFilter" : 9729, "minFilter" : 9729, "wrapS" : 10497, "wrapT" : 10497}], "scene" : 0, "scenes" : [{"nodes" : [6]}], "textures" : [{"sampler" : 0, "source" : 0, "name" : ""}]}