<?xml version="1.0" encoding="iso-8859-1"?>
<!-- Uploaded to: SVG Repo, www.svgrepo.com, Generator: SVG Repo Mixer Tools -->
<svg version="1.1" id="Layer_1" xmlns="http://www.w3.org/2000/svg" xmlns:xlink="http://www.w3.org/1999/xlink" 
	 viewBox="0 0 512 512" xml:space="preserve">
<g>
	<path style="fill:#959CB5;" d="M267.039,283.366c2.285,0,4.57,0.872,6.314,2.617l39.291,39.3c3.489,3.489,3.489,9.141,0,12.63
		c-3.489,3.489-9.141,3.489-12.63,0l-39.291-39.3c-3.489-3.489-3.489-9.141,0-12.63
		C262.468,284.239,264.754,283.366,267.039,283.366z"/>
	<path style="fill:#959CB5;" d="M292.306,258.108c2.285,0,4.57,0.872,6.314,2.617l39.291,39.291c3.489,3.489,3.489,9.141,0,12.63
		c-3.489,3.489-9.141,3.489-12.63,0l-39.291-39.291c-3.489-3.489-3.489-9.141,0-12.63
		C287.735,258.981,290.021,258.108,292.306,258.108z"/>
</g>
<path style="fill:#7873DC;" d="M509.384,458.861l-165.86-165.859c-3.488-3.488-9.143-3.488-12.631,0l-37.891,37.891
	c-3.488,3.488-3.488,9.143,0,12.631l165.86,165.859c3.488,3.488,9.143,3.488,12.631,0l37.891-37.891
	C512.872,468.004,512.872,462.349,509.384,458.861z"/>
<g>
	
		<rect x="392.197" y="365.399" transform="matrix(-0.7071 -0.7071 0.7071 -0.7071 401.1298 968.3984)" style="fill:#AFB9D2;" width="17.86" height="71.448"/>
	<path style="fill:#AFB9D2;" d="M458.862,509.383c3.488,3.489,9.142,3.489,12.63,0l37.891-37.891c3.488-3.489,3.488-9.142,0-12.631
		l-6.287-6.287l-50.519,50.524L458.862,509.383z"/>
	<path style="fill:#AFB9D2;" d="M293.003,343.524l6.318,6.318l50.522-50.522l-6.318-6.318c-3.482-3.482-9.122-3.483-12.611-0.013
		l-37.926,37.926C289.518,334.406,289.521,340.042,293.003,343.524z"/>
</g>
<g>
	<path style="fill:#959CB5;" d="M244.961,228.634c-2.285,0-4.57-0.872-6.314-2.617l-39.291-39.3c-3.489-3.489-3.489-9.141,0-12.63
		c3.489-3.489,9.141-3.489,12.63,0l39.291,39.3c3.489,3.489,3.489,9.141,0,12.63C249.532,227.761,247.246,228.634,244.961,228.634z"
		/>
	<path style="fill:#959CB5;" d="M219.694,253.892c-2.285,0-4.57-0.872-6.314-2.617l-39.291-39.291c-3.489-3.489-3.489-9.141,0-12.63
		c3.489-3.489,9.141-3.489,12.63,0l39.291,39.291c3.489,3.489,3.489,9.141,0,12.63C224.265,253.019,221.979,253.892,219.694,253.892
		z"/>
</g>
<path style="fill:#7873DC;" d="M2.616,53.139l165.86,165.86c3.488,3.488,9.143,3.488,12.631,0l37.891-37.891
	c3.488-3.488,3.488-9.143,0-12.631L53.138,2.617c-3.488-3.488-9.143-3.488-12.631,0L2.616,40.508
	C-0.872,43.996-0.872,49.651,2.616,53.139z"/>
<g>
	
		<rect x="101.939" y="75.151" transform="matrix(0.7071 0.7071 -0.7071 0.7071 110.8734 -45.9215)" style="fill:#AFB9D2;" width="17.86" height="71.448"/>
	<path style="fill:#AFB9D2;" d="M53.138,2.617c-3.488-3.489-9.142-3.489-12.63,0L2.616,40.508c-3.488,3.489-3.488,9.142,0,12.631
		l6.287,6.287L59.422,8.901L53.138,2.617z"/>
	<path style="fill:#AFB9D2;" d="M218.997,168.476l-6.318-6.318l-50.522,50.522l6.318,6.318c3.482,3.482,9.122,3.483,12.611,0.013
		l37.926-37.926C222.481,177.594,222.478,171.958,218.997,168.476z"/>
</g>
<path style="fill:#C7CFE2;" d="M188.531,297.315l-36.808,36.808c-3.488,3.488-3.488,9.143,0,12.631l12.631,12.631
	c3.488,3.488,9.143,3.488,12.631,0l36.808-36.808L188.531,297.315z"/>
<path style="fill:#D5DCED;" d="M204.545,347.52l-40.956-40.956c-3.488-3.488-3.488-9.143,0-12.631l84.117-84.117
	c3.488-3.488,9.143-3.488,12.631,0l40.956,40.956c3.488,3.488,3.488,9.143,0,12.631l-84.117,84.117
	C213.687,351.008,208.032,351.008,204.545,347.52z"/>
<path style="fill:#C7CFE2;" d="M282.347,282.348l18.945-18.946c3.489-3.488,3.489-9.142,0-12.63l-40.956-40.957
	c-3.488-3.488-9.142-3.488-12.631,0l-18.945,18.946L282.347,282.348z"/>
</svg>