<?xml version="1.0" encoding="iso-8859-1"?>
<!-- Uploaded to: SVG Repo, www.svgrepo.com, Generator: SVG Repo Mixer Tools -->
<svg height="800px" width="800px" version="1.1" id="Layer_1" xmlns="http://www.w3.org/2000/svg" xmlns:xlink="http://www.w3.org/1999/xlink" 
	 viewBox="0 0 512 512" xml:space="preserve">
<g transform="translate(1 1)">
	<polygon style="fill:#FD9808;" points="417.133,502.467 502.467,502.467 502.467,434.2 417.133,434.2 	"/>
	<polygon style="fill:#FFFFFF;" points="348.867,502.467 434.2,502.467 434.2,434.2 348.867,434.2 	"/>
	<polygon style="fill:#FFDD09;" points="374.467,502.467 476.867,502.467 476.867,434.2 374.467,434.2 	"/>
	<polygon style="fill:#FD9808;" points="75.8,502.467 161.133,502.467 161.133,434.2 75.8,434.2 	"/>
	<polygon style="fill:#FFFFFF;" points="7.533,502.467 92.867,502.467 92.867,434.2 7.533,434.2 	"/>
	<polygon style="fill:#FFDD09;" points="33.133,502.467 135.533,502.467 135.533,434.2 33.133,434.2 	"/>
	<polygon style="fill:#FD9808;" points="75.8,84.333 161.133,84.333 161.133,16.067 75.8,16.067 	"/>
	<polygon style="fill:#FFFFFF;" points="7.533,84.333 92.867,84.333 92.867,16.067 7.533,16.067 	"/>
	<polygon style="fill:#FFDD09;" points="33.133,84.333 135.533,84.333 135.533,16.067 33.133,16.067 	"/>
	<polygon style="fill:#FD9808;" points="417.133,84.333 502.467,84.333 502.467,16.067 417.133,16.067 	"/>
	<polygon style="fill:#FFFFFF;" points="348.867,84.333 434.2,84.333 434.2,16.067 348.867,16.067 	"/>
	<g>
		<polygon style="fill:#FFDD09;" points="374.467,84.333 476.867,84.333 476.867,16.067 374.467,16.067 		"/>
		<polygon style="fill:#FFDD09;" points="297.667,425.667 212.333,425.667 229.4,383 280.6,383 		"/>
		<polygon style="fill:#FFDD09;" points="212.333,92.867 297.667,92.867 297.667,7.533 212.333,7.533 		"/>
	</g>
	<polygon style="fill:#FD9808;" points="212.333,502.467 297.667,502.467 297.667,425.667 212.333,425.667 	"/>
	<path style="fill:#FFDD09;" d="M286.573,331.8H224.28c-15.36,0-28.16-12.8-28.16-28.16V172.227c0-15.36,12.8-28.16,28.16-28.16
		h62.293c15.36,0,28.16,12.8,28.16,28.16v130.56C314.733,319,301.933,331.8,286.573,331.8"/>
	<g>
		<polygon style="fill:#FD9808;" points="229.4,297.667 280.6,297.667 280.6,178.2 229.4,178.2 		"/>
		<polygon style="fill:#FD9808;" points="229.4,144.067 280.6,144.067 280.6,92.867 229.4,92.867 		"/>
		<polygon style="fill:#FD9808;" points="229.4,383 280.6,383 280.6,331.8 229.4,331.8 		"/>
	</g>
	<path d="M286.573,340.333H224.28c-20.48,0-36.693-16.213-36.693-36.693V172.227c0-20.48,16.213-36.693,36.693-36.693h62.293
		c20.48,0,36.693,16.213,36.693,36.693v130.56C323.267,324.12,307.053,340.333,286.573,340.333z M223.427,152.6
		c-11.093,0-19.627,8.533-19.627,19.627v130.56c0,11.093,8.533,19.627,19.627,19.627h62.293c11.093,0,19.627-8.533,19.627-19.627
		v-130.56c0-11.093-8.533-19.627-19.627-19.627H223.427z"/>
	<path d="M280.6,306.2h-51.2c-5.12,0-8.533-3.413-8.533-8.533V178.2c0-5.12,3.413-8.533,8.533-8.533h51.2
		c5.12,0,8.533,3.413,8.533,8.533v119.467C289.133,302.787,285.72,306.2,280.6,306.2z M237.933,289.133h34.133v-102.4h-34.133
		V289.133z"/>
	<path d="M280.6,246.467h-51.2c-5.12,0-8.533-3.413-8.533-8.533c0-5.12,3.413-8.533,8.533-8.533h51.2
		c5.12,0,8.533,3.413,8.533,8.533C289.133,243.053,285.72,246.467,280.6,246.467z"/>
	<path d="M280.6,152.6h-51.2c-5.12,0-8.533-3.413-8.533-8.533v-51.2c0-5.12,3.413-8.533,8.533-8.533h51.2
		c5.12,0,8.533,3.413,8.533,8.533v51.2C289.133,149.187,285.72,152.6,280.6,152.6z M237.933,135.533h34.133V101.4h-34.133V135.533z"
		/>
	<path d="M280.6,391.533h-51.2c-5.12,0-8.533-3.413-8.533-8.533v-51.2c0-5.12,3.413-8.533,8.533-8.533h51.2
		c5.12,0,8.533,3.413,8.533,8.533V383C289.133,388.12,285.72,391.533,280.6,391.533z M237.933,374.467h34.133v-34.133h-34.133
		V374.467z"/>
	<path d="M297.667,434.2h-85.333c-2.56,0-5.12-1.707-6.827-3.413c-1.707-1.707-1.707-5.12-0.853-7.68l17.067-42.667
		c1.707-3.413,4.267-5.12,7.68-5.12h51.2c3.413,0,6.827,1.707,7.68,5.12l17.067,42.667c0.853,2.56,0.853,5.973-0.853,7.68
		C302.787,432.493,300.227,434.2,297.667,434.2z M225.133,417.133h59.733l-10.24-25.6h-39.253L225.133,417.133z"/>
	<path d="M297.667,101.4h-85.333c-5.12,0-8.533-3.413-8.533-8.533V7.533c0-5.12,3.413-8.533,8.533-8.533h85.333
		c5.12,0,8.533,3.413,8.533,8.533v85.333C306.2,97.987,302.787,101.4,297.667,101.4z M220.867,84.333h68.267V16.067h-68.267V84.333z
		"/>
	<path d="M297.667,511h-85.333c-5.12,0-8.533-3.413-8.533-8.533v-76.8c0-5.12,3.413-8.533,8.533-8.533h85.333
		c5.12,0,8.533,3.413,8.533,8.533v76.8C306.2,507.587,302.787,511,297.667,511z M220.867,493.933h68.267V434.2h-68.267V493.933z"/>
	<path d="M212.333,58.733h-51.2c-5.12,0-8.533-3.413-8.533-8.533s3.413-8.533,8.533-8.533h51.2c5.12,0,8.533,3.413,8.533,8.533
		S217.453,58.733,212.333,58.733z"/>
	<path d="M161.133,92.867H7.533C2.413,92.867-1,89.453-1,84.333V16.067c0-5.12,3.413-8.533,8.533-8.533h153.6
		c5.12,0,8.533,3.413,8.533,8.533v68.267C169.667,89.453,166.253,92.867,161.133,92.867z M16.067,75.8H152.6V24.6H16.067V75.8z"/>
	<path d="M348.867,58.733h-51.2c-5.12,0-8.533-3.413-8.533-8.533s3.413-8.533,8.533-8.533h51.2c5.12,0,8.533,3.413,8.533,8.533
		S353.987,58.733,348.867,58.733z"/>
	<path d="M502.467,92.867h-153.6c-5.12,0-8.533-3.413-8.533-8.533V16.067c0-5.12,3.413-8.533,8.533-8.533h153.6
		c5.12,0,8.533,3.413,8.533,8.533v68.267C511,89.453,507.587,92.867,502.467,92.867z M357.4,75.8h136.533V24.6H357.4V75.8z"/>
	<path d="M212.333,476.867h-51.2c-5.12,0-8.533-3.413-8.533-8.533c0-5.12,3.413-8.533,8.533-8.533h51.2
		c5.12,0,8.533,3.413,8.533,8.533C220.867,473.453,217.453,476.867,212.333,476.867z"/>
	<path d="M161.133,511H7.533C2.413,511-1,507.587-1,502.467V434.2c0-5.12,3.413-8.533,8.533-8.533h153.6
		c5.12,0,8.533,3.413,8.533,8.533v68.267C169.667,507.587,166.253,511,161.133,511z M16.067,493.933H152.6v-51.2H16.067V493.933z"/>
	<path d="M348.867,476.867h-51.2c-5.12,0-8.533-3.413-8.533-8.533c0-5.12,3.413-8.533,8.533-8.533h51.2
		c5.12,0,8.533,3.413,8.533,8.533C357.4,473.453,353.987,476.867,348.867,476.867z"/>
	<path d="M502.467,511h-153.6c-5.12,0-8.533-3.413-8.533-8.533V434.2c0-5.12,3.413-8.533,8.533-8.533h153.6
		c5.12,0,8.533,3.413,8.533,8.533v68.267C511,507.587,507.587,511,502.467,511z M357.4,493.933h136.533v-51.2H357.4V493.933z"/>
	<path d="M58.733,511c-5.12,0-8.533-3.413-8.533-8.533V434.2c0-5.12,3.413-8.533,8.533-8.533s8.533,3.413,8.533,8.533v68.267
		C67.267,507.587,63.853,511,58.733,511z"/>
	<path d="M109.933,511c-5.12,0-8.533-3.413-8.533-8.533V434.2c0-5.12,3.413-8.533,8.533-8.533s8.533,3.413,8.533,8.533v68.267
		C118.467,507.587,115.053,511,109.933,511z"/>
	<path d="M400.067,511c-5.12,0-8.533-3.413-8.533-8.533V434.2c0-5.12,3.413-8.533,8.533-8.533s8.533,3.413,8.533,8.533v68.267
		C408.6,507.587,405.187,511,400.067,511z"/>
	<path d="M451.267,511c-5.12,0-8.533-3.413-8.533-8.533V434.2c0-5.12,3.413-8.533,8.533-8.533s8.533,3.413,8.533,8.533v68.267
		C459.8,507.587,456.387,511,451.267,511z"/>
	<path d="M255,511c-5.12,0-8.533-3.413-8.533-8.533V459.8c0-5.12,3.413-8.533,8.533-8.533s8.533,3.413,8.533,8.533v42.667
		C263.533,507.587,260.12,511,255,511z"/>
	<path d="M255,58.733c-5.12,0-8.533-3.413-8.533-8.533V7.533C246.467,2.413,249.88-1,255-1s8.533,3.413,8.533,8.533V50.2
		C263.533,55.32,260.12,58.733,255,58.733z"/>
	<path d="M161.133,476.867H7.533c-5.12,0-8.533-3.413-8.533-8.533c0-5.12,3.413-8.533,8.533-8.533h153.6
		c5.12,0,8.533,3.413,8.533,8.533C169.667,473.453,166.253,476.867,161.133,476.867z"/>
	<path d="M502.467,476.867h-153.6c-5.12,0-8.533-3.413-8.533-8.533c0-5.12,3.413-8.533,8.533-8.533h153.6
		c5.12,0,8.533,3.413,8.533,8.533C511,473.453,507.587,476.867,502.467,476.867z"/>
	<path d="M58.733,92.867c-5.12,0-8.533-3.413-8.533-8.533V16.067c0-5.12,3.413-8.533,8.533-8.533s8.533,3.413,8.533,8.533v68.267
		C67.267,89.453,63.853,92.867,58.733,92.867z"/>
	<path d="M109.933,92.867c-5.12,0-8.533-3.413-8.533-8.533V16.067c0-5.12,3.413-8.533,8.533-8.533s8.533,3.413,8.533,8.533v68.267
		C118.467,89.453,115.053,92.867,109.933,92.867z"/>
	<path d="M400.067,92.867c-5.12,0-8.533-3.413-8.533-8.533V16.067c0-5.12,3.413-8.533,8.533-8.533s8.533,3.413,8.533,8.533v68.267
		C408.6,89.453,405.187,92.867,400.067,92.867z"/>
	<path d="M451.267,92.867c-5.12,0-8.533-3.413-8.533-8.533V16.067c0-5.12,3.413-8.533,8.533-8.533s8.533,3.413,8.533,8.533v68.267
		C459.8,89.453,456.387,92.867,451.267,92.867z"/>
	<path d="M161.133,58.733H7.533C2.413,58.733-1,55.32-1,50.2s3.413-8.533,8.533-8.533h153.6c5.12,0,8.533,3.413,8.533,8.533
		S166.253,58.733,161.133,58.733z"/>
	<path d="M502.467,58.733h-153.6c-5.12,0-8.533-3.413-8.533-8.533s3.413-8.533,8.533-8.533h153.6c5.12,0,8.533,3.413,8.533,8.533
		S507.587,58.733,502.467,58.733z"/>
	<path d="M161.133,383c0,5.12-3.413,8.533-8.533,8.533c-5.12,0-8.533-3.413-8.533-8.533c0-5.12,3.413-8.533,8.533-8.533
		C157.72,374.467,161.133,377.88,161.133,383"/>
	<path d="M41.667,272.067c0,5.12-3.413,8.533-8.533,8.533s-8.533-3.413-8.533-8.533s3.413-8.533,8.533-8.533
		S41.667,266.947,41.667,272.067"/>
	<path d="M357.4,144.067c0-5.12,3.413-8.533,8.533-8.533s8.533,3.413,8.533,8.533c0,5.12-3.413,8.533-8.533,8.533
		S357.4,149.187,357.4,144.067"/>
	<path d="M459.8,246.467c0-5.12,3.413-8.533,8.533-8.533c5.12,0,8.533,3.413,8.533,8.533c0,5.12-3.413,8.533-8.533,8.533
		C463.213,255,459.8,251.587,459.8,246.467"/>
	<path d="M84.333,212.333c-5.12,0-8.533-3.413-8.533-8.533c0-14.507-11.093-25.6-25.6-25.6c-5.12,0-8.533-3.413-8.533-8.533
		c0-5.12,3.413-8.533,8.533-8.533c14.507,0,25.6-11.093,25.6-25.6c0-5.12,3.413-8.533,8.533-8.533s8.533,3.413,8.533,8.533
		c0,14.507,11.093,25.6,25.6,25.6c5.12,0,8.533,3.413,8.533,8.533c0,5.12-3.413,8.533-8.533,8.533c-14.507,0-25.6,11.093-25.6,25.6
		C92.867,208.92,89.453,212.333,84.333,212.333z M75.8,169.667c3.413,2.56,5.973,5.12,8.533,8.533
		c2.56-3.413,5.12-5.973,8.533-8.533c-3.413-2.56-5.973-5.12-8.533-8.533C81.773,164.547,79.213,167.107,75.8,169.667z"/>
	<path d="M417.133,377.88l-37.547-37.547l37.547-37.547l37.547,37.547L417.133,377.88z M403.48,340.333l13.653,13.653l13.653-13.653
		l-13.653-13.653L403.48,340.333z"/>
	<path d="M417.133,323.267c-5.12,0-8.533-3.413-8.533-8.533v-17.067c0-5.12,3.413-8.533,8.533-8.533s8.533,3.413,8.533,8.533v17.067
		C425.667,319.853,422.253,323.267,417.133,323.267z"/>
	<path d="M459.8,348.867h-17.067c-5.12,0-8.533-3.413-8.533-8.533c0-5.12,3.413-8.533,8.533-8.533H459.8
		c5.12,0,8.533,3.413,8.533,8.533C468.333,345.453,464.92,348.867,459.8,348.867z"/>
	<path d="M417.133,391.533c-5.12,0-8.533-3.413-8.533-8.533v-17.067c0-5.12,3.413-8.533,8.533-8.533s8.533,3.413,8.533,8.533V383
		C425.667,388.12,422.253,391.533,417.133,391.533z"/>
	<path d="M391.533,348.867h-17.067c-5.12,0-8.533-3.413-8.533-8.533c0-5.12,3.413-8.533,8.533-8.533h17.067
		c5.12,0,8.533,3.413,8.533,8.533C400.067,345.453,396.653,348.867,391.533,348.867z"/>
</g>
</svg>