<?xml version="1.0" encoding="iso-8859-1"?>
<!-- Uploaded to: SVG Repo, www.svgrepo.com, Generator: SVG Repo Mixer Tools -->
<svg version="1.1" id="Layer_1" xmlns="http://www.w3.org/2000/svg" xmlns:xlink="http://www.w3.org/1999/xlink" 
	 viewBox="0 0 290.51 290.51" xml:space="preserve">
<g>
	<g>
		<path style="fill:#F9BA48;" d="M37.485,105.427h46.857c5.154,0,9.371,4.217,9.371,9.371v37.485c0,5.154-4.217,9.371-9.371,9.371
			H37.485V105.427z"/>
		<path style="fill:#F9BA48;" d="M253.026,161.655h-9.371c-5.154,0-9.371-4.217-9.371-9.371v-37.485
			c0-5.154,4.217-9.371,9.371-9.371h9.371V161.655z"/>
		<path style="fill:#333333;" d="M276.454,264.74H255.28l-30.002-37.504c17.913-0.197,32.434-14.816,32.434-32.781V72.628
			c0-18.087-14.718-32.8-32.8-32.8h-4.686V21.085h-51.542V2.343h-9.371v18.743h-28.114V2.343h-9.371v18.743H70.285v18.743h-4.686
			c-18.082,0-32.8,14.713-32.8,32.8v121.827c0,17.965,14.521,32.584,32.434,32.781L35.232,264.74H14.057
			C6.269,264.74,0,272.428,0,278.797v9.371h56.228v-9.371c0-5.117-4.077-11.016-9.704-13.167l30.7-38.376h63.345v37.485h-9.371
			c-7.788,0-14.057,7.689-14.057,14.057v9.371h56.228v-9.371c0-6.368-6.269-14.057-14.057-14.057h-9.371v-37.485h63.345l30.7,38.376
			c-5.627,2.151-9.704,8.05-9.704,13.167v9.371h56.228v-9.371C290.511,272.428,284.242,264.74,276.454,264.74z M163.998,278.797
			h-37.485c0-1.471,2.352-4.686,4.686-4.686h28.114C161.646,274.112,163.998,277.326,163.998,278.797z M248.34,156.97h-4.686
			c-2.586,0-4.686-2.104-4.686-4.686v-37.485c0-2.582,2.099-4.686,4.686-4.686h4.686V156.97z M79.656,30.457h42.171h46.857h42.171
			v9.371H79.656V30.457z M168.684,147.598c-12.918,0-23.428-10.51-23.428-23.428s10.51-23.428,23.428-23.428
			s23.428,10.51,23.428,23.428C192.112,137.088,181.602,147.598,168.684,147.598z M89.028,138.227H42.171v-9.371h46.857V138.227z
			 M89.028,147.598v4.686c0,2.582-2.099,4.686-4.686,4.686H42.171v-9.371h46.857V147.598z M89.028,119.484H42.171v-9.371h42.171
			c2.586,0,4.686,2.104,4.686,4.686V119.484z M9.371,278.797c0-1.471,2.352-4.686,4.686-4.686h28.114
			c2.333,0,4.686,3.214,4.686,4.686H9.371z M149.941,217.883h-9.371H65.599c-12.918,0-23.428-10.51-23.428-23.428v-28.114h42.171
			c7.75,0,14.057-6.307,14.057-14.057v-37.485c0-7.75-6.307-14.057-14.057-14.057H42.171V72.628
			c0-12.918,10.51-23.428,23.428-23.428h4.686h93.713v42.546c-15.866,2.287-28.114,15.936-28.114,32.425
			s12.248,30.138,28.114,32.425v61.289h-14.057V217.883z M173.37,156.595c15.866-2.287,28.114-15.936,28.114-32.425
			s-12.248-30.138-28.114-32.425V49.199h46.857h4.686c12.918,0,23.428,10.51,23.428,23.428v28.114h-4.686
			c-7.75,0-14.057,6.307-14.057,14.057v37.485c0,7.75,6.307,14.057,14.057,14.057h4.686v28.114c0,12.918-10.51,23.428-23.428,23.428
			H173.37V156.595z M243.655,278.797c0-1.471,2.352-4.686,4.686-4.686h28.114c2.333,0,4.686,3.214,4.686,4.686H243.655z"/>
		<rect x="93.713" y="58.571" style="fill:#333333;" width="46.857" height="9.371"/>
		<rect x="74.971" y="58.571" style="fill:#333333;" width="9.371" height="9.371"/>
		<rect x="56.228" y="58.571" style="fill:#333333;" width="9.371" height="9.371"/>
	</g>
</g>
</svg>