<!DOCTYPE svg PUBLIC "-//W3C//DTD SVG 1.1//EN" "http://www.w3.org/Graphics/SVG/1.1/DTD/svg11.dtd">
<!-- Uploaded to: SVG Repo, www.svgrepo.com, Transformed by: SVG Repo Mixer Tools -->
<svg height="800px" width="800px" version="1.1" id="Layer_1" xmlns="http://www.w3.org/2000/svg" xmlns:xlink="http://www.w3.org/1999/xlink" viewBox="0 0 512 512" xml:space="preserve" fill="#000000" stroke="#000000">
<g id="SVGRepo_bgCarrier" stroke-width="0"/>
<g id="SVGRepo_tracerCarrier" stroke-linecap="round" stroke-linejoin="round"/>
<g id="SVGRepo_iconCarrier"> <g> <polygon style="fill:#2C5A7E;" points="480,117.337 259.771,117.337 237.077,74.672 225.731,53.335 10.669,53.335 10.669,458.665 501.331,458.665 501.331,117.337 "/> <polygon style="fill:#F3DDB9;" points="259.771,117.337 480,117.337 480,74.672 237.077,74.672 "/> </g> <g> <path style="fill:#ffffff;" d="M501.331,106.668h-10.662V74.672c0-5.892-4.777-10.669-10.669-10.669H243.489l-8.338-15.678 c-1.852-3.482-5.476-5.66-9.42-5.66H10.669C4.776,42.666,0,47.445,0,53.335v405.33c0,5.892,4.776,10.669,10.669,10.669h490.663 c5.892,0,10.669-4.776,10.669-10.669V117.337C512,111.444,507.225,106.668,501.331,106.668z M469.332,85.341v21.327h-203.15 l-11.343-21.327H469.332z M490.663,447.996H21.337V64.004h197.984l8.329,15.66c0.028,0.052,0.054,0.105,0.083,0.156l22.619,42.527 c1.852,3.482,5.475,5.66,9.419,5.66h230.891L490.663,447.996L490.663,447.996z"/> <path style="fill:#ffffff;" d="M163.304,106.676h0.253c5.891,0,10.669-4.776,10.669-10.669c0-5.89-4.777-10.669-10.669-10.669 h-0.253c-5.892,0-10.669,4.779-10.669,10.669C152.635,101.901,157.411,106.676,163.304,106.676z"/> <path style="fill:#ffffff;" d="M143.328,96.003c0-5.89-4.775-10.669-10.669-10.669H53.335c-5.892,0-10.669,4.779-10.669,10.669 c0,5.892,4.776,10.669,10.669,10.669h79.324C138.551,106.672,143.328,101.897,143.328,96.003z"/> <path style="fill:#ffffff;" d="M173.312,321.909c3.201,0,5.013-3.411,5.013-7.357c0-3.415-1.494-7.147-5.013-7.147h-37.973 c-3.626,0-7.255,1.705-7.255,5.116v67.734c0,3.417,3.627,5.122,7.255,5.122h37.973c3.52,0,5.013-3.732,5.013-7.147 c0-3.946-1.813-7.357-5.013-7.357h-28.587V352.74h16c3.521,0,5.012-3.417,5.012-6.292c0-3.417-1.814-6.508-5.012-6.508h-16v-18.028 h28.587V321.909z"/> <path style="fill:#ffffff;" d="M76.482,327.243c0-3.307,3.092-6.403,10.664-6.403c8.747,0,10.774,4.055,14.615,4.055 c4.691,0,6.611-5.864,6.611-8.745c0-8.321-15.572-9.39-21.228-9.39c-13.332,0-27.306,6.082-27.306,22.083 c0,24.962,33.812,22.721,33.812,35.626c0,5.122-5.441,7.039-10.347,7.039c-9.92,0-13.12-7.889-18.134-7.889 c-4.052,0-7.253,5.328-7.253,8.957c0,7.039,11.733,13.867,25.705,13.867c15.469,0,26.669-8.321,26.669-23.681 C110.294,335.885,76.482,337.912,76.482,327.243z"/> <path style="fill:#ffffff;" d="M213.035,196.919c0-3.52-1.491-7.361-5.011-7.361h-46.079c-3.521,0-5.015,3.843-5.015,7.361 c0,4.053,1.814,7.575,5.015,7.575h14.72v57.919c0,3.411,4.159,5.118,8.321,5.118c4.159,0,8.321-1.707,8.321-5.118v-57.919h14.72 C211.221,204.494,213.035,200.972,213.035,196.919z"/> <path style="fill:#ffffff;" d="M449.067,307.405h-46.08c-3.521,0-5.012,3.841-5.012,7.359c0,4.055,1.814,7.575,5.012,7.575h14.721 v57.915c0,3.417,4.159,5.122,8.321,5.122c4.159,0,8.321-1.705,8.321-5.122v-57.915h14.72c3.198,0,5.012-3.52,5.012-7.575 C454.08,311.245,452.587,307.405,449.067,307.405z"/> <path style="fill:#ffffff;" d="M381.033,321.909c3.201,0,5.013-3.411,5.013-7.357c0-3.415-1.494-7.147-5.013-7.147h-37.972 c-3.626,0-7.254,1.705-7.254,5.116v67.734c0,3.417,3.626,5.122,7.254,5.122h37.972c3.52,0,5.013-3.732,5.013-7.147 c0-3.946-1.813-7.357-5.013-7.357h-28.585V352.74h15.999c3.52,0,5.012-3.417,5.012-6.292c0-3.417-1.812-6.508-5.012-6.508h-15.999 v-18.028h28.585V321.909z"/> <path style="fill:#ffffff;" d="M353.258,214.622v-0.529c0-17.92-11.093-24.536-25.173-24.536h-22.079 c-3.735,0-6.187,2.348-6.187,5.013v67.842c0,3.411,4.158,5.118,8.317,5.118c4.161,0,8.321-1.707,8.321-5.118v-23.042h10.559 C341.737,239.371,353.258,232.545,353.258,214.622z M336.619,215.904c0,7.256-3.627,10.667-9.602,10.667h-10.559v-22.509h10.559 c5.974,0,9.602,3.417,9.602,10.669V215.904z"/> <path style="fill:#ffffff;" d="M279.573,242.998V214.73c0-18.345-11.519-25.174-26.24-25.174c-14.721,0-26.133,6.828-26.133,25.174 v28.268c0,18.347,11.412,25.174,26.133,25.174C268.054,268.172,279.573,261.346,279.573,242.998z M262.934,242.998 c0,7.361-3.627,10.664-9.601,10.664c-5.972,0-9.493-3.303-9.493-10.664V214.73c0-7.359,3.521-10.669,9.493-10.669 c5.973,0,9.601,3.309,9.601,10.669V242.998z"/> <path style="fill:#ffffff;" d="M304.468,351.882c7.467-2.877,12.908-9.704,12.908-21.652c0-17.387-11.627-22.826-26.239-22.826 h-22.081c-3.092,0-5.12,2.348-5.12,5.011v67.838c0,3.417,4.16,5.122,8.321,5.122c4.161,0,8.318-1.705,8.318-5.122V354.55h7.042 l14.612,28.372c1.174,2.24,3.201,3.096,5.333,3.096c4.907,0,10.453-4.484,10.453-8.644c0-0.533-0.107-1.279-0.533-1.917 L304.468,351.882z M291.137,341.749h-10.562v-19.84h10.562c5.972,0,9.598,2.453,9.598,9.921 C300.735,339.296,297.109,341.749,291.137,341.749z"/> <path style="fill:#ffffff;" d="M219.798,321.909c9.064,0,9.385,6.826,9.491,9.6c0.212,3.843,3.84,5.013,8.321,5.013 c5.653,0,8.321-1.494,8.321-7.891c0-13.55-11.521-21.228-26.772-21.228c-13.976,0-25.601,6.826-25.601,25.174v28.268 c0,18.345,11.625,25.174,25.601,25.174c15.251,0,26.772-8.108,26.772-22.296c0-6.399-2.667-7.895-8.426-7.895 c-4.265,0-7.895,1.067-8.214,5.017c-0.319,4.158-0.852,10.662-9.387,10.662c-6.185,0-9.705-3.411-9.705-10.662v-28.268 C210.197,325.325,213.718,321.909,219.798,321.909z"/> </g> </g>
</svg>