<?xml version="1.0" encoding="iso-8859-1"?>
<!-- Uploaded to: SVG Repo, www.svgrepo.com, Generator: SVG Repo Mixer Tools -->
<svg height="800px" width="800px" version="1.1" id="Layer_1" xmlns="http://www.w3.org/2000/svg" xmlns:xlink="http://www.w3.org/1999/xlink" 
	 viewBox="0 0 512 512" xml:space="preserve">
<path style="fill:#4A7DBA;" d="M266.396,21.054L256,11.131l-10.396,9.924c-21.85,20.856-34.126,49.145-34.126,78.642v334.387
	c0,14.221,8.172,27.176,21.005,33.301L256,478.609l23.516-11.223c12.833-6.126,21.005-19.081,21.005-33.302V278.261v-66.783V99.697
	C300.522,70.2,288.246,41.911,266.396,21.054z"/>
<path style="fill:#E5E5E5;" d="M434.087,434.087h-23.066c0.521-3.637,0.805-7.351,0.805-11.13c0-43.03-34.883-77.913-77.913-77.913
	c-11.952,0-23.269,2.699-33.391,7.509v81.532c0,14.221-8.172,27.176-21.005,33.301L256,478.609l-23.516-11.223
	c-12.833-6.126-21.005-19.081-21.005-33.302v-81.532c-10.122-4.809-21.439-7.509-33.391-7.509c-43.03,0-77.913,34.883-77.913,77.913
	c0,3.78,0.284,7.493,0.805,11.13H77.913c-36.883,0-66.783,29.9-66.783,66.783H500.87C500.87,463.987,470.97,434.087,434.087,434.087
	z"/>
<path style="fill:#FFFE9F;" d="M300.511,434.8c-0.267,13.935-8.37,26.557-20.992,32.59L256,478.609l-23.519-11.219
	c-12.622-6.033-20.725-18.655-20.992-32.59H300.511z"/>
<polygon style="fill:#87DFD6;" points="300.522,434.798 211.478,434.83 211.478,389.565 300.522,389.565 "/>
<path d="M309.771,238.692c-0.401-0.612-0.868-1.18-1.38-1.692s-1.08-0.979-1.692-1.38c-0.601-0.401-1.247-0.746-1.914-1.024
	c-0.679-0.278-1.38-0.49-2.093-0.634c-1.436-0.289-2.905-0.289-4.341,0c-0.712,0.145-1.414,0.356-2.081,0.634
	c-0.679,0.278-1.325,0.623-1.926,1.024c-0.612,0.401-1.18,0.868-1.692,1.38s-0.979,1.08-1.38,1.692
	c-0.401,0.601-0.746,1.247-1.024,1.926c-0.278,0.668-0.501,1.369-0.634,2.081c-0.145,0.712-0.223,1.447-0.223,2.17
	c0,0.723,0.078,1.458,0.223,2.17c0.134,0.712,0.356,1.414,0.634,2.081c0.278,0.679,0.623,1.325,1.024,1.926
	c0.401,0.612,0.868,1.18,1.38,1.692s1.08,0.979,1.692,1.38c0.601,0.401,1.247,0.746,1.926,1.024
	c0.668,0.278,1.369,0.501,2.081,0.646c0.712,0.145,1.447,0.211,2.17,0.211c0.723,0,1.458-0.067,2.17-0.211
	c0.712-0.145,1.414-0.367,2.093-0.646c0.668-0.278,1.313-0.623,1.914-1.024c0.612-0.401,1.18-0.868,1.692-1.38
	s0.979-1.08,1.38-1.692c0.412-0.601,0.746-1.247,1.024-1.926c0.278-0.668,0.501-1.369,0.646-2.081
	c0.145-0.712,0.211-1.447,0.211-2.17c0-0.723-0.067-1.458-0.211-2.17c-0.145-0.712-0.367-1.414-0.646-2.081
	C310.517,239.939,310.183,239.294,309.771,238.692z"/>
<path d="M434.087,422.957h-11.13c0-49.099-39.945-89.043-89.043-89.043c-7.603,0-15.045,0.943-22.261,2.806v-58.458
	c0-6.147-4.983-11.13-11.13-11.13s-11.13,4.983-11.13,11.13v74.291v25.883H222.61l-0.001-278.739
	c0-26.641,10.896-51.708,30.683-70.587L256,26.522l2.712,2.59c19.783,18.876,30.679,43.943,30.679,70.584v111.783
	c0,6.147,4.983,11.13,11.13,11.13s11.13-4.983,11.13-11.13V99.696c0-32.309-13.695-63.907-37.569-86.686l-10.396-9.928
	c-4.302-4.107-11.073-4.107-15.374,0l-10.391,9.925c-23.879,22.783-37.574,54.38-37.574,86.689v237.023
	c-7.216-1.863-14.658-2.806-22.261-2.806c-49.099,0-89.043,39.945-89.043,89.043h-11.13C34.952,422.956,0,457.907,0,500.869
	c0,6.147,4.983,11.13,11.13,11.13H500.87c6.147,0,11.13-4.983,11.13-11.13C512,457.909,477.048,422.957,434.087,422.957z
	 M274.721,457.34L256,466.275l-18.721-8.936c-5.377-2.567-9.593-6.914-12.102-12.123h61.647
	C284.315,450.427,280.098,454.774,274.721,457.34z M289.391,400.696v22.261H222.61v-22.261H289.391z M23.378,489.739
	c5.171-25.371,27.659-44.522,54.535-44.522h23.066c3.227,0,6.295-1.4,8.41-3.839c2.114-2.438,3.065-5.674,2.608-8.869
	c-0.46-3.208-0.692-6.422-0.692-9.553c0-36.824,29.959-66.783,66.783-66.783c7.684,0,15.144,1.276,22.261,3.801v29.59v44.518v0.003
	c0,0.344,0.002,0.701,0.016,1.048c0.009,0.385,0.047,0.764,0.065,1.146c0.027,0.569,0.049,1.139,0.096,1.704
	c0.059,0.732,0.147,1.458,0.238,2.183c0.041,0.322,0.073,0.644,0.121,0.965c2.298,15.727,12.168,29.304,26.805,36.3l22.437,10.703
	l1.081,0.515c0.378,0.18,0.765,0.338,1.156,0.474c0.173,0.059,0.35,0.098,0.523,0.149c0.222,0.065,0.441,0.139,0.666,0.189
	c0.189,0.042,0.382,0.063,0.573,0.097c0.214,0.037,0.425,0.082,0.64,0.107c0.18,0.02,0.362,0.02,0.543,0.031
	c0.224,0.013,0.447,0.038,0.671,0.038h-232.6V489.739z M256.022,489.739c0.224,0,0.446-0.024,0.67-0.038
	c0.181-0.011,0.363-0.011,0.544-0.031c0.214-0.023,0.424-0.07,0.636-0.107c0.193-0.033,0.386-0.055,0.578-0.097
	c0.22-0.05,0.435-0.122,0.652-0.186c0.179-0.051,0.361-0.092,0.536-0.152c0.392-0.136,0.778-0.294,1.155-0.474l1.113-0.531
	l22.411-10.691c14.632-6.993,24.5-20.569,26.799-36.296c0.048-0.321,0.08-0.644,0.121-0.965c0.091-0.725,0.179-1.45,0.238-2.183
	c0.047-0.565,0.069-1.135,0.096-1.704c0.018-0.384,0.057-0.762,0.065-1.146c0.013-0.349,0.016-0.708,0.016-1.051v-0.003v-44.518
	v-29.59c7.117-2.524,14.576-3.801,22.261-3.801c36.824,0,66.783,29.959,66.783,66.783c0,3.131-0.233,6.345-0.692,9.553
	c-0.457,3.194,0.494,6.43,2.608,8.869c2.114,2.439,5.182,3.839,8.41,3.839h23.066c26.876,0,49.362,19.151,54.535,44.522H256.022z"/>
<path d="M244.87,100.174v111.304c0,6.147,4.983,11.13,11.13,11.13s11.13-4.983,11.13-11.13V100.174c0-6.147-4.983-11.13-11.13-11.13
	S244.87,94.027,244.87,100.174z"/>
</svg>