<!DOCTYPE svg PUBLIC "-//W3C//DTD SVG 1.1//EN" "http://www.w3.org/Graphics/SVG/1.1/DTD/svg11.dtd">
<!-- Uploaded to: SVG Repo, www.svgrepo.com, Transformed by: SVG Repo Mixer Tools -->
<svg version="1.1" id="Layer_1" xmlns="http://www.w3.org/2000/svg" xmlns:xlink="http://www.w3.org/1999/xlink" viewBox="0 0 512 512" xml:space="preserve" width="800px" height="800px" fill="#000000">
<g id="SVGRepo_bgCarrier" stroke-width="0"/>
<g id="SVGRepo_tracerCarrier" stroke-linecap="round" stroke-linejoin="round"/>
<g id="SVGRepo_iconCarrier"> <path style="fill:#008cb4;" d="M256,512C120.979,512,11.13,402.152,11.13,267.13S120.979,22.261,256,22.261 s244.87,109.848,244.87,244.87S391.021,512,256,512z M256,66.783c-110.472,0-200.348,89.876-200.348,200.348 S145.528,467.478,256,467.478s200.348-89.876,200.348-200.348S366.472,66.783,256,66.783z"/> <path style="fill:#93C7EF;" d="M256,512v-44.522c110.472,0,200.348-89.876,200.348-200.348S366.472,66.783,256,66.783V22.261 c135.021,0,244.87,109.848,244.87,244.87S391.021,512,256,512z"/> <circle style="fill:#3C5D76;" cx="256" cy="44.522" r="44.522"/> <path style="fill:#1E2E3B;" d="M256,89.043c24.588,0,44.522-19.934,44.522-44.522S280.588,0,256,0"/> <circle style="fill:#3C5D76;" cx="256" cy="267.13" r="96.464"/> <path style="fill:#1E2E3B;" d="M256,170.667c53.276,0,96.464,43.189,96.464,96.464S309.276,363.594,256,363.594"/> <rect x="285.681" y="200.348" style="fill:#3C5D76;" width="74.203" height="44.522"/> <rect x="166.957" y="289.391" style="fill:#5A8BB0;" width="89.043" height="44.522"/> <path style="fill:#008cb4;" d="M256,185.507c45.007,0,81.623,36.616,81.623,81.623S301.007,348.754,256,348.754 s-81.623-36.616-81.623-81.623S210.993,185.507,256,185.507 M256,140.986c-69.668,0-126.145,56.477-126.145,126.145 S186.332,393.275,256,393.275s126.145-56.477,126.145-126.145S325.668,140.986,256,140.986L256,140.986z"/> <path style="fill:#93C7EF;" d="M256,140.986v44.522c45.007,0,81.623,36.616,81.623,81.623S301.007,348.754,256,348.754v44.522 c69.668,0,126.145-56.477,126.145-126.145S325.668,140.986,256,140.986z"/> </g>
</svg>