<?xml version="1.0" encoding="iso-8859-1"?>
<!-- Uploaded to: SVG Repo, www.svgrepo.com, Generator: SVG Repo Mixer Tools -->
<svg version="1.1" id="Layer_1" xmlns="http://www.w3.org/2000/svg" xmlns:xlink="http://www.w3.org/1999/xlink" 
	 viewBox="0 0 409.224 409.224" xml:space="preserve">
<g>
	<g>
		<g>
			
				<rect x="247.309" y="133.773" transform="matrix(-0.7071 0.7071 -0.7071 -0.7071 554.118 59.4153)" style="fill:#1E252B;" width="34.889" height="21.393"/>
			
				<rect x="250.071" y="43.758" transform="matrix(-0.7071 0.7071 -0.7071 -0.7071 609.4896 -74.2499)" style="fill:#333E48;" width="140.104" height="90.693"/>
			
				<rect x="302.529" y="64.879" transform="matrix(-0.7072 0.707 -0.707 -0.7072 597.609 -32.4323)" style="fill:#1E252B;" width="5.982" height="85.297"/>
			
				<rect x="335.552" y="31.856" transform="matrix(-0.7074 0.7068 -0.7068 -0.7074 630.6934 -112.0774)" style="fill:#1E252B;" width="5.985" height="85.296"/>
			
				<rect x="221.82" y="55.459" transform="matrix(-0.7071 0.7071 -0.7071 -0.7071 541.2876 -102.4998)" style="fill:#61B4E4;" width="140.104" height="10.79"/>
		</g>
		<g>
			
				<rect x="127.023" y="254.07" transform="matrix(0.7071 -0.7071 0.7071 0.7071 -144.9034 179.7022)" style="fill:#1E252B;" width="34.89" height="21.391"/>
			
				<rect x="19.05" y="274.781" transform="matrix(0.7071 -0.7071 0.7071 0.7071 -200.2663 156.7677)" style="fill:#333E48;" width="140.104" height="90.692"/>
			
				<rect x="104.531" y="262.866" transform="matrix(0.7074 -0.7068 0.7068 0.7074 -184.4795 165.3902)" style="fill:#1E252B;" width="5.985" height="85.298"/>
			
				<rect x="71.498" y="295.906" transform="matrix(0.7072 -0.707 0.707 0.7072 -217.5498 151.7929)" style="fill:#1E252B;" width="5.987" height="85.298"/>
			
				<rect x="-9.2" y="286.481" transform="matrix(0.7071 -0.7071 0.7071 0.7071 -188.565 128.5177)" style="fill:#61B4E4;" width="140.104" height="10.791"/>
		</g>
		<g>
			<circle style="fill:#C3C6C8;" cx="204.612" cy="204.612" r="77.749"/>
			<path style="fill:#333E48;" d="M228.563,130.627l-97.936,97.936c3.661,11.345,9.999,22.016,19.008,31.025
				c9.01,9.01,19.682,15.345,31.025,19.009l97.936-97.936c-3.662-11.345-9.998-22.015-19.008-31.026
				C250.579,140.627,239.909,134.291,228.563,130.627z"/>
			<path style="fill:#333E48;" d="M149.635,149.636c-14.816,14.814-22.397,34.123-22.756,53.538l76.293-76.293
				C183.758,127.237,164.45,134.819,149.635,149.636z"/>
			<g>
				
					<rect x="197.7" y="217.197" transform="matrix(0.7071 0.7071 -0.7071 0.7071 218.8001 -79.2086)" style="fill:#61B4E4;" width="14.627" height="14.627"/>
				
					<rect x="187.364" y="206.855" transform="matrix(0.7071 0.7071 -0.7071 0.7071 208.4597 -74.9294)" style="fill:#FFFFFF;" width="14.628" height="14.628"/>
				
					<rect x="177.016" y="196.49" transform="matrix(0.7071 0.7072 -0.7072 0.7071 198.1204 -70.647)" style="fill:#005CB9;" width="14.628" height="14.63"/>
				
					<rect x="187.371" y="227.543" transform="matrix(0.7071 0.7071 -0.7071 0.7071 223.0896 -68.8755)" style="fill:#FFFFFF;" width="14.628" height="14.625"/>
				
					<rect x="177.027" y="217.199" transform="matrix(0.7071 0.7071 -0.7071 0.7071 212.7461 -64.5907)" style="fill:#005CB9;" width="14.628" height="14.626"/>
				
					<rect x="166.665" y="206.854" transform="matrix(0.7071 0.7071 -0.7071 0.7071 202.3956 -60.2931)" style="fill:#61B4E4;" width="14.627" height="14.626"/>
				
					<rect x="177.008" y="237.881" transform="matrix(0.7071 0.7071 -0.7071 0.7071 227.3658 -58.5189)" style="fill:#61B4E4;" width="14.627" height="14.629"/>
				
					<rect x="166.685" y="227.541" transform="matrix(0.7071 0.7071 -0.7071 0.7071 217.0305 -54.2482)" style="fill:#FFFFFF;" width="14.628" height="14.628"/>
				
					<rect x="156.333" y="217.177" transform="matrix(0.7071 0.7072 -0.7072 0.7071 206.6895 -49.9598)" style="fill:#005CB9;" width="14.626" height="14.629"/>
			</g>
			<circle style="fill:#FEE050;" cx="214.695" cy="177.074" r="9.874"/>
		</g>
	</g>
	<path style="fill:#071C2C;" d="M407.026,66.327l-64.129-64.13C341.491,0.79,339.583,0,337.594,0s-3.897,0.79-5.303,2.197
		l-99.068,99.069c-2.929,2.929-2.929,7.678,0,10.606l19.197,19.198l-1.78,1.78c-13.61-8.768-29.453-13.487-46.029-13.487
		c-22.771,0-44.179,8.868-60.279,24.969c-16.102,16.101-24.97,37.509-24.97,60.28c0,16.576,4.72,32.418,13.488,46.028l-1.779,1.779
		l-19.198-19.198c-2.929-2.929-7.678-2.929-10.606,0l-99.07,99.07c-2.929,2.929-2.929,7.678,0,10.606l64.129,64.13
		c1.406,1.407,3.314,2.197,5.303,2.197s3.897-0.79,5.303-2.197l99.07-99.069c1.407-1.406,2.197-3.314,2.197-5.303
		s-0.79-3.897-2.197-5.303l-19.2-19.2l1.779-1.779c13.609,8.767,29.451,13.487,46.028,13.488h0.007
		c22.767,0,44.173-8.868,60.274-24.97c28.822-28.823,32.633-73.31,11.47-106.297l1.791-1.791l19.199,19.199
		c1.406,1.407,3.314,2.197,5.303,2.197s3.897-0.79,5.303-2.197l99.068-99.069C409.956,74.004,409.956,69.255,407.026,66.327z
		 M230.508,139.29c8.8,3.486,16.883,8.754,23.777,15.648c7.002,7.002,12.202,15.13,15.624,23.804l-40.514,40.515
		c-0.729-1.951-1.863-3.785-3.432-5.354l-11.971-11.972c0.234,0.006,0.468,0.017,0.704,0.017c6.644,0,12.89-2.587,17.588-7.285
		c4.699-4.698,7.286-10.945,7.286-17.589c0-6.644-2.587-12.89-7.285-17.588c-4.045-4.044-9.238-6.519-14.842-7.131L230.508,139.29z
		 M221.677,170.092c3.856,3.856,3.856,10.107,0,13.963c-1.928,1.928-4.455,2.892-6.982,2.892c-2.526,0-5.053-0.964-6.982-2.892
		c-3.855-3.856-3.855-10.107,0.001-13.963c1.929-1.928,4.456-2.892,6.982-2.892S219.749,168.165,221.677,170.092z M154.939,154.939
		c7.498-7.499,16.394-13.09,26.099-16.538l-0.004,0.012l-42.621,42.621l-0.006-0.015
		C141.855,171.321,147.445,162.432,154.939,154.939z M206.256,134.403c2.482,0.057,4.942,0.241,7.375,0.55l-78.677,78.678
		c-0.31-2.432-0.494-4.892-0.551-7.375L206.256,134.403z M160.093,302.655l-22.417,22.417l-51.152-51.153l-10.606,10.606
		l51.152,51.153l-22.417,22.417l-51.152-51.152l-10.606,10.606l51.151,51.152l-22.417,22.417l-53.522-53.523l88.463-88.462
		L160.093,302.655z M178.716,269.935c-8.801-3.487-16.883-8.755-23.778-15.65c-6.895-6.895-12.163-14.977-15.649-23.777l0.188-0.188
		c0.731,1.742,1.799,3.376,3.217,4.794l31.027,31.028c1.532,1.532,3.368,2.684,5.359,3.428L178.716,269.935z M153.3,224.508
		l31.027-31.029l31.028,31.029l-31.028,31.028L153.3,224.508z M274.522,211.13c-0.225-0.306-0.467-0.604-0.744-0.881
		c-2.946-2.948-7.727-2.947-10.672,0c-2.947,2.948-2.947,7.726,0,10.673c2.609,2.609,6.65,2.904,9.589,0.894
		c-2.987,11.905-9.117,23.177-18.41,32.47c-13.27,13.27-30.907,20.577-49.668,20.576h-0.006c-3.042,0-6.048-0.212-9.017-0.591
		l78.643-78.644C274.896,200.77,274.999,205.97,274.522,211.13z M368.701,94.046l-51.152-51.152L306.942,53.5l51.152,51.152
		l-22.417,22.417l-51.153-51.152l-10.606,10.606l51.153,51.152l-22.417,22.417l-53.522-53.523l88.462-88.463l53.522,53.523
		L368.701,94.046z M214.903,258.451c-2.949,2.947-2.947,7.726,0,10.673s7.725,2.947,10.672,0.001c2.948-2.947,2.948-7.726,0-10.674
		C222.627,255.504,217.85,255.504,214.903,258.451z M239.002,234.349c-2.947,2.947-2.946,7.728,0,10.673
		c2.949,2.949,7.727,2.949,10.674,0.001c2.947-2.947,2.947-7.725,0-10.673C246.729,231.402,241.951,231.403,239.002,234.349z"/>
</g>
</svg>