<!DOCTYPE svg PUBLIC "-//W3C//DTD SVG 1.1//EN" "http://www.w3.org/Graphics/SVG/1.1/DTD/svg11.dtd">
<!-- Uploaded to: SVG Repo, www.svgrepo.com, Transformed by: SVG Repo Mixer Tools -->
<svg height="800px" width="800px" version="1.1" id="Layer_1" xmlns="http://www.w3.org/2000/svg" xmlns:xlink="http://www.w3.org/1999/xlink" viewBox="0 0 512 512" xml:space="preserve" fill="#000000">
<g id="SVGRepo_bgCarrier" stroke-width="0"/>
<g id="SVGRepo_tracerCarrier" stroke-linecap="round" stroke-linejoin="round"/>
<g id="SVGRepo_iconCarrier"> <path style="fill:#0061ff;" d="M192.719,0c-5.875,0-10.656,4.781-10.656,10.656V64h21.312V10.656C203.375,4.781,198.625,0,192.719,0 z"/> <path style="fill:#929292;" d="M160.719,480v21.344c0,5.875,4.781,10.656,10.656,10.656h42.688l0,0 c5.875,0,10.656-4.781,10.656-10.656V480H160.719z"/> <g> <path style="fill:#0061ff;" d="M298.938,474l-74.219-111.344v128h65.406c5.875,0,10.656-4.766,10.656-10.656 C300.781,477.781,300.094,475.719,298.938,474z"/> <path style="fill:#0061ff;" d="M84.625,480c0,5.891,4.781,10.656,10.688,10.656h65.406v-128L86.469,474 C85.312,475.719,84.625,477.781,84.625,480z"/> </g> <g> <polygon style="fill:#656D78;" points="424.469,407.984 409.406,392.906 323.625,478.688 338.719,493.766 "/> <polygon style="fill:#656D78;" points="409.406,493.766 424.469,478.688 338.688,392.906 323.625,407.984 "/> <polygon style="fill:#656D78;" points="424.469,314.312 409.406,299.234 323.625,385.016 338.719,400.094 "/> <polygon style="fill:#656D78;" points="409.406,400.094 424.469,385.016 338.688,299.234 323.625,314.312 "/> <polygon style="fill:#656D78;" points="424.469,220.656 409.406,205.562 323.625,291.344 338.719,306.438 "/> <polygon style="fill:#656D78;" points="409.406,306.438 424.469,291.344 338.688,205.562 323.625,220.656 "/> <polygon style="fill:#656D78;" points="424.469,126.984 409.406,111.906 323.625,197.688 338.719,212.766 "/> <polygon style="fill:#656D78;" points="409.406,212.766 424.469,197.688 338.688,111.906 323.625,126.984 "/> <polygon style="fill:#656D78;" points="424.469,33.312 409.406,18.234 323.625,104.016 338.719,119.094 "/> <polygon style="fill:#656D78;" points="409.406,119.094 424.469,104.016 338.688,18.234 323.625,33.312 "/> </g> <path style="fill:#0042aa;" d="M224.719,121.906V85.344c0-17.688-14.312-32-32-32c-17.656,0-32,14.312-32,32v36.562l-21.344,77.203 v291.547h106.688V199.109L224.719,121.906z"/> <g> <path style="fill:#929292;" d="M203.375,309.344c0,5.875-4.75,10.656-10.656,10.656c-5.875,0-10.656-4.781-10.656-10.656 c0-5.906,4.781-10.688,10.656-10.688C198.625,298.656,203.375,303.438,203.375,309.344z"/> <path style="fill:#929292;" d="M203.375,352c0,5.891-4.75,10.656-10.656,10.656c-5.875,0-10.656-4.766-10.656-10.656 s4.781-10.656,10.656-10.656C198.625,341.344,203.375,346.109,203.375,352z"/> <path style="fill:#929292;" d="M203.375,266.656c0,5.906-4.75,10.688-10.656,10.688c-5.875,0-10.656-4.781-10.656-10.688 c0-5.875,4.781-10.656,10.656-10.656C198.625,256,203.375,260.781,203.375,266.656z"/> <path style="fill:#929292;" d="M416.719,0L416.719,0h-192c-5.906,0-10.656,4.781-10.656,10.656c0,5.906,4.75,10.688,10.656,10.688 h96V512h10.656h10.688h64h18.406h2.906V10.656C427.375,4.781,422.594,0,416.719,0z M406.062,490.656h-64V21.344h64V490.656z"/> </g> <g> <polygon style="fill:#3a88fe;" points="139.375,199.109 139.375,213.344 246.062,213.344 246.062,199.109 244.094,192 141.344,192 "/> <polygon style="fill:#3a88fe;" points="229.344,138.656 224.719,121.906 224.719,117.344 160.719,117.344 160.719,121.906 156.094,138.656 "/> </g> <path style="fill:#0061ff;" d="M192.719,394.656c-5.875,0-10.656,4.781-10.656,10.688V480c0,5.891,4.781,10.656,10.656,10.656 c5.906,0,10.656-4.766,10.656-10.656v-74.656C203.375,399.438,198.625,394.656,192.719,394.656z"/> </g>
</svg>