<?xml version="1.0" encoding="iso-8859-1"?>
<!-- Uploaded to: SVG Repo, www.svgrepo.com, Generator: SVG Repo Mixer Tools -->
<svg version="1.1" id="Layer_1" xmlns="http://www.w3.org/2000/svg" xmlns:xlink="http://www.w3.org/1999/xlink" 
	 viewBox="0 0 512 512" xml:space="preserve">
<rect x="20.757" y="166.054" style="fill:#78B9EB;" width="207.568" height="179.892"/>
<rect x="283.676" y="166.054" style="fill:#5A8BB0;" width="207.568" height="179.892"/>
<path style="fill:#1E2E3B;" d="M269.838,152.216v207.568H512V152.216H269.838z M311.351,276.757h58.811v41.513h-58.811V276.757z
	 M411.676,276.757h58.811v41.513h-58.811V276.757z M470.487,235.243h-58.811V193.73h58.811V235.243z M370.162,235.243h-58.811
	V193.73h58.811V235.243z"/>
<path style="fill:#3C5D76;" d="M0,152.216v207.568h242.162V152.216H0z M100.324,318.27H41.514v-41.513h58.811V318.27z
	 M100.324,235.243H41.514V193.73h58.811V235.243z M200.649,318.27h-58.811v-41.513h58.811V318.27z M200.649,235.243h-58.811V193.73
	h58.811V235.243z"/>
<rect x="235.243" y="27.676" style="fill:#1E2E3B;" width="41.514" height="401.297"/>
<path style="fill:#BFE4F8;" d="M311.351,387.459V124.541c0-30.571-24.782-55.351-55.351-55.351s-55.351,24.781-55.351,55.351
	v262.919H311.351z"/>
<path style="fill:#93C7EF;" d="M311.351,387.459V124.541c0-30.571-24.782-55.351-55.351-55.351c0,63.654,0,318.27,0,318.27H311.351z
	"/>
<path style="fill:#3C5D76;" d="M311.351,484.324c0,0-19.687-83.027-55.351-83.027s-64.577,28.911-64.577,64.576v18.451H311.351z"/>
<path style="fill:#1E2E3B;" d="M320.576,484.324v-18.451c0-35.664-28.911-64.576-64.576-64.576c0,37.362,0,83.027,0,83.027H320.576z
	"/>
</svg>